<svg width="300" height="300" viewBox="0 0 300 300" fill="none" xmlns="http://www.w3.org/2000/svg">
<path fill-rule="evenodd" clip-rule="evenodd" d="M132.119 53.8631C125.771 58.7031 120.455 64.7151 116.443 71.5591C109.87 70.2471 102.787 69.9679 95.6151 70.9951C97.4151 63.1751 101.103 55.8151 106.431 49.6671C107.671 48.2431 109.507 47.4791 111.391 47.6151C118.723 48.1351 125.803 50.3071 132.119 53.8631ZM149.999 90.7151C156.35 83.6975 163.78 78.5635 171.683 75.2111C166.979 68.1591 160.475 62.3631 152.683 58.4671C150.995 57.6231 149.003 57.6231 147.315 58.4671C139.523 62.3631 133.019 68.1591 128.315 75.2111C136.218 78.5635 143.648 83.6979 149.999 90.7151ZM188.259 149.999C193.739 147.267 198.767 143.659 203.151 139.275C216.379 126.043 221.011 106.471 215.087 88.7031C214.491 86.9151 213.083 85.5071 211.295 84.9111C193.543 78.9951 173.967 83.6071 160.723 96.8471C156.339 101.231 152.727 106.259 149.999 111.743C147.271 106.259 143.659 101.231 139.275 96.8471C126.043 83.6191 106.471 78.9871 88.7031 84.9111C86.9111 85.5071 85.5071 86.9151 84.9111 88.7031C78.9951 106.455 83.6071 126.031 96.8471 139.275C101.227 143.655 106.259 147.267 111.739 149.999C106.259 152.731 101.231 156.339 96.8471 160.723C83.6191 173.955 78.9871 193.527 84.9111 211.295C85.5071 213.083 86.9151 214.491 88.7031 215.087C106.455 221.003 126.031 216.391 139.275 203.151C143.659 198.767 147.271 193.739 149.999 188.255C152.727 193.739 156.339 198.767 160.723 203.151C174.027 216.455 193.623 220.979 211.295 215.087C213.087 214.491 214.491 213.083 215.087 211.295C221.003 193.543 216.391 173.967 203.151 160.723C198.771 156.343 193.739 152.731 188.259 149.999ZM239.367 152.683C235.775 159.867 230.571 165.951 224.255 170.547C220.861 162.978 215.895 155.983 209.283 149.999C215.626 144.259 220.715 137.348 224.251 129.447C230.567 134.043 235.775 140.131 239.367 147.315C240.211 149.003 240.211 150.995 239.367 152.683ZM75.7471 170.551C79.2835 162.65 84.3723 155.739 90.7151 149.999C84.1039 144.016 79.1371 137.019 75.7431 129.451C69.4271 134.047 64.2231 140.131 60.6311 147.315C59.7871 149.003 59.7871 150.995 60.6311 152.683C64.2231 159.867 69.4311 165.955 75.7471 170.551ZM171.763 224.819C167.087 231.627 160.719 237.227 153.123 241.027C151.476 241.847 149.498 241.893 147.759 241.027C140.055 237.175 133.611 231.467 128.919 224.523C136.87 221.052 144.01 215.901 149.999 209.283C156.36 216.312 163.814 221.456 171.763 224.819ZM250.331 195.915C244.079 201.335 236.571 205.055 228.603 206.819C230.095 198.755 229.959 190.459 228.175 182.395C234.423 178.419 239.919 173.323 244.379 167.335C248.975 174.343 251.779 182.483 252.383 190.955C252.519 192.839 251.755 194.675 250.331 195.915ZM193.567 250.331C198.899 244.183 202.583 236.819 204.383 228.999C197.545 229.988 190.454 229.797 183.683 228.459C179.587 235.291 174.183 241.271 167.747 246.063C174.095 249.663 181.227 251.859 188.607 252.383C188.751 252.395 188.891 252.399 189.035 252.399C190.767 252.399 192.423 251.651 193.567 250.331ZM111.391 252.383C118.971 251.843 126.283 249.543 132.755 245.775C126.435 240.999 121.131 235.067 117.103 228.307C110.131 229.77 102.779 230.039 95.6151 229.003C97.4151 236.823 101.103 244.183 106.431 250.331C107.575 251.651 109.231 252.399 110.963 252.399C111.107 252.399 111.247 252.395 111.391 252.383ZM204.383 70.9951C197.212 69.9679 190.129 70.2471 183.555 71.5591C179.543 64.7151 174.227 58.7031 167.879 53.8631C174.195 50.3071 181.275 48.1351 188.607 47.6151C190.491 47.4791 192.327 48.2431 193.567 49.6671C198.895 55.8151 202.583 63.1751 204.383 70.9951ZM49.6671 196.663C55.9591 202.119 63.5191 205.851 71.5471 207.599C69.8951 199.291 69.9831 190.715 71.8271 182.395C65.6991 178.499 60.2951 173.527 55.8831 167.687C51.1311 174.783 48.2271 183.071 47.6151 191.703C47.4791 193.587 48.2431 195.423 49.6671 196.663ZM252.383 109.043C251.779 117.515 248.975 125.655 244.379 132.663C239.919 126.671 234.423 121.579 228.171 117.603C229.955 109.543 230.095 101.243 228.603 93.1791C236.571 94.9431 244.079 98.6631 250.331 104.083C251.755 105.323 252.519 107.159 252.383 109.043ZM55.6191 132.663C60.0791 126.675 65.5751 121.579 71.8231 117.603C70.0391 109.539 69.9071 101.239 71.3951 93.1791C63.4271 94.9431 55.9191 98.6631 49.6671 104.083C48.2431 105.323 47.4791 107.159 47.6151 109.043C48.2191 117.515 51.0231 125.655 55.6191 132.663ZM131.999 149.999C131.999 140.075 140.075 131.999 149.999 131.999C159.923 131.999 167.999 140.075 167.999 149.999C167.999 159.923 159.923 167.999 149.999 167.999C140.075 167.999 131.999 159.923 131.999 149.999ZM143.999 149.999C143.999 153.311 146.687 155.999 149.999 155.999C153.311 155.999 155.999 153.311 155.999 149.999C155.999 146.687 153.311 143.999 149.999 143.999C146.687 143.999 143.999 146.687 143.999 149.999Z" fill="#F9FAFB"/>
<path d="M103.322 240.67C96.1982 240.726 90.5984 241.043 85.8573 241.711C74.4583 243.318 67.681 247.092 64.6789 254.211C63.1464 257.844 63.8844 260.985 66.6986 263.431C69.1147 265.531 73.0455 267.119 78.3958 268.282L78.6945 268.346C87.8475 270.289 100.843 270.992 117.323 270.744L118.337 270.728C126.079 270.595 134.017 270.277 143.572 269.763L153.085 269.224C156.427 269.031 159.871 268.833 161.097 268.768L162.754 268.682C166.276 268.507 168.545 268.442 169.946 268.485L171.517 268.545C194.228 269.377 211.951 268.241 223.354 265.564C228.555 264.343 232.276 262.828 234.357 261.105C236.611 259.239 237 256.993 235.329 255.009C230.117 248.82 221.562 245.324 207.739 243.46L207.025 243.366C195.541 241.876 181.257 241.418 154.114 241.4L150.208 241.396C144.926 241.381 139.869 241.308 133.157 241.165L116.646 240.789C111.704 240.686 108.924 240.654 105.827 240.659L103.322 240.67Z" fill="white"/>
<ellipse cx="150.125" cy="260.896" rx="85.2307" ry="8.89646" fill="#F9FAFB"/>
<path fill-rule="evenodd" clip-rule="evenodd" d="M167.608 197.729C169.155 198.001 170.215 196.49 172.61 191.45L172.787 191.084L172.961 190.735C175.817 185.12 179.119 183.33 182.868 185.366L184.372 180.926L183.867 180.693L183.381 180.474C175.598 176.997 171.395 176.785 170.771 179.84L170.709 180.174L170.657 180.443C170.2 182.772 169.083 187.257 168.275 191.075L168.139 191.726C167.465 194.999 167.07 197.634 167.608 197.729Z" fill="white"/>
<path fill-rule="evenodd" clip-rule="evenodd" d="M151.034 152.696C151.034 152.696 162.412 154.204 168.167 153.943C173.922 153.682 182.337 151.275 182.337 151.275L182.137 158.542C182.137 158.542 208.984 158 204.93 179.992C202.259 194.477 181.828 188.521 181.828 188.521L185.736 179.992C185.736 179.992 197.991 180.879 193.528 177.15C192.7 176.458 187.408 175.504 180.443 175.69C174.462 175.85 169.265 174.058 168.725 172.449C166.698 166.417 169.641 163.243 169.641 163.243C169.641 163.243 166.794 164.629 167.334 167.999C167.874 171.368 163.895 240.353 163.895 240.353C163.895 240.353 160.296 240.991 158.486 240.991C156.675 240.991 154.184 240.353 154.184 240.353L151.034 152.696Z" fill="white"/>
<path fill-rule="evenodd" clip-rule="evenodd" d="M151.034 152.697C151.034 152.697 157.036 240.923 156.2 240.784C155.57 240.68 154.184 240.353 154.184 240.353L151.034 152.697Z" fill="#F9FAFB"/>
<path fill-rule="evenodd" clip-rule="evenodd" d="M155.976 241.713C156.371 245.184 155.633 246.575 155.731 246.575C157.339 246.575 158.299 246.544 160.879 246.343C160.879 246.343 160.735 244.848 160.735 244.144C160.735 243.304 160.879 241.713 160.879 241.713H155.976Z" fill="white"/>
<path d="M152 72.4179C152 72.4179 146 74.671 146 70.4299C146 66.1887 150.629 68.3029 150.629 68.3029" fill="white"/>
<path d="M178.4 72.8609C179.66 73.1412 183.6 75.5985 183.6 69.6487C183.6 66.8092 179.101 68.8601 179.101 68.8601" fill="white"/>
<path d="M164.082 48.0464C159.125 48.5273 148.736 53.2409 150.628 66.7078C152.094 77.1473 159.902 88.4 164.7 88.4C169.411 88.4 177.343 78.9272 178.494 69.6007C180.846 50.5539 169.039 47.5656 164.082 48.0464Z" fill="white"/>
<path fill-rule="evenodd" clip-rule="evenodd" d="M164.265 57.6826C164.529 57.0712 165.38 57.0304 165.701 57.6139C167.337 60.5899 169.169 62.6637 171.185 63.8509C173.221 65.0496 175.623 65.1679 178.073 64.0693C178.476 63.8885 178.95 64.0688 179.13 64.4719C179.311 64.8751 179.131 65.3485 178.728 65.5292C175.808 66.8386 172.859 66.6933 170.373 65.2296C168.436 64.0888 166.691 62.276 165.131 59.8005L165.074 59.7084L165.023 59.8085C163.763 62.2001 162.138 64.1101 160.148 65.5291L159.948 65.6693C157.442 67.3935 154.502 68.1601 151.155 67.9712C150.714 67.9463 150.377 67.5686 150.402 67.1274C150.427 66.6863 150.804 66.3489 151.245 66.3738C154.248 66.5432 156.836 65.8683 159.041 64.3513C161.266 62.8198 163.007 60.6029 164.265 57.6826Z" fill="#F9FAFB"/>
<path fill-rule="evenodd" clip-rule="evenodd" d="M189.851 134.311C189.369 143.39 185.976 147.242 181.737 147.795C181.174 147.868 181.963 151.104 181.472 151.528C178.678 153.945 173.753 154.049 166.03 154.119C159.039 154.183 154.53 153.618 151.397 152.334C151.157 152.236 151.373 148.164 151.125 148.142C147.2 147.795 142.678 144.311 141.579 134.837C137.859 102.76 149.048 96.5609 159.697 91.4502C160.274 91.1729 160.588 90.69 161.162 90.4154C162.373 89.8361 162.057 91.1693 164.809 91.1693C167.561 91.1693 167.561 90.1244 168.8 90.7165C169.262 90.9374 169.339 92.3172 169.799 92.5601C180.696 98.3103 191.185 109.219 189.851 134.311Z" fill="white"/>
<path fill-rule="evenodd" clip-rule="evenodd" d="M169.799 92.5586C184.19 97.7664 190.874 111.683 189.851 134.309C188.626 161.437 157.815 137.152 168.087 113.782C170.534 108.214 173.749 131.788 173.784 131.888C174.603 134.206 177.106 136.003 179.636 136.965C179.636 136.965 180.769 120.625 178.8 112.921C176.948 105.675 169.799 92.5586 169.799 92.5586Z" fill="white"/>
<path fill-rule="evenodd" clip-rule="evenodd" d="M160.533 87.1992C160.533 87.1992 160.937 88.4115 160.797 89.1607C160.656 89.9098 159.798 91.1221 159.798 91.1221C159.798 91.1221 135.908 98.4091 141.441 134.776C147.595 161.15 169.169 143.999 165.426 122.969C165.27 107.353 161.735 112.64 159.079 129.848C158.43 134.057 150.446 135.253 150.446 135.253" fill="white"/>
<ellipse cx="171.801" cy="76.9992" rx="2.2" ry="1.8" fill="url(#paint0_linear_6064_81297)"/>
<ellipse cx="158.6" cy="76.9992" rx="2.2" ry="1.8" fill="url(#paint1_linear_6064_81297)"/>
<path d="M160.819 79.4284C160.914 78.9969 162.884 79.3356 163.438 80.0723L163.609 80.3007C164.125 80.985 164.44 81.2008 165.106 81.2008C165.957 81.2008 166.246 81.0482 166.73 80.4147L166.859 80.2409C167.421 79.4717 169.402 78.9132 169.553 79.3286C169.703 79.7441 169.488 80.2028 169.073 80.3531C168.761 80.4658 168.584 80.6135 168.28 81.0115L168.138 81.2034C167.307 82.3404 166.617 82.8008 165.106 82.8008C163.879 82.8008 163.168 82.3413 162.41 81.3669L162.159 81.034L162.046 80.8865C161.796 80.5701 161.643 80.4422 161.466 80.3917L161.428 80.382C160.996 80.2868 160.724 79.8598 160.819 79.4284Z" fill="#018A08"/>
<path d="M162.373 67.5337C161.42 67.2421 160.551 67.1586 160.049 67.2196C159.508 67.2852 158.824 67.5641 158.194 67.8213C157.688 68.0273 157.217 68.2195 156.881 68.2772C156.546 68.3346 156.045 68.316 155.556 68.2978C154.938 68.2748 154.34 68.2526 154.127 68.3856C153.745 68.624 154.315 69.009 154.649 69.0532C155.801 69.2057 156.641 69.242 157.197 69.153C157.69 69.0741 158.136 68.9376 158.741 68.7054L159.372 68.4651C159.792 68.3089 159.901 68.2837 160.049 68.2803L160.153 68.2806C160.576 68.2911 161.2 68.4179 162.008 68.6652C162.329 68.7634 162.671 68.5897 162.772 68.2772C162.873 67.9648 162.694 67.6319 162.373 67.5337Z" fill="#018A08"/>
<path d="M164.732 76.1185C165.183 74.8002 165.445 68.306 164.948 68.3009C164.451 68.2957 164.044 68.6944 164.038 69.1914C164.031 69.8903 164.035 70.5606 164.04 71.1891C164.052 73.0753 164.062 74.5845 163.747 75.3559L163.679 75.5152C163.272 76.5262 163.158 77.3866 164.247 77.5879C164.897 77.7081 167.816 76.0523 167.648 75.5846C167.48 75.1168 166.964 74.8739 166.496 75.0421L166.374 75.0857C166.096 75.1831 165.733 75.487 165.406 75.7607C165.115 76.0038 164.854 76.2229 164.705 76.2522L164.682 76.2564L164.732 76.1185Z" fill="#018A08"/>
<path d="M168.427 67.5337C169.38 67.2421 170.249 67.1586 170.752 67.2196C171.292 67.2852 171.976 67.5641 172.607 67.8214C173.112 68.0273 173.583 68.2195 173.92 68.2772C174.254 68.3346 174.756 68.316 175.245 68.2978C175.863 68.2748 176.46 68.2526 176.673 68.3856C177.055 68.624 176.485 69.009 176.152 69.0532C174.999 69.2057 174.16 69.242 173.603 69.153C173.11 69.0741 172.665 68.9376 172.06 68.7054L171.428 68.4651C171.008 68.3089 170.9 68.2837 170.752 68.2803L170.647 68.2806C170.225 68.2911 169.601 68.4179 168.792 68.6652C168.471 68.7634 168.129 68.5897 168.028 68.2772C167.927 67.9648 168.106 67.6319 168.427 67.5337Z" fill="#018A08"/>
<path d="M173.577 72.0559C173.828 71.6271 173.684 71.0757 173.255 70.8244C173.104 70.7357 172.984 70.904 172.802 71.159C172.469 71.6272 171.926 72.3875 170.6 72.3875C169.264 72.3875 168.716 71.62 168.382 71.1531C168.205 70.9043 168.088 70.7408 167.945 70.8244C167.516 71.0757 167.373 71.6271 167.624 72.0559C168.258 73.1379 169.29 73.7008 170.6 73.7008C171.911 73.7008 172.943 73.1379 173.577 72.0559Z" fill="#018A08"/>
<path d="M162.087 70.8442C162.505 71.1134 162.626 71.6703 162.357 72.0882C161.668 73.158 160.567 73.7008 159.166 73.7008C157.756 73.7008 156.666 73.148 156.024 72.057C155.772 71.6286 155.676 71.0505 156.344 70.825C156.636 70.7265 156.932 71.0116 157.298 71.3638C157.769 71.8177 158.356 72.3832 159.2 72.3832C160.797 72.3832 161.362 71.5831 161.684 71.1266C161.847 70.8968 161.948 70.7541 162.087 70.8442Z" fill="#018A08"/>
<path fill-rule="evenodd" clip-rule="evenodd" d="M164.938 29.789C159.895 30.6885 156.033 34.5094 155.278 40.154C155.242 40.4224 155.219 40.6841 155.208 40.9392C154.333 41.2133 151.745 42.049 151.816 42.31C151.882 42.5529 154.178 42.007 155.213 41.7477C155.363 44.2226 156.761 45.9968 159.117 47.0823C159.716 47.3585 160.361 47.5854 161.046 47.7683C158.611 48.5351 156.123 49.938 154.156 51.8655C150.524 55.4271 148.84 60.4505 149.736 66.8338C149.745 66.8914 149.753 66.949 149.761 67.0067C146.863 66.114 145.1 67.2986 145.1 70.4311C145.1 73.5736 149.695 75.3398 151.639 74.0621C153.598 79.2499 156.649 84.046 159.716 86.8224C159.623 87.0233 159.604 87.2588 159.679 87.4854C159.904 88.1612 159.973 88.6712 159.912 88.9964L159.899 89.0559C159.83 89.3422 159.631 89.7507 159.296 90.2614L159.232 90.3572L159.045 90.4161C142.985 95.5738 136.84 110.52 140.551 134.913L140.564 134.982L140.632 135.271C142.423 142.688 145.812 147.016 150.034 148.137C150.033 148.157 150.033 148.178 150.034 148.198C150.772 173.183 151.417 193.09 151.969 207.921L152.169 213.187L152.369 218.179C152.652 225.04 152.905 230.315 153.13 234.006L153.274 236.271C153.521 239.977 153.665 240.793 154.194 241.167L154.245 241.201L154.285 241.225C154.399 241.291 154.539 241.35 154.706 241.402C154.51 241.402 154.312 241.401 154.114 241.401L150.208 241.398C144.926 241.382 139.869 241.31 133.157 241.167L116.646 240.791C111.704 240.688 108.924 240.656 105.827 240.66L103.322 240.671C96.1982 240.728 90.5984 241.045 85.8573 241.713C74.4583 243.32 67.681 247.094 64.6789 254.212C63.1464 257.846 63.8844 260.987 66.6986 263.433C69.1147 265.533 73.0455 267.121 78.3958 268.283L78.6945 268.347C87.8475 270.29 100.843 270.993 117.323 270.746L118.337 270.73C126.079 270.597 134.017 270.279 143.572 269.765L153.085 269.226C156.427 269.033 159.871 268.835 161.097 268.77L162.754 268.684C166.276 268.509 168.545 268.444 169.946 268.487L171.517 268.547C194.228 269.378 211.951 268.243 223.354 265.565C228.555 264.344 232.276 262.83 234.357 261.107C236.611 259.24 237 256.994 235.329 255.011C230.117 248.822 221.562 245.326 207.739 243.462L207.025 243.367C197.123 242.083 185.139 241.565 164.624 241.435L164.737 241.428C165.247 241.393 165.649 240.98 165.668 240.469L167.153 198.835C167.194 198.836 167.237 198.835 167.282 198.832C169.221 198.699 170.534 197.5 172.927 192.992L173.211 192.45L173.537 191.82C174.12 190.742 175.669 189.07 176.997 187.636L176.997 187.635C177.869 186.694 178.645 185.856 178.99 185.357C179.705 185.497 180.745 185.607 182.108 185.687L182.279 185.696L181.197 188.323L181.176 188.379C181.041 188.791 181.26 189.241 181.676 189.384C195.95 194.293 203.71 190.462 205.714 180.146C208.573 165.434 200.837 158.042 183.009 158.23L183.29 148.812C184.386 148.658 185.412 148.217 186.331 147.47C188.934 145.358 190.451 140.98 190.751 134.351C191.769 111.83 185.195 97.6514 170.986 92.0461L170.502 91.86L170.456 91.7329C170.206 91.0248 170.039 90.4513 169.954 90.0197L169.935 89.9226C169.846 89.4165 169.846 88.5705 169.946 87.4128C169.958 87.2687 169.936 87.1295 169.886 87.0037C173.386 84.1714 176.803 79.0832 178.47 73.8207L178.513 73.8353C178.53 73.8413 178.548 73.8476 178.567 73.8542L179.334 74.1272C179.839 74.2968 180.26 74.406 180.692 74.4627C183.06 74.7737 184.5 73.2305 184.5 69.6495C184.5 68.296 183.849 67.3596 182.631 67.1461C181.834 67.0065 180.834 67.1911 179.592 67.6752C180.184 59.8915 178.361 54.3239 174.644 50.8444C173.243 49.5336 171.605 48.5732 169.903 47.9528C171.485 47.5298 173.069 46.8138 174.301 45.8342C177.128 43.5865 178.019 40.2059 176.398 35.8155L181.91 34.5856L181.954 34.5703C182.139 34.4938 182.185 34.0346 182.185 33.6916C182.185 33.3486 181.904 32.9557 181.691 33.016L176.052 34.9583C174.238 30.9312 169.667 28.9454 164.938 29.789ZM156.337 242.604L156.607 242.604C157.906 242.607 159.174 242.612 160.413 242.62C160.318 243.707 160.295 245.031 160.389 246.001H156.623C156.586 245.225 156.489 243.791 156.337 242.604ZM155.233 242.603C155.146 243.289 155.077 244.063 155.014 244.759C154.964 245.305 154.919 245.803 154.874 246.172C154.843 246.197 154.814 246.223 154.787 246.252C152.681 248.489 150.502 249.946 148.251 250.636L147.884 250.746C145.959 251.308 142.354 252.196 142.426 252.175C140.855 252.623 140.094 253.139 139.826 254.217C139.386 255.991 141.181 256.77 145.837 256.8L146.192 256.801C146.956 256.8 147.631 256.722 149.117 256.487L150.273 256.302C151.439 256.121 152.129 256.044 152.76 256.038L153.034 256.039C153.365 256.048 153.708 256.082 154.457 256.178L155.372 256.297C155.901 256.365 156.275 256.406 156.671 256.439C158.308 256.574 159.558 256.461 160.605 255.958C163.315 254.658 163.645 251.424 161.871 246.528C161.869 246.523 161.867 246.517 161.864 246.511C161.874 246.457 161.878 246.401 161.878 246.344V242.632C184.505 242.831 197.111 244.047 207.472 245.444L208.268 245.554C221.172 247.381 229.068 250.682 233.8 256.299C235.709 258.566 232.264 261.419 222.897 263.618C211.578 266.276 193.777 267.396 170.895 266.522L170.2 266.495C168.562 266.43 165.807 266.518 161.241 266.759L157.043 266.995C155.445 267.086 153.606 267.192 151.867 267.293C149.269 267.442 146.895 267.579 145.884 267.635L143.466 267.768C134.33 268.259 126.679 268.571 119.268 268.713L118.302 268.73C101.481 269.019 88.2646 268.334 79.1098 266.391C68.4804 264.135 63.4248 260.436 65.7218 254.989C68.3706 248.709 75.2393 244.481 85.8146 242.94L86.1364 242.894C89.2972 242.448 92.8657 242.518 97.0459 242.599C99.1259 242.64 101.357 242.684 103.765 242.668L105.829 242.66C109.179 242.655 131.505 242.331 131.505 242.331C139.322 242.504 144.885 242.587 150.826 242.599L155.233 242.603ZM168.539 87.9776C167.21 88.8216 165.9 89.3008 164.7 89.3008C163.759 89.3008 162.748 88.9561 161.711 88.3322C161.748 88.6909 161.738 89.0222 161.681 89.3281C161.559 89.9815 161.173 91.1391 160.532 92.0439C160.514 92.0689 160.495 92.0929 160.475 92.1159C161.334 92.6025 162.662 93.108 164.495 92.8511C166.514 92.5682 167.63 91.8505 168.308 91.2927C168.203 90.221 168.338 88.9502 168.539 87.9776ZM168.529 92.3651C167.691 93.4615 166.278 94.6511 164.495 94.6511C161.808 94.6511 160.044 93.9845 159.47 92.5702C144.613 97.3944 138.066 110.815 141.424 133.93L141.525 134.606L141.579 134.837C143.64 143.396 148.502 147.156 153.29 146.57L153.436 146.55C157.723 145.948 161.901 141.821 163.019 137.119L163.185 136.412C164.019 132.782 164.526 129.573 164.526 126.937L164.523 125.842C164.495 120.098 164.249 115.846 163.94 113.971L163.918 113.843L163.884 113.936C163.754 114.289 163.614 114.722 163.467 115.232L163.423 115.387C162.748 117.782 161.955 121.676 161.055 127.085C160.392 131.06 149.76 136.05 149.601 135.579C149.552 135.432 150.423 134.832 151.661 133.979L151.662 133.978L151.667 133.975C152.15 133.643 152.688 133.272 153.248 132.875C153.228 132.838 153.208 132.799 153.188 132.758C151.621 129.616 150.656 126.858 150.299 124.475C149.947 122.119 150.77 112.639 151.292 112.642L151.358 112.644C151.622 112.663 151.564 113.891 151.478 115.712C151.384 117.697 151.257 120.386 151.477 122.979C151.716 125.795 152.965 128.632 153.832 130.602C154.072 131.146 154.282 131.624 154.434 132.017C156.726 130.317 159.023 128.328 159.279 126.789L159.483 125.577C160.294 120.832 161.016 117.33 161.651 115.04L161.69 114.899C162.038 113.665 162.363 112.784 162.683 112.224C163.186 111.343 163.949 110.884 164.75 111.522C165.641 112.23 166.086 115.276 166.25 120.829C166.386 118.341 166.613 116.328 166.919 114.82C167.176 113.56 167.488 112.648 167.877 112.071C168.43 111.253 169.295 110.973 170.081 111.523L170.134 111.562C171.823 112.855 172.962 119.127 173.028 127.284L173.031 127.966L173.048 128.061C174.079 131.96 176.217 134.232 178.157 135.594C182.114 129.107 179.811 117.092 178.834 111.995C178.552 110.526 178.381 109.632 178.501 109.61C179.044 109.512 179.565 109.873 179.663 110.416C180.914 117.332 181.558 122.445 181.592 125.781C181.628 129.156 181.062 132.713 179.901 136.45C179.884 136.504 179.863 136.556 179.838 136.605C180.43 136.909 180.95 137.128 181.341 137.294C181.847 137.508 182.141 137.632 182.103 137.732C181.925 138.196 174.752 138.196 171.243 128.188C171.231 128.153 171.231 128.104 171.231 128.059L171.231 128.043C171.231 123.869 170.945 120.146 170.443 117.307C170.214 116.014 169.947 114.945 169.662 114.161L169.623 114.058C169.496 113.722 169.371 113.459 169.264 113.276L169.259 113.268L169.237 113.313C169.049 113.701 168.856 114.331 168.683 115.179L168.655 115.32C168.567 115.768 168.459 116.264 168.339 116.807C167.825 119.151 167.117 122.375 167.101 126.392L167.099 126.992C167.099 134 172.025 142.485 177.625 145.81C183.444 149.264 188.429 145.869 188.953 134.27C189.959 111.999 183.81 97.0755 169.493 93.4062C169.026 93.2864 168.719 92.8995 168.529 92.3651ZM166.23 129.138C166.026 131.626 165.507 134.44 164.77 137.536C163.487 142.932 158.737 147.623 153.687 148.333C152.814 148.455 151.964 148.463 151.14 148.355C151.191 149.09 151.249 150.148 151.313 151.484C151.493 151.459 151.682 151.482 151.86 151.562C153.178 152.155 160.472 152.974 166.809 153.1L167.28 153.109C174.817 153.222 180.215 152.384 181.229 150.846L181.29 148.792C180.07 148.608 178.795 148.123 177.507 147.357C171.931 144.047 167.078 136.267 166.23 129.138ZM146.9 70.4311C146.744 68.1002 148.632 68.2533 150.025 68.5189C150.322 69.9956 150.735 71.4865 151.24 72.9556L151.169 72.9537C149.621 72.9107 147.061 72.8397 146.9 70.4311ZM179.481 68.8965C179.452 69.1658 179.421 69.4375 179.387 69.7118C179.265 70.7037 179.063 71.7089 178.794 72.7131C180.597 72.9266 183.617 73.0445 183.053 69.039C182.833 67.4791 180.823 68.3251 179.481 68.8965ZM164.431 47.1174C165.201 47.0716 165.998 47.0989 166.805 47.2003C168.848 47.1752 171.905 46.2432 173.305 44.5819C178.8 38.0644 171.182 30.6806 165.264 31.635C160.87 32.3437 156.724 35.4293 156.064 40.366C155.747 42.7373 157.296 46.5137 164.431 47.1174ZM152.679 188.744C153.515 213.258 154.414 239.648 154.821 240.354C154.889 240.478 155.932 240.488 156.759 240.495L156.76 240.495H156.764C156.981 240.498 157.183 240.499 157.348 240.503L157.794 240.51L158.299 240.511C159.524 240.505 161.068 240.447 162.929 240.339L163.704 240.291L166.762 167.412C166.678 165.754 165.149 163.859 164.121 162.585C163.509 161.827 163.074 161.289 163.228 161.151C163.634 160.788 166.813 164.352 167.399 165.613C167.41 165.656 167.423 165.713 167.437 165.783C167.798 164.837 168.306 163.845 168.967 162.814C169.205 162.442 172.23 158.246 170.072 162.572C165.451 171.836 170.686 175.601 179.822 175.634L179.856 175.634L179.86 175.634C179.936 175.635 179.992 175.635 180.117 175.62C183.674 175.167 187.535 175.376 190.576 175.773C193.565 176.163 198.733 179.074 192.884 180.717C191.486 181.109 189.241 180.872 186.648 180.309L185.945 180.192L181.827 188.522L182.539 188.676C195.019 192.644 202.256 188.941 204.088 180.119L204.144 179.841C206.756 166.395 201.148 158.073 182.987 158.961L182.963 159.751C182.947 160.303 182.486 160.737 181.933 160.72C181.381 160.704 180.948 160.243 180.964 159.69L180.982 159.091C174.623 159.558 178.788 158.76 181.003 158.404L181.153 153.378C178.534 154.71 173.71 155.207 167.295 155.109L166.769 155.1C160.554 154.976 153.601 154.23 151.406 153.523C151.738 161.132 152.198 174.626 152.679 188.742L152.679 188.744ZM184.164 181.116L182.68 184.72C181.652 184.564 180.942 184.382 180.41 184.245C180.234 184.2 180.077 184.159 179.934 184.127C179.741 182.694 179.746 181.656 179.926 181.043C180.084 180.51 180.311 180.209 180.607 180.074C181.244 180.282 181.995 180.509 182.859 180.754L183.509 180.936L184.164 181.116ZM178.582 184.227C178.66 184.176 178.743 184.137 178.828 184.11C178.613 182.957 178.611 181.203 178.792 180.59C178.915 180.173 179.019 179.845 179.159 179.58C178.953 179.51 178.641 179.35 178.256 179.153C176.483 178.246 173.18 176.555 171.725 179.208C169.27 183.685 167.113 197.751 167.741 197.755C168.634 197.761 170.903 194.586 172.397 191.767L172.463 191.641L172.848 190.891C174.021 188.617 175.894 185.99 178.582 184.227ZM185.589 179.307C185.269 179.251 184.952 179.393 184.78 179.658C184.712 179.616 184.636 179.584 184.555 179.564L179.016 178.197L178.894 178.127C174.682 175.747 171.959 175.949 170.059 178.6C169.385 179.54 169.047 180.723 168.885 182.291L168.866 182.489L168.842 182.76C168.821 183.032 168.803 183.312 168.786 183.659L168.718 185.106L168.706 185.325C168.685 185.665 168.664 185.887 168.634 186.096L168.614 186.22L168.553 186.556L168.515 186.73C168.494 186.823 168.468 186.93 168.434 187.063L168.336 187.437L167.735 189.605C167.628 190.101 167.527 190.567 167.432 191.004L168.076 172.945C170.099 175.457 174.398 176.779 180.541 176.398L181.047 176.369C181.285 176.357 181.525 176.344 181.767 176.331L181.774 176.331L181.819 176.328L181.828 176.328C184.503 176.184 187.406 176.028 190.036 176.612C196.595 178.069 193.912 179.408 193.334 179.696L193.3 179.713L193.282 179.722L193.207 179.758C192.283 180.169 190.115 180.085 186.02 179.382L185.589 179.307ZM142.646 253.378L142.864 253.314C142.758 253.346 150.669 252.226 154.903 247.822C155.702 246.991 160.551 247.601 160.551 247.601L160.556 247.613C162.381 250.636 162.645 253.778 160.355 254.705C159.546 255.032 158.181 255.358 156.802 255.244L156.602 255.227L156.319 255.199C156.125 255.178 155.916 255.153 155.672 255.122L154.309 254.947C153.592 254.859 153.275 254.837 152.842 254.837C152.086 254.837 148.449 255.372 148.449 255.372C147.339 255.542 146.774 255.6 146.19 255.601C143.852 255.604 142.379 255.029 141.655 254.735L141.586 254.705C141.522 254.676 141.469 254.647 141.427 254.62L141.383 254.588L141.379 254.602C141.463 254.264 141.746 253.652 142.646 253.378ZM178.034 69.7118C178.262 67.8604 178.338 66.1299 178.277 64.5212C175.505 65.6217 172.731 65.4196 170.373 64.0312C168.436 62.8904 166.691 61.0775 165.131 58.602L165.074 58.5104L165.023 58.6101C163.763 61.0017 162.137 62.9117 160.148 64.3306L159.947 64.4709C157.45 66.1896 154.521 66.9568 151.187 66.7746L151.2 66.8338C153.101 75.2008 159.708 88.0918 164.809 88.4008C166.761 88.519 169.593 85.367 172.218 81.9502C175.053 78.2608 177.513 73.9277 178.034 69.7118ZM173.414 52.1586C175.91 54.4953 177.672 58.0652 178.16 62.8375C178.131 62.8468 178.102 62.8579 178.073 62.8708C175.623 63.9695 173.221 64.2512 171.185 63.0524C169.169 61.8653 167.337 59.3914 165.701 56.4155C165.38 55.832 164.529 55.8727 164.265 56.4842C164.213 56.6057 164.156 56.7425 164.093 56.8925C163.37 58.6212 161.917 62.0962 158.765 63.9306C156.47 65.2661 153.084 65.6042 151.412 65.7712L151.41 65.7713L151.407 65.7716C151.258 65.7865 151.123 65.8 151.003 65.8128C150.941 65.4235 150.894 65.0365 150.861 64.6525C152.772 64.3065 156.787 62.9843 158.401 61.9704C160.448 60.6842 161.075 59.3716 162.118 57.1894C162.309 56.7895 162.514 56.3602 162.744 55.8967C162.943 55.4965 163.414 52.8292 162.297 54.8575C162.229 54.9808 162.157 55.1153 162.079 55.2597L162.079 55.2606L162.079 55.2611L162.079 55.2614C160.916 57.4349 158.554 61.8502 150.815 63.8643C150.664 59.3834 152.476 55.3681 155.124 52.7714C157.598 50.3463 161.339 48.7429 164.182 48.4671C167.172 48.177 170.787 49.7004 173.414 52.1586Z" fill="#018A08"/>
<path fill-rule="evenodd" clip-rule="evenodd" d="M92.4479 191.933C91.969 186.829 89.5938 181.777 85.8297 178.308C83.089 175.782 79.1611 173.667 75.4959 175.476C69.8571 178.841 68.3429 185.748 68.9115 191.933C69.6163 199.598 73.1969 204.324 80.0756 207.148C83.9515 208.738 86.528 210.836 88.6319 214.492C90.3149 217.415 91.2961 221.076 93.411 223.726C96.5727 227.688 100.529 229.449 105.406 228.791C106.373 228.791 109.487 231.69 110.46 233.446C113.001 238.033 115.182 242.875 116.183 248.053C116.476 249.565 116.269 255.218 117.3 256.309C119.187 258.305 118.634 254.462 118.521 253.302C117.584 243.697 114.136 235.513 109.129 227.438C110.667 225.429 110.889 220.316 110.406 218.703C109.129 213.703 93.412 202.207 92.4479 191.933Z" fill="white"/>
<path fill-rule="evenodd" clip-rule="evenodd" d="M74.9188 174.316L74.8908 174.331C69.6528 177.458 67.737 181.827 68.1131 191.968C68.5083 202.625 72.3734 204.514 79.3124 207.429L79.5237 207.517C83.419 209.115 85.8756 211.199 87.8852 214.691L88.0463 214.976C88.3975 215.608 88.7112 216.255 89.1534 217.242L89.9457 219.039C91.015 221.451 91.6963 222.72 92.6983 223.975C95.987 228.096 100.1 229.856 105.06 229.187L105.107 229.177L105.153 229.163C105.921 228.86 108.534 231.518 109.71 233.64C112.566 238.794 114.41 243.289 115.328 247.813L115.391 248.129C115.45 248.435 115.489 248.906 115.534 249.801L115.597 251.127C115.612 251.436 115.626 251.705 115.641 251.959L115.649 252.11C115.799 254.577 116.044 255.985 116.61 256.583C117.366 257.383 118.064 257.534 118.446 256.839C118.664 256.444 118.715 255.806 118.668 254.908L118.65 254.608C118.638 254.455 118.625 254.295 118.609 254.125L118.479 252.865C117.562 244.131 114.578 236.206 109.31 227.617L109.208 227.451L109.273 227.347C110.534 225.265 110.994 220.605 110.389 218.588C109.356 215.142 107.313 212.353 103.595 208.676L102.948 208.038C96.6611 201.82 94.5523 198.612 92.8245 191.768L92.2298 189.401L92.2148 189.343C90.7957 183.872 89.3063 180.615 86.4899 178.02C83.1107 174.906 78.3604 172.618 74.9188 174.316ZM85.9478 178.608C88.5315 180.989 90.3582 183.998 91.6995 189.009L91.9879 190.117L92.3893 191.726C92.8245 196.04 94.1694 201.122 102.386 208.607L102.822 209.038C106.586 212.732 108.619 215.468 109.623 218.818C110.194 220.722 109.671 225.549 108.412 227.194C108.311 227.326 108.302 227.507 108.389 227.648C113.747 236.289 116.765 244.209 117.683 252.942L117.796 254.031L117.827 254.36C117.841 254.518 117.852 254.666 117.861 254.808L117.869 254.95C117.908 255.696 117.865 256.236 117.746 256.453L117.74 256.468L117.754 256.472C117.648 256.449 117.452 256.31 117.191 256.034C116.829 255.651 116.595 254.349 116.459 252.235L116.43 251.76L116.326 249.624C116.284 248.814 116.245 248.36 116.185 248.026L116.176 247.977C115.263 243.251 113.369 238.593 110.41 233.252L110.345 233.136C108.961 230.705 106.273 227.983 104.923 228.396L104.915 228.398L104.953 228.394C100.279 229.025 96.4409 227.382 93.3236 223.476C92.3486 222.254 91.6805 220.992 90.5836 218.503L90.0183 217.217C89.4218 215.873 89.0529 215.116 88.5785 214.292C86.5164 210.708 83.9771 208.521 80.0472 206.868L79.8274 206.777C73.0249 203.985 69.5948 199.346 68.9098 191.895L68.8902 191.673C68.3126 184.792 70.3779 178.858 75.1461 175.912L75.2866 175.826L75.2728 175.834C78.3626 174.309 82.7859 175.694 85.9478 178.608Z" fill="#018A08"/>
<path fill-rule="evenodd" clip-rule="evenodd" d="M114.605 228.914C116.919 229.269 118.935 227.914 119.711 225.656C120.382 223.704 120.447 221.434 121.209 219.589C121.734 218.318 122.569 217.239 123.589 216.326C126.282 213.919 129.093 213.317 129.895 209.323C130.524 206.191 129.743 199.808 125.372 200.445C122.332 200.889 119.875 204.952 118.458 207.515C116.706 210.685 115.071 214.083 114.15 217.566C112.633 223.304 112.428 229.672 112.409 235.548C112.407 236.256 112.259 244.905 113.27 244.763C114.272 244.623 113.638 235.645 113.723 233.786" fill="white"/>
<path fill-rule="evenodd" clip-rule="evenodd" d="M81.687 180.921C80.9166 181.316 81.0677 182.587 81.9893 184.856C82.9127 187.129 84.2744 188.84 85.6656 189.618C87.0886 190.414 88.3882 190.086 88.7474 188.69C89.0714 187.431 86.855 184.278 84.5017 182.194C83.277 181.11 82.3209 180.596 81.687 180.921ZM83.9713 182.793C85.8601 185.077 88.1881 188.053 87.9726 188.891C87.7618 189.71 87.0668 189.886 86.0562 189.32C84.8378 188.638 83.3715 186.703 82.5119 184.588L82.3854 184.27C81.5995 182.754 81.6017 181.387 82.0521 181.233C82.4808 181.086 83.4098 182.114 83.9713 182.793ZM121.322 205.766C121.008 204.907 121.952 203.85 123.694 203.088C125.564 202.269 126.78 202.211 126.774 203.229C126.77 203.917 125.842 204.878 124.426 205.743C122.991 206.619 121.651 206.666 121.322 205.766ZM125.963 203.283C125.93 203.279 125.891 203.276 125.842 203.276L125.789 203.278C125.737 203.28 125.673 203.278 125.596 203.276C125.117 203.263 124.13 203.235 122.285 204.15C121.889 204.346 121.636 205.389 121.674 205.491C121.764 205.738 122.943 206.111 124.01 205.46C124.454 205.188 124.844 204.71 125.161 204.32L125.161 204.32C125.295 204.156 125.415 204.008 125.522 203.898C125.761 203.65 125.907 203.435 125.956 203.305L125.963 203.283ZM122.944 211.061L122.75 211.374C121.905 212.754 121.393 213.731 121.188 214.349C120.913 215.174 121.207 215.758 121.971 215.508C122.668 215.28 124.01 214.152 125.68 212.505C127.031 211.172 127.707 209.146 127.189 208.176C126.485 206.857 124.841 208.01 122.944 211.061ZM126.483 208.152C126.803 208.751 126.245 210.824 125.118 211.935L124.74 212.304C124.447 212.588 124.132 212.906 123.82 213.222L123.82 213.222L123.82 213.222L123.82 213.222C122.862 214.192 121.928 215.137 121.704 214.972C121.443 214.78 122.293 212.979 123.223 211.483C124.12 210.041 125.296 208.71 125.891 208.292C126.277 208.021 126.416 208.027 126.483 208.152ZM115.364 223.4C115.137 224.908 115.34 226.034 116.101 226.19C116.885 226.351 117.716 225.308 118.644 223.18C119.529 221.15 119.298 219.225 118.139 218.934C116.944 218.633 115.859 220.299 115.388 223.246L115.364 223.4ZM117.944 219.71C118.461 219.84 118.73 221.197 118.06 222.938C117.534 224.306 116.101 227.556 115.722 225.012C115.665 224.625 115.664 224.119 115.755 223.519L115.803 223.216C116.215 220.792 117.415 219.576 117.944 219.71ZM73.9216 198.242C71.9625 196.105 70.8025 193.442 71.7664 192.277C72.9151 190.889 78.2163 195.691 78.1471 198.09C78.1067 199.49 77.4974 200.209 76.4879 200.025C75.7394 199.889 74.8271 199.23 73.9216 198.242ZM72.3797 192.391L72.352 192.428C71.827 193.189 72.4405 195.879 74.1113 197.701C74.9089 198.571 76.0969 199.541 76.6311 199.638C77.0772 199.719 77.3195 199.433 77.3474 198.467C77.373 197.58 76.3853 195.723 74.9395 194.414C74.7795 194.269 74.5884 194.074 74.3811 193.862L74.3811 193.862C73.7526 193.22 72.9751 192.426 72.4655 192.419C72.3845 192.418 72.3671 192.41 72.3797 192.391ZM95.533 221.569C95.9798 223.512 96.8622 224.776 98.0574 225.469C98.8677 225.939 99.62 226.077 100.482 226.077C102.332 226.077 103.19 225.253 102.868 223.914C102.626 222.911 101.698 221.664 100.46 220.576C99.2266 219.492 97.9033 218.757 96.9417 218.697C95.6273 218.615 95.0976 219.677 95.533 221.569ZM96.8919 219.496C97.6358 219.542 98.8197 220.2 99.9323 221.177C101.057 222.166 101.895 223.291 102.09 224.101C102.277 224.877 101.861 225.677 100.482 225.677C99.7482 225.677 99.1231 225.562 98.4587 225.177C97.4622 224.599 96.3114 223.123 95.9126 221.39C95.581 219.949 96.2276 219.454 96.8919 219.496ZM98.8717 213.353C97.2159 211.977 96.4236 210.532 96.9006 209.736C97.4438 208.83 98.8665 209.419 100.308 211.003C101.209 211.993 102.472 213.707 102.845 214.554C102.997 214.899 103.048 215.156 102.932 215.39C102.756 215.745 102.407 215.755 101.998 215.587C101.476 215.374 100.594 214.761 99.2899 213.698L98.8717 213.353ZM98.0523 210.212C97.8769 210.14 97.7374 210.114 97.6464 210.125C97.6039 210.13 97.5934 210.136 97.5867 210.147C97.5766 210.164 97.5585 210.186 97.5363 210.214C97.4243 210.351 97.2087 210.615 97.3957 210.957C97.6898 211.493 98.628 212.511 99.383 213.138C100.391 213.976 101.448 214.564 102.077 214.914L102.077 214.914C102.195 214.979 102.297 215.036 102.382 215.085L102.435 215.115L102.376 215.004C101.941 214.21 100.553 212.48 99.8051 211.64L99.7161 211.541C99.0879 210.851 98.5084 210.401 98.0523 210.212ZM81.3006 202.536C80.8236 203.332 81.6159 204.777 83.2717 206.153L83.6899 206.498C84.9939 207.561 85.8762 208.174 86.398 208.387C86.8067 208.555 87.1564 208.545 87.3319 208.19C87.448 207.956 87.3965 207.699 87.2447 207.354C86.8721 206.507 85.6093 204.793 84.7078 203.803C83.2665 202.219 81.8438 201.63 81.3006 202.536ZM82.0464 202.925C82.1374 202.914 82.2769 202.94 82.4523 203.012C82.9084 203.201 83.4879 203.651 84.1161 204.341L84.2051 204.44C84.9529 205.28 85.9415 207.01 86.3762 207.804L86.4353 207.915L86.382 207.885C85.845 207.575 84.9798 206.933 83.783 205.938C83.028 205.311 82.0898 204.293 81.7957 203.757C81.6087 203.415 81.8243 203.151 81.9363 203.014C81.9585 202.986 81.9766 202.964 81.9867 202.947C81.9934 202.936 82.0039 202.93 82.0464 202.925ZM91.2717 203.753C89.6159 202.377 88.8236 200.932 89.3006 200.136C89.8438 199.23 91.2665 199.819 92.7078 201.403C93.6093 202.393 94.8721 204.107 95.2447 204.954C95.3965 205.299 95.448 205.556 95.3319 205.79C95.1564 206.145 94.8067 206.155 94.398 205.987C93.8762 205.774 92.9939 205.161 91.6899 204.098L91.2717 203.753ZM90.4523 200.612C90.2769 200.54 90.1375 200.514 90.0464 200.525C90.0039 200.53 89.9934 200.536 89.9867 200.547C89.9848 200.55 89.9828 200.554 89.9806 200.557C89.9122 200.671 89.7092 201.006 89.9263 201.403C90.2205 201.939 91.0805 203.299 91.383 203.538C92.2809 204.249 93.4073 204.8 94.1535 205.165C94.4213 205.296 94.6402 205.403 94.782 205.485L94.8353 205.515L94.7762 205.404C94.3415 204.61 92.9529 202.88 92.2051 202.04L92.1161 201.941C91.4879 201.251 90.9084 200.801 90.4523 200.612Z" fill="url(#paint2_linear_6064_81297)"/>
<path fill-rule="evenodd" clip-rule="evenodd" d="M125.314 200.049C127.522 199.728 129.475 201.005 130.286 203.34C130.924 205.174 130.649 207.6 130.287 209.402C129.823 211.712 128.856 212.947 126.726 214.476L125.445 215.375C125.003 215.69 124.641 215.964 124.294 216.249C124.143 216.373 123.997 216.498 123.855 216.625C122.825 217.546 122.057 218.584 121.579 219.742L121.513 219.905C121.26 220.554 121.1 221.197 120.868 222.398L120.67 223.448C120.469 224.493 120.317 225.123 120.089 225.786C119.214 228.332 117.365 229.681 114.944 229.309C114.725 229.276 114.008 229.33 115.616 229.004C117.223 228.678 118.575 227.731 119.333 225.526C119.546 224.906 119.691 224.304 119.886 223.291L120.085 222.235C120.345 220.888 120.521 220.207 120.839 219.437C121.366 218.162 122.206 217.026 123.322 216.028C123.472 215.894 123.626 215.762 123.785 215.632C124.103 215.37 124.431 215.12 124.814 214.843L125.203 214.567C125.526 214.341 126.017 213.998 126.117 213.928L126.393 213.729C128.277 212.356 129.495 211.275 129.903 209.244C130.237 207.579 129.72 205.297 129.131 203.602C128.433 201.594 127.203 200.183 125.43 200.441C122.819 200.823 116.338 210.31 114.546 216.119C113.071 220.898 112.697 228.235 112.795 234.822L112.81 235.761L112.808 237.055C112.809 238.104 112.819 238.98 112.847 239.891L112.854 240.12C112.898 241.438 112.974 242.521 113.088 243.301C113.126 243.557 113.167 243.777 113.211 243.956L113.234 244.043L113.246 243.989C113.296 243.749 113.336 243.435 113.367 243.053L113.377 242.923L113.395 242.648C113.444 241.796 113.454 240.706 113.433 239.344L113.415 238.393C113.407 238.044 113.397 237.668 113.385 237.231L113.318 234.718C113.31 234.327 113.311 234.122 113.317 233.932L113.347 233.203C113.368 232.612 113.382 231.998 113.397 231.021L113.42 229.606C113.48 226.372 113.598 224.761 113.984 222.781C114.042 222.482 114.105 222.187 114.174 221.896C115.184 217.646 117.356 214.587 119.458 210.838C120.089 209.712 123.402 207.988 123.433 208.207C123.463 208.425 120.596 209.72 119.726 211.167C117.874 214.246 115.939 217.926 114.953 222.081C114.886 222.361 114.825 222.645 114.769 222.933L114.696 223.323C114.379 225.08 114.275 226.654 114.219 229.629L114.178 232.108C114.167 232.612 114.155 233.014 114.139 233.422L114.115 234.016C114.11 234.235 114.112 234.505 114.126 235.084L114.211 238.223C114.218 238.531 114.224 238.816 114.229 239.101L114.242 240.019C114.28 243.577 114.114 245.049 113.326 245.159C112.708 245.246 112.476 244.645 112.297 243.416C112.184 242.649 112.109 241.622 112.063 240.382L112.055 240.147C112.021 239.142 112.009 238.201 112.008 237.058L112.009 235.558C111.84 228.712 112.624 220.93 114.181 215.883C116.059 209.797 122.286 200.492 125.314 200.049Z" fill="#018A08"/>
<ellipse cx="113.2" cy="248.799" rx="15.6" ry="11.6" fill="white"/>
<ellipse cx="107.002" cy="248.799" rx="9.40194" ry="11.6" fill="#F9FAFB"/>
<path fill-rule="evenodd" clip-rule="evenodd" d="M128.8 236.699H97.5996C97.3235 236.699 97.0996 236.923 97.0996 237.199C97.0996 245.745 97.906 251.065 100.049 254.759C102.465 258.924 106.628 260.899 113.2 260.899C119.772 260.899 123.934 258.924 126.35 254.759C128.493 251.065 129.3 245.745 129.3 237.199C129.3 236.923 129.076 236.699 128.8 236.699ZM98.9004 237.699H127.898L127.898 237.814C127.86 245.834 127.864 250.846 125.885 254.257C123.665 258.084 119.441 260.299 113.2 260.299C106.959 260.299 103.134 257.684 100.914 253.857L100.839 253.727C98.9405 250.364 98.9596 245.865 98.903 238.129L98.9004 237.699Z" fill="#018A08"/>
<defs>
<linearGradient id="paint0_linear_6064_81297" x1="170.157" y1="76.4478" x2="172.672" y2="78.987" gradientUnits="userSpaceOnUse">
<stop stop-color="#EF6795"/>
<stop offset="0.32" stop-color="#ED2A65"/>
<stop offset="0.7" stop-color="#AC1D40"/>
<stop offset="1" stop-color="#83161E"/>
</linearGradient>
<linearGradient id="paint1_linear_6064_81297" x1="156.957" y1="76.4478" x2="159.472" y2="78.987" gradientUnits="userSpaceOnUse">
<stop stop-color="#EF6795"/>
<stop offset="0.32" stop-color="#ED2A65"/>
<stop offset="0.7" stop-color="#AC1D40"/>
<stop offset="1" stop-color="#83161E"/>
</linearGradient>
<linearGradient id="paint2_linear_6064_81297" x1="78.4996" y1="196.564" x2="110.197" y2="228.844" gradientUnits="userSpaceOnUse">
<stop stop-color="#EF6795"/>
<stop offset="0.32" stop-color="#ED2A65"/>
<stop offset="0.7" stop-color="#AC1D40"/>
<stop offset="1" stop-color="#83161E"/>
</linearGradient>
</defs>
</svg>
