<svg width="300" height="300" viewBox="0 0 300 300" fill="none" xmlns="http://www.w3.org/2000/svg">
<path fill-rule="evenodd" clip-rule="evenodd" d="M161.988 260.342C215.827 260.342 223.46 236.39 231.623 231.988C239.786 227.587 234.711 218.754 240.065 212.092C248.617 201.45 253.8 206.934 256.63 193.129C259.461 179.323 254.315 175.418 254.315 163.092C254.315 138.398 266.145 126.708 251.038 113.788C235.932 100.867 210.704 102.392 185.754 102.392C139.443 102.392 111.7 38.9071 49.9328 57.9532C28.6465 64.5168 30.9991 73.4616 35.6763 105.072C37.7074 118.799 22.3721 136.251 25.0328 151.85C29.8924 180.34 42.7266 176.475 66.9419 195.711C71.0044 198.938 76.9295 198.905 81.3583 202.214C88.7832 207.763 89.2607 216.391 103.142 222.211C125.525 231.595 123.626 260.342 161.988 260.342Z" fill="#F9FAFB"/>
<ellipse cx="59.0631" cy="186.8" rx="13.6119" ry="12.8" fill="white"/>
<path fill-rule="evenodd" clip-rule="evenodd" d="M53.7244 141.162C51.4039 135.367 53.4309 131.895 54.7302 127.362C55.8155 123.576 64.3028 117.426 68.209 123.839C69.3581 125.725 68.8971 127.509 71.4087 129.167C77.4886 133.181 74.1718 124.853 74.3979 122.748C74.5082 121.721 73.6406 119.353 73.9636 118.362C74.3025 117.322 76.1089 115.845 76.1089 113.69C76.1089 111.534 72.4345 110.704 71.4087 110.174C62.2936 105.468 56.4966 97.6075 59.3855 93.6182C63.4104 88.0599 79.1848 96.8052 83.9245 97.6075C83.9859 97.6179 84.8324 93.199 85.5238 92.1871C86.9071 90.1627 88.4358 88.1975 90.2596 86.5588C91.0766 85.8247 92.184 85.3716 93.2724 85.2247C96.5298 84.7852 99.8622 84.4248 103.125 84.8228C104.278 84.9635 111.144 77.0172 113.821 74.4539C134.361 54.788 175.536 78.753 153.092 111.318C148.967 117.303 143.692 119.207 143.01 121.322C141.497 126.021 151.023 125.403 155.059 125.905C161.952 126.762 165.35 130.303 161.071 136.373C158.405 140.154 142.765 139.961 135.914 137.227C133.371 136.212 130.228 131.775 127.825 135.415C126.169 137.923 119.713 143.244 112.787 146.254C109.661 147.613 106.101 146.794 103.433 148.007C99.6781 149.715 88.5931 156.886 83.9245 156.884C79.2227 156.882 73.1383 151.224 72.4345 150.853C71.3616 150.287 63.0617 148.666 58.9616 142.338C57.7217 140.425 54.5738 143.284 53.7244 141.162Z" fill="white"/>
<ellipse cx="133.557" cy="107.568" rx="1.44193" ry="1.42131" fill="url(#paint0_linear_5955_38327)"/>
<ellipse cx="123" cy="104.599" rx="1.4" ry="1.4" fill="url(#paint1_linear_5955_38327)"/>
<circle cx="225" cy="103.4" r="19" fill="white"/>
<ellipse cx="165.59" cy="211.188" rx="55.21" ry="47.1883" fill="white"/>
<path fill-rule="evenodd" clip-rule="evenodd" d="M118.785 236.917L119.405 237.366C118.006 238.621 115.903 237.06 114.723 235.598C112.826 233.246 110.901 230.747 110.324 227.781C109.996 226.094 110.127 224.355 110.26 222.641L110.795 215.73C111.032 212.667 111.27 209.599 111.8 206.573C113.235 198.385 116.847 190.588 122.165 184.198L122.218 184.134C123.157 183.006 124.183 181.774 124.165 180.312C124.126 177.218 125.908 174.327 128.247 172.302C130.587 170.277 133.451 168.977 136.271 167.705C137.549 167.129 139.218 166.612 140.208 167.604C142.245 169.645 145.644 168.345 148.334 167.309C151.638 166.036 155.166 165.351 158.705 165.294C158.808 165.292 158.912 165.291 159.016 165.289L159.016 165.289C161.141 165.259 163.533 165.225 164.83 163.578C165.655 162.53 167.233 162.591 168.558 162.749L177.67 163.839C178.366 163.922 179.201 164.112 179.42 164.779C180.009 166.564 182.085 167.293 183.885 167.836C190.285 169.765 196.541 172.385 201.974 176.279C207.407 180.173 211.999 185.41 214.436 191.635C210.474 186.22 206.41 180.703 200.912 176.857C199.338 175.757 197.664 174.807 195.966 173.911C191.957 171.798 187.784 169.976 183.45 168.653C163.327 162.511 140.05 168.207 125.038 182.947C122.862 185.085 120.821 187.439 119.586 190.228L121.217 190.734C118.633 191.889 116.713 194.421 116.297 197.221C117.338 195.439 118.82 193.918 120.574 192.833C120.072 194.51 118.766 195.858 117.486 197.179C115.855 198.863 114.265 200.503 114.434 202.728C115.208 200.695 117.16 199.161 119.318 198.887C115.895 202.232 112.221 206.158 112.33 210.942C113.579 208.179 115.699 205.818 118.312 204.28L114.55 209.336C113.128 211.247 111.629 213.432 111.955 215.793C113.192 213.572 114.962 211.649 117.073 210.232C116.056 212.544 114.605 214.664 112.817 216.448C114.517 216.243 116.154 215.539 117.473 214.446C116.92 215.217 116.422 216.088 116.403 217.037C116.385 217.986 117 219.004 117.939 219.14C118.223 218.504 119.115 218.236 119.703 218.609C117.92 220.343 117.902 223.556 119.664 225.311C119.821 224.486 120.517 223.791 121.341 223.635C120.027 225.934 119.79 228.82 120.713 231.302C120.993 229.896 121.773 228.594 122.881 227.685C122.242 231.021 120.829 234.205 118.785 236.917ZM118.007 235.855C119.12 235.843 119.812 234.598 119.928 233.491C120.067 232.167 119.738 230.844 119.411 229.553L117.475 221.896C117.111 222.011 117.069 222.408 117.025 222.823C116.987 223.177 116.947 223.545 116.705 223.764C116.215 223.154 116.159 222.232 116.573 221.568C116.99 220.898 116.717 219.959 116.125 219.437C115.533 218.914 114.71 218.737 113.921 218.711C113.494 218.697 113.041 218.73 112.692 218.975C112.343 219.221 112.159 219.743 112.407 220.09C113.145 221.124 113.7 222.288 114.039 223.512C114.064 223.603 114.089 223.696 114.114 223.789L114.114 223.789C114.282 224.424 114.455 225.078 114.92 225.531C115.28 225.881 115.371 226.415 115.444 226.912L116.036 230.935C116.143 231.667 116.251 232.414 116.128 233.144C116.005 233.874 115.61 234.598 114.948 234.929L117.062 235.648C117.369 235.753 117.683 235.858 118.007 235.855ZM141.048 169.907C140.632 169.996 140.283 169.63 139.984 169.317L139.95 169.281C139.644 168.962 139.119 168.683 138.797 168.986C135.045 172.516 130.776 175.494 126.167 177.797C125.331 178.215 125.219 179.341 125.218 180.276C125.218 180.589 125.517 181.027 125.712 180.783C126.662 179.592 127.898 178.668 129.119 177.758C132.555 175.196 136.032 172.61 139.972 170.921C140.45 170.716 141.009 170.426 141.048 169.907ZM178.758 165.938C178.545 165.439 177.941 165.259 177.408 165.158C175.955 164.885 174.477 164.761 173.001 164.637C170.973 164.467 168.947 164.297 166.996 163.74C166.371 163.562 165.836 164.195 165.493 164.748C166.522 164.641 167.557 164.597 168.591 164.616C170.39 164.649 172.18 164.873 173.966 165.097C174.873 165.21 175.787 165.326 176.657 165.607C176.758 165.64 176.86 165.675 176.963 165.71L176.963 165.71C177.557 165.914 178.171 166.125 178.758 165.938ZM159.549 173.607C159.96 173.701 160.352 174.008 160.413 174.426C160.475 174.842 160.19 175.248 159.827 175.46C159.463 175.672 159.034 175.731 158.617 175.786L157.361 175.953C157.235 175.969 157.105 175.987 156.996 176.052C156.681 176.239 156.702 176.745 156.96 177.006C157.219 177.266 157.614 177.331 157.981 177.331C159.689 177.327 161.306 176.098 161.828 174.472C161.952 174.085 162.017 173.656 161.864 173.28C161.786 173.09 161.656 172.925 161.511 172.778C160.84 172.098 159.839 171.797 158.885 171.865C157.931 171.932 157.023 172.339 156.247 172.897C155.875 173.165 155.52 173.479 155.309 173.885C155.097 174.292 155.052 174.809 155.289 175.201C155.379 175.351 155.518 175.484 155.691 175.512C155.863 175.54 156.062 175.429 156.084 175.255C156.143 174.773 156.496 174.365 156.915 174.12C157.335 173.875 157.818 173.767 158.295 173.672C158.709 173.589 159.138 173.513 159.549 173.607ZM125.887 197.467C126.357 194.69 128.599 192.433 131.213 191.388C132.654 190.811 134.302 190.559 135.751 191.114C136.108 191.251 136.454 191.44 136.712 191.723C136.954 191.989 137.106 192.325 137.221 192.666C137.957 194.849 137.21 197.374 135.629 199.049C134.048 200.724 131.746 201.603 129.448 201.768C128.712 201.821 127.921 201.791 127.313 201.373C126.705 200.954 126.403 200.025 126.872 199.454C127.093 199.465 127.212 199.662 127.334 199.865C127.395 199.965 127.456 200.066 127.531 200.146C127.786 200.421 128.208 200.441 128.582 200.425C130.212 200.357 131.866 199.953 133.192 199.004C134.518 198.055 135.471 196.505 135.443 194.874C135.434 194.349 135.32 193.811 135.022 193.378C134.534 192.668 133.61 192.347 132.749 192.404C131.889 192.46 131.082 192.842 130.349 193.297C129.385 193.895 128.494 194.648 127.889 195.608C127.285 196.569 126.989 197.756 127.245 198.862C127.019 199.269 126.347 199.188 126.07 198.814C125.792 198.439 125.81 197.926 125.887 197.467ZM140.893 220.347C139.701 221.114 138.712 222.314 138.528 223.72C138.38 224.857 138.761 225.989 139.136 227.073C139.429 227.919 139.732 228.782 140.291 229.482C141.299 230.745 142.969 231.268 144.565 231.525C144.999 231.595 145.659 231.399 145.504 230.987C143.819 230.956 142.161 230.175 141.065 228.895C139.968 227.615 139.45 225.858 139.678 224.188C139.726 223.836 139.806 223.487 139.953 223.164C140.252 222.512 140.808 222.011 141.411 221.621C142.707 220.783 144.286 220.391 145.825 220.523C147.308 220.652 148.789 221.302 149.695 222.483C150.6 223.665 150.816 225.408 150.017 226.664C149.887 226.868 149.792 227.229 150.03 227.272C151.316 226.579 152.03 225.051 151.958 223.592C151.886 222.133 151.116 220.767 150.057 219.761C149.471 219.204 148.778 218.733 147.992 218.544C146.957 218.294 145.873 218.552 144.843 218.823C143.472 219.183 142.085 219.58 140.893 220.347ZM199.436 222.159C195.126 220.55 190.442 219.95 185.865 220.421C183.945 220.619 182.02 221.01 180.295 221.874C177.039 223.503 174.712 226.857 174.324 230.477C173.937 234.097 175.502 237.867 178.34 240.149C179.415 241.014 180.637 241.661 181.859 242.31L181.859 242.31C182.694 242.753 183.53 243.196 184.32 243.709C184.546 243.925 184.038 244.14 183.741 244.044C180.976 243.152 178.291 241.794 176.319 239.661C173.92 237.066 172.75 233.38 173.212 229.876C173.675 226.372 175.762 223.117 178.753 221.233C181.118 219.743 183.947 219.116 186.74 219.015C189.534 218.914 192.32 219.313 195.082 219.742C196.808 220.009 198.831 220.522 199.436 222.159ZM154.08 227.56C153.884 227.112 153.097 226.995 152.954 227.463C152.039 230.438 149.136 232.688 146.026 232.831C145.323 232.863 144.62 232.798 143.919 232.73C142.411 232.584 140.855 232.412 139.534 231.669C137.635 230.601 136.492 228.408 136.478 226.229C136.465 224.05 137.498 221.932 139.068 220.42C138.85 219.81 137.915 220.105 137.45 220.556C134.876 223.058 134.434 227.377 136.241 230.479C138.047 233.581 141.832 235.32 145.4 234.926C148.968 234.531 152.189 232.142 153.848 228.959C154.074 228.525 154.276 228.009 154.08 227.56ZM131.737 242.628C131.155 244.857 131.1 247.222 131.577 249.475C131.791 250.486 131.814 251.043 131.818 251.147L131.819 251.161C131.819 251.164 131.819 251.165 131.819 251.165C131.819 251.165 131.82 251.164 131.82 251.161L131.82 251.147C131.825 251.043 131.85 250.484 132.069 249.471C132.557 247.213 132.441 244.828 131.737 242.628ZM134.825 243.976C133.999 245.707 134.101 247.849 135.088 249.493C135.31 249.862 135.478 250.163 135.602 250.384L135.602 250.384C135.769 250.682 135.856 250.838 135.886 250.827C135.919 250.816 135.884 250.607 135.811 250.17C135.782 249.995 135.746 249.783 135.706 249.533L134.825 243.976ZM137.15 246.187C136.799 247.292 137.057 248.569 137.809 249.452C138.576 250.354 138.827 250.642 138.593 249.482C138.354 248.297 137.858 247.165 137.15 246.187ZM204.432 233.617C203.378 237.849 200.011 241.056 196.745 243.948C196.895 244.269 197.377 244.154 197.686 243.98C200.993 242.119 203.67 239.085 204.891 235.492C206.112 231.898 205.808 227.77 203.881 224.5C203.719 224.226 203.513 223.934 203.2 223.873C202.887 223.811 202.527 224.174 202.711 224.434C204.564 227.058 205.209 230.5 204.432 233.617ZM156.883 195.403C156.875 194.733 156.884 194.008 157.289 193.475C157.845 192.74 158.902 192.663 159.823 192.65C160.235 192.644 160.651 192.639 161.051 192.734C161.904 192.937 162.583 193.566 163.188 194.199C163.322 194.34 163.464 194.513 163.431 194.704C163.39 194.941 163.093 195.05 162.857 195.002C162.7 194.969 162.56 194.891 162.419 194.813C162.348 194.774 162.277 194.734 162.204 194.701C161.356 194.312 160.36 194.738 159.599 195.277C159.479 195.362 159.35 195.47 159.347 195.617C159.344 195.764 159.47 195.878 159.589 195.965C160.618 196.719 161.935 197.068 163.202 196.922C163.505 196.887 163.86 196.776 163.939 196.482C163.97 196.367 163.958 196.231 163.946 196.1C163.927 195.881 163.909 195.676 164.093 195.6C164.188 195.56 164.297 195.589 164.397 195.617C165.083 195.817 165.884 196.137 166.017 196.839C166.055 197.042 166.028 197.253 165.964 197.449C165.775 198.023 165.248 198.471 164.652 198.566C164.387 198.608 164.117 198.585 163.85 198.562C163.152 198.502 162.453 198.442 161.762 198.331C160.492 198.126 159.25 197.748 158.082 197.209C157.677 197.023 157.256 196.793 157.05 196.397C156.894 196.095 156.887 195.742 156.883 195.403ZM182.962 178.893C182.554 177.789 181.568 176.919 180.423 176.651C180.069 176.568 179.669 176.548 179.368 176.753C179.068 176.958 178.964 177.459 179.251 177.683C179.529 177.901 179.361 178.413 179.021 178.509C178.682 178.606 178.317 178.376 178.147 178.066C177.978 177.757 177.96 177.389 177.958 177.036C177.955 176.565 177.998 176.04 178.346 175.722C178.478 175.601 178.644 175.523 178.807 175.45C179.485 175.147 180.235 174.89 180.959 175.053C181.649 175.208 182.199 175.717 182.681 176.236C183.075 176.661 183.449 177.106 183.799 177.568C184.107 177.976 184.404 178.411 184.519 178.909C184.635 179.407 184.535 179.984 184.151 180.321C183.774 180.65 183.195 180.679 182.738 180.475C182.334 180.295 181.99 179.9 182.02 179.459C182.05 179.018 182.592 178.652 182.962 178.893ZM186.604 209.904C187.617 209.875 188.56 209.096 188.778 208.107C188.912 207.506 188.747 206.79 188.223 206.467C187.841 206.231 187.359 206.248 186.91 206.277C186.289 206.317 185.644 206.371 185.104 206.681C184.563 206.992 184.162 207.635 184.331 208.234C184.606 209.209 185.592 209.933 186.604 209.904ZM186.734 208.444C186.539 208.496 186.26 208.446 186.242 208.244C186.235 208.16 186.28 208.081 186.331 208.014C186.619 207.642 187.167 207.497 187.601 207.679C187.45 208.048 187.12 208.34 186.734 208.444ZM187.257 193.465C187.092 193.085 187.412 192.641 187.8 192.496C188.111 192.379 188.448 192.391 188.783 192.403C188.867 192.406 188.95 192.409 189.032 192.41C189.447 192.415 189.905 192.346 190.174 192.031C190.269 191.919 190.333 191.756 190.261 191.629C190.186 191.496 190.007 191.473 189.855 191.465C188.798 191.41 187.55 191.442 186.941 192.308C186.81 192.494 186.489 192.431 186.367 192.239C186.244 192.047 186.272 191.796 186.342 191.579C186.592 190.804 187.308 190.24 188.09 190.014C188.873 189.788 189.713 189.859 190.508 190.039C190.775 190.1 191.053 190.179 191.249 190.372C191.404 190.525 191.491 190.735 191.548 190.945C191.818 191.951 191.419 193.103 190.584 193.726C189.748 194.348 188.53 194.402 187.643 193.855C187.485 193.758 187.331 193.636 187.257 193.465ZM183.635 211.241C184.126 211.829 184.707 212.363 185.412 212.663C186.837 213.268 188.659 212.709 189.5 211.409C189.806 210.935 189.943 210.213 189.49 209.877C188.765 211.401 186.662 212.074 185.186 211.254C184.904 211.097 184.647 210.896 184.413 210.673C183.352 209.657 182.799 207.998 183.422 206.668C183.624 206.234 183.936 205.86 184.277 205.523C185.02 204.79 186.083 204.189 187.075 204.515C187.116 204.529 187.157 204.544 187.199 204.559C187.337 204.61 187.477 204.662 187.623 204.653C187.812 204.642 188.01 204.473 187.961 204.289C187.947 204.235 187.913 204.188 187.879 204.144C187.265 203.363 186.062 203.122 185.195 203.606C184.163 204.182 183.115 204.861 182.566 205.908C181.673 207.612 182.402 209.764 183.635 211.241ZM200.068 184.961C200.023 185.026 200.034 185.116 200.045 185.203C200.058 185.306 200.07 185.403 199.986 185.444C199.677 185.597 199.307 185.581 198.978 185.48C198.08 185.204 197.477 184.38 196.969 183.589C196.672 183.127 196.375 182.636 196.327 182.088C196.279 181.541 196.559 180.924 197.087 180.769C197.675 180.597 198.252 181.034 198.709 181.441C199.226 181.901 199.753 182.375 200.073 182.988C200.392 183.601 200.464 184.393 200.068 184.961ZM198.115 182.909C198.241 183.032 198.311 183.198 198.38 183.363C198.448 183.526 198.517 183.689 198.64 183.812C198.796 183.968 199.033 184.038 199.249 183.991C198.845 183.366 198.377 182.782 197.854 182.252C197.715 182.294 197.703 182.502 197.787 182.621C197.838 182.693 197.909 182.746 197.981 182.8C198.027 182.834 198.074 182.869 198.115 182.909ZM121.191 239.402C121.141 240.223 121.204 241.174 121.86 241.668C122.079 241.546 122.064 241.233 122.037 240.984C121.867 239.45 122.343 237.972 122.822 236.484C123.165 235.418 123.51 234.348 123.62 233.249C123.652 232.93 123.567 232.494 123.247 232.481C123.007 232.472 122.852 232.725 122.755 232.945C121.858 234.983 121.326 237.18 121.191 239.402ZM184.897 209.807C185.638 210.135 186.46 210.469 187.235 210.234C187.544 210.14 187.818 209.962 188.088 209.786C188.087 210.239 187.698 210.62 187.263 210.749C186.829 210.879 186.362 210.81 185.919 210.714C185.427 210.607 184.825 210.305 184.897 209.807ZM126.282 247.634C126.471 247.297 126.503 246.897 126.531 246.512L126.755 243.444C126.865 241.939 126.975 240.427 126.876 238.921C126.864 238.731 126.845 238.531 126.734 238.376C126.623 238.221 126.389 238.138 126.237 238.253C126.125 238.338 126.097 238.491 126.078 238.63C125.835 240.372 125.705 242.129 125.689 243.888C125.678 245.163 125.736 246.481 126.282 247.634ZM122.929 244.997C122.732 245.163 122.405 245.017 122.297 244.783C122.189 244.55 122.232 244.278 122.279 244.025C122.764 241.377 123.315 238.741 123.93 236.12C123.946 236.055 123.962 235.987 124.005 235.934C124.167 235.734 124.494 235.935 124.609 236.166C124.891 236.731 124.756 237.406 124.615 238.022L123.098 244.636C123.068 244.768 123.032 244.909 122.929 244.997ZM128.181 245.114C128.097 246.108 128.246 247.104 128.394 248.09C128.447 248.441 128.7 248.907 129.017 248.747L129.635 242.14C129.66 241.871 129.677 241.573 129.51 241.36C129.343 241.148 128.921 241.157 128.868 241.421L128.413 243.687C128.318 244.16 128.222 244.634 128.181 245.114ZM191.988 224.863C190.229 223.957 188.088 223.601 186.26 224.359C184.895 224.926 181.038 227.374 180.524 230.512C180.181 232.612 180.184 234.758 180.919 236.786L181.038 237.104C181.257 237.679 181.954 238.339 182.344 237.864C181.205 235.805 180.993 233.256 181.774 231.038C182.556 228.819 184.319 226.966 186.497 226.075C186.955 225.888 187.434 225.741 187.926 225.694C188.923 225.6 189.918 225.923 190.809 226.379C192.727 227.362 195.104 228.996 196.017 230.949C196.897 232.831 197.545 235.076 196.749 236.995C195.952 238.914 190.719 240.303 190.719 240.303L191.298 241.36C191.298 241.36 194.228 240.782 196.017 239.479C203.527 234.008 193.671 225.73 191.988 224.863Z" fill="#018A08"/>
<path fill-rule="evenodd" clip-rule="evenodd" d="M59.2208 197.854C56.5645 198.139 53.7511 197.524 51.6772 195.84C50.2083 194.648 49.1762 192.989 48.452 191.241C47.6657 189.343 47.2136 187.307 47.1228 185.255C47.0885 184.482 47.1069 183.696 47.334 182.956C47.7076 181.74 48.6075 180.763 49.5261 179.882C51.4804 178.008 53.7774 176.298 56.4564 175.904C58.2819 175.635 60.1388 176.001 61.9257 176.461C63.3291 176.822 64.7307 177.248 65.993 177.96C68.7823 179.532 70.7152 182.532 70.9948 185.722C71.2744 188.912 70.9304 191.025 66.6256 194.988C64.3887 196.449 61.877 197.569 59.2208 197.854ZM63.905 187.841C63.4742 187.976 63.0448 188.217 62.6001 188.138C61.6914 187.978 61.5288 186.732 61.7306 185.832C62.3081 183.255 64.1045 180.979 66.4768 179.818C65.9398 178.844 64.5132 178.772 63.5042 179.241C62.4952 179.709 61.7064 180.553 60.7307 181.087C60.2451 181.352 59.6696 181.54 59.1414 181.375C58.2722 181.103 57.9404 179.964 58.2249 179.099C58.5095 178.234 59.2197 177.588 59.9016 176.984C57.4306 177.071 54.9854 177.812 52.8826 179.113C51.2365 180.131 49.675 181.801 49.8934 183.724C51.2545 182.629 52.8525 181.829 54.5454 181.396C54.9044 181.305 55.3551 181.259 55.5798 181.553C55.75 181.777 55.7011 182.098 55.5921 182.356C55.051 183.64 53.4597 184.07 52.4728 185.053C52.3432 185.182 52.2189 185.331 52.1875 185.511C52.126 185.864 52.4625 186.186 52.816 186.245C53.1695 186.304 53.5244 186.175 53.8597 186.049C54.5561 185.786 55.2525 185.523 55.9489 185.26C56.453 185.07 57.0516 184.889 57.4999 185.188C57.9636 185.497 58.0074 186.2 57.7452 186.692C57.4831 187.184 57.002 187.514 56.5389 187.824C55.4229 188.572 54.3068 189.32 53.1907 190.068C52.2563 190.694 51.2094 191.539 51.2982 192.66C51.3818 193.716 52.5431 194.433 53.5997 194.365C54.6564 194.298 55.5863 193.651 56.3662 192.935C57.1461 192.219 57.85 191.401 58.7557 190.853C59.3467 190.495 60.1899 190.296 60.67 190.793C61.0409 191.177 61.0051 191.794 60.8659 192.309C60.4647 193.795 59.3799 195.08 57.9834 195.726C59.1196 195.988 60.3046 196.037 61.4587 195.871C62.117 195.776 62.7984 195.593 63.2744 195.129C63.7504 194.664 63.9347 193.847 63.5218 193.326C62.9059 192.548 62.9304 191.41 63.3239 190.499C63.7174 189.589 64.4203 188.853 65.1088 188.139C64.9117 187.733 64.3358 187.705 63.905 187.841ZM69.1655 189.606C69.7843 188.176 69.8068 186.558 69.6501 185.008C69.4768 183.293 68.879 181.332 67.2637 180.731C64.8965 181.714 63.0697 183.906 62.5299 186.411C62.4846 186.622 62.4491 186.848 62.5319 187.047C62.6147 187.246 62.8609 187.391 63.0517 187.291C63.7061 186.948 64.511 186.753 65.1764 187.075C65.8417 187.396 66.1657 188.399 65.627 188.905C65.0317 189.463 64.4204 190.044 64.0992 190.795C63.7781 191.545 63.8244 192.517 64.429 193.065C64.8833 193.478 64.8845 194.287 64.4314 194.7C65.7198 194.324 66.6378 193.216 67.4733 192.166C68.112 191.363 68.7581 190.548 69.1655 189.606ZM54.3334 182.209C52.9931 182.765 51.6921 183.416 50.4434 184.155C50.1465 184.331 49.8463 184.516 49.6292 184.785C49.336 185.147 49.2246 185.619 49.134 186.076C48.8412 187.553 48.6903 189.143 49.3104 190.514C49.5083 190.952 49.7789 191.353 50.0481 191.751C50.1275 191.868 50.2177 191.994 50.3539 192.033C50.4901 192.073 50.67 191.963 50.638 191.825C50.5394 191.399 50.8619 190.999 51.1801 190.699C53.0439 188.945 55.5549 187.937 57.231 186.003C56.9767 185.702 56.4945 185.843 56.1319 185.998C55.2684 186.367 54.3781 186.672 53.4703 186.912C53.002 187.035 52.4801 187.136 52.0528 186.908C51.4273 186.575 51.3254 185.662 51.6558 185.035C51.9862 184.408 52.6143 184.003 53.22 183.635C53.8258 183.267 54.4612 182.883 54.8247 182.274C54.7586 182.101 54.5046 182.138 54.3334 182.209ZM58.9203 193.962C59.5126 193.486 60.1525 192.925 60.2171 192.168C60.2509 191.772 59.997 191.288 59.6015 191.326C59.4799 191.337 59.3689 191.397 59.2641 191.46C57.5417 192.489 56.4082 194.501 54.4653 195.001C55.0143 195.247 55.5868 195.44 56.1724 195.578C56.3468 195.619 56.5284 195.655 56.7038 195.619C56.9078 195.576 57.0786 195.442 57.2411 195.311C57.8008 194.861 58.3605 194.412 58.9203 193.962ZM60.522 177.514C60.1388 177.937 59.7555 178.361 59.3722 178.785C59.0686 179.121 58.743 179.564 58.9119 179.984C59.0364 180.293 59.4041 180.45 59.7366 180.424C60.069 180.398 60.3719 180.228 60.6507 180.045C61.6443 179.393 62.5389 178.505 63.6984 178.245C62.8945 177.952 62.0905 177.659 61.2866 177.366C61.1191 177.305 60.9324 177.244 60.7677 177.312C60.6689 177.352 60.5937 177.434 60.522 177.514Z" fill="#018A08"/>
<path fill-rule="evenodd" clip-rule="evenodd" d="M75.4828 126.878C75.3825 128.887 73.8328 131.062 71.8357 130.824C70.9343 129.782 70.2288 128.488 69.5315 127.209C68.1925 124.753 66.8839 122.353 64.2768 121.897C61.7161 121.45 59.3314 123.333 57.7366 125.386C55.4268 128.359 53.9341 131.961 53.4636 135.696C53.187 137.892 54.0875 140.938 56.2877 140.696C58.8008 140.42 60.5881 142.397 62.4059 144.407C64.0884 146.268 65.797 148.158 68.1316 148.317C70.9113 148.507 73.1819 150.173 75.4803 151.858C77.0154 152.984 78.5628 154.119 80.2827 154.83C83.5182 156.166 87.2491 155.908 90.5518 154.747C93.8544 153.586 96.7935 151.587 99.5753 149.461L99.7211 149.35L99.7212 149.35C101.24 148.189 102.829 146.973 104.717 146.717C114.373 145.409 123.353 139.746 128.694 131.597C136.266 137.65 146.854 139.719 156.148 136.962C157.725 136.494 159.312 135.866 160.481 134.71C161.65 133.553 162.314 131.757 161.739 130.216C161.11 128.53 159.232 127.628 157.446 127.411C156.467 127.292 155.481 127.327 154.494 127.362C153.68 127.391 152.865 127.42 152.054 127.363C147.145 127.016 143.057 123.63 139.34 120.404C144.726 118.752 149.093 114.603 151.976 109.763C154.86 104.923 156.405 99.4098 157.579 93.8999C158.197 91.0004 158.656 87.7339 156.999 85.2753C156.258 84.1749 155.171 83.3703 154.087 82.5686C152.867 81.6658 151.652 80.7666 150.941 79.4525C149.573 76.9248 146.907 75.4259 144.378 74.0604C137.759 70.4871 130.157 66.8094 123.025 69.1958C120.246 70.1253 117.846 71.9065 115.506 73.6694C111.62 76.5968 107.457 80.0307 106.717 84.8393C100.359 81.9947 92.1332 84.2665 88.1361 89.9711C87.2219 91.2759 86.52 92.7148 85.8188 94.1522C84.9933 95.8445 84.1688 97.5347 82.9999 99.0017C78.3051 96.8626 73.5215 94.9183 68.6656 93.1753C66.5127 92.4025 63.941 91.7196 62.0856 93.0574C60.598 94.1301 60.1416 96.2355 60.5783 98.0168C61.015 99.7981 62.1807 101.308 63.4309 102.65C66.143 105.561 69.4009 107.963 72.9845 109.692C73.0985 109.747 73.2133 109.801 73.3284 109.856L73.3304 109.857L73.332 109.858L73.3322 109.858L73.3334 109.858C74.4554 110.393 75.6089 110.942 76.3561 111.924C77.181 113.007 77.2322 114.82 76.0757 115.539C74.3675 116.6 74.053 118.983 74.4032 120.963C74.5228 121.64 74.6984 122.31 74.8738 122.98C75.2118 124.269 75.5488 125.556 75.4828 126.878ZM121.858 137.469C117.554 141.988 111.497 144.632 105.304 145.405C99.1107 146.178 92.7866 145.173 86.8706 143.185C88.462 143.184 89.6127 141.101 88.7661 139.753C85.5056 143.554 80.5349 145.334 75.7984 146.96C71.5193 148.428 66.4046 147.362 63.2614 144.108C60.1181 140.854 59.2676 135.515 61.478 131.568C62.4388 129.852 64.0685 128.358 66.0278 128.19C67.987 128.021 70.0967 129.646 69.915 131.604C68.8248 131.415 67.6774 132.341 67.6325 133.446C71.8503 132.992 75.8156 130.575 78.1522 127.034C78.9587 125.812 79.5716 124.481 80.185 123.149C80.5969 122.254 81.009 121.359 81.4801 120.497C82.6528 118.349 84.3366 116.301 86.67 115.563C88.5427 114.97 90.5671 115.299 92.5028 115.633L101.102 117.116C101.745 116.56 100.703 115.67 99.8708 115.496C97.1833 114.934 94.4583 114.588 91.733 114.242C89.2059 113.921 86.6786 113.6 84.1808 113.107C78.9893 112.083 73.7715 110.21 69.9928 106.505C72.5559 105.031 74.506 102.525 75.3062 99.6785C75.468 99.1026 75.0823 98.1565 74.6147 98.5296C74.0803 100.378 73.5012 102.305 72.1624 103.686C70.8236 105.068 68.4737 105.675 66.9584 104.489C64.9914 102.951 62.9232 101.273 62.1453 98.8996C61.3674 96.5266 62.598 93.3397 65.0783 93.0487C66.1915 92.9182 67.2798 93.3782 68.3064 93.8282L78.6637 98.3683C81.7462 99.7195 84.8747 101.084 88.2045 101.575C90.5425 101.919 92.9203 101.822 95.2815 101.725L101.975 101.449C102.249 101.437 102.53 101.425 102.782 101.317C103.454 101.03 103.682 100.209 103.831 99.4929C105.627 90.825 108.04 81.6777 114.569 75.7002C117.491 73.0255 121.13 71.1423 125.001 70.3022C128.817 69.4741 133.027 69.7176 136.312 71.8279C130.801 72.2335 125.45 74.5573 121.392 78.3072C119.687 76.4871 116.513 77.9749 115.153 80.0655C113.045 83.3064 113.083 87.8084 115.247 91.0129C117.067 93.7103 117.742 96.9287 118.419 100.155L118.419 100.155C119.041 103.119 119.664 106.091 121.179 108.669C123.576 112.749 128.039 115.367 132.701 116.179C137.362 116.991 142.194 116.143 146.625 114.482C141.666 119.427 133.745 121.138 127.188 118.679C126.71 118.5 126.234 118.3 125.758 118.099C124.252 117.465 122.74 116.828 121.124 116.847C122.07 117.85 123.28 118.603 124.597 119.009C123.078 121.561 121.484 124.069 119.818 126.527C119.605 126.842 119.362 127.177 118.997 127.283C118.591 127.402 118.167 127.2 117.796 126.995C114.733 125.302 111.988 123.036 109.744 120.351L105.255 125.811C107.559 128.626 110.252 131.123 113.234 133.207C109.265 138.11 103.252 141.304 96.9674 141.846C103.473 142.177 110.059 139.126 114.012 133.949C116.515 135.354 119.144 136.534 121.858 137.469ZM142.431 89.4569C143.869 87.8895 144.401 85.6506 144.279 83.5273C144.156 81.404 143.442 79.3621 142.651 77.3876C144.71 77.1435 146.802 77.9203 148.442 79.1889C150.083 80.4574 151.315 82.1836 152.325 83.9942C153.55 86.189 154.49 88.5624 154.897 91.0427C155.857 96.8829 153.808 102.838 150.892 107.988C150.325 108.988 149.716 109.981 148.889 110.779C148.057 111.583 147.033 112.161 145.984 112.649C141.653 114.661 136.672 115.241 131.995 114.279C134.98 111.793 137.089 108.369 138.432 104.723C139.775 101.077 140.389 97.2026 140.743 93.3337L140.745 93.312C140.834 92.3364 140.928 91.311 141.484 90.5054C141.668 90.2388 141.896 90.0076 142.124 89.7764L142.124 89.7763L142.124 89.7761L142.124 89.7761C142.228 89.6708 142.332 89.5656 142.431 89.4569ZM137.028 105.571C135.74 108.585 133.744 111.352 131.038 113.202C130.721 113.418 130.381 113.627 129.999 113.672C129.663 113.711 129.326 113.618 129.003 113.516C126.702 112.79 124.528 111.503 123.052 109.595C122.517 108.902 122.08 108.138 121.69 107.354C118.849 101.646 118.571 94.7211 120.944 88.8036C121.058 88.5209 121.22 88.2035 121.518 88.1442C121.905 88.0676 122.201 88.4628 122.418 88.7916C124.191 91.4784 127.507 92.8386 130.723 92.9794C133.939 93.1203 137.103 92.2063 140.152 91.1755C139.596 92.5346 139.455 94.0152 139.315 95.4818L139.315 95.4829L139.314 95.4844C139.297 95.6682 139.279 95.8519 139.261 96.035C138.934 99.2962 138.316 102.558 137.028 105.571ZM136.373 77.5744C138.019 77.2004 139.939 77.0974 141.196 78.223C141.603 78.5866 141.904 79.0529 142.153 79.5382C143.71 82.5818 143.1 86.5903 140.708 89.0328C137.942 91.8565 133.565 92.322 129.627 91.9868C128.214 91.8666 126.76 91.6491 125.554 90.9034C123.993 89.9386 123.069 88.2384 122.214 86.6147C126.009 82.3745 130.825 78.8358 136.373 77.5744ZM149.683 128.761C149.166 130.065 148.645 131.386 148.476 132.778C148.307 134.17 148.527 135.664 149.374 136.782C142.349 137.17 135.21 135.004 129.585 130.777C131.399 128.21 132.831 125.375 133.821 122.392C134.212 121.213 135.703 120.722 136.915 120.994C138.03 121.246 138.966 121.961 139.879 122.659L140.026 122.771L140.115 122.838C143.105 125.109 146.4 126.939 149.683 128.761ZM100.593 146.564C99.4849 147.811 98.1608 148.847 96.8082 149.823C93.9849 151.862 90.9062 153.715 87.4746 154.307C82.4457 155.175 77.0125 153.006 73.9639 148.913L84.9328 144.821C85.1954 144.723 85.4674 144.624 85.7472 144.64C85.9054 144.649 86.0574 144.694 86.2098 144.739C86.3113 144.77 86.4129 144.8 86.5165 144.82C86.8686 144.886 87.2239 144.828 87.5807 144.769L87.5808 144.769C87.8027 144.732 88.0253 144.696 88.2481 144.689C89.0692 144.664 89.8237 145.04 90.5703 145.411L90.5705 145.411L90.5707 145.411L90.5709 145.411C90.7602 145.505 90.949 145.599 91.1383 145.686C94.047 147.024 97.4006 146.807 100.593 146.564ZM84.755 99.6324C84.6777 99.4595 84.7592 99.2606 84.8408 99.0897C87.0872 94.385 90.0588 90.0276 93.6185 86.2187C96.1223 89.6953 97.7888 93.7707 98.4382 98.0056C98.568 98.8522 98.4277 100.023 97.5778 100.129C93.5044 100.637 89.3595 100.568 85.3052 99.9245C85.0909 99.8905 84.8436 99.8305 84.755 99.6324ZM100.097 99.3422C99.2583 94.7312 97.5171 90.2861 95.0009 86.3321C97.1306 85.2109 99.6483 85.1926 102.055 85.2001C103.575 85.2049 105.235 85.2584 106.393 86.2426L103.388 95.1088C102.878 96.614 102.361 98.1614 102.426 99.7493L100.526 99.7798C100.459 99.7809 100.389 99.7815 100.326 99.7555C100.174 99.692 100.127 99.5042 100.097 99.3422ZM124.537 122.032C125.041 121.173 125.522 120.257 125.573 119.262C127.845 120.284 130.348 120.791 132.839 120.733C133.23 120.724 133.216 121.326 133.056 121.683C132.571 122.763 132.085 123.843 131.524 124.885C130.948 125.955 130.294 126.98 129.64 128.004L128.074 130.459C127.86 130.795 127.639 131.139 127.32 131.378C126.465 132.021 125.245 131.712 124.269 131.274C122.651 130.547 121.162 129.534 119.89 128.297C121.656 126.382 123.216 124.277 124.537 122.032ZM65.7701 124.153C66.523 124.912 67.0151 125.885 67.4949 126.84L65.236 127.163C64.4834 127.27 63.7117 127.383 63.0464 127.752C62.3992 128.11 61.9001 128.684 61.4608 129.279C59.6237 131.768 58.6055 134.851 58.599 137.944C58.5967 139.062 57.2761 139.859 56.1953 139.575C55.1145 139.292 54.3803 138.219 54.1934 137.117C54.0066 136.015 54.2697 134.889 54.5997 133.821C55.761 130.065 57.8384 126.517 60.9119 124.065C61.4991 123.596 62.148 123.158 62.8898 123.039C63.9457 122.87 65.0171 123.394 65.7701 124.153ZM160.627 130.441C160.889 130.777 161.082 131.186 161.07 131.611C161.055 132.16 160.707 132.642 160.332 133.044C158.151 135.381 154.8 136.177 151.626 136.552C151.417 136.576 151.198 136.598 151.001 136.522C150.84 136.459 150.711 136.334 150.596 136.205C149.83 135.344 149.526 134.14 149.589 132.989C149.651 131.839 150.048 130.73 150.542 129.689C150.646 129.47 150.767 129.24 150.979 129.122C151.149 129.029 151.351 129.021 151.545 129.016L155.386 128.915C156.332 128.891 157.288 128.867 158.214 129.062C159.139 129.257 160.046 129.694 160.627 130.441ZM117.816 94.1456C116.251 91.2454 115.08 88.1328 114.346 84.9201L114.978 83.2311C115.76 81.7166 116.746 80.3075 117.901 79.0538C118.372 78.5432 119.187 78.4868 119.837 78.7328C120.486 78.9788 121.008 79.468 121.512 79.9455L123.78 82.0941C123.847 82.158 123.918 82.227 123.94 82.3171C123.983 82.4868 123.842 82.6421 123.716 82.7626C122.654 83.7724 121.71 84.9108 120.953 86.1658C119.81 88.0627 119.111 90.1885 118.422 92.2936L117.816 94.1456ZM123.613 77.857C128.23 75.3839 133.281 73.0567 138.49 73.6132C141.213 73.9042 143.817 74.9875 146.086 76.5221C139.588 74.8519 132.345 76.3925 127.09 80.5627C126.278 81.2072 125.059 81.9073 124.336 81.1642C124.15 80.9734 124.029 80.7061 123.91 80.4456C123.721 80.0284 123.539 79.6289 123.115 79.5898C122.71 79.5525 122.53 79.0031 122.702 78.6345C122.873 78.2659 123.254 78.049 123.613 77.857ZM110.927 123.092C111.839 123.967 112.842 124.74 113.844 125.512L117.889 128.627C116.644 129.725 115.425 130.854 114.234 132.011C111.4 130.331 108.87 128.14 106.803 125.573C107.935 124.395 109.02 123.173 110.058 121.912C110.221 122.377 110.572 122.75 110.927 123.092ZM84.9159 114.664C82.7857 116.328 80.5835 118.08 79.4118 120.516C79.1829 120.992 78.9937 121.493 78.8049 121.993C78.4035 123.056 78.0034 124.115 77.2251 124.925C76.8802 124.823 76.7445 124.417 76.6604 124.067L75.8498 120.695C75.7405 120.241 75.6304 119.773 75.6925 119.309C75.7543 118.848 75.9819 118.427 76.2055 118.019L78.5837 113.673C78.6368 113.576 78.6918 113.476 78.7767 113.406C78.9871 113.231 79.2984 113.287 79.5641 113.352L84.9159 114.664ZM119.521 129.594C120.974 131.087 122.779 132.236 124.748 132.918C125.116 132.571 125.827 132.762 125.973 133.247C125.295 134.126 124.552 134.953 123.75 135.721C123.392 136.063 122.818 135.991 122.335 135.88C119.976 135.339 117.704 134.421 115.63 133.172C115.491 133.089 115.335 132.97 115.349 132.809C115.358 132.7 115.443 132.616 115.524 132.542L118.435 129.861C118.74 129.579 119.232 129.296 119.521 129.594ZM156.695 92.1338C156.668 92.4624 156.621 92.8291 156.364 93.0357C156.362 90.4546 155.722 87.8764 154.517 85.594C154.298 85.18 154.061 84.7754 153.798 84.3885C153.764 84.3388 153.729 84.289 153.695 84.2391C153.429 83.8552 153.157 83.4623 153.092 83.004L156.212 86.2631C156.499 86.563 156.794 86.8759 156.93 87.2682C157.061 87.6465 157.03 88.0591 156.997 88.4581L156.695 92.1338ZM153.11 87.9919L152.403 87.1014C151.626 86.1216 150.672 85.0518 149.422 85.0504C148.696 85.0496 148.028 85.4213 147.399 85.7824L146.42 86.3434C146.153 86.4966 145.879 86.656 145.69 86.8997C145.147 87.6026 145.543 88.6296 146.057 89.3546C146.412 89.8562 146.838 90.338 147.404 90.5794C148.135 90.8917 148.976 90.7536 149.743 90.5421C150.792 90.2526 151.807 89.835 152.756 89.3014C153.06 89.1307 153.395 88.8808 153.38 88.5329C153.371 88.3281 153.237 88.1526 153.11 87.9919ZM146.937 88.6793C146.816 88.4857 146.69 88.279 146.688 88.0504C146.684 87.6034 147.13 87.3035 147.523 87.0895L148.917 86.3289C149.128 86.2139 149.347 86.0962 149.587 86.0801C149.827 86.0639 150.093 86.1793 150.174 86.4056C150.412 87.0733 150.998 87.606 151.685 87.7792C151.907 87.8353 151.979 88.1433 151.874 88.3473C151.769 88.5512 151.553 88.6704 151.348 88.7724C150.613 89.1372 149.844 89.4346 149.055 89.6597C148.739 89.7499 148.404 89.8289 148.084 89.7528C147.561 89.6284 147.224 89.1348 146.937 88.6793ZM137.017 95.5637C135.634 95.7247 135.371 98.2183 136.014 99.5483C136.146 99.8219 136.353 100.104 136.654 100.142C137.169 100.207 137.454 99.5714 137.568 99.0646L137.571 99.0527C137.721 98.3848 138.392 95.4036 137.017 95.5637ZM129.885 98.8347C130.161 98.1896 130.254 97.4667 130.148 96.7729C130.099 96.4505 130.002 96.1232 129.786 95.8783C129.571 95.6335 129.215 95.4912 128.908 95.6015C128.63 95.7014 128.456 95.9731 128.324 96.2374C127.86 97.1702 127.675 98.2398 127.799 99.2743C127.857 99.7556 128.463 100.019 128.923 99.8664C129.384 99.7142 129.694 99.2802 129.885 98.8347ZM133.962 97.3584C134.177 97.1805 134.447 97.5036 134.535 97.7685C134.821 98.6389 135.058 99.5256 135.244 100.423C135.362 100.99 135.459 101.579 135.334 102.144C135.157 102.941 134.551 103.59 133.848 104.005C133.145 104.42 132.345 104.635 131.556 104.846C131.348 104.901 131.086 104.941 130.951 104.772C130.837 104.629 130.893 104.405 131.023 104.276C131.151 104.15 131.328 104.092 131.499 104.036L131.509 104.032C132.739 103.628 134.053 102.899 134.34 101.637C134.497 100.943 134.306 100.245 134.113 99.545C133.938 98.9072 133.762 98.267 133.849 97.6245C133.862 97.5266 133.886 97.4214 133.962 97.3584ZM125.373 94.5189C125.049 94.0703 125.309 93.3886 125.778 93.0961C126.248 92.8035 126.842 92.8075 127.39 92.8784C128.045 92.9629 128.69 93.1296 129.304 93.3731C129.435 93.4249 129.575 93.4909 129.633 93.6192C129.739 93.8568 129.464 94.117 129.203 94.1168C128.994 94.1166 128.804 94.0157 128.616 93.916C128.57 93.8918 128.525 93.8677 128.479 93.8451C127.454 93.3365 126.095 93.6314 125.373 94.5189ZM137.186 94.3643C137.673 94.2833 138.19 94.3958 138.599 94.672C138.77 94.7874 139.015 94.5933 139.016 94.3869C139.017 94.1805 138.863 94.0069 138.701 93.8793C138.351 93.6044 137.916 93.4399 137.473 93.4149C137.186 93.3987 136.869 93.4541 136.685 93.6738C136.5 93.8935 136.556 94.3058 136.832 94.3823C136.931 94.4096 137.035 94.3912 137.136 94.373L137.137 94.3729C137.153 94.37 137.17 94.3671 137.186 94.3643ZM131.141 107.019C131.278 106.942 131.459 107.077 131.48 107.233C131.5 107.389 131.411 107.538 131.309 107.659C130.798 108.261 129.918 108.447 129.141 108.306C128.364 108.164 127.667 107.746 127.012 107.306C126.704 107.098 126.4 106.884 126.101 106.664C125.791 106.435 125.461 106.155 125.424 105.772C125.387 105.389 125.878 105.002 126.158 105.266C126.847 105.915 127.552 106.575 128.409 106.976C129.266 107.377 130.317 107.484 131.141 107.019ZM116.388 110.092C113.517 103.852 112.32 96.852 112.953 90.0127C112.963 89.8958 112.978 89.7706 113.055 89.6822C113.164 89.5575 113.388 89.5628 113.491 89.6924C113.454 93.4546 113.419 97.2395 114.033 100.952C114.647 104.663 115.951 108.336 118.332 111.249C118.404 111.336 118.476 111.423 118.548 111.51C118.958 112.001 119.371 112.496 119.603 113.088C118.055 113.058 117.035 111.499 116.388 110.092ZM119.203 81.9149C119.15 81.8576 119.089 81.8069 119.017 81.7759C118.81 81.6866 118.567 81.7782 118.386 81.9123C117.663 82.4472 117.66 83.6979 118.381 84.236C118.732 83.9367 119.093 83.6258 119.298 83.2127C119.504 82.7997 119.517 82.2539 119.203 81.9149ZM125.434 88.5044C126.212 89.1365 127.1 89.6344 128.045 89.9696C131.096 91.0514 134.524 90.3722 137.468 89.0266C137.918 88.8211 138.492 88.9294 138.836 89.2849C136.945 90.6319 134.63 91.3723 132.309 91.3717C131.797 91.3716 131.285 91.3366 130.776 91.292C129.732 91.2008 128.681 91.0672 127.7 90.7017C126.718 90.3363 125.802 89.7182 125.246 88.8304L125.434 88.5044ZM158.654 129.619C158.624 129.723 158.707 129.823 158.784 129.899L159.943 131.049C160.07 130.718 159.928 130.333 159.685 130.076C159.442 129.818 159.113 129.662 158.793 129.511C158.73 129.513 158.672 129.559 158.654 129.619Z" fill="#018A08"/>
<path fill-rule="evenodd" clip-rule="evenodd" d="M234.779 84.8764C236.199 85.3686 237.537 84.0879 238.761 83.2155C240.654 81.8655 243.124 81.355 245.398 81.8439C245.775 81.925 246.17 82.0467 246.418 82.3419C246.646 82.6118 246.71 82.98 246.747 83.3308C246.971 85.4785 246.433 87.6978 245.252 89.5055C244.678 90.3849 243.958 91.1679 243.444 92.0842C242.93 93.0004 242.637 94.1198 243.003 95.1045C245.179 100.959 244.274 107.863 240.661 112.958C237.049 118.053 230.832 121.192 224.588 121.075C221.395 121.016 218.266 120.163 215.257 119.091C213.944 118.624 212.501 118.11 211.198 118.604C208.82 119.505 206.317 120.074 203.783 120.29C203.154 120.343 202.497 120.371 201.917 120.122C201.049 119.751 200.525 118.809 200.425 117.87C200.325 116.931 200.585 115.99 200.913 115.105C201.902 112.433 204.974 108.259 206.833 107.297C206.683 104.052 206.699 100.77 207.401 97.598C208.102 94.4264 209.534 91.349 211.882 89.1049C212.852 88.178 213.963 87.4065 215.125 86.7371C221.006 83.3511 228.368 82.6542 234.779 84.8764ZM225.824 84.613C221.326 84.7182 216.949 86.5247 213.433 89.3312C212.401 90.1552 211.431 91.0707 210.657 92.1403C210.046 92.9835 209.563 93.9139 209.159 94.8737C206.765 100.569 207.312 107.411 210.58 112.653C210.651 112.768 210.733 112.889 210.86 112.933C211.017 112.988 211.186 112.908 211.332 112.83C221.597 107.36 230.733 99.7839 238.009 90.7094C238.182 90.4933 238.365 90.2423 238.327 89.9678C238.299 89.7619 238.152 89.5947 238.009 89.4443C234.904 86.1892 230.321 84.5077 225.824 84.613ZM232.111 118.61C236.986 116.321 240.689 111.798 242.273 106.65C242.631 105.484 242.889 104.279 242.914 103.06C242.936 102.034 242.793 101.013 242.65 99.9977C242.443 98.5252 242.236 97.0528 242.029 95.5803C241.974 95.1899 241.598 94.6746 241.323 94.9573C233.695 102.808 225.365 109.976 216.466 116.349C216.17 116.561 215.844 116.824 215.828 117.188C215.809 117.609 216.211 117.914 216.577 118.125C221.242 120.815 227.235 120.898 232.111 118.61ZM202.038 118.01C202.392 118.579 203.161 118.696 203.831 118.714C207.347 118.811 210.826 117.781 213.971 116.208C217.117 114.634 219.964 112.53 222.73 110.358C226.42 107.462 230.001 104.427 233.489 101.291C237.81 97.4073 242.056 93.2881 244.893 88.2181C245.442 87.2374 245.948 86.1621 245.862 85.0415C245.776 83.921 244.883 82.7898 243.76 82.8336C241.377 82.9265 239.034 83.8428 237.22 85.391C236.859 85.6988 237.114 86.3543 237.558 86.5209C238.002 86.6876 238.497 86.522 238.931 86.3305C239.365 86.139 239.817 85.915 240.288 85.9674C241.008 86.0475 241.519 86.7847 241.562 87.5079C241.605 88.2312 241.285 88.9263 240.909 89.5451C240.211 90.6903 239.3 91.6886 238.38 92.6637C230.198 101.331 220.761 108.811 210.454 114.797C209.525 115.336 208.586 115.864 207.587 116.257C207.063 116.463 206.463 116.628 205.951 116.393C205.113 116.007 205.046 114.829 205.297 113.941C205.675 112.607 206.491 111.402 207.589 110.556C207.381 109.97 207.173 109.384 206.965 108.798C204.255 110.529 202.353 113.474 201.889 116.656C201.822 117.115 201.792 117.616 202.038 118.01ZM209.744 113.99C209.763 113.929 209.728 113.866 209.694 113.813C209.344 113.256 208.994 112.7 208.644 112.144C208.485 111.892 208.179 111.607 207.941 111.786C207.085 112.43 206.473 113.39 206.249 114.438C206.204 114.645 206.179 114.876 206.291 115.055C206.501 115.388 207.001 115.313 207.371 115.181C208.161 114.898 208.921 114.534 209.637 114.097C209.681 114.07 209.728 114.039 209.744 113.99ZM240.2 87.5096C240.165 87.3651 239.993 87.3023 239.844 87.2958C239.393 87.2762 238.922 87.647 238.95 88.0976C238.979 88.5483 239.649 88.832 239.929 88.4777C240.013 88.3707 240.049 88.2343 240.083 88.1023C240.116 87.9714 240.149 87.8405 240.183 87.7097C240.199 87.6441 240.216 87.5753 240.2 87.5096Z" fill="#018A08"/>
<defs>
<linearGradient id="paint0_linear_5955_38327" x1="132.48" y1="107.132" x2="134.435" y2="108.771" gradientUnits="userSpaceOnUse">
<stop stop-color="#EF6795"/>
<stop offset="0.32" stop-color="#ED2A65"/>
<stop offset="0.7" stop-color="#AC1D40"/>
<stop offset="1" stop-color="#83161E"/>
</linearGradient>
<linearGradient id="paint1_linear_5955_38327" x1="121.954" y1="104.17" x2="123.875" y2="105.757" gradientUnits="userSpaceOnUse">
<stop stop-color="#EF6795"/>
<stop offset="0.32" stop-color="#ED2A65"/>
<stop offset="0.7" stop-color="#AC1D40"/>
<stop offset="1" stop-color="#83161E"/>
</linearGradient>
</defs>
</svg>
