<svg width="300" height="300" viewBox="0 0 300 300" fill="none" xmlns="http://www.w3.org/2000/svg">
<path fill-rule="evenodd" clip-rule="evenodd" d="M60.0311 145.815C60.0311 145.815 51.1394 138.219 63.6139 111.993C76.0883 85.7674 101.351 91.5157 117.5 81.2001C141.359 65.9584 131.579 54.0305 161.33 52.1079C198.789 49.6871 200.91 88.8068 219.651 88.8068C220.884 88.8068 250.067 77.0806 254.339 109.182C256.49 125.348 219.651 150.001 219.651 150.001C219.651 150.001 204.319 163.898 203.477 170.761C199.946 199.541 207.31 232.504 124.789 247.679C114.116 249.641 96.395 242.542 86.6181 229.429C78.9585 219.155 48.2332 226.444 45.3651 192.667C43.9195 175.643 60.0311 145.815 60.0311 145.815Z" fill="#F9FAFB"/>
<path d="M115.075 122.997C115.353 122.833 115.712 122.926 115.876 123.204L116.539 124.321C119.169 128.734 120.221 130.167 121.339 130.815C122.258 131.347 123.208 131.182 124.947 130.162L125.179 130.022C126.273 129.34 131.279 125.902 133.214 124.667C133.487 124.494 133.848 124.573 134.022 124.846C134.196 125.118 134.116 125.48 133.843 125.654L133.546 125.846C131.389 127.244 126.544 130.571 125.686 131.084C123.581 132.343 122.216 132.626 120.847 131.881L120.752 131.827C119.282 130.975 118.139 129.342 114.868 123.798C114.704 123.52 114.797 123.161 115.075 122.997Z" fill="white"/>
<path d="M124.55 129.759C124.87 129.716 125.164 129.941 125.207 130.261C125.406 131.75 125.884 133.242 126.641 134.74C126.787 135.029 126.672 135.381 126.383 135.526C126.095 135.672 125.743 135.557 125.597 135.268C124.782 133.656 124.264 132.039 124.047 130.417C124.004 130.096 124.229 129.802 124.55 129.759Z" fill="white"/>
<path fill-rule="evenodd" clip-rule="evenodd" d="M192.711 165.494C192.617 165.733 192.41 166.064 192.17 166.377L192.377 166.592L192.617 166.847L192.67 166.899C192.693 166.919 192.712 166.932 192.725 166.935C192.803 166.946 192.857 167.018 192.846 167.096C192.835 167.173 192.764 167.228 192.686 167.216C192.616 167.215 192.36 167.115 192.056 166.868C192.001 166.823 191.946 166.772 191.89 166.715C191.715 166.911 191.538 167.079 191.384 167.183C191.159 167.339 190.964 167.351 190.87 167.289C190.779 167.227 190.691 167.021 190.84 166.605C190.863 166.529 190.944 166.49 191.018 166.513C191.092 166.537 191.133 166.616 191.11 166.691C191.087 166.769 191.084 166.839 191.084 166.896L191.17 166.837C191.201 166.815 191.232 166.79 191.261 166.761C191.366 166.658 191.482 166.533 191.6 166.398C191.414 166.182 191.225 165.929 191.072 165.636C190.997 165.494 190.937 165.342 190.881 165.183C190.842 165.094 190.882 164.99 190.971 164.951C191.06 164.911 191.165 164.952 191.204 165.041C191.374 165.398 191.592 165.706 191.807 165.969L191.879 166.055C192.075 165.799 192.243 165.54 192.319 165.342C192.361 165.235 192.483 165.181 192.591 165.222C192.7 165.265 192.754 165.387 192.711 165.494Z" fill="white"/>
<path fill-rule="evenodd" clip-rule="evenodd" d="M105.655 91.684L105.298 91.6195C103.307 91.2492 101.78 90.7947 98.9276 89.8058C98.6005 89.6924 98.4272 89.3353 98.5406 89.0082C98.654 88.6811 99.0111 88.5078 99.3382 88.6212L100.049 88.8659C102.551 89.7198 103.955 90.1113 105.873 90.4493C112.324 91.587 117.155 88.2746 117.55 81.9574C117.572 81.6119 117.869 81.3493 118.215 81.3709C118.561 81.3926 118.823 81.6902 118.802 82.0357C118.357 89.1403 112.808 92.9453 105.655 91.684Z" fill="#018A08"/>
<path fill-rule="evenodd" clip-rule="evenodd" d="M121.776 98.4497L122.136 99.2496L122.957 99.4852C123.001 99.4979 123.027 99.5442 123.014 99.5886C123.01 99.6022 123.003 99.6147 122.993 99.6247L122.369 100.245L122.404 101.139C122.406 101.185 122.37 101.224 122.324 101.225C122.308 101.226 122.293 101.222 122.279 101.215L121.573 100.813C121.551 100.8 121.525 100.798 121.501 100.808L120.746 101.107C120.703 101.124 120.655 101.103 120.638 101.061C120.632 101.046 120.63 101.03 120.633 101.015L120.792 100.135L120.261 99.4337C120.233 99.3969 120.24 99.3445 120.277 99.3166C120.289 99.308 120.302 99.3025 120.316 99.3005L121.161 99.1815L121.629 98.4394C121.654 98.4004 121.706 98.3887 121.745 98.4133C121.758 98.422 121.769 98.4347 121.776 98.4497Z" fill="#018A08"/>
<path d="M204.236 78.3432C204.558 78.3202 204.838 78.5628 204.861 78.8851C204.884 79.2074 204.641 79.4874 204.319 79.5104C202.01 79.6751 200.197 80.5698 199.391 82.7829C199.343 82.9161 199.303 83.0447 199.27 83.1669L199.248 83.2509L199.284 83.1772C200.298 81.1063 202.254 79.6674 204.521 79.3023L204.669 79.28C204.989 79.2353 205.285 79.4585 205.329 79.7786C205.374 80.0986 205.151 80.3942 204.831 80.4389C202.725 80.7329 200.924 82.1324 200.138 84.1398L200.087 84.2745C199.713 85.3005 198.817 85.7925 198.24 84.9144C197.888 84.3789 197.911 83.4278 198.292 82.3827C199.257 79.7319 201.47 78.5405 204.236 78.3432Z" fill="white"/>
<path d="M201.571 73.9836C201.893 73.9606 202.173 74.2032 202.196 74.5255C202.219 74.8478 201.976 75.1278 201.654 75.1508C197.981 75.4128 194.761 77.7978 193.479 81.3184C193.1 82.362 193.029 83.2542 193.165 83.7061L193.182 83.7565L193.208 83.7192C193.273 83.6201 193.346 83.4778 193.419 83.2932L193.449 83.2116C194.803 79.4929 198.084 76.8887 201.933 76.3514C202.253 76.3068 202.549 76.53 202.594 76.85C202.638 77.17 202.415 77.4657 202.095 77.5104C198.728 77.9804 195.85 80.2275 194.611 83.4472L194.549 83.6118C194.047 84.9907 192.962 85.5865 192.268 84.5306C191.792 83.807 191.826 82.441 192.38 80.9181C193.821 76.96 197.442 74.2781 201.571 73.9836Z" fill="white"/>
<path d="M197.979 68.1729C198.302 68.1499 198.581 68.3925 198.604 68.7149C198.627 69.0372 198.385 69.3171 198.063 69.3401C192.824 69.7138 188.231 73.1156 186.404 78.1369C185.782 79.8457 185.73 81.2941 186.069 81.8961L186.1 81.947C186.151 82.0236 186.134 82.0258 186.147 82.0152L186.154 82.0101C186.327 81.9157 186.554 81.5938 186.761 81.0601L186.803 80.9505C188.669 75.8219 193.195 72.2304 198.503 71.4894C198.823 71.4448 199.119 71.668 199.164 71.988C199.208 72.308 198.985 72.6037 198.665 72.6483C193.845 73.3212 189.728 76.5478 187.97 81.1676L187.902 81.3507C187.253 83.1349 185.95 83.8497 185.122 82.5896C184.505 81.6502 184.55 79.8081 185.304 77.7366C187.291 72.2777 192.285 68.5792 197.979 68.1729Z" fill="white"/>
<path d="M191.568 62.7099C191.885 62.6478 192.192 62.8545 192.255 63.1716C192.317 63.4888 192.11 63.7962 191.793 63.8583C187.051 64.787 183.237 68.4089 182.131 73.1997C181.757 74.8211 181.87 76.1395 182.237 76.6425L182.286 76.7055L182.29 76.7143L182.297 76.709C182.428 76.5903 182.582 76.2871 182.701 75.8169L182.726 75.7137C183.864 70.7864 187.62 66.9724 192.419 65.6916C192.731 65.6082 193.051 65.7937 193.135 66.1059C193.218 66.4181 193.033 66.7388 192.72 66.8221C188.398 67.9761 185.001 71.3795 183.911 75.7899L183.867 75.9769C183.465 77.7147 182.313 78.5442 181.38 77.4442C180.698 76.6396 180.53 74.9324 180.991 72.9365C182.202 67.6919 186.377 63.7265 191.568 62.7099Z" fill="white"/>
<path d="M126.711 134.87L127.049 134.747C130.241 133.602 132.935 133.096 133.619 133.792C134.219 134.403 134.753 135.508 135.26 137.13C135.357 137.438 135.185 137.766 134.876 137.863C134.568 137.959 134.24 137.787 134.143 137.479C133.705 136.077 133.258 135.133 132.835 134.666L132.817 134.648L132.802 134.649C132.722 134.632 132.602 134.624 132.449 134.627C132.112 134.634 131.651 134.693 131.101 134.802C129.968 135.026 128.537 135.444 127.116 135.968C124.74 136.845 122.76 137.874 121.667 138.805C121.265 139.146 120.532 138.195 121.238 137.65C122.507 136.669 124.432 135.711 126.711 134.87Z" fill="white"/>
<path d="M125.105 123.816C125.105 125.767 127.169 127.88 127.608 128C127.92 128.086 122.55 131.584 122.55 131.584C120.61 131.84 119.471 130.2 119.471 127.757C119.471 127.434 125.105 123.493 125.105 123.816Z" fill="white"/>
<path fill-rule="evenodd" clip-rule="evenodd" d="M118.773 124.843C119.453 124.71 119.915 124.144 119.805 123.578C119.695 123.011 119.054 122.659 118.375 122.791C117.695 122.924 117.233 123.49 117.343 124.056C117.453 124.623 118.094 124.975 118.773 124.843Z" fill="url(#paint0_linear_5955_38341)"/>
<path d="M188.029 59.4658C188.348 59.4104 188.651 59.6235 188.706 59.9418C188.762 60.2601 188.548 60.5632 188.23 60.6186C186.716 60.8823 185.189 61.7987 183.615 63.2564C181.571 65.1491 180.221 67.7645 179.477 71.2515C178.877 74.061 179.43 77.5715 180.998 80.6575C182.782 84.1686 185.937 85.0363 189.616 85.7083C193.392 86.3981 194.436 85.9721 198.005 84.7034L198.333 84.5841C198.821 84.3993 201.101 83.5071 201.65 83.3413C202.803 82.9924 203.59 83.0216 204.161 83.6297C204.382 83.8653 204.37 84.2356 204.135 84.4567C203.914 84.664 203.575 84.6666 203.351 84.472L203.308 84.4305C203.139 84.251 202.791 84.2303 202.091 84.4311L201.988 84.4613C201.461 84.6208 198.988 85.5914 198.668 85.7083C194.813 87.1153 193.506 87.6083 189.405 86.8594C185.342 86.1172 181.895 85.0061 179.955 81.1875C178.269 77.8688 177.675 74.0864 178.332 71.0072C179.127 67.2856 180.598 64.4553 182.82 62.3978C184.56 60.7872 186.292 59.7683 188.029 59.4658Z" fill="white"/>
<path d="M215.553 106.022C212.218 105.851 209.591 108.427 209.564 111.885C209.541 114.799 211.182 117.198 213.436 117.663C214.348 117.851 216.098 117.624 217.396 116.896C219.367 115.839 220.874 113.666 221.064 111.814C221.374 108.797 218.931 106.194 215.553 106.022Z" fill="white"/>
<path d="M155.113 105.412C156.179 107.564 157.833 112.534 157.118 112.51C155.13 112.443 152.471 109.389 150.611 105.258L150.464 104.926C148.84 101.176 147.868 98.8204 148.997 98.3691C150.165 97.9023 152.915 100.971 155.113 105.412Z" fill="white"/>
<path fill-rule="evenodd" clip-rule="evenodd" d="M148.997 98.3222C150.165 97.8554 152.955 100.784 155.154 105.225C156.22 107.376 156.942 109.441 157.131 110.921C157.131 110.921 153.533 103.34 151.338 100.563C150.495 99.4962 148.997 98.3222 148.997 98.3222Z" fill="#F9FAFB"/>
<path d="M148.384 117.415C148.47 117.103 148.792 116.92 149.103 117.006C149.415 117.091 149.598 117.413 149.512 117.725C149.402 118.126 147.852 119.177 144.471 121.261L142.336 122.567C138.123 125.133 135.311 126.774 134.96 126.774C132.633 126.774 130.537 124.579 129.006 121.116C127.67 118.093 126.976 114.494 127.289 112.135C127.387 111.399 129.84 109.493 133.627 106.94L134.169 106.577C137.519 104.345 140.383 102.689 141.419 102.48C141.736 102.417 142.044 102.621 142.108 102.938C142.148 103.136 132.914 110.92 132.012 116.087C131.401 119.585 133.71 125.547 134.856 125.601L134.96 125.604C134.866 125.604 134.896 125.582 134.907 125.576L135.013 125.521C135.09 125.481 135.183 125.431 135.289 125.373L135.776 125.1C135.962 124.995 136.17 124.876 136.397 124.745L136.977 124.407C138.086 123.76 139.469 122.936 140.88 122.083L142.222 121.267C143.854 120.27 145.328 119.35 146.436 118.637L147.007 118.266C147.36 118.034 147.659 117.833 147.898 117.667L147.984 117.606C148.116 117.513 148.225 117.433 148.311 117.368C148.311 117.368 148.407 117.33 148.384 117.415Z" fill="white"/>
<path fill-rule="evenodd" clip-rule="evenodd" d="M149.544 105.739C148.13 102.6 147.505 99.7231 147.979 97.9812C147.123 98.253 146.054 98.7416 144.992 99.3506C143.581 100.16 142.461 101.065 142.435 101.261C142.162 103.315 143.209 107.309 144.949 110.871C146.81 114.68 149.023 117.127 150.737 117.127C150.901 117.127 151.371 117.03 151.841 116.866C152.511 116.632 153.138 116.291 153.652 115.845C153.907 115.623 154.172 115.372 154.448 115.092L154.781 114.748C154.977 114.54 155.18 114.317 155.496 113.963L155.936 113.471L155.955 113.45C153.75 112.645 151.445 109.805 149.72 106.123L149.544 105.739ZM141.275 101.107C141.457 99.7376 146.585 96.7767 148.926 96.5854C149.024 96.524 149.128 96.4708 149.24 96.4261C151.267 95.6162 154.355 99.0854 156.832 103.967L157.002 104.306C158.12 106.564 158.883 108.743 159.091 110.373C159.34 112.321 158.776 113.612 157.297 113.678C157.257 113.832 157.157 113.96 157.024 114.037L157.001 114.049L156.944 114.107C156.886 114.166 156.817 114.24 156.712 114.357L155.985 115.169C155.721 115.46 155.534 115.657 155.281 115.914C154.985 116.214 154.699 116.485 154.419 116.728C153.287 117.712 151.612 118.297 150.737 118.297C150.273 118.297 149.804 118.189 149.334 117.983C148.832 118.507 147.286 119.526 144.471 121.262L142.336 122.568C138.123 125.133 135.311 126.774 134.959 126.774C134.163 126.774 133.393 126.517 132.664 126.039C132.657 126.044 132.65 126.049 132.643 126.053L132.345 126.245C131.309 126.917 129.653 128.033 128.116 129.07L128.115 129.07L128.114 129.071L128.114 129.071L128.017 129.136C128.216 130.557 128.669 131.981 129.377 133.411C131.89 132.634 133.88 132.372 134.454 132.956C135.054 133.566 135.589 134.672 136.096 136.293C136.192 136.602 136.021 136.93 135.712 137.026C135.404 137.123 135.076 136.951 134.979 136.643C134.541 135.24 134.094 134.296 133.671 133.83L133.653 133.812L133.638 133.812C133.558 133.796 133.438 133.788 133.285 133.791C132.948 133.797 132.487 133.857 131.936 133.966C130.804 134.19 129.373 134.607 127.952 135.132C124.703 136.33 122.196 137.815 121.681 138.94C121.53 139.27 121.549 139.752 121.729 140.49L121.763 140.623C121.79 140.727 121.818 140.831 121.855 140.962L122.067 141.71L122.079 141.757L122.095 141.818C122.176 142.131 121.988 142.45 121.676 142.531C121.363 142.613 121.044 142.425 120.962 142.112L120.858 141.734L120.685 141.123C120.666 141.051 120.648 140.984 120.63 140.916C120.356 139.859 120.312 139.119 120.617 138.453C121.133 137.325 122.749 136.156 125 135.094L124.51 133.83L124.389 133.51C124.204 133.011 123.988 132.335 123.856 131.842C122.098 132.79 120.874 132.948 119.647 132.28L119.552 132.226C119.309 132.086 119.075 131.924 118.84 131.727L111.982 135.892C112.046 136.029 112.11 136.167 112.175 136.307C112.483 136.967 111.94 137.434 111.108 137.798L111.018 137.836C110.303 138.132 109.657 138.2 109.273 137.778C107.678 136.028 105.99 131.841 106.899 130.884C107.073 130.7 107.533 130.426 108.404 129.97L108.473 129.934C108.491 129.921 108.51 129.91 108.529 129.899L114.939 126.426C114.954 126.418 114.969 126.411 114.984 126.405C114.588 125.75 114.154 125.021 113.674 124.208C113.601 124.09 113.574 123.952 113.592 123.819C113.604 123.735 113.634 123.653 113.683 123.58C113.709 123.539 113.741 123.502 113.778 123.468C115.095 122.218 116.891 120.915 119.144 119.512L119.417 119.343C120.392 118.742 122.369 117.614 124.049 116.656L124.049 116.656C125.352 115.913 126.476 115.272 126.814 115.058L126.896 115.003C127.019 114.914 127.164 114.879 127.304 114.894C127.193 113.879 127.183 112.936 127.289 112.136C127.387 111.399 129.84 109.494 133.627 106.941L134.169 106.577C137.343 104.463 140.08 102.866 141.241 102.526C141.209 102.002 141.22 101.525 141.275 101.107ZM141.369 103.712C140.232 104.128 137.386 105.817 134.281 107.911L133.783 108.248C132.386 109.202 131.095 110.132 130.12 110.889L129.849 111.102C129.413 111.447 129.061 111.744 128.806 111.982C128.678 112.102 128.577 112.204 128.506 112.285L128.456 112.344C128.445 112.355 128.442 112.351 128.446 112.314L128.449 112.29C128.448 112.299 128.447 112.307 128.446 112.314L128.431 112.44C127.868 117.377 131.438 125.441 134.856 125.602L134.936 125.604C134.943 125.604 134.951 125.604 134.959 125.604L134.936 125.604C134.872 125.6 134.897 125.582 134.907 125.576L135.013 125.522C135.09 125.481 135.183 125.432 135.289 125.373L135.776 125.101C135.962 124.995 136.169 124.876 136.396 124.745L136.977 124.408C138.086 123.761 139.469 122.937 140.88 122.083L142.222 121.267C143.853 120.27 145.328 119.351 146.436 118.637L147.007 118.266C147.36 118.034 147.659 117.834 147.898 117.667L147.984 117.607C148.111 117.518 148.217 117.44 148.301 117.376C146.793 116.27 145.309 114.228 143.992 111.577L143.897 111.384C142.628 108.785 141.71 105.971 141.369 103.712ZM127.465 116.028C127.043 116.294 125.798 117.005 124.413 117.796L124.412 117.796L124.412 117.796C122.77 118.734 120.931 119.784 120.031 120.339C117.904 121.65 116.19 122.865 114.916 124.009L115.338 124.721C117.183 127.816 118.252 129.445 119.111 130.366C118.826 129.689 118.678 128.829 118.678 127.751C118.678 127.702 118.684 127.653 118.696 127.607C118.639 127.383 118.719 127.137 118.917 126.992L119.315 126.696C119.554 126.515 119.946 126.215 120.393 125.874L120.393 125.874L120.393 125.874L120.394 125.873L120.395 125.873L120.395 125.872L120.396 125.872C121.374 125.124 122.61 124.18 123.051 123.864C124.438 122.87 125.461 122.312 126.392 122.119C126.837 122.026 127.182 122.29 127.283 122.697L127.299 122.771C127.322 122.893 127.327 123.012 127.326 123.272L127.326 123.355C127.321 124.329 127.417 124.89 127.83 125.539C128.112 125.983 128.527 126.389 129.104 126.752C129.165 126.79 129.216 126.837 129.257 126.89C130.189 126.264 131.062 125.682 131.706 125.265C130.691 124.283 129.777 122.861 129.006 121.117C128.288 119.493 127.756 117.703 127.465 116.028ZM157.93 110.521C157.742 109.041 157.019 106.977 155.954 104.825C153.755 100.384 150.842 97.0459 149.674 97.5127C148.545 97.964 148.84 101.176 150.464 104.926L150.611 105.258C152.471 109.389 155.13 112.443 157.117 112.51C157.833 112.534 158.113 111.949 157.93 110.521ZM115.588 127.394C116.603 129.035 117.345 130.119 117.991 130.873L111.49 134.822C110.824 133.362 110.229 132.003 109.651 130.622L115.496 127.455C115.529 127.437 115.56 127.417 115.588 127.394ZM128.255 133.78C127.624 132.476 127.188 131.167 126.949 129.856C126.109 130.422 125.378 130.911 124.908 131.216C124.988 131.62 125.287 132.578 125.545 133.259L126.025 134.495L126.071 134.616C126.543 134.417 127.036 134.222 127.547 134.034L127.885 133.911C128.009 133.866 128.132 133.823 128.255 133.78ZM128.234 127.579C127.634 127.163 127.175 126.691 126.842 126.167C126.303 125.319 126.162 124.595 126.156 123.501L126.155 123.403L126.073 123.434C125.479 123.664 124.771 124.081 123.882 124.709L123.732 124.815C123.309 125.119 122.103 126.04 121.131 126.783C120.591 127.196 120.122 127.554 119.9 127.72L119.848 127.758C119.849 129.705 120.335 130.598 121.239 131.031L121.311 131.065C121.526 131.16 121.68 131.208 122.119 131.328C122.128 131.331 122.136 131.333 122.145 131.336C122.601 131.183 123.123 130.927 123.747 130.561L123.979 130.422C124.494 130.1 125.877 129.168 127.398 128.142L127.398 128.142L128.234 127.579ZM108.616 131.182L108.706 131.396C109.328 132.869 109.973 134.328 110.706 135.92L110.991 136.537C110.898 136.6 110.775 136.666 110.64 136.725C110.446 136.81 110.249 136.869 110.101 136.889L110.054 136.894L109.982 136.809C109.429 136.127 108.786 134.968 108.321 133.816C108.074 133.203 107.898 132.64 107.818 132.207C107.786 132.031 107.771 131.883 107.772 131.771L107.776 131.697C107.777 131.679 107.777 131.67 107.772 131.668L107.79 131.656C107.889 131.588 108.141 131.44 108.517 131.236L108.616 131.182ZM116.687 129.893C116.461 129.662 116.091 129.659 115.86 129.885C115.454 130.283 114.886 130.654 113.892 131.205L112.882 131.766C112.615 131.918 112.396 132.049 112.198 132.178C112.033 132.285 111.885 132.389 111.752 132.491C111.496 132.689 111.449 133.056 111.647 133.312C111.844 133.568 112.212 133.615 112.467 133.417C112.573 133.336 112.695 133.25 112.835 133.159C112.964 133.076 113.106 132.989 113.271 132.893L113.593 132.708L114.62 132.139C115.606 131.586 116.2 131.191 116.679 130.721C116.91 130.494 116.914 130.124 116.687 129.893Z" fill="#018A08"/>
<path d="M103.601 189.309C106.526 205.621 117.492 217.884 131.485 220.775C134.054 221.306 138.502 221.376 143.107 220.78C149.041 220.012 154.816 218.25 159.895 215.395C173.848 207.896 184.435 192.593 185.807 179.195C187.012 167.428 182.517 156.556 174.378 148.801C174.378 148.801 148.812 161.358 136.262 168.496C125.341 174.706 103.601 189.309 103.601 189.309Z" fill="white"/>
<path d="M163.14 140.664C157.896 138.077 151.326 136.033 144.883 135.703C121.254 134.495 102.67 153.372 102.477 177.719C102.477 177.719 128.849 160.921 142.55 152.816C149.366 148.784 163.14 140.664 163.14 140.664Z" fill="white"/>
<path fill-rule="evenodd" clip-rule="evenodd" d="M211.742 128.254C211.663 132.322 207.358 139.092 200.439 146.754C195.426 152.304 189.594 157.669 184.703 161.284L184.399 161.507L184.601 162.405C185.79 167.617 187.343 173.283 186.756 178.997C185.332 192.865 174.485 208.512 160.15 216.199C154.922 219.132 148.979 220.941 142.883 221.728L142.302 221.8C137.757 222.335 133.407 222.246 130.749 221.698C120.432 219.571 111.697 212.359 106.416 201.921C106.399 201.886 106.385 201.85 106.375 201.814C105.679 202.21 104.744 202.654 104.317 202.799L103.147 203.194C90.5335 207.436 78.0292 210.986 72.9211 208.771C70.9764 207.927 70.3118 206.305 71.125 204.126C71.9154 202.009 74.1068 199.28 77.7834 195.885L77.9854 195.699C81.4693 192.505 89.2059 186.67 101.195 178.192L101.199 178.036C101.784 152.915 121.296 133.765 145.824 135.328C153.326 135.806 159.3 138.472 162.284 140.109L163.596 139.405C175.904 132.824 185.78 128.198 193.315 125.429C205.706 120.876 211.835 123.005 211.742 128.254ZM193.719 128.128C179.863 133.219 157.965 144.671 127.476 163.091L126.55 163.652C102.809 178.023 87.0886 188.941 78.7761 196.561L78.3664 196.94L77.978 197.304C71.738 203.199 70.6319 206.502 73.3866 207.697C78.1022 209.742 90.7658 206.294 103.167 202.227L104.317 201.848C105.423 201.481 106.156 201.271 106.61 201.174C106.63 201.159 106.652 201.147 106.674 201.135C106.83 201.057 107.003 201.054 107.153 201.113C107.186 201.119 107.207 201.129 107.218 201.143C107.319 201.198 107.405 201.283 107.461 201.393C112.587 211.526 121.035 217.701 130.986 219.752C133.569 220.285 137.927 220.363 142.461 219.802L142.733 219.768C148.689 218.998 154.489 218.033 159.587 215.173C173.595 207.661 184.209 192.352 185.592 178.878C186.183 173.119 185.429 167.466 183.423 162.205C183.258 162.321 183.093 162.434 182.93 162.545C182.623 162.755 182.738 162.415 183.275 161.525C183.304 161.409 183.368 161.303 183.46 161.224L183.625 160.961C183.684 160.87 183.744 160.775 183.808 160.676L184.502 160.091C191.038 154.563 196.06 149.856 199.57 145.97L199.971 145.524C206.465 138.257 210.501 131.838 210.568 128.232C210.641 124.277 205.423 123.827 193.719 128.128ZM134.967 202.12C136.537 206.918 134.162 210.004 129.982 210.163C126.119 210.31 122.601 207.876 122.781 204.418C122.936 201.428 124.982 198.233 127.502 197.059C130.55 195.64 133.41 197.362 134.967 202.12ZM128.12 198.385C126.103 199.324 124.369 202.032 124.241 204.493C124.114 206.945 126.824 208.82 129.926 208.701C133.169 208.578 134.833 206.415 133.577 202.575C132.269 198.576 130.28 197.379 128.12 198.385ZM166.885 192.343C168.888 196.128 168.363 199.846 165.283 201.513L165.197 201.558L165.152 201.603C161.022 205.693 155.862 206.189 152.497 203.224L152.382 203.121C148.506 199.57 149.43 193.47 155.597 188.688C159.566 185.611 164.414 187.675 166.885 192.343ZM156.365 189.679C150.766 194.02 149.979 199.219 153.229 202.196C155.56 204.331 159.004 204.449 162.22 202.377L162.283 202.335L162.259 202.331C162.037 202.272 161.858 202.092 161.807 201.858L161.797 201.798C161.757 201.454 162.002 201.143 162.346 201.102C163.132 201.009 163.815 200.819 164.394 200.547L164.473 200.509L164.569 200.409C164.946 200.012 165.314 199.58 165.672 199.112L165.79 198.955C165.924 198.776 166.136 198.688 166.344 198.705L166.36 198.707L166.368 198.691C167.119 197.207 166.941 195.196 165.842 193.055L165.776 192.929C163.628 188.87 159.613 187.161 156.365 189.679ZM193.649 144.689C193.327 145.834 192.346 147.405 190.843 149.265C188.223 152.508 184.286 156.282 180.846 158.863L181.609 158.024C181.601 158.017 181.595 158.008 181.589 157.998L181.326 157.514C179.604 154.371 177.686 151.271 174.586 148.744C166.561 152.052 157.361 156.575 148.978 161.304L146.23 162.857C125.996 174.319 115.35 181.181 103.967 189.617C104.396 191.552 104.938 193.44 105.586 195.27C105.688 195.557 104.358 196.631 104.115 196.499C101.844 198.02 98.2879 199.125 96.2633 199.183C94.2901 199.239 93.1502 198.44 93.7375 196.847C94.2287 195.515 96.0793 193.615 99.4097 191.069L99.7893 190.78L100.557 190.203C113.091 180.82 125.499 173.205 148.403 160.285L149.362 159.747C165.07 150.978 183.261 143.078 191.593 142.349C193.306 142.2 194.083 143.147 193.649 144.689ZM102.442 190.752L99.8162 192.733C97.4735 194.51 95.7846 195.824 94.8722 196.666L94.8053 196.729C93.6917 197.773 94.9522 198.049 96.2301 198.013C98.1658 197.958 101.131 196.49 103.641 195.154C103.177 193.717 102.777 192.248 102.442 190.752ZM143.52 184.399C143.833 184.479 144.022 184.797 143.943 185.11C143.863 185.423 143.545 185.613 143.232 185.533C141.659 185.134 140.729 185.287 140.428 185.711C140.228 185.992 140.338 186.471 140.712 186.777C141.005 187.016 141.394 187.131 141.662 187.072C141.895 187.022 142.025 186.842 142.025 186.393C142.025 186.07 142.287 185.808 142.61 185.808C142.933 185.808 143.195 186.07 143.195 186.393C143.195 187.37 142.706 188.042 141.911 188.216C141.271 188.355 140.525 188.136 139.972 187.683C139.154 187.014 138.886 185.858 139.474 185.032C140.118 184.127 141.531 183.894 143.52 184.399ZM117.819 182.251C118.721 182.521 119.11 183.214 119.233 184.254L119.245 184.367L119.26 184.537C119.262 184.566 119.264 184.595 119.266 184.627L119.296 185.22L119.306 185.354C119.31 185.413 119.316 185.461 119.322 185.504L119.337 185.593L119.347 185.633L119.363 185.647C119.544 185.824 119.592 186.101 119.475 186.33L119.445 186.382C119.27 186.654 118.908 186.732 118.636 186.557C118.262 186.316 118.177 186.068 118.132 185.356L118.095 184.659C118.091 184.596 118.086 184.542 118.08 184.48C118.014 183.799 117.847 183.481 117.483 183.372C116.461 183.066 115.875 183.379 115.689 184.062C115.524 184.67 115.763 185.31 116.182 185.488L116.289 185.527C116.563 185.644 116.708 185.953 116.615 186.243C116.517 186.551 116.188 186.721 115.88 186.622C114.766 186.267 114.237 184.943 114.56 183.755C114.921 182.428 116.175 181.759 117.819 182.251ZM160.03 173.292C161.651 175.57 161.349 178.468 158.75 179.78C158.461 179.925 158.11 179.809 157.964 179.521C157.818 179.232 157.934 178.881 158.223 178.735C160.105 177.786 160.32 175.718 159.077 173.971C157.869 172.273 156.189 172.086 155.034 173.921C153.809 175.865 153.898 177.007 154.78 177.521C155.48 177.929 156.607 177.843 156.916 177.509L156.946 177.473C157.134 177.209 157.499 177.148 157.762 177.335C158.026 177.523 158.087 177.888 157.9 178.151C157.249 179.065 155.393 179.233 154.19 178.531C152.651 177.634 152.503 175.743 154.044 173.297C155.693 170.678 158.383 170.977 160.03 173.292ZM135.773 169.937C136.077 169.937 136.327 170.169 136.355 170.466L136.358 170.522C136.358 170.625 136.454 170.741 136.797 170.992L137.122 171.225C137.476 171.484 137.647 171.644 137.808 171.899C138.177 172.483 138.386 173.076 138.386 173.775C138.386 175.563 135.7 177.995 132.768 179.077C129.253 180.374 126.373 179.412 125.59 175.805C125.521 175.49 125.721 175.178 126.037 175.11C126.353 175.041 126.664 175.241 126.733 175.557C127.341 178.356 129.441 179.058 132.363 177.979C134.886 177.048 137.216 174.938 137.216 173.775C137.216 173.325 137.079 172.936 136.819 172.525L136.784 172.475C136.724 172.4 136.631 172.319 136.464 172.194L136.078 171.916C135.436 171.443 135.188 171.124 135.188 170.522C135.188 170.199 135.45 169.937 135.773 169.937ZM138.519 137.509L138.15 137.55C118.185 139.951 103.207 155.919 102.391 177.348L104.533 175.841C110.681 171.525 117.818 166.595 125.944 161.051L127.527 160.094C132.254 157.242 136.773 154.558 141.087 152.041C141.009 151.903 140.986 151.733 141.04 151.57C141.341 150.649 141.62 150.031 142.131 149.411C143.73 147.472 145.92 146.525 147.471 147.742C147.624 147.862 147.701 148.043 147.695 148.223L149.073 147.437C153.414 144.966 157.521 142.684 161.397 140.588L159.883 140.157C157.638 139.525 154.844 138.776 152.062 138.199C152.087 140.05 150.702 141.529 148.399 142.546C146.442 143.41 143.891 143.875 142.077 143.767C138.685 143.565 136.775 140.589 138.519 137.509ZM173.541 162.917C174.973 166.829 173.792 170.386 170.217 170.363C165.123 170.33 160.149 165.882 160.953 161.898C161.312 160.12 162.648 158.548 164.972 157.763C168.683 156.51 172.084 158.935 173.541 162.917ZM165.346 158.872C163.426 159.52 162.378 160.754 162.1 162.129C161.462 165.292 165.793 169.164 170.225 169.193C172.763 169.209 173.636 166.58 172.443 163.319C171.18 159.869 168.356 157.856 165.346 158.872ZM122.324 145.021L122.366 145.082L122.648 145.529C122.785 145.757 122.909 145.98 123.027 146.22C124.322 148.87 124.289 152.343 122.096 157.164C121.103 159.348 118.572 162.283 116.362 164.035C113.54 166.271 111.433 166.779 108.918 166.503L108.172 166.416L108.081 166.407C108.031 166.404 107.999 166.403 107.964 166.405L107.913 166.407C107.874 166.409 107.86 166.407 107.858 166.401L107.858 166.398L107.839 166.428C107.67 166.671 107.34 166.751 107.075 166.604C106.793 166.447 106.691 166.091 106.848 165.808C107.059 165.43 107.41 165.259 107.857 165.238C107.976 165.232 108.101 165.236 108.25 165.249L108.425 165.266L108.907 165.324C111.198 165.602 113.021 165.19 115.635 163.118C117.711 161.473 120.124 158.674 121.031 156.68C123.083 152.168 123.113 149.06 121.975 146.734C121.9 146.579 121.821 146.432 121.735 146.285L121.613 146.08L121.367 145.692C121.196 145.418 121.278 145.057 121.552 144.885C121.809 144.725 122.142 144.787 122.324 145.021ZM191.695 143.515C187.955 143.842 182.092 145.69 175.332 148.438L175.53 148.613C177.411 150.301 181.206 154.303 182.394 157.158L183.578 155.846C186.497 152.598 188.616 150.159 189.933 148.529L190.2 148.195C191.458 146.598 192.272 145.263 192.523 144.372L192.558 144.237C192.714 143.594 192.534 143.442 191.695 143.515ZM135.673 145.416C137.129 146.12 137.72 147.687 136.762 149.108C136.581 149.376 136.218 149.447 135.95 149.266C135.682 149.086 135.611 148.722 135.792 148.454C136.319 147.672 136.021 146.884 135.163 146.469C134.26 146.032 133.27 146.284 132.759 147.237C132.288 148.116 132.256 149.305 132.632 150.085C132.962 150.768 133.442 150.899 134.175 150.348C134.433 150.154 134.8 150.205 134.994 150.463C135.189 150.722 135.137 151.088 134.879 151.283C133.543 152.288 132.222 151.927 131.578 150.593C131.038 149.474 131.081 147.891 131.728 146.685C132.552 145.146 134.233 144.719 135.673 145.416ZM143.034 150.155C142.761 150.486 142.566 150.836 142.386 151.284C143.893 150.408 145.375 149.552 146.832 148.717L146.79 148.692L146.749 148.663C145.856 147.962 144.281 148.643 143.034 150.155ZM140.539 137.33L140.027 137.366L139.993 137.409C137.97 139.965 138.749 142.039 141.511 142.334C143.495 142.546 148.761 141.074 149.379 140.557C149.981 140.054 150.742 138.897 150.859 137.96C149.072 137.624 147.323 137.377 145.764 137.297C144.17 137.215 142.599 137.217 141.053 137.299L140.539 137.33Z" fill="#018A08"/>
<path d="M193.364 128.273C205.755 123.72 205.471 125.071 193.767 129.372C179.911 134.463 127.608 166.368 127.608 166.368C103.868 180.739 102.092 178.521 125.103 164.536L126.521 163.676C126.789 163.514 152.987 146.979 171.707 138.133C173.814 137.138 191.953 128.792 193.364 128.273Z" fill="white"/>
<path fill-rule="evenodd" clip-rule="evenodd" d="M214.76 105.605C210.92 105.409 207.923 108.392 207.892 112.296C207.866 115.567 209.742 118.345 212.431 118.899C213.14 119.045 215.183 119.045 216.955 118.051L217.102 117.97C219.336 116.705 220.856 114.298 221.06 112.317C221.42 108.806 218.6 105.801 214.76 105.605ZM208.728 112.303C208.728 112.278 208.728 112.253 208.729 112.228C208.753 112.22 208.776 112.21 208.799 112.198C211.809 110.576 213.668 109.34 214.41 108.448C214.9 107.859 215.139 107.194 215.119 106.472C215.625 106.528 216.107 106.639 216.558 106.798C216.556 106.819 216.555 106.841 216.556 106.864C216.592 107.903 216.315 108.734 215.726 109.38C215.05 110.124 214.23 110.831 213.298 111.498C212.301 112.211 211.231 112.841 210.161 113.38C209.911 113.506 209.673 113.621 209.45 113.724L209.127 113.87C209.081 113.891 209.038 113.91 208.999 113.927L208.903 113.967C208.784 113.44 208.723 112.882 208.728 112.303ZM209.138 114.775C209.402 115.509 209.786 116.16 210.26 116.689L210.51 116.546C214.438 114.271 216.877 112.485 217.8 111.224C218.734 109.95 219.066 108.971 218.857 108.306C218.853 108.29 218.849 108.274 218.846 108.259C218.434 107.827 217.945 107.456 217.393 107.163C217.37 108.268 217.021 109.2 216.344 109.943C215.625 110.733 214.761 111.479 213.784 112.178C212.749 112.918 211.643 113.569 210.537 114.127C210.214 114.289 209.91 114.434 209.631 114.561L209.305 114.705L209.138 114.775ZM212.266 117.996C211.773 117.849 211.313 117.607 210.899 117.286C214.943 114.947 217.46 113.104 218.475 111.718C219.104 110.858 219.507 110.085 219.67 109.395C219.874 109.775 220.028 110.18 220.127 110.603C220.106 110.646 220.091 110.694 220.086 110.744C219.984 111.721 219.481 112.691 218.56 113.657C217.676 114.584 215.769 115.921 212.855 117.65L212.266 117.996ZM213.679 118.132C214.576 118.075 215.673 117.812 216.56 117.314C218.209 116.43 219.533 114.765 220.033 113.16C219.791 113.522 219.502 113.88 219.165 114.233C218.257 115.185 216.434 116.479 213.679 118.132ZM208.971 111.153L208.822 111.234C209.296 108.472 211.503 106.49 214.281 106.433C214.311 106.975 214.142 107.462 213.767 107.913C213.161 108.642 211.553 109.734 208.971 111.153Z" fill="#018A08"/>
<path fill-rule="evenodd" clip-rule="evenodd" d="M244.931 97.5968C245.009 97.6058 245.063 97.6763 245.055 97.7537C245.054 97.8678 244.981 97.9294 244.882 97.9695C244.793 98.0052 244.651 97.9915 244.568 98.0027C243.663 98.0726 242.952 97.4066 242.639 96.5483C242.338 95.7237 242.418 94.7378 242.964 94.1297C243.027 94.058 243.136 94.0508 243.207 94.1136C243.279 94.1764 243.686 94.2856 243.623 94.3573C243.173 94.8826 242.869 95.2013 243.293 96.4481C243.718 97.6949 244.873 97.5901 244.931 97.5968Z" fill="#F9FAFB"/>
<path fill-rule="evenodd" clip-rule="evenodd" d="M100.829 106.523C100.591 106.36 100.266 106.421 100.102 106.658C99.939 106.896 99.9994 107.221 100.237 107.385C100.499 107.564 100.729 107.73 100.933 107.884C100.714 108.058 100.494 108.258 100.267 108.486L99.8047 108.955C99.6016 109.16 99.6031 109.491 99.808 109.694C100.013 109.897 100.344 109.896 100.547 109.691L101.101 109.131C101.327 108.911 101.538 108.727 101.751 108.574C102.223 109.043 102.367 109.386 102.375 109.727L102.375 109.815L102.377 109.868C102.404 110.132 102.626 110.337 102.897 110.337C103.185 110.337 103.419 110.103 103.419 109.815L103.419 109.712C103.41 109.18 103.222 108.674 102.716 108.096C103.05 107.996 103.426 107.94 103.883 107.917C104.171 107.901 104.392 107.656 104.377 107.368C104.362 107.079 104.116 106.858 103.828 106.873C103.036 106.915 102.42 107.047 101.872 107.298C101.643 107.11 101.383 106.914 101.09 106.706L100.829 106.523Z" fill="#018A08"/>
<path fill-rule="evenodd" clip-rule="evenodd" d="M179.103 220.99L179.465 220.992C181.491 221.011 183.073 221.193 186.054 221.672C186.396 221.727 186.628 222.048 186.573 222.39C186.519 222.732 186.197 222.965 185.855 222.91L184.878 222.756C182.412 222.377 180.991 222.244 179.103 222.244C172.551 222.244 168.369 226.345 169.077 232.635C169.116 232.979 168.868 233.289 168.524 233.328C168.18 233.366 167.87 233.119 167.831 232.775C167.035 225.701 171.839 220.99 179.103 220.99ZM184.176 223.521L184.115 223.468C184.056 223.417 183.965 223.424 183.916 223.483C183.864 223.543 183.872 223.632 183.931 223.683L183.994 223.736C184.053 223.787 184.142 223.78 184.194 223.721C184.243 223.662 184.237 223.572 184.176 223.521ZM172.817 224.832C172.592 224.652 172.263 224.687 172.082 224.912C171.353 225.82 170.821 226.705 170.489 227.569C170.166 228.409 170.056 229.821 170.14 231.839L170.16 232.265C170.175 232.553 170.421 232.774 170.709 232.759C170.997 232.744 171.219 232.498 171.203 232.21C171.093 230.101 171.187 228.665 171.464 227.944C171.755 227.188 172.231 226.395 172.897 225.567C173.077 225.342 173.042 225.013 172.817 224.832ZM178.518 223.104C178.774 222.971 179.089 223.071 179.222 223.328C179.355 223.584 179.255 223.899 178.999 224.032C177.938 224.581 177.127 225.503 176.562 226.817C175.956 228.226 175.46 229.484 175.075 230.59C174.979 230.862 174.682 231.006 174.409 230.911C174.137 230.816 173.993 230.518 174.088 230.246C174.482 229.115 174.987 227.835 175.603 226.404C176.259 224.877 177.233 223.77 178.518 223.104ZM181.555 223.077C181.365 222.86 181.035 222.838 180.818 223.028C179.946 223.792 179.276 224.487 178.807 225.117C178.341 225.743 177.796 226.678 177.165 227.93C177.036 228.188 177.139 228.502 177.397 228.632C177.654 228.761 177.968 228.658 178.098 228.4C178.704 227.198 179.222 226.309 179.645 225.741C180.065 225.177 180.686 224.533 181.506 223.814C181.723 223.624 181.745 223.294 181.555 223.077ZM179.648 228.976C179.431 229.166 179.101 229.144 178.91 228.927C178.72 228.71 178.742 228.38 178.959 228.19C179.78 227.471 180.401 226.827 180.82 226.263C181.243 225.695 181.761 224.806 182.367 223.604C182.497 223.346 182.811 223.243 183.069 223.372C183.326 223.502 183.43 223.816 183.3 224.074C182.669 225.326 182.124 226.261 181.658 226.887C181.189 227.517 180.52 228.212 179.648 228.976ZM175.692 223.53C175.455 223.366 175.13 223.426 174.966 223.663C173.798 225.354 173.052 226.618 172.722 227.476C172.391 228.338 172.163 229.499 172.03 230.967C172.004 231.254 172.216 231.508 172.503 231.534C172.791 231.56 173.045 231.348 173.071 231.061C173.195 229.681 173.407 228.609 173.698 227.851C173.969 227.144 174.602 226.054 175.591 224.599L175.826 224.257C175.989 224.019 175.93 223.694 175.692 223.53Z" fill="#018A08"/>
<path fill-rule="evenodd" clip-rule="evenodd" d="M165.776 220.45L166.136 221.25L166.957 221.485C167.001 221.498 167.027 221.544 167.014 221.589C167.01 221.602 167.003 221.615 166.993 221.625L166.369 222.245L166.404 223.139C166.406 223.185 166.37 223.224 166.324 223.225C166.308 223.226 166.293 223.222 166.279 223.215L165.573 222.813C165.551 222.8 165.525 222.798 165.501 222.808L164.746 223.107C164.703 223.124 164.655 223.103 164.638 223.061C164.632 223.046 164.63 223.03 164.633 223.015L164.792 222.135L164.261 221.434C164.233 221.397 164.24 221.345 164.277 221.317C164.289 221.308 164.302 221.302 164.316 221.301L165.161 221.181L165.629 220.439C165.654 220.4 165.706 220.389 165.745 220.413C165.758 220.422 165.769 220.435 165.776 220.45Z" fill="#018A08"/>
<path fill-rule="evenodd" clip-rule="evenodd" d="M194.844 108.455C195.036 108.625 195.276 108.933 195.488 109.265L195.76 109.144L196.083 109.006C196.148 108.976 196.19 108.953 196.202 108.934C196.24 108.865 196.325 108.839 196.395 108.876C196.463 108.912 196.491 108.998 196.453 109.067C196.428 109.133 196.247 109.339 195.911 109.54C195.85 109.576 195.782 109.61 195.71 109.643C195.834 109.875 195.932 110.099 195.977 110.279C196.046 110.544 195.991 110.732 195.9 110.798C195.811 110.863 195.588 110.875 195.247 110.593C195.184 110.545 195.175 110.456 195.222 110.394C195.27 110.332 195.358 110.321 195.421 110.369C195.486 110.416 195.551 110.443 195.604 110.463L195.578 110.361C195.568 110.325 195.556 110.287 195.538 110.251C195.477 110.117 195.4 109.965 195.313 109.808C195.046 109.909 194.744 110 194.416 110.044C194.257 110.065 194.094 110.07 193.925 110.068C193.828 110.075 193.744 110.001 193.738 109.904C193.731 109.806 193.805 109.722 193.902 109.716C194.296 109.678 194.66 109.579 194.981 109.467L195.086 109.429C194.912 109.157 194.726 108.91 194.567 108.771C194.48 108.695 194.471 108.561 194.547 108.474C194.625 108.387 194.757 108.378 194.844 108.455Z" fill="#018A08"/>
<path fill-rule="evenodd" clip-rule="evenodd" d="M79.8223 179.177C79.2759 179.213 78.4095 179.353 77.7013 179.633C77.0955 179.874 77.0955 186.414 79.1667 186.936C81.2259 187.622 83.4776 186.713 83.2087 183.213C83.2039 183.14 83.1446 182.941 83.0767 182.713C82.9772 182.379 82.8591 181.982 82.8663 181.827C82.8942 181.277 82.7498 180.814 82.3687 180.523C81.9581 179.653 81.1534 179.092 79.8223 179.177ZM79.5258 185.343C78.5121 184.586 78.5477 181.051 79.7046 180.815C80.4246 181.369 81.0817 182.168 81.3034 183.707C81.0554 184.555 80.5317 185.046 80.0738 185.475C80.0248 185.521 79.9765 185.566 79.9295 185.611C79.7987 185.536 79.6641 185.446 79.5258 185.343Z" fill="white"/>
<path fill-rule="evenodd" clip-rule="evenodd" d="M78.2944 183.282C78.2025 182.732 78.2652 182.117 78.5416 181.46C78.667 181.162 78.9966 180.92 79.409 180.757C79.891 180.567 80.4807 180.472 80.8525 180.448C81.7584 180.389 82.3059 180.769 82.585 181.357C82.8443 181.554 82.9425 181.867 82.9233 182.239C82.9151 182.415 83.1479 183.054 83.156 183.176C83.338 185.543 81.8054 186.159 80.4042 185.695C79.8718 185.966 79.3583 186.011 78.9719 185.723C78.6252 185.467 78.3591 184.926 78.2982 183.972C78.2819 183.726 78.2807 183.496 78.2944 183.282ZM80.7798 181.723C79.9758 181.881 79.9422 184.202 80.6442 184.697C80.74 184.764 80.8333 184.823 80.9239 184.871C81.2632 184.565 81.5163 184.318 81.6599 183.812C81.8034 183.306 81.2784 182.085 80.7798 181.723Z" fill="url(#paint1_linear_5955_38341)"/>
<path fill-rule="evenodd" clip-rule="evenodd" d="M133.16 241.246C132.922 241.083 132.597 241.143 132.433 241.381C132.27 241.619 132.33 241.944 132.568 242.107C132.83 242.287 133.06 242.452 133.264 242.606C133.045 242.781 132.826 242.981 132.598 243.209L132.136 243.678C131.933 243.883 131.934 244.214 132.139 244.417C132.344 244.62 132.675 244.618 132.878 244.414L133.432 243.853C133.658 243.634 133.869 243.45 134.082 243.297C134.554 243.765 134.698 244.109 134.706 244.45L134.706 244.538L134.708 244.591C134.735 244.854 134.958 245.06 135.228 245.06C135.517 245.06 135.75 244.826 135.75 244.538L135.75 244.435C135.741 243.903 135.553 243.397 135.047 242.818C135.381 242.719 135.757 242.663 136.214 242.639C136.502 242.624 136.723 242.378 136.708 242.09C136.693 241.802 136.447 241.581 136.159 241.596C135.367 241.637 134.751 241.769 134.203 242.02C133.974 241.833 133.714 241.636 133.421 241.429L133.16 241.246Z" fill="#018A08"/>
<path fill-rule="evenodd" clip-rule="evenodd" d="M133.16 241.246C132.922 241.083 132.597 241.143 132.433 241.381C132.27 241.619 132.33 241.944 132.568 242.107C132.83 242.287 133.06 242.452 133.264 242.606C133.045 242.781 132.826 242.981 132.598 243.209L132.136 243.678C131.933 243.883 131.934 244.214 132.139 244.417C132.344 244.62 132.675 244.618 132.878 244.414L133.432 243.853C133.658 243.634 133.869 243.45 134.082 243.297C134.554 243.765 134.698 244.109 134.706 244.45L134.706 244.538L134.708 244.591C134.735 244.854 134.958 245.06 135.228 245.06C135.517 245.06 135.75 244.826 135.75 244.538L135.75 244.435C135.741 243.903 135.553 243.397 135.047 242.818C135.381 242.719 135.757 242.663 136.214 242.639C136.502 242.624 136.723 242.378 136.708 242.09C136.693 241.802 136.447 241.581 136.159 241.596C135.367 241.637 134.751 241.769 134.203 242.02C133.974 241.833 133.714 241.636 133.421 241.429L133.16 241.246Z" fill="#018A08"/>
<path fill-rule="evenodd" clip-rule="evenodd" d="M151.013 226.934L151.373 227.734L152.193 227.97C152.237 227.982 152.263 228.029 152.25 228.073C152.246 228.087 152.239 228.099 152.229 228.109L151.606 228.73L151.64 229.623C151.642 229.669 151.606 229.708 151.56 229.71C151.545 229.71 151.529 229.707 151.516 229.699L150.81 229.297C150.788 229.284 150.761 229.283 150.738 229.292L149.983 229.592C149.94 229.609 149.891 229.588 149.874 229.545C149.868 229.53 149.867 229.515 149.87 229.499L150.028 228.62L149.497 227.918C149.47 227.881 149.477 227.829 149.514 227.801C149.525 227.792 149.538 227.787 149.552 227.785L150.398 227.666L150.866 226.924C150.89 226.885 150.942 226.873 150.981 226.898C150.995 226.906 151.006 226.919 151.013 226.934Z" fill="#018A08"/>
<path fill-rule="evenodd" clip-rule="evenodd" d="M105.725 221.438L106.337 222.067L107.189 222.008C107.235 222.004 107.275 222.039 107.278 222.085C107.279 222.099 107.276 222.114 107.27 222.126L106.897 222.923L107.235 223.75C107.252 223.793 107.232 223.842 107.189 223.859C107.175 223.865 107.159 223.867 107.143 223.864L106.343 223.728C106.318 223.724 106.292 223.731 106.273 223.748L105.666 224.288C105.632 224.319 105.579 224.316 105.548 224.281C105.538 224.269 105.531 224.255 105.528 224.24L105.377 223.359L104.638 222.881C104.599 222.856 104.588 222.804 104.613 222.766C104.621 222.754 104.631 222.744 104.644 222.737L105.398 222.336L105.584 221.479C105.593 221.434 105.638 221.405 105.683 221.415C105.699 221.418 105.714 221.427 105.725 221.438Z" fill="#018A08"/>
<path fill-rule="evenodd" clip-rule="evenodd" d="M96.1698 164.151L96.5297 164.951L97.3504 165.186C97.3947 165.199 97.4204 165.245 97.4076 165.29C97.4037 165.303 97.3963 165.316 97.3863 165.326L96.7628 165.947L96.7977 166.84C96.7995 166.886 96.7636 166.925 96.7175 166.927C96.7019 166.927 96.6864 166.923 96.6728 166.916L95.967 166.514C95.9449 166.501 95.9184 166.499 95.8948 166.509L95.1399 166.809C95.097 166.826 95.0484 166.805 95.0313 166.762C95.0256 166.747 95.024 166.731 95.0268 166.716L95.1857 165.836L94.6546 165.135C94.6268 165.098 94.634 165.046 94.6708 165.018C94.6822 165.009 94.6955 165.004 94.7096 165.002L95.555 164.883L96.0228 164.141C96.0475 164.102 96.0991 164.09 96.1381 164.114C96.152 164.123 96.163 164.136 96.1698 164.151Z" fill="#018A08"/>
<path fill-rule="evenodd" clip-rule="evenodd" d="M96.0863 164.949L96.2392 165.288L96.5878 165.389C96.6066 165.394 96.6175 165.414 96.6121 165.432C96.6104 165.438 96.6073 165.444 96.603 165.448L96.3382 165.711L96.353 166.091C96.3538 166.11 96.3385 166.127 96.319 166.128C96.3123 166.128 96.3058 166.126 96.3 166.123L96.0002 165.952C95.9908 165.947 95.9795 165.946 95.9695 165.95L95.6489 166.078C95.6306 166.085 95.61 166.076 95.6028 166.058C95.6003 166.051 95.5996 166.045 95.6008 166.038L95.6683 165.665L95.4427 165.367C95.4309 165.351 95.434 165.329 95.4496 165.317C95.4544 165.313 95.4601 165.311 95.4661 165.31L95.8252 165.26L96.0239 164.944C96.0344 164.928 96.0563 164.923 96.0729 164.933C96.0788 164.937 96.0835 164.942 96.0863 164.949Z" fill="#F9FAFB"/>
<path fill-rule="evenodd" clip-rule="evenodd" d="M53.3758 199.249L53.7358 200.048L54.5564 200.284C54.6008 200.297 54.6264 200.343 54.6137 200.387C54.6098 200.401 54.6024 200.414 54.5923 200.424L53.9688 201.044L54.0038 201.937C54.0056 201.984 53.9696 202.022 53.9235 202.024C53.9079 202.025 53.8925 202.021 53.8789 202.013L53.1731 201.611C53.151 201.599 53.1244 201.597 53.1008 201.606L52.3459 201.906C52.303 201.923 52.2544 201.902 52.2374 201.859C52.2316 201.845 52.23 201.829 52.2328 201.814L52.3917 200.934L51.8607 200.233C51.8328 200.196 51.8401 200.143 51.8769 200.115C51.8882 200.107 51.9016 200.101 51.9157 200.099L52.7611 199.98L53.2289 199.238C53.2535 199.199 53.3051 199.187 53.3442 199.212C53.3581 199.221 53.3691 199.234 53.3758 199.249Z" fill="#018A08"/>
<path fill-rule="evenodd" clip-rule="evenodd" d="M89.5448 127.418L89.8063 127.6C90.0997 127.809 91.1952 128.841 91.4243 129.028C91.9721 128.777 92.5878 128.645 93.3802 128.604C93.6684 128.588 93.9141 128.81 93.9292 129.098C93.9442 129.386 93.7229 129.632 93.4348 129.647C92.9782 129.671 92.6018 129.726 92.2678 129.826C92.7738 130.405 92.9615 130.911 92.9713 131.443L92.9713 131.545C92.9713 131.834 92.7375 132.068 92.4489 132.068C92.1785 132.068 91.956 131.862 91.9293 131.599L91.9266 131.545L91.9265 131.458C91.9188 131.116 91.775 130.773 91.3027 130.305C91.09 130.458 90.8786 130.641 90.653 130.861L90.0987 131.421C89.8956 131.626 89.5649 131.628 89.36 131.424C89.1551 131.221 89.1536 130.891 89.3567 130.686L89.8187 130.216C90.0465 129.989 90.2657 129.789 90.4852 129.614C90.0997 128.734 88.6552 127.791 88.8185 127.553C88.9818 127.315 89.307 127.255 89.5448 127.418Z" fill="#018A08"/>
<path fill-rule="evenodd" clip-rule="evenodd" d="M190.335 187.664L191.047 188.177L191.875 187.971C191.92 187.96 191.965 187.987 191.977 188.032C191.98 188.045 191.98 188.06 191.976 188.074L191.747 188.923L192.223 189.679C192.248 189.718 192.236 189.77 192.197 189.794C192.184 189.803 192.169 189.807 192.153 189.807L191.341 189.812C191.316 189.812 191.292 189.824 191.276 189.844L190.772 190.481C190.743 190.517 190.691 190.523 190.655 190.494C190.642 190.485 190.633 190.472 190.628 190.457L190.326 189.616L189.515 189.274C189.472 189.256 189.453 189.207 189.47 189.164C189.476 189.151 189.485 189.14 189.496 189.131L190.169 188.605L190.203 187.729C190.205 187.683 190.243 187.647 190.289 187.649C190.306 187.649 190.322 187.655 190.335 187.664Z" fill="#018A08"/>
<path fill-rule="evenodd" clip-rule="evenodd" d="M198.51 154.924L198.726 155.775L199.493 156.149C199.534 156.169 199.552 156.219 199.531 156.261C199.525 156.274 199.516 156.285 199.504 156.293L198.782 156.796L198.662 157.682C198.655 157.727 198.613 157.759 198.567 157.753C198.552 157.751 198.537 157.745 198.525 157.735L197.9 157.216C197.881 157.2 197.855 157.193 197.83 157.199L197.034 157.363C196.989 157.372 196.945 157.343 196.936 157.298C196.932 157.283 196.934 157.267 196.939 157.252L197.248 156.413L196.847 155.63C196.826 155.589 196.842 155.539 196.883 155.518C196.896 155.511 196.91 155.508 196.924 155.509L197.778 155.538L198.367 154.889C198.398 154.855 198.451 154.852 198.485 154.883C198.497 154.894 198.506 154.908 198.51 154.924Z" fill="#018A08"/>
<path fill-rule="evenodd" clip-rule="evenodd" d="M179.892 120.704L180.108 121.554L180.875 121.928C180.916 121.949 180.933 121.999 180.913 122.04C180.907 122.053 180.898 122.064 180.886 122.072L180.164 122.575L180.043 123.461C180.037 123.507 179.995 123.539 179.949 123.532C179.934 123.53 179.919 123.524 179.907 123.514L179.282 122.995C179.262 122.979 179.237 122.973 179.212 122.978L178.416 123.142C178.371 123.151 178.327 123.122 178.317 123.077C178.314 123.062 178.315 123.046 178.321 123.031L178.63 122.193L178.229 121.41C178.208 121.369 178.224 121.318 178.265 121.297C178.278 121.291 178.292 121.288 178.306 121.288L179.159 121.318L179.749 120.668C179.78 120.634 179.833 120.631 179.867 120.662C179.879 120.673 179.888 120.688 179.892 120.704Z" fill="#018A08"/>
<path fill-rule="evenodd" clip-rule="evenodd" d="M234.895 129.035L235.213 129.007C235.571 128.977 235.896 128.961 236.192 128.957C236.45 128.413 236.837 127.916 237.418 127.375C237.629 127.178 237.959 127.19 238.156 127.401C238.353 127.612 238.341 127.942 238.13 128.139C237.796 128.451 237.543 128.735 237.351 129.026C238.111 129.144 238.58 129.411 238.929 129.812L238.995 129.891C239.181 130.112 239.152 130.442 238.931 130.627C238.724 130.801 238.421 130.786 238.231 130.602L238.195 130.563L238.139 130.496C237.913 130.239 237.583 130.068 236.92 130.013C236.855 130.267 236.811 130.544 236.779 130.857L236.715 131.642C236.691 131.93 236.439 132.144 236.151 132.12C235.864 132.096 235.65 131.844 235.674 131.556L235.726 130.9C235.754 130.579 235.794 130.285 235.849 130.01C235.595 130.023 235.311 130.044 234.996 130.075C234.708 130.103 234.453 129.892 234.425 129.605C234.398 129.318 234.608 129.063 234.895 129.035Z" fill="#018A08"/>
<path fill-rule="evenodd" clip-rule="evenodd" d="M192.711 165.094C192.617 165.333 192.41 165.664 192.17 165.976L192.377 166.191L192.617 166.447L192.67 166.498C192.693 166.519 192.712 166.531 192.725 166.535C192.803 166.546 192.857 166.617 192.846 166.696C192.835 166.772 192.764 166.827 192.686 166.816C192.616 166.815 192.36 166.715 192.056 166.468C192.001 166.423 191.946 166.371 191.89 166.315C191.715 166.51 191.538 166.679 191.384 166.783C191.159 166.939 190.964 166.951 190.87 166.888C190.779 166.827 190.691 166.621 190.84 166.204C190.863 166.129 190.944 166.089 191.018 166.113C191.092 166.136 191.133 166.216 191.11 166.291C191.087 166.368 191.084 166.439 191.084 166.495L191.17 166.436C191.201 166.414 191.232 166.39 191.261 166.361C191.366 166.258 191.482 166.133 191.6 165.998C191.414 165.782 191.225 165.528 191.072 165.236C190.997 165.093 190.937 164.942 190.881 164.783C190.842 164.694 190.882 164.589 190.971 164.55C191.06 164.511 191.165 164.552 191.204 164.64C191.374 164.997 191.592 165.305 191.807 165.569L191.879 165.655C192.075 165.399 192.243 165.139 192.319 164.942C192.361 164.834 192.483 164.781 192.591 164.822C192.7 164.865 192.754 164.986 192.711 165.094Z" fill="#F9FAFB"/>
<path fill-rule="evenodd" clip-rule="evenodd" d="M187.611 58.6299C187.929 58.5744 188.232 58.7875 188.288 59.1059C188.343 59.4242 188.13 59.7272 187.812 59.7827C186.298 60.0464 184.476 60.9514 182.901 62.409C180.857 64.3018 179.349 66.9732 178.605 70.4603C178.005 73.2697 178.556 76.9687 180.124 80.0547C181.908 83.5658 184.775 85.9529 188.453 86.6249C192.23 87.3147 195.425 86.8863 198.994 85.6176L199.322 85.4983C199.427 85.4588 199.613 85.3869 199.847 85.2968L199.847 85.2967L199.847 85.2966C200.707 84.965 202.208 84.3858 202.639 84.2555C203.792 83.9066 204.579 83.9358 205.15 84.5439C205.371 84.7795 205.359 85.1498 205.124 85.3709C204.903 85.5782 204.564 85.5808 204.34 85.3862L204.297 85.3447C204.128 85.1652 203.78 85.1445 203.08 85.3453L202.977 85.3756C202.597 85.4905 201.207 86.0265 200.34 86.3608L200.34 86.361L200.339 86.3611C200.004 86.4906 199.746 86.5898 199.657 86.6225C195.802 88.0295 192.344 88.525 188.243 87.776C184.18 87.0338 181.02 84.4033 179.081 80.5847C177.395 77.266 176.803 73.2951 177.461 70.216C178.255 66.4943 179.884 63.6079 182.106 61.5504C183.846 59.9398 185.874 58.9324 187.611 58.6299ZM191.568 61.4564C191.885 61.3943 192.192 61.601 192.254 61.9181C192.317 62.2352 192.11 62.5426 191.793 62.6047C187.051 63.5334 183.237 67.1554 182.131 71.9462C181.757 73.5676 181.87 74.8859 182.237 75.3889L182.286 75.452L182.29 75.4608L182.297 75.4555C182.428 75.3368 182.582 75.0335 182.701 74.5634L182.726 74.4601C183.864 69.5329 187.62 65.7189 192.419 64.438C192.731 64.3547 193.051 64.5402 193.135 64.8524C193.218 65.1646 193.033 65.4853 192.72 65.5686C188.398 66.7226 185.001 70.1259 183.911 74.5364L183.867 74.7234C183.465 76.4611 182.313 77.2907 181.38 76.1907C180.698 75.3861 180.53 73.6789 180.991 71.683C182.202 66.4383 186.377 62.473 191.568 61.4564ZM198.605 67.8783C198.582 67.5559 198.302 67.3133 197.979 67.3363C192.285 67.7426 187.291 71.4411 185.304 76.9C184.55 78.9715 184.505 80.8136 185.123 81.753C185.951 83.0131 187.253 82.2983 187.902 80.5141L187.97 80.331C189.728 75.7112 193.845 72.4846 198.665 71.8117C198.985 71.7671 199.208 71.4714 199.164 71.1514C199.119 70.8314 198.823 70.6082 198.503 70.6528C193.195 71.3938 188.669 74.9853 186.803 80.1139L186.762 80.2235C186.554 80.7572 186.327 81.0791 186.155 81.1735L186.147 81.1786L186.144 81.1813C186.142 81.1826 186.142 81.1833 186.141 81.1832C186.14 81.1831 186.14 81.1825 186.139 81.1813C186.139 81.1804 186.138 81.1792 186.138 81.1775C186.134 81.1689 186.126 81.1492 186.1 81.1104L186.07 81.0595C185.73 80.4575 185.782 79.0091 186.404 77.3003C188.231 72.279 192.825 68.8772 198.063 68.5035C198.385 68.4805 198.628 68.2006 198.605 67.8783ZM201.153 73.566C201.475 73.543 201.755 73.7856 201.778 74.108C201.801 74.4303 201.558 74.7102 201.236 74.7332C197.563 74.9952 194.343 77.3803 193.062 80.9008C192.682 81.9444 192.611 82.8366 192.747 83.2885L192.764 83.3389L192.79 83.3016C192.855 83.2025 192.929 83.0602 193.001 82.8757L193.032 82.794C194.385 79.0754 197.667 76.4711 201.515 75.9339C201.836 75.8892 202.131 76.1124 202.176 76.4324C202.221 76.7525 201.997 77.0481 201.677 77.0928C198.31 77.5628 195.432 79.8099 194.193 83.0296L194.131 83.1942C193.629 84.5732 192.544 85.1689 191.85 84.113C191.375 83.3894 191.408 82.0235 191.962 80.5006C193.403 76.5424 197.024 73.8606 201.153 73.566ZM204.236 78.28C204.213 77.9577 203.933 77.7151 203.611 77.7381C200.846 77.9353 198.421 79.7314 197.456 82.3822C197.076 83.4273 197.053 84.3784 197.404 84.914C197.981 85.792 198.878 85.3 199.251 84.274L199.302 84.1393C200.088 82.1319 201.889 80.7324 203.995 80.4384C204.315 80.3938 204.538 80.0981 204.494 79.7781C204.449 79.4581 204.153 79.2349 203.833 79.2795L203.685 79.3018C201.418 79.667 199.462 81.1059 198.448 83.1767L198.413 83.2504L198.434 83.1665C198.467 83.0442 198.507 82.9157 198.556 82.7824C199.361 80.5693 201.386 79.07 203.694 78.9052C204.017 78.8823 204.259 78.6023 204.236 78.28Z" fill="#018A08"/>
<path fill-rule="evenodd" clip-rule="evenodd" d="M201.153 73.5656C201.475 73.5426 201.755 73.7853 201.778 74.1076C201.801 74.4299 201.558 74.7098 201.236 74.7328C197.563 74.9948 194.343 77.3799 193.061 80.9004C192.682 81.944 192.611 82.8362 192.747 83.2881L192.764 83.3385L192.79 83.3012C192.855 83.2021 192.928 83.0598 193.001 82.8753L193.031 82.7936C194.385 79.075 197.666 76.4707 201.515 75.9335C201.835 75.8888 202.131 76.112 202.176 76.4321C202.22 76.7521 201.997 77.0477 201.677 77.0924C198.31 77.5624 195.432 79.8095 194.193 83.0293L194.131 83.1938C193.629 84.5728 192.544 85.1685 191.85 84.1126C191.374 83.389 191.408 82.0231 191.962 80.5002C193.403 76.542 197.024 73.8602 201.153 73.5656Z" fill="#018A08"/>
<path d="M164.715 149.742C176.981 144.005 187.236 140.975 193.621 140.418C195.576 140.248 196.463 141.326 195.968 143.079C195.6 144.381 194.481 146.168 192.765 148.283C189.773 151.972 185.828 155.128 181.9 158.063C188.184 152.263 189.787 149.836 191.726 147.447L192.03 147.067C193.467 145.25 194.396 143.731 194.682 142.719L194.723 142.565C194.901 141.833 194.695 141.66 193.738 141.744C187.497 142.288 177.281 145.324 165.06 151.054C152.819 156.793 152.469 155.471 164.715 149.742Z" fill="white"/>
<path d="M108.617 131.182L108.707 131.395C109.328 132.869 109.974 134.328 110.707 135.919L110.992 136.536C110.898 136.599 110.775 136.666 110.64 136.725C110.446 136.81 110.249 136.869 110.101 136.889L110.054 136.894L109.983 136.808C109.429 136.126 108.786 134.968 108.322 133.816C108.074 133.202 107.898 132.639 107.819 132.207C107.786 132.031 107.771 131.883 107.773 131.77L107.776 131.696C107.777 131.678 107.777 131.669 107.773 131.668L107.79 131.656C107.889 131.588 108.142 131.44 108.517 131.236L108.617 131.182Z" fill="white"/>
<path fill-rule="evenodd" clip-rule="evenodd" d="M124.122 125.844C124.506 125.374 125.004 125.444 125.635 125.827L125.797 125.929L126.25 126.229C126.377 126.311 126.432 126.339 126.505 126.368C126.677 126.437 126.761 126.631 126.692 126.803C126.624 126.974 126.43 127.058 126.258 126.99L126.197 126.964C126.081 126.915 125.994 126.863 125.759 126.707L125.433 126.491C125.38 126.456 125.333 126.426 125.288 126.399C124.911 126.17 124.739 126.146 124.64 126.267C124.577 126.344 124.593 126.507 124.717 126.842L124.854 127.194C125.125 127.913 125.126 128.235 124.643 128.51C124.228 128.747 124.014 128.636 123.417 128.051L123.272 127.907C122.89 127.525 122.689 127.392 122.56 127.42C122.517 127.429 122.467 127.459 122.406 127.524C122.334 127.601 122.314 127.845 122.358 128.278L122.425 128.844C122.504 129.536 122.472 129.715 122.187 129.906C121.794 130.17 121.27 129.872 120.3 129.001C120.163 128.878 120.152 128.666 120.275 128.529C120.398 128.392 120.61 128.38 120.747 128.504C121.162 128.876 121.475 129.118 121.694 129.243L121.743 129.269L121.783 129.29L121.784 129.248L121.782 129.148C121.777 129.066 121.767 128.967 121.747 128.798L121.704 128.451C121.623 127.747 121.648 127.355 121.918 127.067C122.068 126.907 122.237 126.805 122.422 126.766C122.851 126.675 123.156 126.858 123.663 127.353L123.919 127.605C124.194 127.87 124.297 127.938 124.313 127.929C124.375 127.893 124.366 127.782 124.197 127.348L124.122 127.159C123.886 126.552 123.841 126.188 124.122 125.844Z" fill="#018A08"/>
<path fill-rule="evenodd" clip-rule="evenodd" d="M160.622 71.4265L160.304 71.4548C160.017 71.4826 159.807 71.7379 159.835 72.0251C159.852 72.1987 159.952 72.3442 160.091 72.426L160.036 72.4652C159.801 72.6317 159.745 72.9577 159.911 73.1933C160.078 73.4289 160.404 73.4849 160.639 73.3184L161.176 72.9382C161.161 73.0612 161.147 73.1881 161.136 73.3195L161.083 73.9759C161.059 74.2634 161.273 74.5159 161.561 74.5398C161.848 74.5636 162.101 74.3499 162.125 74.0624L162.189 73.2769C162.206 73.1088 162.226 72.9512 162.252 72.8021C162.435 73.1501 162.472 73.4182 162.433 73.6718L162.418 73.758L162.411 73.8111C162.392 74.0751 162.575 74.3162 162.842 74.3632C163.126 74.4133 163.397 74.2235 163.447 73.9394L163.465 73.8382C163.52 73.4857 163.495 73.1308 163.352 72.7369C163.427 72.7905 163.491 72.8502 163.548 72.9155L163.604 72.9826L163.641 73.0217C163.831 73.2063 164.133 73.2208 164.34 73.0469C164.561 72.8615 164.59 72.532 164.405 72.311L164.339 72.2323C164.315 72.2054 164.291 72.1791 164.267 72.1533C164.539 72.1692 164.781 71.9706 164.815 71.6955C164.85 71.4092 164.647 71.1485 164.36 71.1133C163.868 71.0527 163.437 71.0391 163.041 71.0747C163.183 70.9074 163.348 70.7376 163.54 70.5588C163.751 70.3621 163.762 70.0315 163.565 69.8205C163.369 69.6094 163.038 69.5979 162.827 69.7946C162.473 70.1246 162.191 70.4382 161.966 70.7563C161.88 70.6642 161.788 70.5699 161.693 70.4731L161.467 70.248C161.261 70.0459 160.93 70.0489 160.728 70.2548C160.526 70.4607 160.529 70.7914 160.735 70.9935C160.878 71.1339 161.01 71.2667 161.132 71.3925C160.97 71.4007 160.8 71.412 160.622 71.4265Z" fill="#018A08"/>
<path fill-rule="evenodd" clip-rule="evenodd" d="M140.49 75.0458C140.365 74.9172 140.162 74.9208 140.036 75.0538C139.911 75.1868 139.912 75.3989 140.037 75.5274C140.156 75.6493 140.262 75.7624 140.357 75.8675C140.156 75.9527 139.955 76.063 139.739 76.1992L139.411 76.4093C139.267 76.5009 139.236 76.6842 139.341 76.8187C139.446 76.9532 139.648 76.988 139.792 76.8964L140.184 76.6457C140.39 76.5201 140.575 76.425 140.76 76.3583C141.043 76.751 141.102 77.0027 141.066 77.2361L141.056 77.2914L141.052 77.3255C141.039 77.4949 141.15 77.6485 141.313 77.6773C141.488 77.708 141.655 77.585 141.687 77.4026L141.698 77.3377C141.752 76.9992 141.694 76.6582 141.452 76.2369C141.616 76.2344 141.796 76.2466 141.999 76.2726C142.176 76.2952 142.335 76.1829 142.354 76.0218C142.373 75.8606 142.245 75.7116 142.068 75.689C141.679 75.6393 141.354 75.6337 141.056 75.6739C140.933 75.5232 140.791 75.3622 140.627 75.189L140.49 75.0458Z" fill="#F9FAFB"/>
<path fill-rule="evenodd" clip-rule="evenodd" d="M73.1688 162.135L73.5288 162.935L74.3494 163.171C74.3937 163.183 74.4194 163.23 74.4067 163.274C74.4027 163.288 74.3954 163.3 74.3853 163.31L73.7618 163.931L73.7967 164.824C73.7985 164.87 73.7626 164.909 73.7165 164.911C73.7009 164.912 73.6854 164.908 73.6719 164.9L72.966 164.498C72.944 164.486 72.9174 164.484 72.8938 164.493L72.1389 164.793C72.096 164.81 72.0474 164.789 72.0304 164.746C72.0246 164.732 72.023 164.716 72.0258 164.7L72.1847 163.821L71.6537 163.119C71.6258 163.082 71.6331 163.03 71.6699 163.002C71.6812 162.994 71.6946 162.988 71.7087 162.986L72.5541 162.867L73.0219 162.125C73.0465 162.086 73.0981 162.074 73.1371 162.099C73.151 162.108 73.162 162.12 73.1688 162.135Z" fill="#018A08"/>
<path fill-rule="evenodd" clip-rule="evenodd" d="M77.9696 117.735L78.3295 118.535L79.1502 118.77C79.1945 118.783 79.2202 118.829 79.2074 118.874C79.2035 118.887 79.1962 118.9 79.1861 118.91L78.5626 119.531L78.5975 120.424C78.5993 120.47 78.5634 120.509 78.5173 120.511C78.5017 120.511 78.4862 120.507 78.4726 120.5L77.7668 120.098C77.7447 120.085 77.7182 120.083 77.6946 120.093L76.9397 120.393C76.8968 120.41 76.8482 120.389 76.8311 120.346C76.8254 120.331 76.8238 120.315 76.8266 120.3L76.9855 119.42L76.4544 118.719C76.4266 118.682 76.4338 118.63 76.4706 118.602C76.482 118.593 76.4953 118.588 76.5094 118.586L77.3548 118.467L77.8226 117.725C77.8473 117.686 77.8989 117.674 77.9379 117.698C77.9518 117.707 77.9628 117.72 77.9696 117.735Z" fill="#018A08"/>
<path d="M88.8422 188.425C89.1103 188.23 89.4855 188.29 89.6802 188.558C89.8749 188.826 81.3864 195.74 78.0934 198.909L77.7107 199.28C75.8299 201.12 74.4431 202.714 73.6614 203.974C72.8331 205.309 72.78 206.034 73.3148 206.33C75.3436 207.454 78.2607 208.002 82.4385 207.31L82.8678 207.237C84.4581 206.958 96.4207 204.349 96.2313 204.419L96.1577 204.441C95.7806 204.541 90.9096 206.225 89.2284 206.653L89.0252 206.705C86.4551 207.351 84.4439 207.794 82.6346 208.094C78.2135 208.826 75.0548 208.666 72.7331 207.38C71.3933 206.637 71.5 205.181 72.6418 203.341C73.5398 201.894 75.1194 200.105 77.2614 198.044C80.5984 194.833 85.2919 191.003 88.8422 188.425Z" fill="white"/>
<path fill-rule="evenodd" clip-rule="evenodd" d="M151.343 105.252C151.49 105.154 151.686 105.196 151.782 105.345L153.948 108.701C154.044 108.85 154.003 109.049 153.857 109.147C153.71 109.244 153.514 109.202 153.418 109.054L151.252 105.698C151.156 105.549 151.197 105.349 151.343 105.252Z" fill="#018A08"/>
<path fill-rule="evenodd" clip-rule="evenodd" d="M151.449 102.774C151.617 102.675 151.839 102.725 151.944 102.885L153.435 105.143C153.541 105.303 153.49 105.512 153.323 105.611C153.155 105.71 152.933 105.66 152.827 105.5L151.337 103.243C151.231 103.083 151.281 102.873 151.449 102.774Z" fill="#018A08"/>
<defs>
<linearGradient id="paint0_linear_5955_38341" x1="117.643" y1="123.494" x2="119.114" y2="124.933" gradientUnits="userSpaceOnUse">
<stop stop-color="#EF6795"/>
<stop offset="0.32" stop-color="#ED2A65"/>
<stop offset="0.7" stop-color="#AC1D40"/>
<stop offset="1" stop-color="#83161E"/>
</linearGradient>
<linearGradient id="paint1_linear_5955_38341" x1="82.581" y1="183.875" x2="78.7843" y2="181.407" gradientUnits="userSpaceOnUse">
<stop stop-color="#EF6795"/>
<stop offset="0.32" stop-color="#ED2A65"/>
<stop offset="0.7" stop-color="#AC1D40"/>
<stop offset="1" stop-color="#83161E"/>
</linearGradient>
</defs>
</svg>
