<svg width="300" height="300" viewBox="0 0 300 300" fill="none" xmlns="http://www.w3.org/2000/svg">
<path fill-rule="evenodd" clip-rule="evenodd" d="M56.1047 219.576C74.2127 239.287 144.237 227.964 190.345 227.964C210.237 227.964 276.989 237.934 249.424 169.468C159.043 -55.0205 -1.27063 157.121 56.1047 219.576Z" fill="#F9FAFB"/>
<path fill-rule="evenodd" clip-rule="evenodd" d="M136.224 221.16C136.312 221.093 136.405 221.02 136.443 220.915C136.566 220.582 136.084 220.36 135.728 220.368C135.212 220.379 134.55 220.727 134.708 221.219C134.799 221.503 135.15 221.635 135.444 221.582C135.738 221.53 135.987 221.342 136.224 221.16H136.224ZM137.759 215.307C138.149 215.43 138.533 215.581 138.873 215.808C139.51 216.235 139.944 216.897 140.36 217.541C140.658 218.003 140.961 218.474 141.11 219.004C141.271 219.577 141.242 220.189 141.134 220.775C140.798 222.599 139.672 224.264 138.104 225.255C136.536 226.247 134.549 226.55 132.756 226.072C132.407 225.979 132.056 225.852 131.788 225.61C131.562 225.407 131.41 225.137 131.271 224.867C130.541 223.452 130.049 221.879 130.105 220.287C130.161 218.695 130.816 217.085 132.055 216.084C133.61 214.829 135.852 214.709 137.759 215.307" fill="white"/>
<path fill-rule="evenodd" clip-rule="evenodd" d="M220.079 128.711C219.224 128.7 218.423 129.417 218.338 130.267C218.304 130.615 218.451 131.047 218.797 131.095C219.056 131.131 219.284 130.93 219.458 130.735C219.827 130.322 220.143 129.862 220.398 129.371C220.484 129.206 220.559 128.994 220.447 128.846C220.365 128.738 220.214 128.712 220.079 128.711ZM219.709 124.897C220.923 125.32 222.023 126.065 222.866 127.035C223.592 127.868 224.144 128.95 223.991 130.044C223.936 130.446 223.787 130.829 223.618 131.198C222.978 132.594 221.877 133.932 220.365 134.202C219.572 134.344 218.754 134.174 217.992 133.915C217.109 133.614 216.268 133.193 215.499 132.667C215.091 132.388 214.686 132.057 214.507 131.596C214.384 131.278 214.38 130.928 214.385 130.588C214.396 129.745 214.452 128.889 214.746 128.099C215.118 127.1 215.845 126.275 216.616 125.539C216.926 125.243 217.255 124.951 217.653 124.792C218.305 124.533 219.047 124.666 219.709 124.897Z" fill="white"/>
<path fill-rule="evenodd" clip-rule="evenodd" d="M220.08 64.1141C225.101 69.2928 229.065 75.4852 231.659 82.2055C231.838 82.6671 232.011 83.1798 231.841 83.6444C230.532 87.2218 228.006 90.2043 225.529 93.1042C223.946 94.9573 222.363 96.8104 220.781 98.6634C219.27 100.432 217.759 102.202 216.197 103.926C208.244 112.707 198.847 120.385 187.964 125.109C187.554 125.287 187.113 125.465 186.671 125.394C186.229 125.322 185.814 124.895 185.93 124.463C187.275 119.453 188.629 114.214 187.55 109.14C187.289 107.916 186.999 106.375 188.014 105.639C196.234 99.676 202.152 91.1531 207.823 82.7459C209.249 80.632 210.671 78.5122 211.933 76.2971C214.174 72.3643 215.899 68.1407 217.053 63.767C217.211 63.1668 217.971 62.8965 218.574 63.0538C219.177 63.2111 219.647 63.6678 220.08 64.1141" fill="white"/>
<path fill-rule="evenodd" clip-rule="evenodd" d="M63.4774 84.2326C64.2938 91.6133 66.5661 98.83 70.1255 105.347C72.3293 109.382 75.0099 113.134 77.6834 116.874C79.5437 119.477 81.5332 122.19 84.4359 123.535C85.2077 123.893 85.1001 125.005 84.8929 125.83C83.9975 129.397 83.5798 133.083 83.6543 136.759C83.6613 137.106 83.6704 137.466 83.534 137.785C83.0707 138.87 81.4836 138.689 80.391 138.246C73.6304 135.501 68.44 129.982 63.5914 124.53C57.2961 117.451 51.0946 110.061 47.3757 101.348C47.1229 100.756 46.8775 100.133 46.9198 99.4901C46.9629 98.8353 47.2993 98.2401 47.6406 97.6796C51.0118 92.1424 55.7019 87.4142 61.2116 83.9981C61.5997 83.7575 62.0141 83.5164 62.4704 83.5006C62.9267 83.4848 63.4272 83.7788 63.4774 84.2326Z" fill="white"/>
<path fill-rule="evenodd" clip-rule="evenodd" d="M219.094 213.71C219.677 212.723 220.399 211.636 221.53 211.449C221.976 211.375 222.211 210.89 222.363 210.465C224.232 205.221 224.412 199.389 222.87 194.04C222.43 192.513 222.972 190.895 223.508 189.399C224.892 185.539 226.276 181.679 227.66 177.818C226.867 176.447 224.776 176.488 223.705 175.32C222.327 173.818 223.367 171.43 224.446 169.701C230.754 159.6 237.061 149.499 243.369 139.398C244.141 138.16 245.837 137.773 247.258 138.102C248.68 138.432 249.893 139.327 251.062 140.2C255.662 143.636 260.263 147.071 264.863 150.507C267.332 152.351 270.057 154.707 269.915 157.785C269.836 159.489 268.862 161.003 267.919 162.424C264.273 167.917 260.627 173.411 256.982 178.904C254.928 181.999 255.495 186.064 254.874 189.726C253.893 195.513 249.925 200.265 246.251 204.841C242.577 209.418 238.9 214.528 238.694 220.393C238.447 227.384 235.126 234.212 229.779 238.721C231.33 234.958 221.53 236.459 210.32 231.999C212.165 225.473 215.648 219.55 219.094 213.71Z" fill="white"/>
<path fill-rule="evenodd" clip-rule="evenodd" d="M96.0038 230.076C95.3048 229.504 95.0819 228.539 94.9585 227.642C93.5309 217.262 99.6618 207.017 98.5697 196.596C98.0069 191.226 95.5394 186.215 92.4344 181.808C90.2901 178.764 90.1698 174.687 90.9698 171.046C91.7698 167.405 93.3836 164 94.472 160.435C99.3124 144.581 93.4226 127.645 87.5996 112.129C99.2029 106.518 112.743 107.605 125.598 108.365C138.452 109.125 152.277 109.179 162.991 102C164.459 117.53 161.221 133.077 158.002 148.338C174.338 146.746 190.675 145.155 207.011 143.563C207.48 143.517 207.992 143.482 208.381 143.748C208.901 144.103 208.98 144.827 209.01 145.457C209.774 161.608 210.237 177.773 210.399 193.941C210.403 194.346 210.389 194.799 210.104 195.086C209.861 195.332 209.489 195.384 209.146 195.422C186.258 197.973 163.37 200.524 140.482 203.074C138.502 203.295 135.683 202.779 135.799 200.781C136.316 191.873 136.014 182.916 134.899 174.063C128.816 173.833 122.692 174.761 116.947 176.782C115.644 177.241 114.077 178.474 114.78 179.669C119.43 187.572 113.658 199.451 119.974 206.085C122.146 208.366 121.996 211.954 121.566 215.082C120.643 221.785 119.076 228.398 116.892 234.8C117.948 227.432 96.6487 234.027 96.0038 230.076Z" fill="white"/>
<path fill-rule="evenodd" clip-rule="evenodd" d="M30.5383 62.8115C30.5578 62.9688 30.4727 63.134 30.3332 63.2094C30.2222 63.0983 30.1111 62.9871 30 62.876C30.1665 62.8032 30.3554 62.7824 30.5337 62.8173L30.5383 62.8115Z" fill="#018A08"/>
<path fill-rule="evenodd" clip-rule="evenodd" d="M137.359 215.307C137.749 215.43 138.134 215.581 138.473 215.808C139.111 216.235 139.544 216.897 139.961 217.541C140.259 218.003 140.561 218.474 140.71 219.004C140.872 219.577 140.843 220.189 140.735 220.775C140.398 222.599 139.272 224.264 137.704 225.255C136.136 226.247 134.149 226.55 132.357 226.072C132.008 225.979 131.657 225.852 131.388 225.61C131.163 225.407 131.011 225.137 130.872 224.867C130.141 223.452 129.649 221.879 129.706 220.287C129.762 218.695 130.416 217.085 131.656 216.084C133.211 214.829 135.452 214.709 137.359 215.307M135.174 224.785C136.149 224.637 137.007 224 137.567 223.188C138.127 222.377 138.415 221.404 138.553 220.427C138.632 219.869 138.639 219.23 138.245 218.828C138.01 218.587 137.673 218.479 137.35 218.382C136.138 218.02 134.754 217.711 133.668 218.361C132.878 218.834 132.437 219.711 132.037 220.541C131.569 221.513 131.685 222.74 132.326 223.608C132.968 224.476 134.107 224.947 135.174 224.785V224.785Z" fill="#018A08"/>
<path fill-rule="evenodd" clip-rule="evenodd" d="M181.896 171.516C181.913 171.309 181.938 171.087 182.075 170.931C182.209 170.779 182.419 170.724 182.617 170.678C187.711 169.492 192.972 169.028 198.194 169.304C198.859 169.339 199.715 169.564 199.759 170.229C200.011 174.039 200.263 177.849 200.516 181.66C200.528 181.853 200.535 182.066 200.411 182.215C200.311 182.336 200.149 182.383 199.996 182.423C194.564 183.839 188.839 184.118 183.295 183.237C183.152 183.215 183.002 183.188 182.891 183.095C182.757 182.983 182.71 182.8 182.672 182.63C181.855 178.993 181.592 175.231 181.896 171.516ZM183.097 177.837C183.197 179.276 183.499 180.7 183.991 182.056C184.482 182.127 184.967 182.229 185.456 182.311C189.669 183.025 193.978 182.307 198.191 181.59C198.489 181.539 198.817 181.472 199.002 181.231C199.19 180.986 199.165 180.643 199.131 180.335C198.986 179.022 198.841 177.709 198.696 176.396C198.684 176.291 198.669 176.177 198.597 176.098C198.511 176.003 198.368 175.987 198.239 175.979C195.246 175.782 192.242 176.005 189.251 176.228C187.597 176.352 185.943 176.475 184.29 176.598C183.901 176.627 183.46 176.685 183.236 177.004C183.072 177.24 183.077 177.55 183.097 177.837ZM183.144 172.345C182.882 173.184 182.835 174.089 183.008 174.951C183.04 175.106 183.083 175.269 183.201 175.375C183.375 175.531 183.641 175.505 183.872 175.471C186.69 175.059 189.537 174.854 192.385 174.859C192.786 174.859 192.91 174.318 192.905 173.917C192.899 173.328 192.892 172.74 192.886 172.151C192.882 171.811 192.865 171.436 192.632 171.187C192.352 170.889 191.884 170.898 191.476 170.93C190.532 171.002 189.589 171.074 188.646 171.146C188.195 171.18 186.998 171.487 186.448 171.523C185.49 171.676 184.532 171.829 183.575 171.981C183.473 171.998 183.365 172.016 183.286 172.084C183.21 172.149 183.174 172.249 183.144 172.345ZM195.774 174.905C196.523 174.915 197.273 174.84 198.004 174.682C198.179 174.645 198.362 174.597 198.486 174.47C198.669 174.282 198.667 173.988 198.654 173.727C198.615 172.968 198.576 172.209 198.537 171.45C198.524 171.179 198.493 170.875 198.282 170.705C198.095 170.556 197.833 170.565 197.595 170.581C196.762 170.638 195.93 170.695 195.098 170.751C194.966 170.76 194.827 170.771 194.717 170.844C194.516 170.977 194.485 171.257 194.48 171.498C194.461 172.302 194.494 173.108 194.578 173.908C194.602 174.14 194.636 174.383 194.779 174.567C195.003 174.853 195.411 174.901 195.774 174.905Z" fill="url(#paint0_linear_6006_37013)"/>
<path fill-rule="evenodd" clip-rule="evenodd" d="M194.932 154.865C196.044 154.383 197.41 154.544 198.38 155.272C199.35 155.999 199.886 157.265 199.735 158.468C200.417 158.1 201.282 157.737 201.918 158.179C202.637 158.679 202.472 159.755 202.364 160.624C202.176 162.141 202.42 163.71 203.062 165.098C203.327 165.672 203.554 166.542 202.967 166.773C202.867 166.812 202.759 166.821 202.653 166.83C195.761 167.385 188.869 167.94 181.977 168.496C181.788 168.511 181.577 168.519 181.434 168.395C181.288 168.268 181.269 168.051 181.262 167.858C181.196 166.237 181.13 164.616 181.063 162.995C181.046 162.56 181.037 162.091 181.283 161.732C181.689 161.137 182.541 161.139 183.252 161.025C183.963 160.911 184.79 160.311 184.517 159.645C184.212 158.902 185.252 158.36 186.045 158.239C186.839 158.118 187.892 157.645 187.652 156.879C187.389 156.042 188.541 155.522 189.41 155.407C190.024 155.326 190.665 155.247 191.247 155.457C191.829 155.668 192.321 156.267 192.19 156.872C192.04 157.564 192.883 158.209 193.548 157.965C194.213 157.72 194.483 156.811 194.146 156.188C193.871 155.679 194.401 155.094 194.932 154.865ZM198.491 165.547C198.233 165.069 198.231 164.5 198.229 163.957C198.218 161.408 198.061 158.859 197.76 156.327C197.745 156.199 197.72 156.056 197.616 155.981C197.526 155.917 197.404 155.924 197.294 155.935C196.755 155.985 196.117 156.104 195.905 156.601C195.814 156.813 195.825 157.053 195.837 157.283C195.973 159.839 196.11 162.394 196.246 164.95C196.259 165.188 196.291 165.461 196.489 165.594C196.596 165.666 196.732 165.68 196.862 165.687C197.408 165.717 197.958 165.67 198.491 165.547ZM189.221 161.618C189.154 162.044 189.06 162.467 189.035 162.897C188.994 163.616 189.145 164.33 189.296 165.035C189.392 165.486 189.976 165.708 190.404 165.534C190.831 165.36 191.09 164.904 191.161 164.448C191.232 163.991 191.148 163.527 191.076 163.071C190.79 161.28 190.666 159.462 190.707 157.649C190.717 157.19 190.269 156.775 189.813 156.82C189.356 156.866 188.998 157.36 189.098 157.808C189.377 159.055 189.419 160.355 189.221 161.618ZM193.754 159.171C193.485 158.819 192.869 159.006 192.659 159.396C192.45 159.786 192.514 160.259 192.566 160.699C192.702 161.847 192.715 163.01 192.604 164.161C192.572 164.501 192.536 164.871 192.723 165.156C193.012 165.594 193.644 165.59 194.165 165.537C194.329 165.52 194.517 165.489 194.599 165.346C194.657 165.247 194.643 165.124 194.628 165.011C194.387 163.225 194.147 161.439 193.906 159.653C193.883 159.484 193.857 159.306 193.754 159.171ZM199.723 159.938C199.521 160.214 199.478 160.574 199.461 160.916C199.4 162.088 199.556 163.259 199.711 164.423C199.772 164.881 199.981 165.47 200.443 165.439C200.91 165.407 201.033 164.782 201.022 164.313C200.993 163.072 200.964 161.831 200.935 160.59C200.928 160.264 200.893 159.886 200.623 159.704C200.338 159.513 199.926 159.662 199.723 159.938ZM185.597 159.645C185.597 159.645 185.802 161.265 185.874 162.09C185.964 163.126 186.078 164.16 186.217 165.191C186.238 165.34 186.264 165.502 186.375 165.605C186.566 165.784 187.305 165.665 187.441 165.442C187.577 165.218 187.569 164.939 187.557 164.677C187.52 163.85 187.482 163.023 187.445 162.195C187.405 161.309 187.194 159.396 187.194 159.396M182.918 165.51C182.977 165.695 183.047 165.89 183.197 166.014C183.49 166.256 183.964 166.106 184.195 165.804C184.426 165.502 184.478 165.105 184.522 164.727C184.576 164.264 184.629 163.783 184.479 163.341C184.329 162.9 183.914 162.511 183.449 162.552C183.022 162.59 182.691 162.98 182.591 163.398C182.492 163.815 182.576 164.252 182.68 164.668C182.75 164.951 182.83 165.232 182.918 165.51Z" fill="#F9FAFB"/>
<path fill-rule="evenodd" clip-rule="evenodd" d="M210.856 99.1844C210.299 100.02 209.696 100.866 208.835 101.381C207.974 101.897 206.786 101.998 206.012 101.358C205.158 100.653 205.106 99.3813 205.173 98.2761C205.199 97.8506 205.233 97.4217 205.355 97.0132C205.567 96.3047 206.028 95.7001 206.51 95.1395C207.095 94.4593 207.743 93.8033 208.554 93.4205C209.365 93.0377 210.373 92.9705 211.134 93.4468C212.043 94.0168 212.38 95.2293 212.208 96.2891C212.035 97.3488 211.451 98.2909 210.856 99.1844ZM209.089 100.068C209.79 99.3208 210.392 98.4798 210.873 97.5745C211.19 96.9787 211.459 96.3312 211.446 95.6567C211.434 94.9823 211.078 94.2773 210.451 94.027C209.636 93.701 208.74 94.2225 208.058 94.7766C207.573 95.171 207.103 95.6037 206.791 96.1462C206.594 96.4892 206.466 96.8666 206.34 97.2413C206.1 97.9501 205.857 98.6887 205.948 99.4313C206.039 100.174 206.571 100.92 207.315 100.996C208.004 101.068 208.615 100.573 209.089 100.068Z" fill="url(#paint1_linear_6006_37013)"/>
<path fill-rule="evenodd" clip-rule="evenodd" d="M67.5196 108.625C68.3913 109.508 69.1108 110.541 69.6372 111.664C70.1662 112.794 69.6329 114.245 68.5947 114.936C67.5565 115.626 66.1529 115.617 65.0146 115.108C63.8763 114.599 62.9817 113.649 62.3229 112.59C61.8262 111.792 61.4411 110.898 61.3998 109.958C61.3585 109.019 61.7043 108.031 62.4473 107.455C63.1988 106.872 64.2554 106.789 65.1643 107.069C66.0731 107.348 66.8516 107.948 67.5196 108.625M64.1185 108.088C63.3643 108.011 62.6942 108.703 62.5649 109.45C62.4355 110.197 62.7203 110.955 63.0888 111.618C63.8879 113.055 65.3138 114.331 66.9561 114.251C67.8003 114.211 68.7256 113.626 68.7106 112.781C68.7041 112.415 68.5239 112.078 68.3438 111.76C67.8655 110.915 67.3488 110.079 66.6589 109.396C65.9689 108.713 65.0843 108.188 64.1185 108.088Z" fill="url(#paint2_linear_6006_37013)"/>
<path fill-rule="evenodd" clip-rule="evenodd" d="M133.429 219.78C134.034 219.32 134.788 219.023 135.546 219.072C136.305 219.121 137.056 219.556 137.374 220.247C137.714 220.989 137.502 221.91 136.971 222.529C136.439 223.149 135.638 223.491 134.83 223.604C134.278 223.681 133.621 223.611 133.319 223.143C133.173 222.917 133.14 222.639 133.111 222.372C133.058 221.893 133.005 221.413 132.953 220.934C132.93 220.73 132.909 220.52 132.974 220.326C133.051 220.098 133.238 219.926 133.429 219.78M135.824 221.16C135.912 221.092 136.005 221.019 136.043 220.915C136.166 220.581 135.684 220.359 135.328 220.367C134.812 220.379 134.15 220.727 134.308 221.218C134.399 221.503 134.75 221.634 135.044 221.582C135.338 221.53 135.587 221.342 135.824 221.16H135.824Z" fill="#018A08"/>
<path fill-rule="evenodd" clip-rule="evenodd" d="M219.196 66.4516C223.914 71.3354 227.637 77.1752 230.075 83.5128C230.242 83.9481 230.404 84.4316 230.245 84.8697C229.015 88.2435 226.642 91.0561 224.315 93.7909L219.854 99.0335C218.435 100.702 217.015 102.37 215.548 103.997C208.076 112.277 199.248 119.518 189.024 123.973C188.638 124.141 188.224 124.309 187.809 124.242C187.393 124.174 187.004 123.771 187.112 123.364C188.376 118.639 189.649 113.699 188.634 108.914C188.39 107.759 188.117 106.306 189.071 105.612C196.793 99.9884 202.352 91.9508 207.681 84.0225C209.02 82.0289 210.357 80.0298 211.542 77.9409C213.647 74.232 215.268 70.2489 216.352 66.1242C216.5 65.5582 217.215 65.3033 217.781 65.4517C218.347 65.6 218.789 66.0307 219.196 66.4516ZM215.894 72.5164C215.415 72.3181 214.973 72.8544 214.729 73.3121C214.483 73.7717 214.238 74.232 213.993 74.6927L213.967 74.7415L213.949 74.7762L213.936 74.8005L213.935 74.8006C209.048 83.9819 204.085 93.3039 196.636 100.535C195.932 101.219 195.146 102.044 195.275 103.016C195.691 106.133 194.027 109.424 191.271 110.937C190.02 111.624 190.034 113.397 190.218 114.812C190.291 115.379 190.505 116.09 191.075 116.138C192.745 116.278 194.348 117.101 195.437 118.375C195.78 118.777 196.431 118.526 196.879 118.245C208.148 111.16 216.806 100.697 225.26 90.4156C225.551 90.061 225.862 89.6141 225.71 89.1808C224.43 85.5367 224.635 81.3953 226.268 77.8954C225.305 75.9782 224.157 74.1539 222.845 72.456C220.661 73.4038 218.094 73.4261 215.894 72.5164ZM189.166 122.102C189.611 122.334 190.149 122.113 190.594 121.881C191.762 121.271 192.888 120.578 193.96 119.81C194.243 119.607 194.327 119.202 194.227 118.868C194.127 118.535 193.876 118.266 193.599 118.055C192.733 117.397 191.521 117.224 190.505 117.613C190.318 117.685 190.131 117.779 190.002 117.933C189.85 118.113 189.795 118.352 189.746 118.583C189.501 119.746 189.307 120.921 189.166 122.102ZM220.811 70.0899C220.046 68.5928 218.865 67.3107 217.436 66.4247C216.939 66.863 216.842 67.5289 216.743 68.2078C216.676 68.6737 216.607 69.1456 216.408 69.5543C216.343 69.6874 216.263 69.8148 216.184 69.9418C216.033 70.1837 215.883 70.4245 215.835 70.7022C215.761 71.1259 216.119 71.6574 216.526 71.5172C216.856 71.4032 217.203 71.4764 217.552 71.5502C217.737 71.5892 217.922 71.6284 218.106 71.6402C219.179 71.7095 220.07 70.8688 220.811 70.0899ZM226.88 79.063C226.06 80.6945 226.189 82.6214 226.338 84.4414L226.552 87.0515C226.576 87.3385 226.732 87.7259 227.009 87.6464C227.181 87.1656 227.508 86.769 227.836 86.3713C228.123 86.0234 228.41 85.6748 228.595 85.2683C229.222 83.8917 228.526 82.3052 227.842 80.9568L226.88 79.063ZM190.163 108.032C190.198 108.543 190.728 108.925 191.239 108.911C191.751 108.896 192.211 108.565 192.51 108.15C192.809 107.735 192.973 107.24 193.133 106.754L193.66 105.148C193.807 104.701 193.816 104.017 193.348 103.964C193.179 103.945 193.018 104.034 192.879 104.133C192.354 104.506 191.972 105.042 191.6 105.567L190.587 106.998C190.368 107.309 190.138 107.653 190.163 108.032ZM69.3257 103.747C65.7663 97.2302 63.494 90.0135 62.6776 82.6328C62.6274 82.179 62.1269 81.885 61.6706 81.9008C61.2143 81.9166 60.7999 82.1577 60.4118 82.3983C54.9021 85.8144 50.212 90.5426 46.8408 96.0798C46.4995 96.6403 46.1631 97.2355 46.12 97.8903C46.0777 98.5329 46.3231 99.1563 46.5759 99.7486C50.2948 108.461 56.4963 115.851 62.7916 122.93C67.6402 128.382 72.8306 133.901 79.5912 136.646C80.6838 137.089 82.2709 137.27 82.7342 136.186C82.8689 135.87 82.8617 135.515 82.8547 135.172L82.8545 135.159C82.78 131.483 83.1977 127.797 84.0931 124.231C84.3003 123.406 84.4079 122.293 83.6361 121.935C80.7334 120.59 78.7439 117.877 76.8836 115.275C74.2101 111.534 71.5295 107.782 69.3257 103.747ZM75.6092 132.234C75.2094 132.341 74.81 132.089 74.4762 131.844C68.3231 127.336 63.5549 121.234 58.8699 115.215L50.6023 104.592C51.9978 103.703 52.175 101.772 52.2054 100.118C52.245 97.9674 52.2738 95.7535 51.4971 93.748C51.3244 93.3023 51.5492 92.8083 51.7899 92.3953C52.8222 90.624 54.2538 89.087 55.9474 87.9316C56.1113 87.8198 56.2849 87.7087 56.4814 87.6809C57 87.6076 57.3979 88.1121 57.6751 88.5565C58.7697 90.3118 60.2741 92.2969 62.3377 92.1524C63.1234 92.0973 63.5591 93.0229 63.7884 93.7764C66.6389 103.148 71.9908 111.6 78.2671 119.12C79.0827 120.097 79.2873 121.416 79.4901 122.723C79.7162 124.181 79.94 125.623 81.0062 126.56C81.9165 127.36 81.7475 128.797 81.5019 129.984C81.4516 130.227 81.3917 130.487 81.2073 130.653C81.0703 130.776 80.8851 130.827 80.7072 130.874L75.6092 132.234ZM61.0223 89.9816C59.8936 89.1929 58.9186 88.1851 58.1677 87.0309C58.0053 86.7812 57.8475 86.5014 57.876 86.2049C57.9071 85.8825 58.1496 85.6246 58.3909 85.4086C58.9869 84.8752 59.6604 84.4287 60.3837 84.0875C60.6486 83.9626 60.9906 83.861 61.2106 84.0543C61.3402 84.1681 61.3811 84.3499 61.4149 84.519L62.4574 89.7331C62.5191 90.0413 62.1957 90.3189 61.8815 90.3279C61.5673 90.3368 61.28 90.1617 61.0223 89.9816ZM50.7054 100.066C50.6833 101.047 50.6084 102.148 49.8734 102.798C49.7196 102.816 49.6174 102.647 49.5572 102.504C49.0276 101.251 48.4907 99.967 48.4073 98.6087C48.3239 97.2504 48.7791 95.7796 49.8891 94.9922C50.0393 94.8857 50.2596 94.7977 50.3921 94.9255C50.4454 94.9769 50.4682 95.0514 50.4876 95.1228C50.7892 96.2315 50.7655 97.399 50.7396 98.5477L50.7054 100.066ZM80.6576 132.689C80.8358 132.834 80.8548 133.095 80.8597 133.326L80.9126 135.846C79.8786 135.273 78.8879 134.622 77.9518 133.899C77.7743 133.762 77.5793 133.541 77.688 133.344C77.7419 133.247 77.8539 133.2 77.9582 133.162C78.6274 132.915 79.3192 132.73 80.0222 132.61C80.2395 132.573 80.487 132.549 80.6576 132.689ZM80.7171 122.759C80.7076 122.645 80.7076 122.521 80.7753 122.429C80.9539 122.186 81.3414 122.406 81.5052 122.659C81.8998 123.268 81.9869 124.066 81.7331 124.746C81.1537 124.249 80.7804 123.519 80.7171 122.759ZM234.748 103.617C235.779 102.319 237.658 102.133 239.314 102.173C239.702 102.183 240.1 102.201 240.452 102.362C241.433 102.809 241.641 104.09 241.674 105.166C241.704 106.146 241.698 107.139 241.46 108.09C241.222 109.04 240.73 109.957 239.942 110.54C239.588 110.802 239.177 110.994 238.743 111.066C238.071 111.179 237.384 111.006 236.746 110.769C235.896 110.452 235.089 110.018 234.357 109.481C234 109.219 233.63 108.876 233.619 108.433C233.592 107.411 233.707 106.386 233.958 105.395C234.118 104.762 234.342 104.129 234.748 103.617ZM237.421 110.082C238.744 110.462 240.152 109.438 240.653 108.156C241.154 106.874 240.969 105.434 240.693 104.085C240.587 103.567 240.034 103.278 239.524 103.139C238.734 102.925 237.895 102.896 237.092 103.057C236.693 103.137 236.286 103.273 236.006 103.568C235.854 103.729 235.748 103.927 235.645 104.123L234.869 105.589C234.733 105.846 234.596 106.106 234.516 106.387C234.276 107.225 234.593 108.156 235.178 108.802C235.764 109.448 236.583 109.842 237.421 110.082ZM219.709 124.897C220.922 125.321 222.022 126.066 222.866 127.035C223.591 127.869 224.144 128.95 223.991 130.045C223.935 130.446 223.787 130.829 223.618 131.198C222.978 132.594 221.877 133.932 220.365 134.203C219.572 134.344 218.754 134.174 217.991 133.915C217.109 133.615 216.268 133.194 215.499 132.668C215.091 132.388 214.686 132.057 214.507 131.596C214.384 131.279 214.38 130.929 214.385 130.588C214.396 129.746 214.452 128.889 214.746 128.099C215.117 127.1 215.845 126.275 216.616 125.539C216.926 125.243 217.255 124.951 217.653 124.793C218.304 124.533 219.047 124.666 219.709 124.897ZM220.95 132.241C221.827 131.373 222.337 130.115 222.198 128.889C222.059 127.663 221.229 126.513 220.069 126.094C219.587 125.92 219.052 125.872 218.558 126.009C218.291 126.082 218.041 126.208 217.808 126.356C216.809 126.992 216.107 128.075 215.937 129.247C215.767 130.418 216.131 131.657 216.907 132.551C217.405 133.123 218.216 133.368 218.968 133.273C219.721 133.178 220.411 132.774 220.95 132.241ZM110.194 117.671C110.153 117.093 109.381 116.941 108.801 116.958C105.76 117.047 102.723 117.275 99.7032 117.641C99.207 117.701 99.167 118.5 99.5651 118.803C99.9632 119.105 100.518 119.049 101.013 118.978L110.194 117.671ZM100.473 121.579C100.499 121.282 100.873 121.174 101.17 121.14L119.081 119.112C119.405 119.075 119.75 119.042 120.042 119.188C120.333 119.334 120.521 119.733 120.331 119.997C120.191 120.193 119.921 120.232 119.682 120.255L101.362 122.033C100.981 122.07 100.439 121.961 100.473 121.579ZM140.627 124.596C139.625 124.817 138.597 124.455 137.635 124.096C134.528 122.934 131.433 121.741 128.35 120.516C127.105 120.021 125.74 120.762 124.62 121.497C121.381 123.625 118.263 125.936 115.285 128.416C114.52 129.053 113.342 128.606 112.571 127.977C112.408 127.844 112.247 127.702 112.086 127.56C111.485 127.029 110.877 126.491 110.099 126.38C108.905 126.211 107.854 127.117 106.988 127.957L101.405 133.379C100.654 134.108 99.8639 135.276 100.532 136.082C100.973 136.613 101.782 136.586 102.468 136.507C106.049 136.092 109.613 135.509 113.175 134.928L113.175 134.928L113.175 134.928L113.175 134.928L113.175 134.928L113.175 134.928L113.176 134.927L113.176 134.927L113.176 134.927L113.176 134.927L113.176 134.927L113.177 134.927L113.177 134.927C119.065 133.966 124.95 133.004 130.906 132.798C132.225 132.753 133.546 132.744 134.867 132.736C135.694 132.73 136.52 132.725 137.347 132.711C141.076 132.646 144.802 132.395 148.506 131.958C148.685 131.937 148.889 131.9 148.982 131.746C149.053 131.629 149.035 131.482 149.015 131.347L147.446 120.671C147.367 120.129 147.227 119.502 146.732 119.268C146.231 119.031 145.641 119.336 145.23 119.707C144.586 120.289 144.091 121.06 143.602 121.821C142.8 123.07 142.016 124.291 140.627 124.596ZM115.148 130.438C118.499 127.682 121.993 125.101 125.611 122.708C126.354 122.217 127.257 121.714 128.087 122.036L136.861 125.446C138.325 126.015 139.927 126.591 141.43 126.135C143.178 125.604 144.222 123.866 145.102 122.265C145.273 121.954 145.771 121.99 146.018 122.246C146.264 122.501 146.327 122.878 146.378 123.229L147.02 127.681C147.118 128.365 147.215 129.074 147.018 129.736C146.82 130.398 146.24 130.999 145.549 130.986C134.256 130.768 122.94 131.699 111.834 133.76C111.491 133.824 111.148 133.889 110.805 133.954L110.804 133.954L110.803 133.954L110.802 133.954C108.148 134.455 105.485 134.958 102.789 134.967C104.091 133.123 105.741 131.556 107.379 130.003C108.279 129.151 109.403 128.231 110.611 128.51C111.263 128.66 111.763 129.129 112.261 129.595L112.261 129.595C112.421 129.745 112.58 129.894 112.744 130.032C113.419 130.602 114.465 130.999 115.148 130.438ZM260.038 161.493C259.738 161.605 259.404 161.528 259.099 161.432C257.034 160.783 255.356 159.331 253.708 157.904L253.707 157.903C253.484 157.71 253.262 157.518 253.039 157.328C250.308 154.998 247.344 152.942 244.205 151.199C243.886 151.021 243.551 150.835 243.356 150.526C243.16 150.218 243.166 149.748 243.468 149.542C244.875 148.581 245.788 146.933 245.855 145.23C245.872 144.776 246.385 144.474 246.838 144.51C247.29 144.546 247.685 144.818 248.055 145.081L262.396 155.261C262.675 155.459 262.976 155.689 263.044 156.024C263.1 156.298 262.985 156.575 262.87 156.829C262.251 158.194 261.54 159.517 260.742 160.785C260.562 161.072 260.356 161.374 260.038 161.493ZM245.691 149.417C245.522 149.714 245.376 150.144 245.649 150.35L257.352 159.161C257.993 159.644 258.988 160.096 259.493 159.472C260.073 158.756 260.614 158.009 261.114 157.235C261.25 157.024 261.39 156.782 261.341 156.535C261.296 156.309 261.106 156.145 260.927 156C256.632 152.518 252.085 149.347 247.333 146.521L245.691 149.417ZM239.867 154.805C240.056 154.481 240.285 154.126 240.652 154.047C240.932 153.986 241.218 154.106 241.476 154.231C242.885 154.916 244.176 155.843 245.274 156.961C245.538 157.229 245.571 157.662 245.453 158.02C245.335 158.378 245.093 158.68 244.855 158.972C244.474 159.443 244.067 159.932 243.504 160.155C242.896 160.396 242.188 160.28 241.613 159.97C241.037 159.66 240.575 159.175 240.168 158.663C239.636 157.996 239.161 157.196 239.243 156.347C239.297 155.79 239.585 155.288 239.867 154.805ZM242.331 158.541C243.218 158.886 243.785 158.613 243.808 158.032C243.823 157.665 243.503 157.382 243.212 157.159L242.331 156.482C242.041 156.258 241.72 156.023 241.353 156.026C240.986 156.028 240.612 156.407 240.762 156.741C240.74 156.903 241.445 158.197 242.331 158.541ZM238.833 165.696C239.05 165.814 239.279 165.93 239.525 165.935C239.771 165.94 240.038 165.801 240.099 165.562C240.241 165.001 240.612 164.536 240.975 164.081L241.042 163.997L241.093 163.933C241.491 163.429 241.875 162.859 241.885 162.218C241.896 161.576 241.365 160.893 240.729 160.98C240.229 161.049 239.763 160.721 239.399 160.37C239.365 160.336 239.33 160.302 239.295 160.268L239.226 160.199C238.922 159.895 238.612 159.587 238.208 159.455C237.728 159.299 237.073 159.548 237.035 160.052C236.959 161.067 236.115 161.831 235.332 162.482C235.098 162.677 235.31 163.051 235.529 163.263C236.515 164.216 237.63 165.037 238.833 165.696ZM238.99 163.761L237.449 162.719C237.057 162.454 237.088 161.804 237.437 161.485C237.787 161.166 238.33 161.142 238.775 161.301C239.221 161.461 239.591 161.774 239.951 162.082C240.189 162.285 240.222 162.655 240.113 162.949C240.004 163.242 239.782 163.478 239.566 163.704C239.492 163.782 239.409 163.864 239.303 163.878C239.19 163.892 239.084 163.825 238.99 163.761ZM251.209 163.83L251.962 162.229C252.193 161.739 252.417 161.132 252.105 160.688C251.997 160.535 251.838 160.426 251.682 160.321L248.94 158.473C248.644 158.274 248.323 158.067 247.967 158.072C247.544 158.079 247.19 158.381 246.89 158.678C246.441 159.124 246.021 159.599 245.633 160.099C245.339 160.48 245.096 161.107 245.499 161.371L249.695 164.124C250.026 164.341 250.446 164.564 250.794 164.375C250.998 164.264 251.11 164.04 251.209 163.83ZM250.279 162.697C250.103 162.737 249.919 162.692 249.746 162.64C248.687 162.321 247.717 161.71 246.972 160.892C246.725 160.619 246.865 160.139 247.179 159.948C247.494 159.757 247.903 159.801 248.242 159.944C248.462 160.036 248.662 160.164 248.863 160.292C248.973 160.363 249.083 160.433 249.196 160.497C249.318 160.567 249.445 160.63 249.572 160.694L249.572 160.694C249.933 160.875 250.294 161.056 250.54 161.369C250.872 161.791 250.803 162.576 250.279 162.697ZM251.696 164.485C252.18 164.37 252.327 163.877 252.481 163.365C252.608 162.941 252.739 162.504 253.066 162.257C253.631 161.83 254.43 162.187 255.037 162.548L256.97 163.698C257.278 163.881 257.593 164.071 257.814 164.353C258.035 164.635 258.144 165.035 257.989 165.358C257.886 165.574 257.691 165.717 257.495 165.862C257.334 165.98 257.172 166.099 257.058 166.259C256.913 166.465 256.859 166.723 256.806 166.978C256.739 167.298 256.673 167.613 256.428 167.814C255.984 168.181 255.322 167.887 254.83 167.587L252.107 165.923C251.832 165.755 251.543 165.57 251.408 165.278C251.273 164.986 251.383 164.56 251.696 164.485ZM255.266 166.137C255.656 166.004 255.969 165.715 256.27 165.434C256.488 165.23 256.196 164.894 255.936 164.747L254.268 163.808C254.094 163.71 253.852 163.621 253.717 163.768C253.282 164.242 253.219 165.016 253.571 165.554C253.923 166.093 254.657 166.345 255.266 166.137ZM236.125 166.079C235.751 165.974 235.371 165.867 235.066 165.659C234.592 165.336 233.933 165.414 233.436 165.699C232.939 165.985 232.568 166.443 232.209 166.89C232.01 167.138 231.805 167.397 231.729 167.706C231.653 168.015 231.744 168.389 232.022 168.544L234.931 170.166C235.151 170.288 235.398 170.415 235.644 170.361C235.889 170.306 236.058 170.089 236.206 169.885L236.954 168.856C237.371 168.282 237.806 167.551 237.502 166.912C237.257 166.399 236.699 166.241 236.125 166.079ZM235.204 168.747C235.052 168.787 234.895 168.714 234.755 168.643L232.773 167.634C233.154 167.095 233.879 166.888 234.536 166.953C235.193 167.018 235.803 167.31 236.398 167.598L235.487 168.544C235.405 168.629 235.318 168.717 235.204 168.747ZM221.473 128.414C221.78 128.882 221.684 129.507 221.48 130.028C221.212 130.715 220.759 131.352 220.118 131.717C219.477 132.083 218.636 132.136 218.012 131.743C217.388 131.351 217.074 130.477 217.409 129.82C217.486 129.668 217.592 129.533 217.697 129.398C217.798 129.27 217.899 129.141 217.976 128.996C218.026 128.902 218.065 128.801 218.104 128.7C218.161 128.555 218.217 128.411 218.306 128.284C218.624 127.834 219.25 127.746 219.801 127.753C220.425 127.762 221.131 127.891 221.473 128.414ZM220.079 128.711C219.224 128.7 218.423 129.417 218.338 130.268C218.303 130.615 218.451 131.047 218.797 131.095C219.056 131.131 219.284 130.931 219.458 130.735C219.826 130.322 220.143 129.863 220.398 129.371C220.483 129.206 220.559 128.995 220.446 128.847C220.364 128.739 220.214 128.713 220.079 128.711ZM240.519 106.422C240.453 105.639 239.929 104.869 239.169 104.673C238.203 104.424 237.267 105.105 236.5 105.743C236.273 105.931 236.036 106.134 235.94 106.413C235.777 106.887 236.07 107.386 236.359 107.795C236.69 108.263 237.043 108.734 237.526 109.043C238.009 109.353 238.652 109.473 239.158 109.204C239.417 109.067 239.617 108.843 239.792 108.608C240.261 107.978 240.585 107.204 240.519 106.422ZM238.376 108.428C238.049 108.477 237.709 108.345 237.468 108.118C237.107 107.778 236.964 107.231 237.09 106.752C237.223 106.247 237.647 105.83 238.154 105.705C238.661 105.58 239.23 105.754 239.582 106.14C239.569 106.244 239.558 106.35 239.547 106.455L239.547 106.457C239.509 106.816 239.472 107.177 239.347 107.515C239.186 107.953 238.838 108.359 238.376 108.428ZM212.375 230.493C214.156 224.193 217.519 218.474 220.847 212.835C221.409 211.882 222.107 210.832 223.199 210.652C223.629 210.58 223.856 210.113 224.003 209.702C225.807 204.639 225.981 199.008 224.493 193.844C224.068 192.369 224.591 190.807 225.109 189.362L229.117 178.181C228.7 177.46 227.912 177.143 227.113 176.822C226.445 176.554 225.77 176.282 225.299 175.769C223.968 174.319 224.972 172.013 226.014 170.344L244.284 141.085C245.03 139.89 246.667 139.516 248.04 139.834C249.412 140.152 250.584 141.016 251.713 141.859L265.037 151.811C267.421 153.592 270.052 155.866 269.915 158.838C269.839 160.483 268.898 161.945 267.988 163.317L257.428 179.229C256.062 181.287 255.897 183.789 255.73 186.302C255.655 187.438 255.58 188.577 255.393 189.678C254.482 195.051 250.904 199.5 247.476 203.763L247.474 203.766C247.338 203.935 247.202 204.104 247.067 204.272C243.519 208.691 239.97 213.625 239.77 219.288C239.533 226.038 236.326 232.63 231.163 236.984L235.656 226.083C236.724 223.491 237.714 220.266 235.925 218.107C235.116 217.13 233.893 216.613 232.72 216.131L225.742 213.268C225.26 213.071 224.764 212.87 224.244 212.867C222.623 212.857 221.659 214.615 221.002 216.097C218.728 221.224 215.823 226.07 212.375 230.493ZM235.321 215.69C236.517 216.133 238.201 216.402 238.768 215.259C241.513 209.728 244.332 204.09 248.7 199.725C251.217 197.209 252.761 193.853 253.634 190.402C254.507 186.952 254.754 183.379 254.998 179.828C253.938 180.214 253.846 181.644 253.85 182.772C253.86 185.259 253.426 187.747 252.573 190.083C252.394 190.572 252.155 191.1 251.677 191.306C251.199 191.513 250.495 191.098 250.656 190.603C251.888 186.804 252.348 182.755 251.998 178.775C251.889 177.542 251.66 176.222 250.782 175.348C250.878 177.296 250.973 179.252 250.775 181.193C250.434 184.55 249.23 187.751 248.037 190.907C247.882 191.317 247.695 191.764 247.301 191.956C246.908 192.149 246.297 191.844 246.4 191.418L248.186 184.032C249.169 179.971 250.135 175.603 248.614 171.712C247.848 171.66 247.668 172.755 247.736 173.52C248.205 178.757 246.757 183.955 245.323 189.014C245.156 189.604 244.564 190.343 244.104 189.937C243.905 189.761 243.896 189.46 243.912 189.195C244.003 187.708 244.41 186.268 244.818 184.829L244.818 184.829C244.944 184.382 245.071 183.936 245.187 183.489C246.264 179.363 246.539 175.029 245.992 170.801C245.048 172.01 244.648 173.545 244.27 175.032L242.027 183.859C241.013 187.849 239.718 192.236 236.203 194.38C235.923 194.55 235.598 194.709 235.279 194.633C234.883 194.539 234.658 194.13 234.493 193.757C232.249 188.704 231.969 182.809 233.723 177.566C233.829 177.248 233.506 176.915 233.171 176.889C232.837 176.862 232.524 177.045 232.249 177.238C229.371 179.269 228.269 182.948 227.353 186.349L226.136 190.872C225.958 191.532 225.779 192.199 225.742 192.882C225.686 193.92 225.957 194.936 226.227 195.946L226.227 195.946C226.289 196.181 226.352 196.414 226.41 196.648C227.581 201.347 227.052 206.45 224.942 210.809C224.631 211.452 225.452 212.036 226.122 212.284L235.321 215.69ZM239.867 172.527C239.387 172.196 238.873 171.819 238.725 171.255C238.497 170.391 239.32 169.523 240.206 169.407C241.093 169.29 241.959 169.718 242.694 170.227C243.728 170.945 245.037 169.851 245.811 168.858C244.767 168.233 243.77 167.263 243.729 166.047C243.688 164.83 245.167 163.671 246.151 164.387C246.533 164.665 246.996 164.835 247.453 165.003C248.137 165.255 248.81 165.503 249.186 166.102C249.613 166.785 249.461 167.707 249.027 168.384C248.592 169.061 247.922 169.547 247.269 170.017C248.207 170.11 249.12 170.444 249.896 170.979L250.742 168.514C250.808 168.323 250.879 168.123 251.029 167.988C251.319 167.728 251.77 167.808 252.142 167.926C253.116 168.235 254.071 168.718 254.714 169.512C255.357 170.306 255.625 171.46 255.175 172.378C254.726 173.296 253.458 173.785 252.599 173.232C252.421 173.117 252.242 172.964 252.063 172.81C251.584 172.4 251.105 171.99 250.643 172.318C252.054 173.417 253.024 175.068 253.296 176.836C257.739 170.068 262.134 163.269 266.482 156.439C266.897 155.787 267.232 154.76 266.556 154.385C263.669 152.783 261.117 150.638 258.571 148.498C255.358 145.797 252.154 143.104 248.298 141.523C248.053 141.422 247.786 141.325 247.53 141.393C247.262 141.463 247.073 141.696 246.905 141.916C239.724 151.288 233.28 161.224 227.651 171.602C226.866 173.05 227.917 174.775 228.922 176.08C229.425 176.732 230.394 177.42 230.942 176.806C231.633 176.032 232.765 175.59 233.743 175.935C234.721 176.281 235.329 177.553 234.797 178.443C234.413 179.087 235.166 179.803 235.824 180.164C237.138 180.884 238.487 181.542 239.863 182.135C240.055 182.218 240.277 182.299 240.464 182.205C240.641 182.117 240.713 181.905 240.768 181.715L242.293 176.468C242.544 175.605 242.712 174.486 241.972 173.976L239.867 172.527ZM267.144 157.819C266.942 157.75 266.757 157.952 266.638 158.13L255.221 175.221C254.914 175.68 254.599 176.158 254.509 176.704C254.42 177.25 254.62 177.884 255.117 178.127C255.939 178.529 256.799 177.684 257.327 176.936L267.935 161.902C268.722 160.785 268.056 159.259 267.382 158.071C267.323 157.968 267.256 157.858 267.144 157.819ZM235 180.641C234.799 180.494 234.498 180.582 234.33 180.765C234.162 180.948 234.093 181.198 234.029 181.439C233.873 182.03 233.717 182.628 233.693 183.24C233.67 183.851 233.781 184.459 233.892 185.061L234.985 191.004C235.031 191.253 235.085 191.518 235.262 191.699C235.438 191.881 235.783 191.92 235.925 191.711C237.544 189.345 239.185 186.932 240.031 184.193C240.137 183.852 240.167 183.373 239.833 183.248C238.115 182.601 236.484 181.722 235 180.641ZM247.625 165.977C247.077 165.455 246.353 165.122 245.6 165.045C244.914 164.975 244.518 165.939 244.831 166.554C245.144 167.169 245.837 167.473 246.477 167.73C246.929 167.911 247.477 168.082 247.871 167.796C248.438 167.385 248.132 166.46 247.625 165.977ZM243.118 172.864C243.341 172.705 243.37 172.38 243.308 172.113C243.072 171.107 241.969 170.593 240.979 170.299C240.596 170.185 240.119 170.105 239.849 170.4C239.624 170.646 239.672 171.053 239.866 171.325C240.061 171.596 240.365 171.763 240.659 171.921L242.188 172.745C242.479 172.902 242.849 173.055 243.118 172.864ZM251.821 169.238C251.497 169.672 251.53 170.303 251.801 170.771C252.071 171.24 252.539 171.566 253.033 171.788C253.202 171.864 253.387 171.931 253.569 171.894C253.726 171.863 253.86 171.758 253.956 171.63C254.309 171.158 254.137 170.447 253.733 170.018C253.328 169.589 252.752 169.374 252.197 169.173C252.102 169.138 251.99 169.105 251.903 169.157C251.87 169.177 251.844 169.208 251.821 169.238ZM98.4183 208.545C98.6301 206.98 98.9269 205.257 100.157 204.266C101.137 203.476 102.483 203.35 103.742 203.325C107.867 203.246 112.005 203.916 115.895 205.293C117.125 205.728 118.413 206.302 119.086 207.42C119.814 208.631 119.636 210.158 119.435 211.556L116.311 233.257C118.465 226.973 120.011 220.48 120.922 213.899C121.346 210.829 121.495 207.306 119.352 205.067C116.007 201.571 116.098 196.592 116.191 191.529C116.271 187.159 116.352 182.728 114.227 179.133C113.533 177.961 115.079 176.75 116.365 176.3C122.033 174.315 128.075 173.404 134.077 173.63C135.177 182.322 135.475 191.114 134.965 199.86C134.85 201.822 137.632 202.328 139.585 202.111L207.33 194.599C207.669 194.562 208.036 194.511 208.276 194.269C208.556 193.987 208.57 193.543 208.566 193.145C208.406 177.272 207.95 161.403 207.196 145.547C207.167 144.928 207.088 144.218 206.576 143.87C206.192 143.608 205.686 143.643 205.224 143.688L156.87 148.375C160.047 133.393 163.241 118.13 161.793 102.884C151.222 109.932 137.582 109.879 124.9 109.133C124.373 109.102 123.845 109.07 123.315 109.038C111.11 108.309 98.3825 107.548 87.4102 112.828C93.1553 128.06 98.9662 144.687 94.1907 160.251C93.7682 161.628 93.2655 162.981 92.763 164.333C91.9883 166.417 91.2141 168.5 90.7353 170.668C89.946 174.243 90.0647 178.246 92.1803 181.233C95.2438 185.56 97.6782 190.479 98.2335 195.751C98.7604 200.754 97.5831 205.716 96.407 210.672C95.1782 215.851 93.9509 221.023 94.6706 226.23C94.7923 227.111 95.0123 228.058 95.7019 228.619L98.4183 208.545ZM103.211 145.676C104.492 145.722 105.002 147.33 105.165 148.602L106.463 158.669C103.93 157.356 100.367 159.585 100.44 162.437C98.3059 158.318 97.9816 153.597 97.6607 148.924C97.5909 147.907 97.5212 146.893 97.4331 145.888C96.4909 135.137 93.2508 124.738 90.0307 114.438C89.5716 112.969 91.5548 112.016 93.0775 111.793C103.069 110.328 113.182 110.53 123.299 110.733C127.885 110.824 132.472 110.916 137.049 110.853C145.181 110.74 153.787 109.97 160.384 105.213C161.866 115.097 159.851 125.07 157.861 134.918C157.592 136.25 157.323 137.58 157.064 138.907C154.886 150.043 153.403 161.914 157.57 172.468C157.746 172.913 157.147 173.248 156.679 173.346C153.252 174.061 149.708 174.215 146.231 173.8C144.74 173.622 143.264 173.341 141.788 173.059C140.677 172.847 139.565 172.635 138.447 172.468C130.026 171.204 121.236 172.516 113.551 176.182C113.243 176.329 112.876 176.26 112.554 176.149C110.997 175.61 109.887 174.172 109.333 172.621C108.779 171.07 108.7 169.396 108.626 167.75L108.316 160.849C108.305 160.601 108.369 160.264 108.618 160.256C122.08 159.836 135.528 158.928 148.925 157.536C148.359 154.366 148.303 151.106 148.76 147.918C149.048 145.906 147.156 144.071 145.141 143.802C143.126 143.533 141.134 144.446 139.461 145.6C138.835 146.032 138.234 146.502 137.633 146.97C136.628 147.755 135.624 148.539 134.506 149.146C133.775 149.544 132.895 149.864 132.127 149.543C131.186 149.15 130.871 148.032 130.59 147.033C130.572 146.971 130.554 146.908 130.537 146.847C130.17 145.561 129.565 144.281 128.5 143.472C127.435 142.663 125.828 142.462 124.777 143.288C123.878 143.995 123.594 145.219 123.443 146.352C123.43 146.453 123.417 146.555 123.404 146.656C123.27 147.698 123.133 148.775 122.511 149.611C121.828 150.528 120.305 150.921 119.556 150.057C118.076 148.348 115.478 147.99 113.298 148.59C111.117 149.189 109.252 150.574 107.443 151.931C106.352 150.224 106.262 147.924 107.216 146.136L107.232 146.107C107.411 145.771 107.617 145.386 107.459 145.044C107.36 144.832 107.144 144.702 106.929 144.61C105.646 144.06 104.008 144.53 103.211 145.676ZM141.76 174.535C142.477 174.678 143.358 174.998 143.403 175.728C143.826 182.691 149.359 188.947 156.162 190.488C162.965 192.029 170.504 188.913 174.47 183.175C178.437 177.438 178.748 169.467 175.495 163.297C172.007 156.68 163.53 153.165 156.383 155.374C156.051 153.911 156.089 152.367 156.491 150.922C156.565 150.654 156.663 150.374 156.879 150.199C157.091 150.028 157.376 149.989 157.646 149.956L177.779 147.531C179.549 147.318 181.324 147.104 183.107 147.09C190.773 147.027 198.433 146.262 205.961 144.809C207.131 160.515 207.681 176.268 207.61 192.018C207.607 192.765 207.38 193.757 206.633 193.779C193.962 194.148 181.391 195.815 168.815 197.482C160.366 198.603 151.915 199.723 143.429 200.451C141.538 200.613 139.634 200.755 137.744 200.575C137.402 200.543 137.015 200.473 136.829 200.183C136.717 200.009 136.704 199.791 136.695 199.583L135.565 174.392C135.551 174.066 135.57 173.674 135.852 173.511C136.039 173.402 136.273 173.441 136.485 173.483L141.76 174.535ZM107.094 168.703C106.894 170.012 106.668 171.484 107.526 172.473C110.723 176.166 114.044 180.111 114.894 184.921C115.291 187.167 115.121 189.478 114.951 191.78C114.737 194.68 114.524 197.565 115.448 200.286C115.472 200.357 115.497 200.428 115.522 200.499C115.691 200.984 115.864 201.479 115.809 201.985C115.746 202.566 115.242 203.15 114.666 203.051L107.982 201.898C105.769 201.516 103.43 201.145 101.328 201.935C100.921 202.088 100.453 201.82 100.236 201.444C100.018 201.068 99.9891 200.616 99.9702 200.182C99.9474 199.658 99.9303 199.131 99.9131 198.602C99.8052 195.274 99.6952 191.885 98.1551 188.969L93.2411 179.667C92.5157 178.294 91.7733 176.86 91.7233 175.307C91.6898 174.271 91.9697 173.253 92.2471 172.253L94.6985 163.423C95.2146 161.564 95.7606 159.646 96.9828 158.153C99.952 163.19 100.245 169.707 97.7398 174.991C97.5081 175.48 98.216 175.983 98.7207 175.788C99.2254 175.593 99.4816 175.04 99.6595 174.53C100.372 172.483 100.622 170.326 100.872 168.166C101.075 166.418 101.277 164.668 101.726 162.974C102 161.935 102.396 160.875 103.198 160.161C104 159.446 105.307 159.202 106.147 159.871C106.79 160.383 106.999 161.258 107.122 162.07C107.444 164.215 107.443 166.407 107.117 168.551C107.11 168.602 107.102 168.652 107.094 168.703ZM118.627 151.27C119.612 152.024 120.577 152.763 121.759 152.626C123.262 152.452 124.198 150.905 124.634 149.457C124.73 149.14 124.815 148.816 124.9 148.491C125.204 147.33 125.51 146.161 126.306 145.288C126.538 145.034 126.871 144.798 127.2 144.898C127.466 144.978 127.621 145.248 127.745 145.497C127.92 145.85 128.086 146.209 128.251 146.568C128.719 147.581 129.187 148.594 129.866 149.474C130.786 150.667 132.217 151.604 133.714 151.44C135.053 151.294 136.098 150.346 137.118 149.422C137.327 149.233 137.535 149.044 137.744 148.864C140.199 146.747 143.396 145.508 146.637 145.419C146.2 146.511 146.492 147.703 146.778 148.872C146.846 149.154 146.915 149.434 146.973 149.711C147.43 151.898 147.199 154.225 146.32 156.279L124.674 157.945C119.621 158.334 114.555 158.724 109.49 158.545C109.17 158.534 108.842 158.519 108.548 158.393C107.992 158.155 107.662 157.562 107.542 156.969C107.274 155.64 107.887 154.256 108.815 153.267C109.743 152.279 110.955 151.613 112.145 150.964C113.384 150.289 114.759 149.591 116.141 149.879C117.06 150.071 117.85 150.675 118.627 151.27ZM159.615 182.801C156.336 182.734 153.495 180.058 152.521 176.926C152.323 176.287 152.736 175.585 153.306 175.234C153.876 174.883 154.566 174.8 155.232 174.725L160.037 174.186C158.576 171.346 157.535 168.29 156.959 165.148C156.907 164.863 156.859 164.564 156.949 164.288C157.107 163.805 157.628 163.55 158.111 163.388C162.014 162.076 166.702 163.669 168.997 167.088C171.293 170.508 170.992 175.45 168.298 178.565C167.131 179.913 165.603 180.908 163.992 181.674C162.619 182.327 161.136 182.832 159.615 182.801ZM175.176 165.921C175.76 167.847 175.928 169.874 176.008 171.886C174.698 171.687 173.375 171.575 172.05 171.549C171.791 168.165 169.539 165.108 166.578 163.45C163.618 161.792 160.044 161.433 156.699 162.001C156.67 161.524 156.583 161.027 156.497 160.529C156.267 159.215 156.038 157.902 156.887 156.97C157.4 156.407 158.181 156.182 158.93 156.042C162.341 155.407 165.977 156.073 168.942 157.875C171.906 159.678 174.171 162.6 175.176 165.921ZM151.126 176.585C151.121 176.647 151.115 176.709 151.113 176.767C151.091 177.235 151.308 177.664 151.524 178.088C151.582 178.202 151.64 178.316 151.692 178.429C151.942 178.968 152.063 179.677 151.646 180.099C150.635 181.119 149.742 182.256 148.989 183.479C148.803 183.782 148.345 183.806 148.039 183.626C147.733 183.445 147.543 183.124 147.367 182.816C146.248 180.866 145.102 178.826 144.963 176.582C144.945 176.303 144.976 175.966 145.223 175.836C145.332 175.778 145.461 175.777 145.584 175.776L150.586 175.761C150.705 175.761 150.831 175.762 150.935 175.821C151.18 175.96 151.152 176.284 151.126 176.585Z" fill="#018A08"/>
<defs>
<linearGradient id="paint0_linear_6006_37013" x1="184.146" y1="174.26" x2="194.263" y2="185.058" gradientUnits="userSpaceOnUse">
<stop stop-color="#EF6795"/>
<stop offset="0.32" stop-color="#ED2A65"/>
<stop offset="0.7" stop-color="#AC1D40"/>
<stop offset="1" stop-color="#83161E"/>
</linearGradient>
<linearGradient id="paint1_linear_6006_37013" x1="206.051" y1="96.126" x2="211.681" y2="99.9249" gradientUnits="userSpaceOnUse">
<stop stop-color="#EF6795"/>
<stop offset="0.32" stop-color="#ED2A65"/>
<stop offset="0.7" stop-color="#AC1D40"/>
<stop offset="1" stop-color="#83161E"/>
</linearGradient>
<linearGradient id="paint2_linear_6006_37013" x1="62.4654" y1="109.883" x2="68.3226" y2="114.658" gradientUnits="userSpaceOnUse">
<stop stop-color="#EF6795"/>
<stop offset="0.32" stop-color="#ED2A65"/>
<stop offset="0.7" stop-color="#AC1D40"/>
<stop offset="1" stop-color="#83161E"/>
</linearGradient>
</defs>
</svg>
