<svg width="240" height="264" viewBox="0 0 240 264" fill="none" xmlns="http://www.w3.org/2000/svg">
<path d="M44.2554 31.4679C43.6111 31.4679 42.9932 31.209 42.5377 30.748C42.0821 30.2873 41.8262 29.6621 41.8262 29.0103V2.85805C41.8262 2.20624 42.0821 1.58112 42.5377 1.12022C42.9932 0.659322 43.6111 0.400391 44.2554 0.400391H70.1051C70.7494 0.400391 71.3672 0.659322 71.8228 1.12022C72.2784 1.58112 72.5343 2.20624 72.5343 2.85805C72.5343 3.50986 72.2784 4.13497 71.8228 4.59587C71.3672 5.05677 70.7494 5.3157 70.1051 5.3157H46.6856V29.0103C46.6854 29.6623 46.4292 30.2873 45.9735 30.7482C45.5177 31.209 44.8998 31.4679 44.2554 31.4679Z" fill="url(#paint0_linear_5892_111810)"/>
<path d="M195.667 31.4679C195.022 31.4679 194.404 31.209 193.949 30.7482C193.493 30.2873 193.237 29.6623 193.237 29.0103V5.3157H169.817C169.173 5.3157 168.555 5.05677 168.099 4.59587C167.644 4.13497 167.388 3.50986 167.388 2.85805C167.388 2.20624 167.644 1.58112 168.099 1.12022C168.555 0.659322 169.173 0.400391 169.817 0.400391H195.667C196.311 0.400391 196.929 0.659322 197.384 1.12022C197.84 1.58112 198.096 2.20624 198.096 2.85805V29.0103C198.096 29.6621 197.84 30.2873 197.384 30.748C196.929 31.209 196.311 31.4679 195.667 31.4679Z" fill="url(#paint1_linear_5892_111810)"/>
<path d="M70.1056 158.119H44.2559C43.6116 158.119 42.9937 157.861 42.5382 157.4C42.0826 156.939 41.8267 156.314 41.8267 155.662V129.511C41.8201 129.184 41.8781 128.858 41.9972 128.554C42.1164 128.25 42.2943 127.973 42.5206 127.74C42.7469 127.506 43.0169 127.321 43.315 127.194C43.613 127.067 43.9331 127.002 44.2564 127.002C44.5797 127.002 44.8998 127.067 45.1978 127.194C45.4959 127.321 45.766 127.506 45.9922 127.74C46.2185 127.973 46.3964 128.25 46.5156 128.554C46.6347 128.858 46.6927 129.184 46.6861 129.511V153.204H70.1056C70.7499 153.204 71.3677 153.463 71.8233 153.924C72.2789 154.385 72.5348 155.01 72.5348 155.662C72.5348 156.314 72.2789 156.939 71.8233 157.4C71.3677 157.861 70.7499 158.119 70.1056 158.119Z" fill="url(#paint2_linear_5892_111810)"/>
<path d="M195.667 158.119H169.817C169.173 158.119 168.555 157.861 168.099 157.4C167.644 156.939 167.388 156.314 167.388 155.662C167.388 155.01 167.644 154.385 168.099 153.924C168.555 153.463 169.173 153.204 169.817 153.204H193.237V129.511C193.23 129.184 193.288 128.858 193.407 128.554C193.526 128.25 193.704 127.973 193.93 127.74C194.157 127.506 194.427 127.321 194.725 127.194C195.023 127.067 195.343 127.002 195.666 127.002C195.99 127.002 196.31 127.067 196.608 127.194C196.906 127.321 197.176 127.506 197.402 127.74C197.628 127.973 197.806 128.25 197.925 128.554C198.044 128.858 198.102 129.184 198.096 129.511V155.662C198.096 156.314 197.84 156.939 197.384 157.4C196.929 157.861 196.311 158.119 195.667 158.119Z" fill="url(#paint3_linear_5892_111810)"/>
<path fill-rule="evenodd" clip-rule="evenodd" d="M96.0186 48.928C100.087 48.524 104.472 48.8469 109.297 49.8153C111.212 50.2194 113.205 50.7028 115.23 51.3079C120.814 52.8815 119.138 52.8003 124.721 51.2674C141.667 46.467 153.79 48.0406 163.839 60.6279C164.661 61.6566 165.423 62.7334 166.119 63.8529C163.345 60.7348 159.749 58.4834 155.753 57.3639C148.697 55.3879 141.197 57.0393 134.937 60.6716C127.8 64.7874 122.417 71.4435 119.266 79.1087C116.276 75.8415 112.966 73.8639 109.616 72.9441C99.3283 70.0403 89.0401 77.2205 88.6424 86.7336C88.442 91.7756 90.1578 95.9319 93.1884 99.8447C70.0208 82.5319 77.8427 55.8243 96.0186 48.928Z" fill="url(#paint4_linear_5892_111810)"/>
<path fill-rule="evenodd" clip-rule="evenodd" d="M71.6157 97.4967C67.8281 84.426 67.7079 70.953 75.9627 60.6255C81.785 53.3627 88.2841 49.7726 96.0194 48.9258C77.8437 55.8237 70.0217 82.5312 93.1892 99.8376C97.097 104.88 103.197 109.519 110.295 115.046C115.161 118.838 118.509 120.21 122.298 119.16C100.605 135.338 78.3952 120.783 71.6157 97.4967Z" fill="url(#paint5_linear_5892_111810)"/>
<path fill-rule="evenodd" clip-rule="evenodd" d="M114.083 135.701C111.811 136.675 109.738 137.598 107.464 137.799C96.0198 138.808 88.0055 132.111 79.5518 116.385L79.5117 116.344C85.2539 121.67 91.6744 125.784 98.7314 127.197C110.934 129.618 121.501 123.203 129.875 114.772C142.275 105.042 151.606 98.1017 151.168 86.7264C150.65 74.6243 132.546 66.9994 121.7 77.7293C124.771 71.2759 129.596 65.7082 135.776 62.1181C141.638 58.7291 148.695 57.1555 155.315 59.0113C166.759 62.2381 171.146 72.5656 170.626 83.6604C170.109 94.7145 165.683 106.332 160.26 116.377C151.806 132.113 143.79 138.808 132.347 137.791C130.272 137.59 128.319 136.782 126.246 135.935C120.265 133.393 120.105 133.151 114.083 135.693V135.701Z" fill="url(#paint6_linear_5892_111810)"/>
<mask id="mask0_5892_111810" style="mask-type:luminance" maskUnits="userSpaceOnUse" x="102" y="0" width="53" height="50">
<path d="M154.238 0H102.251V49.0676H154.238V0Z" fill="white"/>
</mask>
<g mask="url(#mask0_5892_111810)">
<g filter="url(#filter0_d_5892_111810)">
<path d="M104.703 18.5814C109.851 21.4199 115.956 27.0991 119.884 33.7571C123.756 14.8582 139.705 1.62952 154.237 0C151.585 20.0276 137.2 31.8747 128.676 31.7768C134.997 17.998 143.383 10.1396 146.808 6.8265C134.838 13.1591 122.028 37.338 120.583 49.0676C114.187 39.9981 109.186 34.4974 102.251 30.895L104.703 18.5814Z" fill="url(#paint7_linear_5892_111810)"/>
</g>
</g>
<path d="M63.1871 247C61.1246 247 59.2184 246.484 57.4684 245.453C55.7184 244.422 54.3278 243.031 53.2965 241.281C52.2653 239.531 51.7496 237.625 51.7496 235.562V214.375L60.2106 212.266V235.562C60.2106 236.375 60.4996 237.07 61.0778 237.648C61.6559 238.227 62.359 238.516 63.1871 238.516L64.6871 242.781L63.1871 247ZM63.0699 247L61.6637 242.781L63.1168 238.516H63.1871C63.7184 238.516 64.2106 238.383 64.6637 238.117C65.1168 237.852 65.4762 237.492 65.7418 237.039C66.0231 236.586 66.1637 236.094 66.1637 235.562V226.398L74.6481 224.289V235.562C74.6481 236.375 74.9293 237.07 75.4918 237.648C76.0699 238.227 76.7653 238.516 77.5778 238.516L79.1012 242.781L77.5778 247C76.234 247 74.9449 246.773 73.7106 246.32C72.4762 245.852 71.3746 245.203 70.4059 244.375C69.4059 245.203 68.2887 245.852 67.0543 246.32C65.8356 246.773 64.5465 247 63.1871 247H63.0699ZM67.9684 212.992H74.5778V219.461H67.9684V212.992ZM76.0543 242.781L77.6012 238.516H80.2965C81.1246 238.516 81.8278 238.227 82.4059 237.648C82.984 237.07 83.2731 236.375 83.2731 235.562V226.398L91.7574 224.289V235.562C91.7574 236.375 92.0465 237.07 92.6246 237.648C93.2028 238.227 93.8981 238.516 94.7106 238.516L96.2106 242.758L94.7106 247C93.3512 247 92.0543 246.773 90.8199 246.32C89.6012 245.852 88.4996 245.203 87.5153 244.375C86.5153 245.203 85.3981 245.852 84.1637 246.32C82.9449 246.773 81.6559 247 80.2965 247H77.6012L76.0543 242.781ZM91.4996 258.227H77.9528V251.781H91.4996V258.227ZM94.5934 247L93.2106 242.758L94.6403 238.516H94.734C95.2653 238.516 95.7574 238.383 96.2106 238.117C96.6637 237.836 97.0231 237.469 97.2887 237.016C97.5699 236.562 97.7106 236.07 97.7106 235.539V224.102H109.125C111.203 224.102 113.117 224.617 114.867 225.648C116.617 226.664 118 228.055 119.015 229.82C120.047 231.57 120.562 233.477 120.562 235.539C120.562 237.602 120.047 239.516 119.015 241.281C118 243.031 116.617 244.422 114.867 245.453C113.117 246.484 111.203 247 109.125 247C107.781 247 106.492 246.766 105.257 246.297C104.023 245.812 102.922 245.148 101.953 244.305C100.953 245.164 99.8356 245.828 98.6012 246.297C97.3824 246.766 96.0934 247 94.734 247H94.5934ZM109.125 238.516C109.656 238.516 110.148 238.383 110.601 238.117C111.054 237.836 111.414 237.469 111.679 237.016C111.945 236.562 112.078 236.07 112.078 235.539C112.078 234.727 111.789 234.039 111.211 233.477C110.632 232.898 109.937 232.609 109.125 232.609H106.195V235.539C106.195 236.07 106.328 236.562 106.593 237.016C106.859 237.469 107.211 237.836 107.648 238.117C108.101 238.383 108.593 238.516 109.125 238.516ZM123.328 247C121.968 247 120.672 246.766 119.437 246.297C118.218 245.828 117.117 245.164 116.132 244.305L113.554 240.016L115.804 235.352L120.562 235.562C120.562 236.375 120.851 237.07 121.429 237.648C122.007 238.227 122.703 238.516 123.515 238.516L124.851 242.781L123.328 247ZM123.164 247L121.804 242.781L123.234 238.516H123.328C124.14 238.516 124.828 238.227 125.39 237.648C125.968 237.07 126.257 236.375 126.257 235.562V214.375L134.789 212.219V235.562C134.789 237.625 134.273 239.531 133.242 241.281C132.211 243.031 130.812 244.422 129.047 245.453C127.297 246.484 125.39 247 123.328 247H123.164ZM150.703 247C148.64 247 146.734 246.484 144.984 245.453C143.234 244.422 141.843 243.031 140.812 241.281C139.781 239.531 139.265 237.625 139.265 235.562V214.375L147.726 212.266V235.562C147.726 236.375 148.015 237.07 148.593 237.648C149.172 238.227 149.875 238.516 150.703 238.516L152.203 242.781L150.703 247ZM150.562 247L149.179 242.781L150.609 238.516H150.703C151.515 238.516 152.203 238.227 152.765 237.648C153.343 237.07 153.632 236.375 153.632 235.562V226.516H162.14V235.773C162.14 236.539 162.398 237.188 162.914 237.719C163.445 238.25 164.086 238.516 164.836 238.516C165.601 238.516 166.242 238.25 166.757 237.719C167.289 237.188 167.554 236.539 167.554 235.773V226.516H176.039V235.773C176.039 236.539 176.304 237.188 176.836 237.719C177.367 238.25 178.007 238.516 178.757 238.516C179.507 238.516 180.148 238.25 180.679 237.719C181.226 237.188 181.5 236.539 181.5 235.773V226.422L189.961 224.336V235.773C189.961 237.805 189.453 239.68 188.437 241.398C187.437 243.117 186.078 244.484 184.359 245.5C182.64 246.5 180.773 247 178.757 247C177.492 247 176.265 246.781 175.078 246.344C173.89 245.906 172.804 245.305 171.82 244.539C170.851 245.32 169.765 245.93 168.562 246.367C167.359 246.789 166.117 247 164.836 247C163.57 247 162.32 246.773 161.086 246.32C159.867 245.852 158.773 245.234 157.804 244.469C156.804 245.266 155.695 245.891 154.476 246.344C153.273 246.781 152.015 247 150.703 247H150.562Z" fill="#018A08"/>
<defs>
<filter id="filter0_d_5892_111810" x="72.251" y="-26" width="111.985" height="109.068" filterUnits="userSpaceOnUse" color-interpolation-filters="sRGB">
<feFlood flood-opacity="0" result="BackgroundImageFix"/>
<feColorMatrix in="SourceAlpha" type="matrix" values="0 0 0 0 0 0 0 0 0 0 0 0 0 0 0 0 0 0 127 0" result="hardAlpha"/>
<feOffset dy="4"/>
<feGaussianBlur stdDeviation="15"/>
<feComposite in2="hardAlpha" operator="out"/>
<feColorMatrix type="matrix" values="0 0 0 0 0.145 0 0 0 0 0.145 0 0 0 0 0.145 0 0 0 0.07 0"/>
<feBlend mode="normal" in2="BackgroundImageFix" result="effect1_dropShadow_5892_111810"/>
<feBlend mode="normal" in="SourceGraphic" in2="effect1_dropShadow_5892_111810" result="shape"/>
</filter>
<linearGradient id="paint0_linear_5892_111810" x1="18.1268" y1="-22.2126" x2="70.588" y2="26.4929" gradientUnits="userSpaceOnUse">
<stop offset="0.28" stop-color="#9EFF3F"/>
<stop offset="0.41" stop-color="#5CFF55"/>
<stop offset="0.46" stop-color="#00D431"/>
<stop offset="0.49" stop-color="#00C92B"/>
<stop offset="0.57" stop-color="#00A919"/>
<stop offset="0.65" stop-color="#00920C"/>
<stop offset="0.72" stop-color="#008404"/>
<stop offset="0.79" stop-color="#9EFF3F"/>
</linearGradient>
<linearGradient id="paint1_linear_5892_111810" x1="229.239" y1="52.7177" x2="160.356" y2="-20.1636" gradientUnits="userSpaceOnUse">
<stop offset="0.28" stop-color="#9EFF3F"/>
<stop offset="0.41" stop-color="#5CFF55"/>
<stop offset="0.46" stop-color="#00D431"/>
<stop offset="0.49" stop-color="#00C92B"/>
<stop offset="0.57" stop-color="#00A919"/>
<stop offset="0.65" stop-color="#00920C"/>
<stop offset="0.72" stop-color="#008404"/>
<stop offset="0.79" stop-color="#9EFF3F"/>
</linearGradient>
<linearGradient id="paint2_linear_5892_111810" x1="103.679" y1="179.403" x2="34.6785" y2="106.514" gradientUnits="userSpaceOnUse">
<stop offset="0.28" stop-color="#9EFF3F"/>
<stop offset="0.41" stop-color="#5CFF55"/>
<stop offset="0.46" stop-color="#00D431"/>
<stop offset="0.49" stop-color="#00C92B"/>
<stop offset="0.57" stop-color="#00A919"/>
<stop offset="0.65" stop-color="#00920C"/>
<stop offset="0.72" stop-color="#008404"/>
<stop offset="0.79" stop-color="#9EFF3F"/>
</linearGradient>
<linearGradient id="paint3_linear_5892_111810" x1="167.361" y1="120.34" x2="209.945" y2="168.33" gradientUnits="userSpaceOnUse">
<stop offset="0.28" stop-color="#9EFF3F"/>
<stop offset="0.41" stop-color="#5CFF55"/>
<stop offset="0.46" stop-color="#00D431"/>
<stop offset="0.49" stop-color="#00C92B"/>
<stop offset="0.57" stop-color="#00A919"/>
<stop offset="0.65" stop-color="#00920C"/>
<stop offset="0.72" stop-color="#008404"/>
<stop offset="0.79" stop-color="#9EFF3F"/>
</linearGradient>
<linearGradient id="paint4_linear_5892_111810" x1="165.194" y1="83.2553" x2="79.3672" y2="67.2392" gradientUnits="userSpaceOnUse">
<stop stop-color="#EF6795"/>
<stop offset="0.32" stop-color="#ED2A65"/>
<stop offset="0.7" stop-color="#AC1D40"/>
<stop offset="1" stop-color="#83161E"/>
</linearGradient>
<linearGradient id="paint5_linear_5892_111810" x1="75.8584" y1="75.664" x2="122.187" y2="102.059" gradientUnits="userSpaceOnUse">
<stop stop-color="#EF6795"/>
<stop offset="0.32" stop-color="#ED2A65"/>
<stop offset="0.7" stop-color="#AC1D40"/>
<stop offset="1" stop-color="#83161E"/>
</linearGradient>
<linearGradient id="paint6_linear_5892_111810" x1="109.975" y1="191.634" x2="131.129" y2="67.6367" gradientUnits="userSpaceOnUse">
<stop offset="0.27" stop-color="#EF6795"/>
<stop offset="0.34" stop-color="#EF6190"/>
<stop offset="0.43" stop-color="#EE5184"/>
<stop offset="0.54" stop-color="#ED366E"/>
<stop offset="0.58" stop-color="#ED2A65"/>
<stop offset="0.82" stop-color="#AC1D40"/>
<stop offset="1" stop-color="#83161E"/>
</linearGradient>
<linearGradient id="paint7_linear_5892_111810" x1="44.6261" y1="35.3431" x2="182.058" y2="-4.79726" gradientUnits="userSpaceOnUse">
<stop offset="0.28" stop-color="#9EFF3F"/>
<stop offset="0.41" stop-color="#5CFF55"/>
<stop offset="0.46" stop-color="#00D431"/>
<stop offset="0.49" stop-color="#00C92B"/>
<stop offset="0.57" stop-color="#00A919"/>
<stop offset="0.65" stop-color="#00920C"/>
<stop offset="0.72" stop-color="#008404"/>
<stop offset="0.79" stop-color="#9EFF3F"/>
</linearGradient>
</defs>
</svg>
