<svg width="240" height="240" viewBox="0 0 240 240" fill="none" xmlns="http://www.w3.org/2000/svg">
<path fill-rule="evenodd" clip-rule="evenodd" d="M119.914 45.0031C63.4065 54.4956 24 86.7482 24 138.243C24 199.966 72.9554 135.835 106.712 171.821C140.469 207.807 212.389 208.827 215.829 138.243C219.049 72.1682 176.422 35.5107 119.914 45.0031Z" fill="#F9FAFB"/>
<path fill-rule="evenodd" clip-rule="evenodd" d="M148.799 144.785L133.851 125.449L133.508 125.721C131.3 127.456 129.55 128.6 128.256 129.152L127.873 129.314C121.658 131.929 117.385 132.817 118.071 133.431L118.922 134.195C124.415 139.153 131.936 146.364 141.485 155.827C142.793 157.236 144.555 158.14 146.458 158.382L148.428 158.617C167.757 160.905 180.158 161.102 184.702 160.096C185.651 159.886 188.572 160.434 190.777 162.65C194.085 165.973 198.816 173.977 199.611 173.977C200.766 173.977 199.677 168.675 196.346 158.072L195.994 156.84C194.441 151.459 193.325 148.277 192.644 147.295C191.912 146.24 189.441 148.102 185.231 152.882L185.345 153.503C184.799 152.869 184.151 152.195 183.402 151.48L181.412 151.242C174.384 150.389 169.042 149.608 165.386 148.901L165.001 148.826C161.04 148.041 155.639 146.694 148.799 144.785Z" fill="white"/>
<path fill-rule="evenodd" clip-rule="evenodd" d="M55.7151 124.753L50.1573 128.941C49.0906 129.744 48.3085 130.869 47.9272 132.149L46.8744 135.676C46.3791 136.742 46.8122 138.01 47.857 138.549L49.8198 140.006C51.0822 140.657 52.6212 139.951 52.9529 138.569L54.0575 134.639C54.0575 134.639 58.7411 133.216 59.3643 127.642L55.7151 124.753Z" fill="white"/>
<path fill-rule="evenodd" clip-rule="evenodd" d="M82.5038 55.9656C78.706 56.1202 76.7976 61.3246 75.5559 63.8972C75.1331 64.7736 78.1075 90.6746 79.0798 97.3024C80.8107 109.106 86.042 112.848 89.3262 113.652C89.3262 113.652 89.1293 127.071 90.5048 130.411C93.5506 137.806 132.105 132.843 135.873 120.482C138.449 112.032 128.877 111.047 125.284 105.952C118.7 96.6154 118.358 87.9255 111.266 81.7089C108.578 78.7633 105.457 75.8065 102.765 72.2513L101.67 70.8105C94.8246 61.8414 89.6113 55.8906 82.8605 55.9566L82.5038 55.9656Z" fill="white"/>
<path fill-rule="evenodd" clip-rule="evenodd" d="M101.546 78.4168C102.175 78.7201 103.095 78.8142 103.423 78.1981C104.453 76.2636 107.604 75.9976 108.943 77.7321C107.658 77.2903 106.16 76.8687 105.011 77.5944C104.691 77.7963 104.414 78.0794 104.141 78.3595C103.686 78.8262 103.238 79.2846 102.611 79.3461C102.145 79.3918 101.701 79.1955 101.259 79.0002C100.785 78.7905 100.313 78.5819 99.8189 78.6749C99.2701 78.7781 98.8854 79.2146 98.5006 79.6512C98.1169 80.0865 97.7332 80.522 97.1866 80.6275C96.7393 80.7138 96.2899 80.5534 95.8445 80.3944C95.3467 80.2167 94.854 80.0407 94.3749 80.2134C93.8031 80.4194 93.5417 81.0088 93.2801 81.5987C93.0198 82.1854 92.7594 82.7727 92.1929 82.984C91.8573 83.1091 91.4949 83.0638 91.137 82.994L90.7819 82.9214C89.9454 82.755 89.0419 82.7401 88.2766 83.1167C87.6191 83.4402 87.1009 84.1101 87.0586 84.825C87.0416 84.6707 87.0264 84.5167 87.0131 84.3631L86.8805 83.4926C87.6394 82.6022 88.8317 82.0982 89.9997 82.1757C90.1999 82.189 90.4 82.2183 90.5999 82.2475C90.9846 82.3037 91.3684 82.3598 91.7503 82.3017C92.3307 82.2134 92.9199 81.7198 92.822 81.1415L92.8133 81.0791C92.7068 80.1106 94.0049 79.5551 95.0023 79.6367C95.2142 79.654 95.4312 79.6822 95.6496 79.7106C96.4813 79.8186 97.3318 79.9291 97.985 79.451C98.2373 79.2663 98.4323 79.0076 98.6255 78.7515C98.8956 78.3931 99.1622 78.0396 99.577 77.9002C100.035 77.7462 100.501 77.9077 100.953 78.1223L101.103 78.1954L101.546 78.4168ZM108.78 85.1523C108.347 85.7333 107.456 85.4079 106.768 85.1566L106.732 85.1436C104.887 84.4705 102.664 84.9957 101.316 86.4232C100.577 87.2058 99.4832 86.9871 98.3508 86.7606C97.4048 86.5714 96.4318 86.3768 95.6161 86.7563C95.2348 86.9337 94.8808 87.2338 94.5339 87.5279C93.8983 88.0668 93.2865 88.5854 92.574 88.2918C91.2228 87.735 89.5646 88.032 88.4795 89.0063L88.4832 89.3133L88.488 89.9904C89.5663 88.9102 91.3126 88.5603 92.7239 89.1418C93.4364 89.4354 94.0481 88.9168 94.6838 88.378C95.0307 88.0839 95.3846 87.7838 95.766 87.6064C96.5817 87.2269 97.5547 87.4215 98.5007 87.6107C99.6331 87.8371 100.727 88.0559 101.466 87.2732C102.787 85.8743 104.949 85.3419 106.771 85.9547L107.134 86.085C107.783 86.315 108.541 86.524 108.93 86.0024C110.156 84.3569 112.617 83.7802 114.447 84.7097L114.21 83.8169L114.102 83.7673C112.296 82.9719 109.963 83.5646 108.78 85.1523ZM112.98 92.4894C113.658 92.7669 114.536 93.1263 114.991 92.5623C115.82 91.5349 117.713 91.46 120.671 92.3376C120.445 92.4911 119.861 92.4759 119.142 92.4572C117.787 92.422 115.95 92.3742 115.108 93.4175C114.7 93.9238 113.95 93.6859 113.311 93.4312L112.953 93.287C111.155 92.6048 108.975 93.0538 107.601 94.4009C106.832 95.1546 105.748 94.8941 104.625 94.6243C103.687 94.3989 102.722 94.1671 101.893 94.515C101.505 94.6777 101.139 94.9639 100.782 95.2445C100.126 95.7585 99.4945 96.2533 98.7938 95.9326L98.6964 95.8897C97.9022 95.5547 96.3769 96.1194 94.9943 96.6313C93.9885 97.0037 93.0582 97.3482 92.54 97.2977C95.7452 95.412 97.7908 94.6719 98.6766 95.0774L98.747 95.107C99.4198 95.3648 100.031 94.8861 100.664 94.3893C101.022 94.1088 101.388 93.8225 101.775 93.6598C102.605 93.3119 103.57 93.5437 104.508 93.7691C105.631 94.0389 106.715 94.2994 107.484 93.5457C108.886 92.1711 111.127 91.7316 112.945 92.475L112.98 92.4894ZM106.697 123.622C105.884 124.144 104.831 124.819 104.079 124.448C102.75 123.793 100.356 124.375 96.8968 126.193L96.5641 126.369C96.9031 126.432 97.6643 126.198 98.6031 125.909C100.371 125.366 102.769 124.628 104.161 125.315C104.836 125.648 105.754 125.137 106.523 124.652L106.953 124.378C108.984 123.132 111.726 122.711 113.852 123.299C114.533 123.583 115.482 123.251 116.525 122.886C117.234 122.638 117.987 122.374 118.728 122.279C119.643 122.162 120.113 122.232 120.527 122.294C120.941 122.356 121.298 122.409 121.987 122.255C122.519 122.136 123.369 121.764 124.538 121.14C126.61 120.145 130.281 120.265 132.214 120.957L132.318 120.993C134.384 121.676 134.367 120.927 132.289 120.148L132.132 120.091L132.008 120.048C129.8 119.313 125.711 119.393 123.572 120.765L123.529 120.793C122.716 121.314 121.663 121.99 120.911 121.619L120.855 121.594C120.329 121.378 119.098 121.382 118.717 121.407L118.646 121.413C117.362 121.555 117.082 121.672 116.777 121.894L116.558 122.06L116.433 122.108C115.969 122.289 115.477 122.503 114.956 122.75C114.741 122.73 114.493 122.674 114.2 122.569L114.076 122.526C111.869 121.791 108.879 122.222 106.739 123.595L106.697 123.622ZM116.262 98.9623C115.781 99.5263 114.852 99.1669 114.135 98.8894L114.098 98.875C112.175 98.1316 109.803 98.5711 108.32 99.9458C107.507 100.699 106.36 100.439 105.172 100.169C104.179 99.9437 103.159 99.7119 102.281 100.06C101.871 100.222 101.484 100.509 101.106 100.789C100.435 101.286 99.7888 101.765 99.0771 101.507L99.0026 101.477C98.0655 101.072 95.9015 101.812 92.5106 103.698C93.0588 103.748 94.0429 103.404 95.107 103.031C96.5697 102.519 98.1833 101.955 99.0235 102.29L99.1266 102.333C99.8679 102.653 100.536 102.159 101.229 101.644C101.608 101.364 101.995 101.078 102.405 100.915C103.283 100.567 104.303 100.799 105.296 101.024C106.484 101.294 107.631 101.555 108.444 100.801C109.898 99.4538 112.204 99.0048 114.106 99.687L114.485 99.8312C115.161 100.086 115.954 100.324 116.386 99.8175C117.276 98.7742 119.22 98.822 120.653 98.8572C121.414 98.8759 122.031 98.8911 122.271 98.7376C119.141 97.86 117.139 97.9349 116.262 98.9623ZM116.75 105.93C117.575 106.207 118.644 106.566 119.197 106.003C120.206 104.975 122.51 104.9 126.111 105.778C125.835 105.931 125.125 105.916 124.25 105.897C122.601 105.862 120.364 105.814 119.34 106.858C118.843 107.364 117.931 107.126 117.153 106.871L116.716 106.727C114.529 106.045 111.875 106.494 110.203 107.841C109.267 108.595 107.947 108.334 106.58 108.064C105.438 107.839 104.264 107.607 103.254 107.955C102.782 108.118 102.338 108.404 101.902 108.685C101.104 109.199 100.335 109.693 99.4825 109.373L99.3639 109.33C98.3972 108.995 96.5406 109.56 94.8578 110.072L94.8578 110.072C93.6335 110.444 92.5012 110.788 91.8705 110.738C95.7718 108.852 98.2616 108.112 99.3399 108.518L99.4256 108.547C100.244 108.805 100.988 108.326 101.759 107.829C102.195 107.549 102.64 107.263 103.112 107.1C104.122 106.752 105.296 106.984 106.438 107.209C107.804 107.479 109.124 107.74 110.06 106.986C111.767 105.611 114.495 105.172 116.707 105.915L116.75 105.93ZM123.158 111.442C122.537 112.006 121.338 111.647 120.413 111.369L120.365 111.355C117.884 110.612 114.824 111.051 112.91 112.426C111.861 113.179 110.38 112.919 108.848 112.649C107.567 112.424 106.25 112.192 105.117 112.54C104.588 112.702 104.089 112.989 103.601 113.269C102.736 113.766 101.902 114.245 100.984 113.987L100.887 113.957C99.6782 113.552 96.8859 114.292 92.5106 116.178C93.2179 116.228 94.4878 115.884 95.8609 115.511C97.7481 114.999 99.8303 114.435 100.914 114.77L101.047 114.813C102.004 115.133 102.865 114.639 103.761 114.124C104.249 113.844 104.748 113.558 105.277 113.395C106.41 113.047 107.727 113.279 109.007 113.504C110.54 113.774 112.021 114.035 113.07 113.281C114.946 111.934 117.922 111.485 120.375 112.167L120.864 112.311C121.737 112.566 122.76 112.804 123.318 112.298C124.466 111.254 126.974 111.302 128.824 111.337C129.806 111.356 130.602 111.371 130.911 111.218C126.873 110.34 124.289 110.415 123.158 111.442ZM123.293 116.169C124.218 116.447 125.417 116.806 126.038 116.242C127.169 115.215 129.753 115.14 133.791 116.018C133.482 116.171 132.686 116.156 131.704 116.137C129.854 116.102 127.346 116.054 126.198 117.098C125.64 117.604 124.617 117.366 123.744 117.111L123.255 116.967C120.96 116.329 118.208 116.681 116.326 117.831C115.75 118.292 114.746 118.234 113.643 118.171C112.893 118.128 112.096 118.082 111.357 118.195C110.446 118.334 110.013 118.532 109.633 118.705C109.251 118.879 108.923 119.029 108.219 119.07C107.402 119.119 105.459 118.701 105.459 118.701C103.193 118.316 99.6969 119.444 98.03 120.641L97.9396 120.704C96.0977 121.96 95.9441 121.169 97.8701 119.786L97.9776 119.71C99.8971 118.395 103.85 117.345 106.285 118.075L106.333 118.089C107.258 118.367 108.457 118.726 109.078 118.162C109.51 117.769 110.925 117.386 111.197 117.34C112.639 117.094 112.834 117.171 113.272 117.343C113.307 117.357 113.344 117.371 113.383 117.386L113.516 117.398C114.012 117.444 114.545 117.514 115.113 117.608C115.315 117.53 115.538 117.407 115.79 117.226L115.898 117.15C117.817 115.835 120.81 115.425 123.245 116.155L123.293 116.169Z" fill="url(#paint0_linear_5661_300091)"/>
<path fill-rule="evenodd" clip-rule="evenodd" d="M83.7288 59.8623C78.3299 59.8808 74.0691 64.461 74.4331 69.8531C74.4331 69.8531 80.7289 97.2415 77.5378 106.977C76.3033 110.743 58.4803 122.462 59.2336 123.666L61.7486 129.692C62.6425 131.119 89.9985 112.82 89.9985 112.82C92.623 110.736 93.1109 69.3146 93.1109 69.3146C93.1627 64.0978 88.941 59.8439 83.7288 59.8623Z" fill="white"/>
<path d="M55.3926 124.753L58.6074 131.373L58.6717 131.55C58.9392 132.236 59.9616 132.656 60.093 132.689L60.1124 132.689L62.0108 131.566C62.2283 131.383 62.3475 130.358 62.1175 129.405L62.0635 129.204C62.0635 129.204 60.5583 123.917 59.3117 122.582C58.5846 121.804 54.3856 122.582 55.3926 124.753Z" fill="white"/>
<path fill-rule="evenodd" clip-rule="evenodd" d="M101.191 185.802H108.866C108.866 185.802 99.8585 162.416 99.8585 156.279C99.8585 154.376 106.939 157.244 105.912 154.376C104.499 150.433 99.6122 143.381 100.816 139.841C102.075 136.139 106.77 134.798 110.86 133.298C111.643 133.01 97.3494 134.003 93.4288 130.884C88.257 126.77 92.4561 117.685 91.0672 120.888C89.3914 124.753 78.5025 134.449 80.661 144.949C82.7638 155.178 101.191 185.802 101.191 185.802Z" fill="white"/>
<path fill-rule="evenodd" clip-rule="evenodd" d="M103.851 190.311L104.52 190.089C104.603 190.062 104.613 189.948 104.537 189.906L103.894 189.557V188.739C103.894 188.653 103.793 188.607 103.728 188.664L103.196 189.132L102.325 188.673C102.237 188.627 102.143 188.723 102.19 188.81L102.688 189.718L101.712 190.738C101.642 190.811 101.714 190.931 101.812 190.903L103.155 190.516L103.665 191.414C103.715 191.503 103.851 191.467 103.851 191.365V191.027V190.311Z" fill="url(#paint1_linear_5661_300091)"/>
<path fill-rule="evenodd" clip-rule="evenodd" d="M123.309 138.699C123.642 139.046 123.972 139.396 124.302 139.747C124.926 140.409 125.55 141.072 126.2 141.708C127.417 142.898 128.645 144.081 129.937 145.188C131.538 146.561 133.18 147.891 134.858 149.169C136.758 150.614 138.703 152.001 140.657 153.373C140.76 153.444 140.861 153.516 140.963 153.589L140.968 153.592C141.965 154.299 142.961 155.006 144.241 155.224C144.607 155.286 144.949 155.469 145.293 155.654C145.567 155.801 145.843 155.949 146.132 156.036C148.13 156.642 150.137 157.218 152.157 157.742C153.397 158.063 154.664 158.292 155.927 158.512C156.713 158.649 161.217 159.365 164.213 159.8C167.209 160.234 177.118 160.234 179.591 160.183C180.98 160.154 182.368 160.106 183.755 160.053L183.827 160.05C184.109 160.04 184.41 160.029 184.656 159.918C186.018 159.301 187.073 159.973 188.141 160.654L188.218 160.704C189.621 161.597 190.48 162.942 191.328 164.318C191.779 165.05 192.256 165.765 192.734 166.48L192.734 166.48C193.248 167.25 193.762 168.019 194.242 168.809C194.878 169.855 195.445 170.943 196.012 172.031C196.114 172.226 196.216 172.422 196.318 172.617C197.067 174.047 198.191 174.879 199.803 175.186C200.604 175.339 201.291 175.101 201.976 174.864L201.976 174.864L201.976 174.864L201.976 174.864C202.23 174.776 202.483 174.688 202.742 174.62C203.249 174.488 203.658 173.117 203.477 172.575C202.949 170.993 202.42 169.41 201.891 167.828L201.891 167.828L201.891 167.826L201.888 167.818L201.888 167.818L201.888 167.817C200.783 164.514 199.679 161.211 198.585 157.904C197.82 155.593 197.073 153.276 196.326 150.959L196.325 150.958L196.325 150.958L196.325 150.956C196.114 150.302 195.903 149.648 195.692 148.994C195.591 148.682 195.496 148.369 195.4 148.056L195.4 148.056C195.241 147.536 195.083 147.017 194.901 146.505C194.842 146.338 194.596 146.131 194.429 146.125C193.22 146.076 192.059 146.372 190.957 146.825C188.872 147.68 187.268 149.123 186.09 151.044C185.778 151.553 185.233 151.737 184.546 151.615C184.214 151.557 183.879 151.513 183.545 151.468C183.034 151.401 182.523 151.333 182.025 151.215C180.915 150.952 179.792 150.943 178.669 150.934C177.947 150.928 177.224 150.922 176.505 150.849C176.011 150.798 175.514 150.769 175.017 150.74C174.354 150.702 173.692 150.663 173.036 150.573C171.842 150.409 170.654 150.202 169.466 149.995L169.466 149.995C168.903 149.897 168.34 149.799 167.776 149.705C167.32 149.629 166.863 149.558 166.407 149.487L166.406 149.486L166.406 149.486L166.405 149.486C165.524 149.348 164.643 149.211 163.768 149.043C162.648 148.828 161.537 148.566 160.427 148.303L160.025 148.209C158.851 147.932 157.678 147.647 156.506 147.362C156.014 147.242 155.522 147.122 155.03 147.003C154.977 146.99 154.924 146.977 154.872 146.963L154.798 146.945C154.825 146.93 154.852 146.916 154.879 146.902C154.937 146.872 154.995 146.842 155.051 146.808C155.221 146.703 155.397 146.603 155.573 146.504C155.974 146.277 156.375 146.049 156.716 145.753C157.484 145.088 157.221 143.981 156.246 143.686C155.502 143.462 154.736 143.236 153.968 143.185C152.933 143.115 151.991 142.772 151.047 142.428L151.047 142.428L151.047 142.428L151.047 142.428L151.047 142.428L151.047 142.428L151.046 142.428L151.046 142.428C150.668 142.289 150.289 142.151 149.904 142.031C148.994 141.746 148.448 141.211 147.992 140.392C147.772 139.998 147.449 139.663 147.126 139.327L147.126 139.327C146.898 139.09 146.669 138.853 146.475 138.594C145.469 137.25 144.492 135.884 143.54 134.501C143.337 134.207 143.175 133.885 143.012 133.564C142.888 133.318 142.763 133.072 142.621 132.838C142.287 132.289 141.947 131.733 141.534 131.244L141.48 131.179L141.48 131.179C140.533 130.057 139.584 128.932 138.555 127.888C137.994 127.319 137.374 126.807 136.755 126.296L136.755 126.296C136.462 126.054 136.169 125.813 135.883 125.565C135.738 125.44 135.599 125.304 135.478 125.157C135.269 124.904 135.183 124.694 135.498 124.395C135.542 124.353 135.587 124.312 135.631 124.27L135.745 124.162L135.745 124.162C136.568 123.389 137.399 122.608 137.848 121.537C137.876 121.47 137.905 121.403 137.933 121.336L137.991 121.201L137.991 121.2C138.352 120.348 138.716 119.488 138.921 118.596C139.198 117.395 139.086 116.172 138.728 114.962C138.227 113.268 137.178 111.985 135.758 111.064C134.881 110.496 133.959 109.999 133.037 109.502C132.353 109.134 131.669 108.765 131.004 108.368C130.489 108.06 130.049 107.613 129.62 107.177L129.497 107.052C127.565 105.097 126.218 102.731 124.876 100.374L124.705 100.072L124.598 99.8846L124.448 99.6229C123.151 97.3601 121.988 95.0184 120.828 92.6804C120.494 92.007 120.207 91.3101 119.921 90.613L119.921 90.6129L119.921 90.6128L119.921 90.6126L119.921 90.6125L119.921 90.6124L119.921 90.6123L119.921 90.6122L119.921 90.6121C119.668 89.9961 119.415 89.3801 119.129 88.7801C118.902 88.3057 118.623 87.8569 118.344 87.4079L118.344 87.4075C118.139 87.0776 117.934 86.7476 117.75 86.407C117.551 86.0411 117.37 85.6651 117.19 85.2892C116.916 84.7199 116.642 84.1511 116.309 83.6188C116.071 83.2385 115.726 82.9249 115.381 82.6118C115.237 82.4807 115.093 82.3497 114.957 82.2139C114.787 82.0447 114.614 81.8784 114.442 81.7122L114.441 81.7119C114.261 81.5385 114.081 81.3651 113.905 81.1884C113.593 80.8767 113.285 80.5608 112.986 80.2367C112.415 79.6163 111.84 78.9986 111.266 78.381L111.265 78.3798L111.263 78.3787L111.262 78.3775L111.261 78.3764L111.26 78.3752L111.259 78.3741L111.258 78.3729C109.835 76.8431 108.411 75.3133 107.035 73.742C105.422 71.9013 103.888 69.9886 102.381 68.0592C101.782 67.292 101.242 66.4786 100.702 65.6651C100.462 65.3029 100.221 64.9406 99.9757 64.5825C99.9619 64.5622 99.9504 64.54 99.939 64.5179C99.9227 64.4863 99.9065 64.4549 99.8834 64.4295C99.4932 63.9997 99.1072 63.5659 98.7211 63.1321L98.7208 63.1318C97.8144 62.1134 96.908 61.0949 95.949 60.1287C94.5259 58.6951 92.8957 57.5063 91.1263 56.5162C90.8566 56.3653 90.5965 56.1939 90.3367 56.0228L90.3366 56.0227L90.3365 56.0227C89.9271 55.753 89.5186 55.4838 89.0746 55.2961L89.0077 55.2677L88.8937 55.219L88.7578 55.1607C87.9096 54.7963 87.0204 54.4142 86.1449 54.3963C84.2973 54.3584 82.3767 54.3793 80.8258 55.6853C80.532 55.9327 80.4537 55.8744 80.426 55.5434C80.3995 55.2278 80.346 54.9027 80.2924 54.5774L80.2923 54.5772L80.2923 54.577L80.2923 54.5769L80.2923 54.5767L80.2923 54.5765L80.2922 54.5764C80.1673 53.818 80.0422 53.0589 80.2601 52.417C80.3918 52.029 80.4378 51.6373 80.4834 51.2491C80.535 50.8099 80.5861 50.3751 80.7601 49.9547C81.3417 48.5493 81.8609 47.1175 82.3797 45.6865L82.3798 45.6863L82.3799 45.6861C82.458 45.4707 82.536 45.2554 82.6143 45.0402C82.7768 44.5936 82.9088 44.1245 82.969 43.6546C83.0121 43.3188 83.0266 42.9793 83.041 42.6398C83.0558 42.2914 83.0707 41.9429 83.1165 41.5986C83.2793 40.3737 82.8547 39.2975 82.4284 38.217C82.3506 38.0197 82.2727 37.8223 82.1983 37.6239C81.2924 35.2063 79.5952 33.3779 77.7628 31.6608C76.1851 30.1825 73.5715 29.7174 71.4579 29.3529C70.6772 29.2182 65.1972 29.0894 62.3034 29.0214L62.3032 29.0214L62.3031 29.0214C61.359 28.9992 60.6902 28.9835 60.5498 28.9762C59.979 28.9463 59.5924 28.6808 59.2058 28.3958C58.408 27.8074 58.2032 26.8949 58.0016 25.9969V25.9969C57.9817 25.9084 57.9619 25.82 57.9415 25.7321C57.9366 25.7108 57.9319 25.6899 57.9274 25.6695C57.8754 25.434 57.8389 25.269 57.4849 25.2809C56.3032 25.3206 55.6954 26.0923 55.1167 26.9741C54.465 27.9671 53.9372 29.0025 53.756 30.1861C53.5354 31.6273 53.654 32.966 54.6788 34.1528C55.5123 35.1181 56.4825 35.8558 57.5785 36.4749C57.724 36.557 57.8159 36.9922 57.7354 37.1781C56.9093 39.0831 56.8479 41.0914 56.9286 43.1077C56.9482 43.597 57.0275 44.0837 57.1068 44.5705L57.1068 44.5707L57.1068 44.571C57.182 45.0323 57.2571 45.4937 57.2815 45.9575C57.3515 47.2879 57.0796 48.5675 56.546 49.8048C56.184 50.6442 56.4381 51.4391 57.0452 52.0989C57.1492 52.2119 57.2789 52.3065 57.4074 52.4002C57.5882 52.5322 57.7668 52.6625 57.8687 52.8403C58.0994 53.2424 58.2601 53.7263 58.2975 54.1876C58.3262 54.5402 58.2883 54.8975 58.2503 55.2555V55.2557V55.2558V55.256V55.2561V55.2563V55.2564V55.2566L58.2503 55.2571C58.2267 55.4796 58.2031 55.7024 58.1954 55.9247C58.1657 56.7808 58.4912 57.5131 58.9304 58.244C59.7252 59.5666 60.7742 60.5397 62.2966 60.8583C63.6009 61.1312 64.9555 61.1474 66.215 60.7181C67.645 60.2307 69.0391 59.607 70.3847 58.9169C70.7668 58.7209 71.0693 58.3689 71.3716 58.017C71.5069 57.8596 71.6421 57.7023 71.7844 57.559C71.9951 57.3468 72.1015 57.2851 72.3815 57.5817C73.3817 58.641 74.1087 59.8444 74.6963 61.1731C75.0206 61.9064 74.8104 62.5091 74.5865 63.1511L74.5602 63.2267L74.4963 63.4098C74.1858 64.2987 73.8768 65.1832 73.9008 66.1558C73.9127 66.6361 73.9034 67.1178 73.894 67.5993V67.6V67.6008V67.6015V67.6022V67.6029V67.6036V67.6044C73.8793 68.3679 73.8645 69.1308 73.9337 69.8865C74.0077 70.6948 74.1892 71.4935 74.3707 72.2919L74.3707 72.2922L74.3711 72.2938C74.444 72.6146 74.5169 72.9353 74.5827 73.2566C74.6528 73.5982 74.7214 73.9401 74.7899 74.2821L74.79 74.2824L74.7901 74.2827L74.7901 74.283L74.7902 74.2832L74.7902 74.2834L74.7903 74.2836L74.7903 74.2839C74.9977 75.318 75.2051 76.3522 75.453 77.3765C75.5678 77.851 75.7255 78.3147 75.8833 78.7786L75.8834 78.7789L75.8835 78.7791C76.0125 79.1585 76.1416 79.5381 76.2472 79.9237C76.3698 80.3709 76.4939 80.8178 76.618 81.2647C77.1005 83.0022 77.5832 84.7403 77.9738 86.4985C78.3083 88.0041 78.5012 89.553 78.6136 91.093C78.6839 92.056 78.6733 93.0246 78.6627 93.9936C78.6568 94.5293 78.6509 95.0652 78.6587 95.6002C78.6646 96.0046 78.6856 96.409 78.7066 96.8133C78.7334 97.3273 78.76 97.8412 78.7557 98.355C78.7539 98.56 78.7526 98.7652 78.7512 98.9704C78.7422 100.327 78.7332 101.687 78.6139 103.035C78.495 104.38 78.2399 105.721 77.9449 107.041C77.7026 108.125 76.9591 108.963 76.2214 109.749C75.8374 110.158 75.4117 110.527 74.9857 110.897L74.9855 110.897C74.6875 111.155 74.3894 111.414 74.1053 111.686C73.9107 111.873 73.7355 112.081 73.5605 112.289L73.5604 112.289C73.3428 112.547 73.1257 112.805 72.872 113.021C72.0435 113.725 71.201 114.413 70.3585 115.102C69.7193 115.624 69.0801 116.146 68.4471 116.675C67.8792 117.15 67.3199 117.635 66.7605 118.119C66.1952 118.609 65.6299 119.099 65.0559 119.579C64.2714 120.234 63.4757 120.881 62.6446 121.475C62.2534 121.754 61.8436 122.008 61.4339 122.262L61.4337 122.262C61.01 122.524 60.5862 122.787 60.183 123.078C59.6989 123.427 59.3234 123.23 58.95 123.035C58.8213 122.967 58.6929 122.9 58.5604 122.855C57.4841 122.492 56.6327 122.629 56.2289 123.664C56.148 123.872 56.0245 124.058 55.9002 124.246C55.6743 124.587 55.4457 124.932 55.4654 125.414C55.4716 125.565 55.1462 125.745 54.8675 125.898C54.8009 125.935 54.7369 125.971 54.6808 126.004C53.8608 126.488 53.031 126.955 52.2007 127.421C52.0236 127.52 51.8403 127.611 51.6571 127.702C51.3048 127.876 50.953 128.05 50.6468 128.285C50.3352 128.524 50.0523 128.8 49.7694 129.077L49.7693 129.077L49.7692 129.077L49.7691 129.077L49.769 129.077L49.7689 129.078L49.7688 129.078L49.7687 129.078C49.4849 129.355 49.2011 129.633 48.8883 129.872C48.2442 130.365 47.879 131.044 47.5161 131.719C47.3828 131.967 47.2498 132.214 47.1034 132.451C46.6992 133.106 46.4657 133.91 46.3313 134.679C46.1501 135.714 46.0765 136.78 46.0809 137.832C46.0827 138.271 46.3493 138.743 46.5941 139.14C46.8578 139.567 47.2534 139.628 47.6346 139.215C47.6658 139.181 47.7097 139.159 47.7536 139.137L47.7738 139.126L47.7814 139.123L47.7969 139.114L47.8037 139.11L47.8133 139.105L47.8165 139.134L47.8216 139.182C47.8263 139.226 47.831 139.271 47.8366 139.315L47.8411 139.349C47.8656 139.526 47.885 139.704 47.9044 139.882C47.9521 140.321 47.9999 140.76 48.1232 141.177C48.2057 141.456 48.5641 141.825 48.8127 141.837C49.0033 141.846 49.2043 141.668 49.403 141.492C49.4829 141.422 49.5624 141.351 49.6407 141.294C49.7173 141.237 49.7824 141.164 49.8464 141.092L49.867 141.068C49.925 141.003 49.9734 140.93 50.0261 140.86C50.0644 140.941 50.1008 141.023 50.1413 141.102C50.1635 141.146 50.1841 141.192 50.2039 141.238C50.2161 141.267 50.2279 141.295 50.2398 141.324C50.3102 141.493 50.3807 141.663 50.5022 141.779C50.9713 142.225 51.6023 142.051 51.7956 141.424C51.8962 141.098 51.9798 140.766 52.0633 140.434C52.1791 139.975 52.2947 139.516 52.4552 139.072C52.5214 138.89 52.5761 138.703 52.6308 138.517C52.7908 137.971 52.951 137.425 53.4003 136.965C53.7238 136.634 53.9217 136.178 54.1186 135.724C54.1953 135.547 54.2719 135.37 54.3557 135.201C54.8597 134.186 55.6924 133.522 56.6555 132.987C56.9176 132.841 57.1782 132.681 57.4058 132.487C57.9107 132.058 58.2603 132.292 58.5673 132.729C59.0748 133.45 59.9161 133.716 60.6984 133.3C61.8972 132.664 62.8764 131.827 63.2021 130.395C63.2624 130.13 63.6535 129.896 63.9405 129.734C64.8031 129.247 65.671 128.77 66.5388 128.293L66.5391 128.292L66.5394 128.292L66.5397 128.292L66.5401 128.292L66.5404 128.292L66.5407 128.291L66.541 128.291L66.5413 128.291C67.9815 127.499 69.4216 126.707 70.8376 125.873C72.6043 124.834 74.3255 123.715 76.0454 122.597L76.564 122.26C79.2741 120.5 81.9741 118.725 84.674 116.949L84.6823 116.944L86.2659 115.902C86.8585 115.513 87.4471 115.117 88.0356 114.722L88.0366 114.721L88.0376 114.72C88.4479 114.444 88.8581 114.169 89.2697 113.895C89.4344 113.785 89.6084 113.687 89.7872 113.602C90.3202 113.351 90.4767 113.441 90.5193 114.013C90.5209 114.034 90.5193 114.056 90.5196 114.077L90.5535 116.487V116.487V116.488V116.488V116.489C90.5844 118.696 90.6154 120.903 90.6481 123.11C90.6585 123.816 90.289 124.357 89.9248 124.89C89.851 124.998 89.7774 125.105 89.7073 125.214C88.4228 127.203 87.1117 129.176 85.7875 131.139C85.4246 131.677 85.0485 132.207 84.6724 132.736L84.6723 132.736L84.672 132.737L84.6716 132.737L84.6712 132.738C84.1031 133.538 83.5351 134.337 83.013 135.166C82.7482 135.586 82.59 136.074 82.4319 136.561C82.3624 136.775 82.293 136.99 82.2146 137.198C82.1788 137.293 82.1411 137.387 82.1033 137.482C82.0017 137.737 81.8999 137.992 81.8361 138.256C81.3204 140.39 81.5528 142.507 82.0626 144.602C82.0967 144.742 82.1307 144.883 82.1646 145.023L82.1647 145.023C82.4813 146.332 82.7993 147.646 83.2612 148.904C83.6316 149.913 84.094 150.887 84.5566 151.862L84.5567 151.862L84.5567 151.862L84.5568 151.863L84.5569 151.863L84.5569 151.863L84.557 151.863L84.5571 151.863L84.5572 151.863C84.7798 152.333 85.0025 152.802 85.215 153.275C85.5862 154.102 85.945 154.935 86.2997 155.769C86.9011 157.183 87.4993 158.598 88.0905 160.017C88.3044 160.53 88.5113 161.047 88.7181 161.563L88.7184 161.564L88.7188 161.565L88.7191 161.566L88.7194 161.566L88.7198 161.567L88.7201 161.568L88.7203 161.569C89.1356 162.606 89.5509 163.643 90.0231 164.653C90.7033 166.109 91.4591 167.53 92.2143 168.949L92.2144 168.95C92.3227 169.153 92.4311 169.357 92.5392 169.561C93.011 170.45 93.4945 171.333 93.978 172.216C94.446 173.071 94.914 173.925 95.3714 174.786C95.7886 175.57 96.1946 176.361 96.6005 177.151C97.0345 177.997 97.4686 178.842 97.9162 179.68C98.5519 180.87 99.2183 182.044 99.9041 183.206C100.475 184.173 100.31 184.623 99.6491 185.514C98.9331 186.479 97.8205 186.802 96.7169 187.054C93.6914 187.745 90.6593 188.408 87.6273 189.071L87.6244 189.072L87.4702 189.105C87.1648 189.172 86.8555 189.222 86.5463 189.272L86.5459 189.272L86.545 189.272C86.1976 189.328 85.8502 189.384 85.5084 189.464C83.7998 189.864 82.9423 191.121 82.4853 192.68C82.1929 193.678 82.1068 194.749 82.9011 195.577C83.2012 195.891 83.7493 196.123 84.1853 196.125C89.8045 196.144 95.4238 196.147 101.043 196.15C104.581 196.152 108.119 196.154 111.657 196.16C112.07 196.16 112.1 196.036 112.131 195.674C112.163 195.305 112.228 194.937 112.294 194.569C112.39 194.029 112.486 193.49 112.474 192.953C112.417 190.369 111.512 188.056 109.928 186.025C109.814 185.878 109.629 185.781 109.446 185.685C109.242 185.579 109.042 185.474 108.946 185.304C108.484 184.488 108.088 183.619 107.785 182.731C107.299 181.307 106.816 179.871 106.504 178.403C106.361 177.729 106.154 177.075 105.947 176.421L105.946 176.421C105.689 175.608 105.431 174.794 105.295 173.938C105.151 173.035 104.776 172.164 104.402 171.299L104.402 171.299L104.402 171.299C104.286 171.03 104.171 170.762 104.063 170.494C103.693 169.58 103.312 168.671 102.931 167.762L102.93 167.762L102.93 167.761L102.93 167.76L102.929 167.759L102.929 167.759L102.929 167.758L102.929 167.757C102.335 166.342 101.741 164.927 101.193 163.494C100.803 162.473 100.479 161.427 100.155 160.38C99.9705 159.783 99.7857 159.185 99.5884 158.592C99.1709 157.338 98.747 156.084 98.2688 154.853C98.1614 154.576 98.2215 154.571 98.3726 154.559H98.3727C98.3869 154.558 98.4018 154.557 98.4174 154.555C98.4328 154.554 98.449 154.552 98.4658 154.55C100.483 154.282 102.471 154.305 104.352 155.203C104.765 155.4 105.055 155.359 105.328 155.017C105.607 154.667 105.462 154.411 105.215 154.09C103.744 152.175 102.831 149.994 102.13 147.693C102.057 147.452 101.981 147.211 101.906 146.971L101.906 146.97C101.451 145.52 100.997 144.075 101.009 142.534C101.019 141.366 101.306 140.319 102.109 139.342C102.285 139.128 102.447 138.903 102.609 138.679C103.09 138.011 103.565 137.352 104.391 137.007C104.809 136.833 105.221 136.645 105.633 136.457L105.633 136.457L105.634 136.457L105.634 136.457L105.634 136.457L105.635 136.456L105.635 136.456L105.635 136.456C106.065 136.26 106.494 136.065 106.93 135.884C107.261 135.747 107.592 135.609 107.923 135.47C109.227 134.925 110.531 134.379 111.861 133.908C112.669 133.621 113.506 133.417 114.342 133.212C114.723 133.119 115.103 133.025 115.481 132.925C115.555 132.905 115.628 132.882 115.701 132.858L115.702 132.858L115.702 132.858C115.761 132.839 115.819 132.821 115.878 132.804C116.738 132.558 117.488 132.601 118.072 133.431C118.329 133.795 118.68 134.091 119.049 134.402C119.122 134.463 119.196 134.526 119.27 134.589C120.659 135.959 121.987 137.327 123.309 138.699ZM91.6275 114.538L91.6275 114.538L91.6275 114.538C91.5534 114.167 91.4794 113.797 91.4392 113.422L91.4279 113.318L91.4279 113.318C91.3413 112.515 91.2536 111.701 91.3108 110.903C91.3404 110.49 91.4504 110.084 91.5607 109.676C91.65 109.346 91.7394 109.016 91.7864 108.681C92.0335 106.918 92.2558 105.151 92.4271 103.38C92.576 101.84 92.6753 100.295 92.7746 98.7499L92.8165 98.1009C92.9166 96.559 93.0096 95.016 93.0699 93.4721C93.1276 91.992 93.1563 90.5107 93.185 89.0296V89.0291L93.1971 88.4066C93.1989 88.3133 93.1672 88.22 93.1352 88.1261L93.1352 88.126C93.1148 88.0661 93.0943 88.0059 93.0824 87.9452C93.069 87.8768 93.0525 87.8079 93.036 87.7389L93.036 87.7388C92.9904 87.5482 92.9445 87.3564 92.9614 87.1711C92.98 86.9671 93.0259 86.764 93.0717 86.5614C93.1338 86.2866 93.1956 86.0129 93.1887 85.7398C93.1432 83.9308 93.0616 82.1227 92.9799 80.3147L92.9799 80.3134L92.9438 79.5113C92.9264 79.1226 92.8763 78.7338 92.817 78.3488C92.6499 77.2623 92.4761 76.1769 92.3023 75.0914L92.3018 75.0884L92.1799 74.3267C92.1658 74.2383 92.1468 74.1506 92.1279 74.063C92.1191 74.0224 92.1103 73.9818 92.102 73.9411C92.0968 73.9864 92.0904 74.0316 92.084 74.0768C92.0703 74.174 92.0566 74.2712 92.0547 74.3687C92.0146 76.3982 91.977 78.4278 91.9394 80.4573L91.9252 81.2258C91.9125 81.9079 91.8995 82.5899 91.8864 83.272C91.8553 84.897 91.8242 86.522 91.7986 88.147C91.7817 89.2229 91.7684 90.2989 91.7552 91.3749L91.7551 91.3768C91.7311 93.3325 91.707 95.2882 91.6608 97.2434C91.6264 98.7022 91.5335 100.162 91.4042 101.616C91.3093 102.682 91.1707 103.744 91.0321 104.806L91.0321 104.807L91.032 104.807L91.032 104.807L91.032 104.807L91.032 104.807L91.032 104.808L91.0319 104.808L91.0317 104.809C91.0093 104.982 90.9868 105.154 90.9645 105.326C90.9433 105.49 90.9222 105.655 90.9014 105.819C90.8419 106.29 90.777 106.761 90.7121 107.232C90.5987 108.055 90.4854 108.877 90.4006 109.703C90.293 110.752 89.788 111.602 89.0615 112.274C88.5312 112.765 87.9334 113.183 87.3359 113.601L87.3358 113.601L87.3356 113.602C87.0996 113.767 86.8636 113.932 86.6319 114.101C86.1479 114.455 85.666 114.812 85.1842 115.169L85.183 115.17C83.973 116.067 82.7629 116.964 81.5194 117.811C80.4086 118.568 79.2655 119.278 78.1224 119.987L78.1215 119.987L78.121 119.988C77.5672 120.331 77.0133 120.675 76.4632 121.024C75.9347 121.359 75.4083 121.698 74.8819 122.036L74.881 122.037C73.9452 122.639 73.0094 123.241 72.0622 123.824L71.8836 123.934L71.8835 123.934L71.8833 123.934L71.8832 123.934L71.883 123.934L71.8829 123.935L71.8828 123.935L71.8827 123.935C70.1467 125.004 68.4095 126.074 66.6322 127.071C65.7875 127.545 64.892 127.93 63.9981 128.314L63.998 128.314L63.9978 128.314L63.9977 128.314L63.9975 128.314L63.9974 128.314L63.9973 128.314L63.9971 128.314L63.9948 128.315C63.7662 128.414 63.5378 128.512 63.3103 128.611C63.1776 128.669 62.872 128.603 62.8091 128.497C62.66 128.247 62.5634 127.964 62.4674 127.683L62.4674 127.683L62.4671 127.682C62.448 127.626 62.4289 127.57 62.4095 127.515C62.0357 126.449 61.5629 125.453 60.7562 124.623C60.1476 123.996 60.2334 123.808 61.0787 123.452C61.1261 123.432 61.1736 123.412 61.2211 123.393C61.5744 123.245 61.9309 123.096 62.2515 122.894C62.8479 122.518 63.4274 122.11 63.9845 121.677C64.4791 121.293 64.9749 120.91 65.4707 120.527L65.4714 120.527C67.1431 119.236 68.8149 117.946 70.4405 116.599C71.954 115.346 73.3922 113.995 74.801 112.622C74.9971 112.431 75.1953 112.242 75.3937 112.052C76.5923 110.906 77.796 109.756 78.5562 108.235C78.6603 108.027 78.7808 107.826 78.9013 107.626C79.2512 107.043 79.601 106.461 79.5492 105.695C79.5175 105.227 79.5802 104.752 79.6428 104.278C79.6655 104.106 79.6881 103.935 79.7063 103.764C79.7552 103.302 79.8133 102.841 79.8715 102.38L79.8716 102.38L79.8716 102.379L79.8717 102.379L79.8718 102.378L79.8718 102.377L79.8719 102.377C79.9911 101.433 80.1102 100.488 80.1504 99.5406C80.2046 98.2607 80.1923 96.9779 80.1799 95.6951C80.1746 95.1429 80.1693 94.5908 80.1693 94.0388C80.1693 93.9092 80.1731 93.7792 80.1769 93.6491C80.1852 93.3653 80.1935 93.0814 80.1623 92.802C80.0105 91.4416 79.8558 90.0805 79.651 88.7274C79.611 88.4631 79.572 88.1983 79.5331 87.9334C79.3423 86.6375 79.1512 85.339 78.8357 84.0731C78.5606 82.9693 78.2226 81.8814 77.8845 80.7934L77.8844 80.793L77.8843 80.7927L77.8842 80.7924L77.8841 80.7921L77.884 80.7917L77.884 80.7914L77.8839 80.7911C77.6166 79.9311 77.3493 79.071 77.1131 78.2027C76.9431 77.5777 76.7559 76.9572 76.5686 76.3366L76.5684 76.3358C76.0994 74.7818 75.6304 73.2274 75.4312 71.6019C75.3877 71.2476 75.298 70.8947 75.2087 70.543L75.2086 70.5428C75.0772 70.0255 74.9464 69.5109 74.9646 68.9986C75.0305 67.1476 75.546 65.364 76.0652 63.5836C76.8407 60.9238 78.1857 58.7054 80.5126 57.1265C81.8552 56.2155 83.262 55.5484 84.9278 55.7628C85.532 55.8405 86.1301 55.9652 86.7282 56.0898L86.7283 56.0898C87.016 56.1498 87.3037 56.2097 87.5922 56.2645C89.2288 56.5751 90.6774 57.2976 91.9819 58.3131C92.7455 58.9076 93.4911 59.5277 94.2162 60.1687C94.9413 60.8096 95.666 61.4577 96.3266 62.1631C96.941 62.8192 97.5127 63.516 98.0838 64.2123L98.0843 64.2129L98.0847 64.2134C98.2087 64.3646 98.3327 64.5157 98.4571 64.6663C99.4387 65.8555 100.418 67.0472 101.378 68.2536C101.799 68.7821 102.211 69.3175 102.623 69.8529L102.623 69.853L102.623 69.8531L102.623 69.8532L102.623 69.8533L102.623 69.8535L102.623 69.8536L102.623 69.8537C103.246 70.6626 103.869 71.4714 104.52 72.2559C105.703 73.6791 106.93 75.0663 108.176 76.4349C109.887 78.3156 111.629 80.169 113.37 82.022C113.519 82.1799 113.69 82.3177 113.86 82.4553L113.86 82.4553C114.065 82.6203 114.269 82.785 114.434 82.9836C115.694 84.5055 116.882 86.093 117.724 87.8858C118.502 89.539 119.25 91.2055 119.999 92.872C120.672 94.3699 121.345 95.8677 122.039 97.3559C123.163 99.7683 124.4 102.118 125.894 104.336L126.004 104.499C126.804 105.689 127.604 106.879 128.731 107.746C130.201 108.876 131.731 109.928 133.261 110.98C133.66 111.254 134.059 111.529 134.457 111.805C135.747 112.699 136.768 113.827 137.27 115.313C137.887 117.138 137.571 118.95 136.711 120.613C135.652 122.66 133.975 124.224 132.264 125.715C130.364 127.369 128.157 128.556 125.776 129.319C122.715 130.299 119.636 131.251 116.399 131.528C115.552 131.601 114.708 131.712 113.865 131.823C112.924 131.947 111.984 132.071 111.039 132.141C108.95 132.297 106.853 132.384 104.758 132.395C103.816 132.4 102.874 132.335 101.932 132.27L101.931 132.27L101.931 132.27C101.333 132.228 100.735 132.186 100.136 132.163C98.5094 132.099 96.9682 131.671 95.4501 131.132C94.4302 130.769 93.4862 130.27 93.1136 129.169C92.8966 128.527 92.7889 127.841 92.6997 127.166L92.6767 126.992C92.4883 125.567 92.2997 124.14 92.1927 122.708C92.0941 121.388 92.0425 120.065 91.989 118.693C91.9688 118.176 91.9484 117.653 91.9251 117.12C91.912 116.949 91.9015 116.777 91.891 116.605L91.891 116.605C91.8672 116.218 91.8435 115.83 91.7904 115.447C91.7483 115.143 91.6879 114.84 91.6275 114.538ZM145.905 154.297C145.836 154.358 145.681 154.398 145.604 154.363C145.255 154.204 144.9 154.054 144.544 153.904L144.544 153.904C143.677 153.538 142.81 153.172 142.029 152.672C140.635 151.779 139.274 150.833 137.913 149.886L137.913 149.886C136.846 149.144 135.778 148.401 134.693 147.684C132.329 146.12 130.255 144.216 128.182 142.311L128.182 142.311L128.181 142.31L128.181 142.31L128.181 142.31C127.777 141.939 127.373 141.568 126.967 141.2C126.337 140.628 125.744 140.014 125.151 139.4C125.023 139.268 124.895 139.135 124.766 139.003C124.061 138.277 123.362 137.545 122.663 136.812C122.36 136.495 122.057 136.178 121.753 135.861C121.64 135.743 121.526 135.624 121.413 135.506L121.098 135.179C120.306 134.355 119.513 133.532 118.745 132.685C118.654 132.585 118.768 132.087 118.871 132.056C119.307 131.924 119.75 131.816 120.194 131.708C120.756 131.572 121.318 131.435 121.864 131.249L122.142 131.155L122.142 131.155C124.399 130.386 126.659 129.617 128.867 128.723C130.89 127.905 132.764 126.782 134.439 125.356C134.465 125.334 134.585 125.363 134.598 125.395C135.082 126.564 135.982 127.36 136.886 128.159C137.092 128.342 137.298 128.524 137.5 128.711C138.448 129.591 139.39 130.494 140.221 131.483C140.758 132.121 141.215 132.828 141.672 133.534L141.672 133.534C141.84 133.794 142.008 134.053 142.18 134.31C142.374 134.599 142.579 134.884 142.784 135.169C143.287 135.868 143.791 136.567 144.136 137.338C144.905 139.056 146.097 140.425 147.342 141.758C148.566 143.07 150.234 143.558 151.88 144.04C152.034 144.085 152.187 144.13 152.339 144.175C152.944 144.355 153.567 144.476 154.189 144.597L154.19 144.597C154.531 144.664 154.872 144.73 155.211 144.806C155.297 144.825 155.374 144.883 155.452 144.941C155.487 144.968 155.523 144.995 155.56 145.018C155.52 145.065 155.479 145.127 155.439 145.188C155.351 145.32 155.263 145.452 155.185 145.447C154.39 145.39 153.796 145.799 153.213 146.2C153.057 146.308 152.902 146.414 152.744 146.511C151.975 146.985 151.219 147.495 150.771 148.377C150.48 148.95 150.089 149.472 149.699 149.993C149.579 150.153 149.459 150.312 149.343 150.473C148.864 151.135 148.364 151.78 147.819 152.483L147.819 152.483L147.818 152.485L147.817 152.485L147.817 152.485L147.701 152.635C147.565 152.762 147.429 152.888 147.293 153.015C146.833 153.445 146.372 153.875 145.905 154.297ZM106.653 134.466C106.166 134.725 105.648 134.922 105.129 135.119C104.108 135.508 103.085 135.897 102.305 136.758C102.069 137.02 101.796 137.248 101.523 137.477L101.522 137.477C101.345 137.625 101.168 137.774 101 137.932C100.444 138.454 100.252 139.152 100.061 139.848C100.033 139.949 100.005 140.05 99.9765 140.15C99.4515 141.976 99.5707 143.866 100.031 145.617L100.12 145.956C100.734 148.296 101.357 150.67 102.66 152.77C102.812 153.013 102.891 153.144 102.475 153.155C101.357 153.188 100.239 153.229 99.1213 153.271L99.119 153.271C97.8885 153.317 96.6579 153.363 95.4269 153.396C94.6543 153.417 93.8811 153.412 93.1077 153.407C92.5748 153.404 92.0418 153.4 91.509 153.405C90.1136 153.418 88.7579 153.217 87.488 152.625C87.4374 152.601 87.3853 152.577 87.3324 152.553L87.3323 152.553C86.8983 152.355 86.4072 152.131 86.2114 151.775C85.7123 150.867 85.3588 149.869 85.0366 148.877C84.5652 147.427 84.0984 145.967 83.7699 144.48C83.4894 143.211 83.3475 141.901 83.2596 140.602C83.2331 140.211 83.2996 139.815 83.3662 139.418C83.4192 139.102 83.4723 138.786 83.479 138.47C83.5053 137.233 84.0915 136.225 84.6778 135.217L84.7806 135.04C84.9172 134.804 85.0922 134.592 85.2674 134.378C85.4042 134.212 85.5411 134.045 85.6601 133.867C86.6018 132.46 87.5393 131.049 88.4767 129.638C89.1389 128.642 89.8011 127.646 90.4647 126.65C90.5284 126.555 90.6106 126.471 90.6928 126.388L90.6929 126.388L90.7126 126.368C90.7257 126.355 90.7387 126.342 90.7516 126.328C90.77 126.309 90.7881 126.29 90.8058 126.271C90.8427 126.327 90.8859 126.382 90.9291 126.437C91.0238 126.557 91.1184 126.677 91.1462 126.811C91.2106 127.122 91.2531 127.438 91.2956 127.754C91.3317 128.022 91.3679 128.291 91.4177 128.557C91.7063 130.1 92.4453 131.286 93.8993 132.049C95.9041 133.101 98.0581 133.55 100.26 133.803C101.529 133.949 102.822 133.972 104.101 133.931C104.869 133.906 105.635 133.811 106.402 133.716L106.402 133.716C106.817 133.664 107.232 133.613 107.648 133.573C107.76 133.562 107.876 133.596 107.992 133.629C108.046 133.645 108.1 133.661 108.153 133.672C108.12 133.698 108.088 133.725 108.055 133.752C107.973 133.819 107.891 133.886 107.806 133.948C107.788 133.961 107.767 133.97 107.742 133.982C107.703 134.001 107.651 134.025 107.578 134.078C107.481 134.118 107.382 134.156 107.283 134.194C107.069 134.276 106.854 134.359 106.653 134.466ZM80.1518 36.2144C80.9619 37.3995 81.4512 38.7508 81.698 40.1714C81.9488 41.615 81.9841 43.0748 81.561 44.4838C81.3112 45.3156 81.0286 46.1376 80.746 46.9595L80.7459 46.9597L80.7459 46.9599L80.7458 46.9602L80.7457 46.9605C80.4185 47.912 80.0915 48.8633 79.8154 49.8294C79.645 50.4261 79.2589 50.7054 78.8324 50.8556C76.8199 51.5646 74.6332 50.7025 73.3835 48.852C73.0443 48.3497 73.2398 48.1435 73.5847 47.7924C74.0514 47.3171 74.4599 46.7665 74.8073 46.1957C75.3259 45.3437 75.1065 44.475 74.5123 43.7869C73.9176 43.0983 73.0252 42.9453 72.1945 43.2338C71.2454 43.5634 70.5624 44.2892 70.0756 45.1779C70.0528 45.2195 70.0364 45.2647 70.0201 45.3099C70.0125 45.3309 70.0049 45.3519 69.9967 45.3726C69.98 45.3368 69.9596 45.3024 69.9474 45.2652C69.8758 45.0465 69.8068 44.8265 69.7377 44.6064L69.737 44.6042C69.3733 43.4455 69.0087 42.2837 68.2738 41.2951C67.7009 40.5245 67.0838 39.756 66.3563 39.1409C65.8125 38.6811 65.141 38.3611 64.4821 38.0472C64.3857 38.0013 64.2897 37.9556 64.1943 37.9095C63.9698 37.8011 63.7457 37.6904 63.5214 37.5797L63.5205 37.5792L63.5201 37.579C62.5766 37.1131 61.6294 36.6454 60.6358 36.3341C60.4689 36.2818 60.3846 36.256 60.3456 36.2441L60.3211 36.2365L60.3158 36.2347C60.3159 36.2346 60.318 36.2351 60.3213 36.2359C60.3736 36.2475 60.7099 36.3225 57.4258 35.1381C52.8407 33.4844 55.1997 28.2751 56.5572 27.1291C56.6583 27.0437 56.8188 26.9521 56.9276 26.9756C57.0253 26.9967 57.1494 27.167 57.1596 27.2806C57.2614 28.4194 58.9304 30.1866 62.8948 29.9122C65.6082 29.7244 65.667 29.7352 65.7968 29.7591C65.8567 29.7701 65.9316 29.7838 66.2888 29.7822C67.1435 29.7783 70.1027 30.0538 70.7012 30.223C70.9186 30.2845 71.2029 30.3439 71.5374 30.4138C73.1313 30.7468 75.8651 31.3181 77.9331 33.4844C78.1621 33.7628 78.3976 34.0367 78.633 34.3106C79.164 34.9283 79.6949 35.546 80.1518 36.2144ZM69.3092 47.5212C69.3092 48.0972 69.4247 48.6639 69.5401 49.2304C69.5955 49.5028 69.651 49.7752 69.6936 50.0486C69.7004 50.0917 69.7229 50.1324 69.7453 50.1731C69.7558 50.192 69.7663 50.2109 69.7751 50.2301C69.7798 50.2116 69.7848 50.1932 69.7897 50.1749C69.8004 50.1355 69.8111 50.0962 69.8186 50.0563C69.871 49.7773 69.9199 49.4975 69.9689 49.2177L69.969 49.2171C70.0796 48.5843 70.1903 47.9516 70.3414 47.3287C70.5226 46.5817 70.7243 45.8204 71.0591 45.1352C71.4463 44.3428 73.0679 43.969 73.8658 44.3846C74.3208 44.6216 74.539 45.1897 74.2439 45.6024C73.9648 45.9928 73.6224 46.3919 73.2151 46.6243C72.5464 47.0058 72.3288 47.642 72.2746 48.2657C72.1725 49.4385 73.4031 51.0875 74.5988 51.3841C75.6861 51.6537 76.7942 51.8413 77.9012 52.0287L77.9016 52.0287C78.1628 52.0729 78.4241 52.1171 78.6849 52.1624C78.7119 52.1671 78.7387 52.1715 78.765 52.1759C79.1135 52.2334 79.3908 52.2792 79.2804 52.7897C78.9807 54.1756 78.8827 55.5719 79.1342 56.9816C79.1495 57.0672 78.9937 57.2014 78.8945 57.2862C78.768 57.3945 78.6347 57.4964 78.5016 57.5983L78.5016 57.5984C78.2568 57.7857 78.0123 57.9728 77.8101 58.1983C77.4776 58.569 77.1677 58.9597 76.8577 59.3506L76.8575 59.3509C76.6446 59.6192 76.4317 59.8876 76.2115 60.1495C76.154 60.2179 75.9227 60.2465 75.8673 60.1935C75.5849 59.9236 75.3098 59.646 75.0346 59.3684L75.0345 59.3682L75.0343 59.368L75.0341 59.3679L75.0339 59.3677L75.0337 59.3675L75.0335 59.3674L75.0334 59.3672L75.0332 59.3671C74.7114 59.0423 74.3896 58.7175 74.0561 58.4053C73.2492 57.6495 72.4221 56.9147 71.5849 56.1927C71.4765 56.0992 71.327 56.0533 71.1776 56.0075C71.1087 55.9864 71.0398 55.9652 70.9749 55.9394C71.002 56.002 71.0286 56.0649 71.0551 56.1278C71.1276 56.2996 71.2001 56.4715 71.286 56.6364C71.301 56.6652 71.344 56.6769 71.3894 56.6891C71.4283 56.6996 71.4689 56.7106 71.4948 56.7333C71.5078 56.7446 71.5208 56.7557 71.5335 56.7665L71.5354 56.7681L71.536 56.7687C71.6973 56.9062 71.8159 57.0074 71.4578 57.1781C71.0791 57.3586 70.7282 57.5977 70.3774 57.8369L70.3771 57.837C70.2306 57.9369 70.084 58.0368 69.9355 58.1324C67.6457 59.6059 65.1788 60.2978 62.4481 59.8501C60.9037 59.5968 59.8435 58.7751 59.3727 57.2551C58.9217 55.7991 59.1091 55.3754 60.5003 54.7903C60.5477 54.7704 60.5952 54.7506 60.6427 54.7309C61.3764 54.4257 62.1052 54.1226 62.2976 53.2233C62.3767 52.8535 61.6926 52.4548 61.5416 52.8015C61.5406 52.8037 61.5399 52.8059 61.5394 52.8081C61.3909 53.4862 60.8762 53.7205 60.3335 53.9649C59.3352 54.4143 59.2133 54.3514 59.2133 53.3266C59.2133 51.985 59.2133 51.985 58.0364 51.567C57.3548 51.3249 57.245 51.0882 57.5549 50.426C58.0227 49.4261 58.328 48.4074 58.1986 47.2767C58.0391 45.8835 57.906 44.4856 57.8183 43.0862C57.7619 42.1869 57.7083 41.2667 57.8369 40.3826C57.9193 39.8165 58.1214 39.2678 58.3235 38.7192L58.3236 38.7191L58.3238 38.7185L58.324 38.7178C58.4108 38.4823 58.4976 38.2468 58.5748 38.0099C58.7566 37.4524 59.1948 37.2284 59.7666 37.4345C60.1239 37.5634 60.4834 37.6876 60.843 37.8118C61.8442 38.1577 62.8459 38.5037 63.8006 38.95C64.8055 39.4197 65.823 40.0024 66.6045 40.7701C67.3066 41.4599 69.3092 44.9347 69.3092 47.5212ZM151.843 156.091C151.419 155.997 150.994 155.903 150.57 155.809C149.648 155.605 148.726 155.401 147.806 155.188C147.674 155.158 147.55 155.089 147.427 155.021C147.369 154.989 147.312 154.958 147.254 154.93C147.277 154.916 147.301 154.902 147.325 154.889L147.356 154.871L147.402 154.845L147.403 154.845C147.518 154.781 147.633 154.716 147.739 154.638C147.856 154.553 147.955 154.44 148.051 154.331L148.057 154.325C148.332 154.012 148.612 153.703 148.891 153.394L148.892 153.394L148.892 153.393C149.574 152.639 150.256 151.885 150.879 151.085C151.495 150.294 151.984 149.397 152.467 148.512L152.479 148.49C152.717 148.054 152.988 147.87 153.445 148.03C155.392 148.71 157.407 149.081 159.422 149.452L159.422 149.452L159.423 149.452L159.423 149.452L159.423 149.452L159.424 149.452L159.424 149.452L159.424 149.452C160.475 149.646 161.525 149.839 162.566 150.076C164.272 150.465 172.865 151.943 173.613 151.997C173.977 152.023 174.342 152.06 174.706 152.097C175.414 152.169 176.122 152.241 176.829 152.233C178.637 152.213 180.408 152.408 182.178 152.751C182.736 152.859 183.302 152.928 183.868 152.996L183.868 152.996L183.868 152.996L183.869 152.996H183.869C184.515 153.075 185.161 153.153 185.794 153.29C187.834 153.732 188.518 155.474 187.992 157.176C187.891 157.503 187.531 157.872 187.207 157.986C185.731 158.508 184.186 158.644 182.625 158.656C181.82 158.663 181.016 158.7 180.212 158.737H180.212H180.212H180.211H180.211H180.211H180.211C179.904 158.751 179.598 158.766 179.291 158.778C178.159 158.824 177.027 158.872 175.894 158.919L175.842 158.921C174.94 158.958 174.038 158.996 173.136 159.033C173.073 159.036 173.009 159.035 172.945 159.034C172.881 159.033 172.817 159.032 172.753 159.034C172.438 159.047 172.122 159.069 171.807 159.09C171.116 159.137 170.426 159.185 169.741 159.142C168.667 159.076 167.597 158.949 166.527 158.822L166.527 158.822L166.526 158.822L166.526 158.822L166.525 158.822L166.525 158.822L166.524 158.822L166.524 158.822C166.027 158.763 165.529 158.704 165.032 158.651C164.727 158.618 164.421 158.592 164.115 158.565L164.115 158.565L164.114 158.565L164.113 158.565L164.113 158.565L164.113 158.565L164.113 158.565L164.112 158.565L164.112 158.565C163.558 158.517 163.004 158.469 162.455 158.386L162.179 158.344C160.775 158.131 159.368 157.917 157.983 157.612C156.908 157.374 155.839 157.103 154.748 156.826L154.747 156.826L154.747 156.825L154.747 156.825L154.747 156.825L154.747 156.825L154.746 156.825L154.745 156.825C153.947 156.622 153.136 156.416 152.301 156.218C152.253 156.205 152.205 156.19 152.157 156.176C152.052 156.146 151.948 156.115 151.843 156.091ZM103.152 185.684C102.49 184.735 101.865 183.759 101.258 182.773C100.707 181.877 100.192 180.959 99.6765 180.041C99.2153 179.219 98.7365 178.407 98.2578 177.596C97.1468 175.712 96.0357 173.828 95.1438 171.818C94.6301 170.66 94.0351 169.539 93.44 168.417L93.4395 168.416L93.4389 168.415L93.4384 168.414L93.4378 168.413L93.4373 168.412L93.4367 168.411L93.4362 168.41C93.1537 167.878 92.8713 167.345 92.5977 166.809C92.4684 166.556 92.3367 166.304 92.205 166.052L92.2049 166.052L92.2038 166.049L92.2036 166.049C91.8418 165.356 91.4798 164.663 91.1691 163.948C90.9341 163.408 90.728 162.853 90.5221 162.298C90.2056 161.446 89.8895 160.594 89.4693 159.797C88.794 158.515 88.3463 157.162 87.8982 155.807L87.8981 155.807L87.8979 155.806L87.8978 155.806L87.8977 155.806L87.8976 155.806C87.7524 155.366 87.6071 154.927 87.454 154.49C87.4302 154.423 87.415 154.352 87.3998 154.281L87.3997 154.281C87.3927 154.248 87.3856 154.215 87.3776 154.182C87.4139 154.189 87.4504 154.195 87.487 154.201L87.4871 154.202L87.4875 154.202C87.5669 154.215 87.6463 154.229 87.7229 154.251C87.8764 154.297 88.029 154.353 88.1815 154.408L88.1817 154.408L88.182 154.408L88.1822 154.408L88.1825 154.408L88.1827 154.408L88.183 154.409C88.5005 154.524 88.8176 154.64 89.142 154.665C90.3547 154.761 91.5743 154.802 92.7911 154.801C93.5433 154.801 94.2954 154.771 95.0476 154.742H95.0479H95.0481H95.0483H95.0485H95.0488H95.049H95.0492C95.5346 154.723 96.0201 154.703 96.5055 154.692C96.5957 154.69 96.737 154.803 96.7733 154.895L96.9067 155.232L96.9069 155.233C97.2108 155.999 97.5148 156.766 97.7803 157.547C98.4419 159.49 99.0836 161.441 99.7175 163.394C100.522 165.874 101.513 168.266 102.604 170.641C103.616 172.842 104.37 175.186 104.849 177.599C105.073 178.725 105.404 179.831 105.734 180.935C105.814 181.201 105.893 181.468 105.972 181.734C106.216 182.569 106.487 183.397 106.757 184.224L106.757 184.225L106.757 184.225L106.757 184.225L106.757 184.225L106.757 184.225L106.757 184.226L106.758 184.226C106.855 184.525 106.953 184.824 107.049 185.123C107.27 185.81 107.076 186.45 106.537 186.534C105.936 186.627 105.315 186.593 104.639 186.55C104.025 186.465 103.498 186.183 103.152 185.684ZM191.478 162.099C190.811 161.002 190.124 160.009 188.768 159.712C188.264 159.602 188.236 159.34 188.57 158.918C188.643 158.826 188.72 158.734 188.798 158.641C189.077 158.309 189.361 157.97 189.481 157.585C189.611 157.169 189.586 156.699 189.561 156.237L189.561 156.237C189.555 156.118 189.548 156 189.545 155.883C189.5 154.487 189.106 153.296 187.724 152.618C187.314 152.417 187.068 152.114 187.479 151.521C188.406 150.184 189.634 149.237 190.989 148.417C191.52 148.096 192.008 148.287 192.219 148.848C192.311 149.092 192.404 149.336 192.497 149.579L192.497 149.579C192.79 150.349 193.083 151.119 193.343 151.9C193.629 152.757 193.901 153.62 194.173 154.482C194.459 155.392 194.746 156.302 195.049 157.206C195.3 157.954 195.52 158.709 195.74 159.465C196.139 160.83 196.537 162.197 197.113 163.515C198.44 166.551 199.512 169.691 200.019 172.99C200.046 173.165 200.009 173.464 199.906 173.516C199.749 173.596 199.48 173.567 199.309 173.483C199.023 173.343 198.722 173.168 198.521 172.929C197.892 172.178 197.307 171.39 196.705 170.488C196.207 169.691 195.706 168.894 195.206 168.097L195.205 168.097L195.205 168.097C193.953 166.103 192.701 164.11 191.478 162.099ZM97.5809 187.959C97.7017 187.929 97.8229 187.899 97.9441 187.87C99.0552 187.599 100.159 187.331 100.803 186.183C101.106 185.641 101.372 185.682 101.678 186.277C101.944 186.793 102.273 187.246 102.798 187.515C103.077 187.658 103.373 187.773 103.669 187.879C105.14 188.4 106.571 188.466 107.861 187.412C108.489 186.898 108.694 186.945 109.185 187.584C109.978 188.619 110.385 189.825 110.79 191.026L110.824 191.129C111.261 192.423 111.024 192.693 109.649 192.693H84.9905C84.9388 192.693 84.885 192.698 84.8312 192.702C84.7077 192.713 84.5841 192.723 84.4862 192.678C84.3597 192.62 84.1906 192.343 84.2118 192.32C84.3023 192.221 84.3908 192.116 84.4796 192.011C84.751 191.689 85.026 191.362 85.3747 191.185C86.0705 190.832 86.8502 190.623 87.6137 190.43C90.4308 189.717 93.2559 189.035 96.2058 188.342C96.3494 188.301 96.4927 188.26 96.636 188.22C96.9501 188.13 97.2643 188.04 97.5809 187.959ZM49.3575 140.578C49.3285 140.686 49.1993 140.767 49.07 140.848C49.0105 140.885 48.9509 140.923 48.9011 140.962C48.8688 140.917 48.8283 140.871 48.7879 140.826C48.7 140.727 48.6121 140.628 48.6071 140.525C48.6003 140.388 48.5911 140.25 48.5819 140.111C48.546 139.572 48.5098 139.027 48.6162 138.515C48.8244 137.513 49.1518 136.527 49.5237 135.571C49.6165 135.333 49.5057 135.219 49.4016 135.112C49.3261 135.034 49.2541 134.961 49.2656 134.845C49.1988 134.888 49.1273 134.927 49.0559 134.967C48.8927 135.056 48.7294 135.146 48.6219 135.28C48.5272 135.398 48.4836 135.556 48.4396 135.715L48.4395 135.715C48.4133 135.81 48.387 135.905 48.3496 135.993C48.3182 136.066 48.2869 136.14 48.2557 136.214L48.1928 136.363C47.9385 136.965 47.684 137.568 47.3897 138.15C47.3374 138.254 47.1804 138.304 47.0234 138.354C46.9511 138.377 46.8788 138.4 46.8167 138.429C46.7999 138.392 46.7803 138.354 46.7596 138.317C46.7476 138.296 46.7353 138.274 46.7229 138.253L46.7227 138.252C46.649 138.124 46.5753 137.995 46.5766 137.867C46.5822 137.288 46.6282 136.707 46.6969 136.131C46.7077 136.04 46.7173 135.949 46.7269 135.857L46.727 135.856V135.856C46.7705 135.441 46.8148 135.018 46.975 134.65C47.4628 133.53 47.9806 132.414 48.6027 131.365C48.9964 130.701 49.5316 130.08 50.1257 129.589C50.6532 129.152 51.2608 128.81 51.8659 128.469L51.8665 128.469C52.0281 128.378 52.1895 128.287 52.3492 128.194C53.3252 127.628 54.3147 127.085 55.3064 126.546L55.3234 126.537L55.3383 126.529L55.339 126.528C55.455 126.462 55.5919 126.384 55.7139 126.651C55.9433 127.152 56.1869 127.648 56.4304 128.143L56.4305 128.143L56.4306 128.143L56.4307 128.143L56.4308 128.144L56.4308 128.144L56.4309 128.144L56.431 128.144C56.8109 128.917 57.1906 129.689 57.5163 130.484C57.5232 130.501 57.5307 130.519 57.5385 130.538C57.6665 130.841 57.8923 131.378 57.2004 131.674C56.4579 131.992 55.7279 132.45 55.1422 133.005C53.4191 134.637 52.6419 136.819 51.87 138.986L51.8096 139.155C51.6609 139.572 51.5546 140.004 51.4482 140.436L51.4482 140.436L51.4482 140.436L51.4481 140.436L51.4481 140.436L51.448 140.437L51.448 140.437L51.4479 140.437C51.3974 140.642 51.3469 140.847 51.2918 141.051C51.2718 141.125 51.2481 141.198 51.2244 141.271C51.2135 141.305 51.2026 141.338 51.192 141.372C51.1558 141.346 51.1138 141.322 51.0718 141.298C50.9809 141.246 50.8901 141.194 50.8583 141.118C50.5329 140.336 50.4351 139.55 50.6775 138.701C50.8702 138.026 50.9397 137.311 51.0082 136.608V136.608L51.0145 136.544C51.0228 136.458 50.903 136.359 50.7832 136.26L50.7443 136.228C50.7261 136.213 50.7082 136.198 50.6911 136.183C50.6788 136.172 50.6669 136.161 50.6556 136.151C50.6466 136.142 50.6379 136.134 50.6297 136.125C50.6009 136.163 50.5674 136.2 50.5339 136.237C50.4612 136.316 50.3884 136.396 50.3627 136.489C50.3079 136.687 50.257 136.885 50.2052 137.087L50.2051 137.087C50.1109 137.454 50.0137 137.833 49.8853 138.237C49.8408 138.441 49.7977 138.646 49.7545 138.85C49.6326 139.429 49.5106 140.008 49.3575 140.578ZM57.2161 127.523C57.1242 127.302 57.0146 127.09 56.9049 126.878C56.6393 126.364 56.3734 125.85 56.3587 125.202C56.3452 124.609 56.4529 124.291 56.931 123.999C57.4375 123.69 58.0143 123.504 58.4649 123.859C59.4889 124.667 60.4339 125.605 60.9815 126.806C61.3264 127.563 61.575 128.364 61.8232 129.165C61.9083 129.439 61.9934 129.713 62.0824 129.986C62.1331 130.141 62.109 130.334 62.076 130.501C61.8781 131.501 61.1323 131.995 60.3026 132.414C59.8647 132.635 59.541 132.525 59.3442 132.092C59.2101 131.797 59.0777 131.501 58.9442 131.203L58.944 131.202L58.9438 131.202L58.9437 131.202C58.6645 130.577 58.3801 129.942 58.0633 129.278C57.9757 129.099 57.8854 128.92 57.7951 128.742L57.795 128.742C57.5916 128.34 57.3882 127.938 57.2161 127.523ZM201.423 172.64C200.966 171.551 200.532 170.448 200.166 169.326C199.921 168.575 199.705 167.815 199.489 167.055L199.489 167.055C199.294 166.367 199.098 165.679 198.881 164.997C198.54 163.928 198.183 162.864 197.826 161.8L197.826 161.8C197.492 160.805 197.158 159.811 196.837 158.812C196.237 156.941 195.652 155.066 195.067 153.191C194.804 152.349 194.541 151.506 194.277 150.665C194.208 150.443 194.137 150.221 194.066 150L194.066 150C193.879 149.411 193.691 148.823 193.523 148.229C193.498 148.141 193.549 148.031 193.599 147.922C193.623 147.871 193.646 147.82 193.662 147.772C193.714 147.806 193.774 147.836 193.835 147.867C193.965 147.933 194.095 147.999 194.142 148.103C194.592 149.088 195.032 150.079 195.42 151.09C195.777 152.019 196.096 152.964 196.415 153.909C196.468 154.067 196.522 154.225 196.575 154.383C196.635 154.559 196.694 154.734 196.754 154.909L196.754 154.909C197.089 155.893 197.423 156.877 197.721 157.872C198.03 158.902 198.322 159.937 198.614 160.972L198.615 160.973L198.615 160.973C198.829 161.731 199.043 162.489 199.263 163.245C199.344 163.522 199.424 163.8 199.505 164.078C199.842 165.246 200.179 166.414 200.571 167.563C200.816 168.278 201.074 168.989 201.334 169.702L201.334 169.702L201.334 169.703L201.334 169.703C201.696 170.699 202.061 171.701 202.391 172.728C201.912 173.361 201.728 173.367 201.423 172.64ZM93.0751 195.061C92.7845 195.041 92.4939 195.019 92.2033 194.998C91.5631 194.95 90.923 194.903 90.282 194.872C89.439 194.831 88.5959 194.794 87.7527 194.757H87.7525H87.7523L87.7432 194.757C86.6248 194.708 85.5065 194.659 84.3887 194.6C84.3005 194.596 84.2167 194.508 84.1329 194.42C84.0939 194.379 84.0549 194.338 84.0155 194.306C84.0492 194.285 84.0824 194.263 84.1156 194.24C84.1925 194.188 84.2695 194.136 84.3543 194.107C84.4203 194.085 84.4958 194.09 84.5713 194.096H84.5714L84.593 194.098L84.6245 194.099L84.6411 194.1C84.6512 194.101 84.6612 194.101 84.6712 194.101H110.075C110.115 194.101 110.159 194.096 110.203 194.091C110.3 194.08 110.397 194.068 110.45 194.111C110.632 194.258 110.796 194.446 110.906 194.65C110.93 194.693 110.709 194.952 110.572 194.982C110.195 195.066 109.802 195.119 109.416 195.119C103.99 195.127 98.5645 195.125 93.0751 195.061ZM56.4663 197.035L56.4675 197.035C58.4113 197.8 60.344 198.56 62.2508 199.38C63.5534 199.94 64.8582 200.026 66.2147 199.986C66.3299 199.983 66.4447 199.957 66.5593 199.931L66.5594 199.931C66.6826 199.903 66.8056 199.875 66.9288 199.875C67.0282 199.875 67.1276 199.93 67.227 199.985C67.2603 200.003 67.2937 200.022 67.327 200.038C67.3383 200.044 67.3496 200.049 67.3609 200.054C67.3376 200.091 67.3163 200.129 67.2951 200.168C67.248 200.254 67.201 200.34 67.1321 200.402C66.9362 200.577 66.7318 200.757 66.501 200.878C64.743 201.799 63.7268 204.312 64.348 206.198C64.653 207.124 65.0221 208.107 65.6397 208.828C66.142 209.414 67.018 209.801 67.7994 210.004C69.0335 210.324 70.3215 210.334 71.5659 209.883C72.6538 209.488 73.4348 208.758 74.0108 207.771C75.4104 205.374 74.8356 203.294 73.3471 201.358C73.1517 201.104 72.8367 200.944 72.5191 200.782C72.3416 200.692 72.1633 200.601 72.0046 200.494C71.892 200.417 71.8047 200.304 71.7175 200.191C71.6776 200.139 71.6378 200.087 71.5956 200.039C71.6656 200.022 71.7356 200.001 71.8055 199.98C71.9658 199.933 72.126 199.886 72.288 199.879C72.3995 199.874 72.512 199.903 72.6248 199.932C72.7297 199.959 72.8348 199.986 72.9396 199.986L76.8946 199.988C85.8647 199.994 94.8348 199.999 103.805 199.985C105.971 199.982 108.137 199.949 110.303 199.917C111.577 199.898 112.852 199.879 114.126 199.866C115.068 199.856 116.01 199.859 116.952 199.861L116.969 199.861C117.392 199.862 117.815 199.864 118.238 199.864C118.33 199.864 118.423 199.863 118.515 199.863H118.516C118.771 199.861 119.027 199.86 119.282 199.869C119.335 199.871 119.387 199.908 119.439 199.944C119.463 199.961 119.487 199.978 119.511 199.991C119.488 200.007 119.465 200.024 119.443 200.041C119.393 200.076 119.344 200.112 119.293 200.144C119.078 200.278 118.853 200.401 118.627 200.524C118.143 200.789 117.659 201.053 117.279 201.424C114.679 203.961 115.517 208.976 119.407 209.981C122.554 210.794 125.335 209.748 126.27 206.01C126.845 203.706 125.306 200.959 122.976 200.239C122.876 200.208 122.789 200.132 122.702 200.056C122.661 200.021 122.621 199.986 122.579 199.955C122.594 199.947 122.609 199.938 122.624 199.928L122.646 199.914L122.665 199.901C122.679 199.892 122.693 199.882 122.707 199.873C122.799 199.809 122.891 199.746 122.983 199.745C126.054 199.733 128.931 198.84 131.753 197.773C135.544 196.339 139.23 194.667 142.642 192.46L142.708 192.418C143.338 192.011 143.989 191.591 144.211 190.74C144.628 189.146 143.822 187.917 142.334 187.513C140.75 187.083 139.231 187.536 137.735 188.016C135.138 188.849 132.543 189.688 129.948 190.527C128.506 190.993 127.063 191.459 125.62 191.925L125.434 191.985C124.651 192.238 123.867 192.491 123.076 192.721C122.787 192.806 122.475 192.848 122.173 192.85C120.875 192.854 119.577 192.855 118.28 192.856H118.266C116.969 192.856 115.673 192.857 114.376 192.862C114.184 192.862 113.854 192.916 113.826 193.013C113.766 193.223 113.766 193.451 113.767 193.678C113.767 193.767 113.767 193.855 113.764 193.943C113.783 193.936 113.802 193.928 113.822 193.919C113.863 193.9 113.905 193.881 113.944 193.885C114.091 193.898 114.238 193.916 114.384 193.934C114.603 193.961 114.821 193.988 115.04 193.999C115.799 194.038 116.558 194.074 117.317 194.109H117.318H117.318H117.318H117.318H117.318H117.319L117.323 194.109C118.338 194.156 119.352 194.203 120.365 194.26C122.161 194.36 123.855 193.854 125.534 193.353L125.534 193.353L125.549 193.348C126.852 192.959 128.139 192.515 129.425 192.071C130.152 191.821 130.88 191.57 131.61 191.329C132.524 191.027 133.44 190.733 134.356 190.438C135.413 190.099 136.469 189.759 137.522 189.409C137.788 189.32 138.048 189.202 138.306 189.084L138.306 189.084C138.719 188.896 139.129 188.709 139.56 188.645C140.352 188.527 141.2 188.591 141.99 188.747C142.299 188.808 142.645 189.299 142.742 189.657C142.872 190.135 142.784 190.605 142.225 190.961C139.63 192.61 136.895 193.978 134.086 195.219C131.534 196.347 128.899 197.226 126.208 197.942C125.776 198.057 125.309 198.066 124.858 198.075C123.827 198.094 122.795 198.107 121.764 198.12L121.761 198.12C120.021 198.142 118.28 198.163 116.54 198.216C114.612 198.275 112.685 198.368 110.759 198.462C109.863 198.505 108.967 198.549 108.071 198.589C107.637 198.608 107.203 198.627 106.769 198.646L105.686 198.693L105.671 198.694C104.525 198.743 103.38 198.793 102.234 198.846C101.986 198.857 101.737 198.878 101.489 198.899H101.488H101.488H101.488H101.487H101.487H101.487H101.487C101.05 198.935 100.614 198.972 100.179 198.958C99.7968 198.946 99.4165 198.893 99.036 198.84L99.0357 198.84L99.0353 198.84C98.7064 198.794 98.3772 198.748 98.0469 198.729C97.8235 198.716 97.5981 198.749 97.3721 198.782C97.1889 198.809 97.0054 198.836 96.8224 198.838C96.603 198.841 96.3835 198.845 96.1639 198.848H96.1633H96.1627H96.1621H96.1615H96.1607C95.1454 198.865 94.1292 198.881 93.1166 198.833C92.2423 198.791 91.3693 198.722 90.4963 198.653C89.6546 198.587 88.813 198.52 87.9701 198.478C87.7197 198.466 87.4669 198.528 87.2132 198.591C86.9901 198.645 86.7663 198.7 86.5429 198.705C85.0099 198.737 83.4756 198.733 81.9422 198.712C80.4472 198.691 78.9517 198.652 77.4583 198.581C77.1625 198.567 76.8649 198.515 76.5682 198.464L76.5679 198.464C76.1288 198.388 75.6919 198.313 75.2659 198.359C73.5574 198.544 71.8433 198.591 70.1311 198.638C68.955 198.67 67.7797 198.703 66.6077 198.78C64.4911 198.919 62.6165 198.413 60.7603 197.655C58.2478 196.628 55.7558 195.54 53.3108 194.363C51.7822 193.628 50.3232 192.741 48.8702 191.858L48.87 191.858L48.6044 191.697C47.6779 191.134 46.971 190.34 46.6804 189.25C46.5339 188.7 46.8403 188.279 47.3916 188.267C49.102 188.229 50.6637 188.823 52.2169 189.421C54.4751 190.29 56.724 191.184 58.9653 192.096C59.8695 192.463 60.7667 192.848 61.6639 193.233L61.6648 193.234L61.6657 193.234L61.6665 193.234L61.6674 193.235L61.6683 193.235L61.6691 193.235L61.6709 193.236C62.3443 193.525 63.0177 193.814 63.694 194.096C63.93 194.194 64.202 194.249 64.4577 194.25C66.5974 194.259 68.7372 194.258 70.877 194.257C71.4638 194.257 72.0505 194.257 72.6373 194.257C73.225 194.257 73.8127 194.257 74.4003 194.257C75.9927 194.258 77.585 194.258 79.1773 194.255C79.722 194.254 80.2668 194.236 80.8111 194.216C80.8459 194.215 80.9023 194.128 80.9058 194.078C80.9108 194.007 80.9081 193.936 80.9054 193.865C80.9016 193.765 80.8978 193.665 80.9153 193.569C80.9895 193.161 80.8144 193.098 80.4378 193.101C77.754 193.118 75.0699 193.127 72.3861 193.105L71.9845 193.102L71.5838 193.099C69.3122 193.083 67.0394 193.066 64.7723 192.95C64.053 192.914 63.3287 192.601 62.6403 192.303C62.5814 192.278 62.5228 192.253 62.4645 192.228C58.5358 190.542 54.5671 188.961 50.4778 187.706C49.737 187.479 48.9485 187.393 48.167 187.309L48.166 187.309L47.9458 187.285L47.8759 187.277L47.7253 187.26C47.1925 187.198 46.6278 187.159 46.1114 187.269C45.2909 187.443 44.9506 188.23 45.2014 189.053C45.6572 190.548 46.5686 191.686 47.8943 192.493C48.8406 193.07 49.79 193.641 50.7448 194.216C51.6239 194.745 52.5077 195.277 53.3976 195.818C54.4197 196.23 55.4409 196.632 56.4591 197.032L56.4603 197.033L56.4615 197.033L56.4627 197.033L56.4639 197.034L56.4651 197.034L56.4663 197.035ZM66.467 202.731C67.9608 201.105 69.6867 200.806 71.7445 201.995C72.9337 202.682 73.4557 204.299 73.3557 205.323C73.2482 206.426 72.6969 207.34 71.8547 208.056C70.8448 208.915 69.6636 208.917 68.4473 208.656C65.7452 208.075 64.9345 204.565 66.467 202.731ZM124.752 204.515C124.752 204.631 124.754 204.747 124.756 204.863V204.863C124.76 205.115 124.765 205.367 124.748 205.617C124.612 207.682 122.215 209.286 120.101 208.679C118.597 208.247 117.729 207.348 117.422 205.77C116.95 203.35 118.453 201.607 120.529 201.307C122.58 201.01 124.267 202.142 124.752 204.515ZM108.192 211.839H103.572H79.9876L78.1165 211.839L76.6638 211.839C71.3976 211.84 66.1314 211.841 60.8653 211.823C60.5216 211.821 60.143 211.623 59.8598 211.429C59.7839 211.377 59.9455 210.962 60.1025 210.783C60.2088 210.663 60.4976 210.619 60.7048 210.619C77.5512 210.614 94.3976 210.613 111.244 210.612C117.833 210.611 124.422 210.611 131.011 210.61C131.255 210.61 131.499 210.594 131.742 210.577H131.743H131.743H131.743H131.744H131.744L131.744 210.577C131.832 210.572 131.919 210.566 132.007 210.561C132.411 210.537 132.936 211.076 132.769 211.385C132.529 211.829 132.037 211.84 131.554 211.84C123.786 211.839 116.018 211.839 108.213 211.839H108.208H108.203H108.197H108.192ZM150.48 212.155L153.682 212.155H153.687H153.692H153.698H153.703H153.708C158.393 212.156 163.043 212.156 167.693 212.153C167.742 212.153 167.792 212.155 167.842 212.157C168.156 212.167 168.469 212.177 168.594 211.768C168.74 211.294 168.541 210.95 168.012 210.888C167.912 210.877 167.809 210.88 167.707 210.883C167.66 210.884 167.613 210.886 167.566 210.886L162.707 210.886C154.424 210.886 146.141 210.886 137.858 210.884C137.831 210.884 137.804 210.884 137.777 210.884C137.348 210.881 136.943 210.879 136.961 211.458C136.976 211.937 137.26 212.155 137.922 212.155L147.311 212.155H150.48ZM39.2572 212.157L35.9459 212.157L33.8062 212.158H33.7998H33.7934H33.787H33.7806C31.0607 212.158 28.3724 212.158 25.6841 212.152C25.4041 212.152 25.1201 212.096 24.8474 212.032C24.772 212.015 24.6967 211.883 24.6788 211.795C24.5407 211.111 24.7626 210.888 25.5632 210.888L55.265 210.888C55.3118 210.888 55.359 210.886 55.4062 210.884C55.5091 210.88 55.6119 210.875 55.7104 210.892C56.2557 210.984 56.4505 211.362 56.2337 211.821C56.0676 212.172 55.7599 212.165 55.4506 212.158C55.4077 212.157 55.3648 212.156 55.3222 212.156C49.9794 212.157 44.6366 212.157 39.2572 212.157ZM62.4005 42.6423C62.2892 42.6309 61.7668 42.7122 61.1229 42.8124C60.2422 42.9495 59.1342 43.1219 58.5399 43.1411C57.9447 43.1602 58.5096 43.7977 58.6078 43.8018C59.9211 43.8576 62.7679 42.9904 62.4005 42.6423ZM60.4825 47.6712C61.0387 47.4606 60.7726 45.7566 60.2212 45.7566C59.6766 45.7566 59.9396 47.8767 60.4825 47.6712ZM68.4956 203.914C68.0146 205.006 68.0473 205.452 68.6201 206.045C69.0112 206.45 69.7197 206.519 70.1641 206.195C70.6384 205.849 70.8583 205.031 70.6295 204.463C70.2271 203.465 69.3423 203.221 68.4956 203.914ZM120.005 203.998C120.752 203.307 121.496 203.345 122.41 204.241C122.743 205.012 122.58 205.828 121.346 206.046C120.681 206.163 120.287 205.967 119.92 205.569C119.538 205.155 119.647 204.329 120.005 203.998Z" fill="#018A08"/>
<path fill-rule="evenodd" clip-rule="evenodd" d="M76.6482 65.0438C77.7593 64.7176 78.023 63.0326 79.1438 62.7415C80.2526 62.4535 81.3178 63.7666 82.4234 63.4668C83.1753 63.2628 83.5265 62.4328 83.9426 61.7746C84.3476 61.1341 85.2007 60.556 85.8098 60.9694L85.86 61.0062C86.7049 61.6724 87.9724 61.2515 88.8235 60.5927C89.6746 59.9338 90.3962 59.0457 91.418 58.7067C90.8816 58.1773 89.9521 58.5615 89.4326 59.1077C88.9132 59.654 88.4907 60.3738 87.769 60.5923C86.6632 60.9271 85.4181 59.9003 84.3744 60.3957C83.7253 60.7038 83.4616 61.4648 83.0731 62.0688C82.6846 62.6729 81.8391 63.1792 81.2875 62.7193C79.9486 61.603 77.5561 62.3106 77.0403 63.9754C76.8907 64.4582 76.2296 65.1666 76.6482 65.0438Z" fill="#F9FAFB"/>
<path fill-rule="evenodd" clip-rule="evenodd" d="M142.927 191.566C139.84 193.384 130.17 198.742 123.082 198.919L64.4497 199.104C64.4497 199.104 33.6198 188.262 56.1606 192.353C57.4362 192.584 61.0899 194.769 66.9645 195.246C77.7033 196.116 123.082 195.56 123.082 195.56C123.082 195.56 143.739 191.087 142.927 191.566Z" fill="#F9FAFB"/>
<path fill-rule="evenodd" clip-rule="evenodd" d="M193.28 155.495C193.208 155.415 193.12 155.358 193.066 155.381C192.449 155.636 192.092 155.414 191.905 154.804C191.874 154.703 191.715 154.64 191.616 154.56C191.524 154.682 191.355 154.804 191.355 154.927C191.353 155.334 191.177 155.525 190.791 155.646C190.626 155.697 190.528 155.961 190.4 156.128C190.529 156.158 190.724 156.147 190.773 156.226C190.874 156.387 190.927 156.593 190.942 156.785C190.955 156.948 190.874 157.117 190.859 157.285C190.84 157.506 190.876 157.668 191.136 157.445C191.656 157.001 192.107 157.168 192.551 157.587C192.659 157.688 192.848 157.705 193 157.76C192.972 157.622 192.964 157.476 192.913 157.347C192.649 156.669 192.831 156.087 193.28 155.495Z" fill="url(#paint2_linear_5661_300091)"/>
<ellipse cx="2.24001" cy="2.24" rx="2.24001" ry="2.24" transform="matrix(-1 0 0 1 68.1602 49.5997)" fill="url(#paint3_linear_5661_300091)"/>
<path fill-rule="evenodd" clip-rule="evenodd" d="M97.9703 71.778L97.7128 72.1755L97.6277 72.3038C97.0876 73.0957 96.2674 73.8742 95.3556 73.6435C92.9283 73.0293 90.1669 74.1012 88.7907 76.192C88.1102 77.2258 86.5988 77.023 85.3634 76.7582L85.2004 76.7226C83.9614 76.4479 82.2477 76.5771 81.9346 77.778L81.9184 77.8471C81.7739 78.5384 80.9037 78.7486 80.1872 78.7303L79.9654 78.7223C78.164 78.7223 77.9281 79.7129 77.9278 79.6111C77.9278 79.6111 81.8879 79.311 82.7215 77.9676L82.7724 77.8821C83.3032 76.9524 84.6438 77.1037 85.6924 77.4198L85.981 77.51L86.1256 77.5521C87.1492 77.8389 88.3916 77.9428 88.9054 77.0594C90.0844 75.0326 92.5404 73.8282 94.8657 74.1366C95.4642 74.2159 96.0847 74.3841 96.6579 74.1943C98.0288 73.7403 98.2079 71.6235 99.5566 71.1075C101.259 70.4564 102.907 72.9303 104.668 72.4632C103.597 71.646 102.409 70.9814 101.152 70.4957C100.73 70.333 100.283 70.1881 99.8348 70.2425C99.0043 70.3431 98.4467 71.0569 97.9703 71.778ZM76.3455 74.2203C76.5157 74.7435 76.6405 75.2083 76.7237 75.6026C76.8965 74.4661 78.0258 73.4153 79.0907 73.7833L79.152 73.8061C79.8278 74.0753 80.5435 73.5165 80.9804 72.9351L81.0851 72.7937L81.2428 72.5772C81.596 72.0947 81.9763 71.6188 82.5418 71.4814C83.5759 71.2302 84.4889 72.2597 85.5458 72.3826C87.9923 72.667 89.2152 68.2873 91.6173 68.8307C92.1426 68.9496 92.5967 69.3094 93.1303 69.3823C94.6032 69.5835 95.3933 67.7107 96.6345 66.8929C97.5687 66.2773 98.8871 66.3146 99.7847 66.9818C99.7394 65.9124 98.2847 65.4411 97.2919 65.8435C96.2991 66.2459 95.6175 67.1505 94.793 67.8343C93.9892 68.5009 92.7962 68.9588 91.921 68.4163L91.8543 68.3726C90.8013 67.6437 89.3927 68.5683 88.5703 69.5501L88.2715 69.9078C87.521 70.8013 86.6631 71.7296 85.5378 71.6439C84.5042 71.5652 83.6248 70.6024 82.5997 70.7563C81.1061 70.9807 80.496 73.3877 78.9944 73.2248C78.0293 73.1201 77.0253 73.4441 76.3036 74.0933L76.3455 74.2203ZM75.5701 69.1844C75.8112 69.5221 76.053 69.7934 76.2953 69.9983L76.3761 70.0641L76.578 69.9197C77.5601 69.2221 78.6325 68.5432 79.8265 68.5713C80.2626 68.5816 80.7094 68.6869 81.128 68.564C82.2391 68.2379 82.5028 66.5528 83.6236 66.2617C84.7323 65.9738 85.7975 67.2869 86.9031 66.987C87.6551 66.7831 88.0062 65.953 88.4224 65.2948C88.8273 64.6544 89.6805 64.0763 90.2895 64.4897L90.3397 64.5264C91.1847 65.1927 92.4521 64.7718 93.3032 64.1129C94.1543 63.4541 94.8759 62.5659 95.8977 62.227C95.3614 61.6976 94.4319 62.0817 93.9124 62.628C93.3929 63.1743 92.9704 63.894 92.2487 64.1126C91.143 64.4474 89.8978 63.4206 88.8541 63.916C88.2051 64.224 87.9413 64.9851 87.5528 65.5891C87.1644 66.1931 86.3188 66.6994 85.7672 66.2395C84.4284 65.1233 82.0359 65.8309 81.5201 67.4956C81.3705 67.9785 80.7274 68.0909 80.231 67.9939C79.7346 67.8969 79.2244 67.6804 78.742 67.8324C78.1285 68.0257 77.814 68.7391 77.223 68.9928C76.6082 69.2566 75.8729 68.9211 75.4616 68.39L75.4202 68.3343C75.0892 67.8708 75.2442 68.7279 75.5701 69.1844Z" fill="url(#paint4_linear_5661_300091)"/>
<path fill-rule="evenodd" clip-rule="evenodd" d="M88.4542 81.88L88.2691 81.9343C88.0209 82.0101 87.834 82.1219 87.6163 82.3062L87.5086 82.4009L87.3719 82.5254C87.3055 82.5856 87.2538 82.6309 87.2008 82.6743C86.8381 82.9716 86.4273 83.1561 85.7419 83.2649C85.2822 83.3379 84.9582 83.2648 84.3993 83.0045L84.198 82.9084C83.295 82.4726 82.7701 82.3512 81.9235 82.5458C81.2002 82.7121 80.8679 82.992 80.5979 83.5188L80.5296 83.6584C80.4005 83.9283 79.9835 84.1776 79.6543 84.3744C79.4076 84.5219 79.2103 84.6399 79.2204 84.7149C79.2441 84.8901 80.7709 84.607 81.0745 84.001L81.1404 83.8651C81.3376 83.4581 81.5179 83.2957 82.0668 83.1695C82.7106 83.0216 83.1009 83.099 83.8198 83.437L84.0209 83.5335C84.7504 83.884 85.197 83.9995 85.8422 83.897C86.6399 83.7704 87.156 83.5385 87.6066 83.1692C87.6378 83.1436 87.6683 83.1178 87.7001 83.0901L87.9679 82.8485C88.1559 82.6812 88.2836 82.599 88.456 82.5464L88.562 82.5145C89.0085 82.3836 90.0308 82.7231 90.776 82.9705L90.776 82.9705C91.2433 83.1257 91.6016 83.2446 91.6404 83.1887C91.7242 83.0679 89.344 81.6408 88.4542 81.88ZM88.5634 86.7437L88.3918 86.7914C88.1616 86.8581 87.9883 86.9563 87.7864 87.1183L87.6865 87.2015L87.5598 87.3109C87.4982 87.3638 87.4502 87.4036 87.4011 87.4417C87.0648 87.703 86.6838 87.8651 86.0481 87.9608C85.6219 88.0249 85.3214 87.9607 84.8031 87.7319L84.6165 87.6474C83.7791 87.2645 83.2923 87.1578 82.5072 87.3288C81.8365 87.4749 81.5283 87.7209 81.2779 88.1839L81.2146 88.3066C81.0948 88.5438 80.7081 88.7629 80.4029 88.9358C80.1741 89.0654 79.9911 89.1691 80.0005 89.235C80.0225 89.389 81.4383 89.1402 81.7199 88.6076L81.7809 88.4882C81.9639 88.1306 82.1311 87.9879 82.6401 87.877C83.2371 87.7469 83.5991 87.8149 84.2657 88.112L84.4523 88.1968C85.1287 88.5048 85.5429 88.6063 86.1412 88.5163C86.8809 88.405 87.3596 88.2012 87.7774 87.8767C87.8064 87.8542 87.8346 87.8315 87.8641 87.8072L88.1125 87.5948C88.2868 87.4478 88.4053 87.3756 88.5651 87.3294L88.6634 87.3013C89.0775 87.1863 90.0255 87.4846 90.7165 87.702C91.1499 87.8384 91.4821 87.943 91.5182 87.8938C91.5959 87.7877 89.3886 86.5336 88.5634 86.7437ZM88.2456 91.9115L88.4077 91.8637C89.187 91.6536 91.2717 92.9077 91.1983 93.0138C91.1643 93.063 90.8505 92.9584 90.4412 92.8221C89.7886 92.6046 88.8932 92.3063 88.5021 92.4213L88.4093 92.4494C88.2583 92.4956 88.1464 92.5678 87.9818 92.7148L87.7473 92.9272C87.7194 92.9515 87.6927 92.9742 87.6653 92.9967C87.2707 93.3212 86.8186 93.525 86.1201 93.6363C85.5549 93.7263 85.1638 93.6248 84.5249 93.3168L84.3487 93.232C83.7192 92.9349 83.3773 92.8669 82.8135 92.997C82.3327 93.1079 82.1748 93.2506 82.002 93.6082L81.9443 93.7276C81.6784 94.2602 80.3412 94.509 80.3205 94.355C80.3116 94.2891 80.4844 94.1854 80.7005 94.0558C80.9888 93.8829 81.354 93.6638 81.4671 93.4266L81.5269 93.3039C81.7634 92.8409 82.0545 92.5949 82.6879 92.4488C83.4294 92.2778 83.8891 92.3845 84.68 92.7674L84.8563 92.8519C85.3458 93.0807 85.6296 93.1449 86.0322 93.0808C86.6325 92.9851 86.9923 92.823 87.31 92.5617C87.3563 92.5236 87.4017 92.4838 87.4598 92.4309L87.5795 92.3215L87.6738 92.2383C87.8645 92.0763 88.0282 91.9781 88.2456 91.9115ZM88.4077 97.9437L88.2456 97.9914C88.0282 98.0581 87.8645 98.1563 87.6738 98.3183L87.5795 98.4015L87.4598 98.5109C87.4017 98.5638 87.3563 98.6036 87.31 98.6417C86.9923 98.903 86.6325 99.0651 86.0322 99.1608C85.6296 99.2249 85.3458 99.1607 84.8563 98.9319L84.68 98.8474C83.8891 98.4645 83.4294 98.3578 82.6879 98.5288C82.0545 98.6749 81.7634 98.9209 81.5269 99.3839L81.4671 99.5066C81.354 99.7438 80.9888 99.9629 80.7005 100.136C80.4844 100.265 80.3116 100.369 80.3205 100.435C80.3412 100.589 81.6784 100.34 81.9443 99.8076L82.002 99.6882C82.1748 99.3306 82.3327 99.1879 82.8135 99.077C83.3773 98.9469 83.7192 99.0149 84.3487 99.312L84.5249 99.3968C85.1638 99.7048 85.5549 99.8063 86.1201 99.7163C86.8186 99.605 87.2707 99.4012 87.6653 99.0767C87.6927 99.0542 87.7194 99.0315 87.7473 99.0072L87.9818 98.7948C88.1464 98.6478 88.2583 98.5756 88.4093 98.5294L88.5021 98.5013C88.8932 98.3863 89.7886 98.6846 90.4412 98.902C90.8505 99.0384 91.1643 99.143 91.1983 99.0938C91.2717 98.9877 89.187 97.7336 88.4077 97.9437ZM87.7518 104.071L87.9234 104.024C88.7486 103.814 90.9559 105.068 90.8782 105.174C90.8422 105.223 90.5099 105.118 90.0765 104.982C89.3855 104.765 88.4375 104.466 88.0234 104.581L87.9251 104.609C87.7653 104.656 87.6468 104.728 87.4725 104.875L87.2241 105.087C87.1946 105.112 87.1664 105.134 87.1374 105.157C86.7196 105.481 86.2409 105.685 85.5012 105.796C84.9029 105.886 84.4887 105.785 83.8123 105.477L83.6257 105.392C82.9591 105.095 82.5971 105.027 82.0001 105.157C81.4911 105.268 81.3239 105.411 81.1409 105.768L81.0799 105.888C80.7983 106.42 79.3825 106.669 79.3605 106.515C79.3511 106.449 79.5341 106.345 79.7629 106.216C80.0681 106.043 80.4548 105.824 80.5746 105.587L80.6379 105.464C80.8883 105.001 81.1965 104.755 81.8672 104.609C82.6523 104.438 83.1391 104.545 83.9765 104.927L84.1631 105.012C84.6814 105.241 84.9819 105.305 85.4081 105.241C86.0438 105.145 86.4248 104.983 86.7611 104.722C86.8102 104.684 86.8582 104.644 86.9198 104.591L87.0465 104.481L87.1464 104.398C87.3483 104.236 87.5216 104.138 87.7518 104.071ZM86.179 109.65L86.0017 109.667C85.7634 109.692 85.5757 109.759 85.3487 109.884L85.2359 109.948L85.0921 110.034C85.0223 110.075 84.9681 110.106 84.9131 110.135C84.5365 110.334 84.1332 110.428 83.4906 110.411C83.0597 110.401 82.7749 110.285 82.3042 109.97L82.1351 109.854C81.3769 109.332 80.916 109.142 80.1131 109.174C79.4273 109.202 79.0811 109.39 78.7541 109.803L78.6704 109.913C78.5113 110.125 78.0924 110.274 77.7618 110.391C77.514 110.479 77.3157 110.55 77.3136 110.616C77.3085 110.772 78.746 110.772 79.1157 110.297L79.1966 110.19C79.4389 109.869 79.6283 109.758 80.1489 109.737C80.7594 109.713 81.1041 109.842 81.7089 110.251L81.878 110.367C82.4907 110.787 82.8809 110.959 83.4858 110.975C84.2336 110.993 84.7403 110.876 85.2081 110.629L85.3057 110.575L85.5871 110.409C85.7843 110.295 85.9135 110.244 86.079 110.227L86.1806 110.216C86.6084 110.175 87.4902 110.633 88.133 110.967C88.5361 111.177 88.8451 111.337 88.8891 111.295C88.9841 111.204 87.0281 109.586 86.179 109.65ZM82.1423 113.793L82.2844 113.807C82.9629 113.886 84.3121 115.378 84.2261 115.432C84.1862 115.456 83.9615 115.291 83.6684 115.076C83.2011 114.732 82.56 114.261 82.217 114.227L82.1355 114.22C82.0026 114.209 81.8944 114.227 81.7248 114.283L81.4823 114.364L81.3988 114.389C80.9993 114.502 80.5847 114.514 79.9962 114.389C79.5202 114.287 79.2327 114.102 78.7996 113.698L78.6802 113.587C78.2518 113.194 77.9952 113.046 77.5099 112.974C77.0961 112.912 76.933 112.966 76.7028 113.168L76.6259 113.235C76.2762 113.533 75.1406 113.318 75.1635 113.204C75.1732 113.154 75.3384 113.132 75.5448 113.104C75.8202 113.066 76.1691 113.018 76.3206 112.884L76.4001 112.815C76.7084 112.557 77.0047 112.469 77.5499 112.551C78.1881 112.647 78.5292 112.856 79.0649 113.356L79.1845 113.467C79.5181 113.771 79.7291 113.899 80.0682 113.972C80.5739 114.079 80.9039 114.07 81.2255 113.979C81.2725 113.965 81.319 113.951 81.3792 113.93L81.5032 113.888L81.6001 113.857C81.7945 113.798 81.9509 113.777 82.1423 113.793ZM78.7645 116.687L78.6223 116.674C78.431 116.657 78.2746 116.679 78.0802 116.737L77.9833 116.768L77.8592 116.81C77.7991 116.831 77.7525 116.846 77.7056 116.859C77.3839 116.95 77.054 116.96 76.5483 116.852C76.2091 116.78 75.9982 116.652 75.6645 116.348L75.5449 116.237C75.0092 115.736 74.6681 115.527 74.0299 115.431C73.4848 115.349 73.1884 115.438 72.8801 115.695L72.8007 115.764C72.6492 115.898 72.3002 115.946 72.0248 115.984C71.8184 116.012 71.6533 116.035 71.6435 116.084C71.6206 116.198 72.7562 116.413 73.106 116.115L73.1828 116.048C73.413 115.846 73.5762 115.792 73.99 115.854C74.4752 115.927 74.7318 116.074 75.1602 116.468L75.2797 116.579C75.7127 116.982 76.0002 117.168 76.4762 117.269C77.0647 117.395 77.4793 117.383 77.8788 117.269L77.9623 117.244L78.2048 117.163C78.3745 117.107 78.4826 117.089 78.6155 117.1L78.6971 117.108C79.0401 117.141 79.6812 117.612 80.1485 117.956C80.4415 118.171 80.6662 118.337 80.7061 118.312C80.7922 118.259 79.443 116.767 78.7645 116.687ZM74.1173 119.787L74.229 119.818C74.7602 119.977 75.6285 121.359 75.5522 121.39C75.5168 121.404 75.3605 121.24 75.1566 121.027C74.8314 120.686 74.3854 120.219 74.1159 120.144L74.0517 120.127C73.9471 120.099 73.858 120.098 73.7145 120.119L73.5093 120.15L73.439 120.158C73.1036 120.192 72.7705 120.143 72.3177 119.96C71.9515 119.812 71.7478 119.623 71.4585 119.24L71.3787 119.134C71.0916 118.759 70.9073 118.605 70.5297 118.478C70.2076 118.37 70.0695 118.391 69.8571 118.52L69.7861 118.563C69.4645 118.751 68.587 118.42 68.6215 118.331C68.6362 118.294 68.7714 118.299 68.9404 118.305C69.1659 118.314 69.4516 118.325 69.5916 118.239L69.6648 118.195C69.9475 118.033 70.1969 118.004 70.6212 118.146C71.1179 118.312 71.3611 118.528 71.7187 119.004L71.7987 119.109C72.0226 119.399 72.1732 119.531 72.4341 119.637C72.8232 119.794 73.0883 119.833 73.3583 119.806C73.3977 119.802 73.437 119.796 73.488 119.788L73.5931 119.772L73.6749 119.761C73.8386 119.742 73.9666 119.746 74.1173 119.787ZM70.6723 122.403L70.5606 122.372C70.4099 122.332 70.2819 122.327 70.1182 122.347L70.0363 122.358L69.9312 122.374C69.8803 122.382 69.841 122.387 69.8016 122.391C69.5316 122.419 69.2665 122.38 68.8774 122.223C68.6165 122.117 68.4659 121.985 68.242 121.695L68.162 121.589C67.8044 121.114 67.5612 120.898 67.0645 120.732C66.6402 120.589 66.3908 120.618 66.1081 120.781L66.0349 120.825C65.8949 120.91 65.6092 120.899 65.3837 120.891C65.2147 120.884 65.0795 120.879 65.0647 120.917C65.0303 121.005 65.9078 121.337 66.2294 121.148L66.3003 121.105C66.5128 120.977 66.6509 120.956 66.9729 121.064C67.3506 121.191 67.5349 121.345 67.8219 121.72L67.9018 121.825C68.1911 122.209 68.3948 122.398 68.761 122.546C69.2138 122.729 69.5469 122.778 69.8822 122.744L69.9526 122.735L70.1578 122.705C70.3013 122.684 70.3904 122.685 70.495 122.713L70.5591 122.73C70.8287 122.805 71.2747 123.272 71.5998 123.612C71.8038 123.826 71.9601 123.99 71.9955 123.976C72.0718 123.945 71.2035 122.562 70.6723 122.403ZM66.4005 124.933L66.5123 124.964C67.0435 125.123 67.9118 126.505 67.8354 126.536C67.8001 126.55 67.6437 126.386 67.4398 126.173C67.1147 125.832 66.6686 125.365 66.3991 125.29L66.3349 125.273C66.2303 125.245 66.1413 125.244 65.9978 125.265L65.7925 125.296L65.7222 125.304C65.3868 125.338 65.0538 125.289 64.601 125.106C64.2347 124.958 64.0311 124.769 63.7418 124.386L63.6619 124.28C63.3749 123.905 63.1906 123.751 62.8129 123.624C62.4909 123.516 62.3528 123.537 62.1403 123.666L62.0694 123.709C61.7478 123.897 60.8703 123.566 60.9047 123.477C60.9195 123.44 61.0547 123.445 61.2237 123.451C61.4492 123.46 61.7348 123.471 61.8749 123.385L61.9481 123.341C62.2308 123.179 62.4802 123.15 62.9045 123.292C63.4012 123.458 63.6443 123.674 64.002 124.15L64.082 124.255C64.3059 124.545 64.4565 124.677 64.7174 124.783C65.1065 124.94 65.3715 124.979 65.6416 124.952C65.681 124.947 65.7203 124.942 65.7712 124.934L65.8763 124.918L65.9582 124.907C66.1219 124.888 66.2499 124.892 66.4005 124.933Z" fill="url(#paint5_linear_5661_300091)"/>
<defs>
<linearGradient id="paint0_linear_5661_300091" x1="127.913" y1="93.8491" x2="94.1766" y2="120.138" gradientUnits="userSpaceOnUse">
<stop stop-color="#EF6795"/>
<stop offset="0.32" stop-color="#ED2A65"/>
<stop offset="0.7" stop-color="#AC1D40"/>
<stop offset="1" stop-color="#83161E"/>
</linearGradient>
<linearGradient id="paint1_linear_5661_300091" x1="104.324" y1="189.637" x2="102.104" y2="191.504" gradientUnits="userSpaceOnUse">
<stop stop-color="#EF6795"/>
<stop offset="0.32" stop-color="#ED2A65"/>
<stop offset="0.7" stop-color="#AC1D40"/>
<stop offset="1" stop-color="#83161E"/>
</linearGradient>
<linearGradient id="paint2_linear_5661_300091" x1="192.916" y1="155.67" x2="190.775" y2="157.262" gradientUnits="userSpaceOnUse">
<stop stop-color="#EF6795"/>
<stop offset="0.32" stop-color="#ED2A65"/>
<stop offset="0.7" stop-color="#AC1D40"/>
<stop offset="1" stop-color="#83161E"/>
</linearGradient>
<linearGradient id="paint3_linear_5661_300091" x1="0.566886" y1="1.5538" x2="3.64024" y2="4.09284" gradientUnits="userSpaceOnUse">
<stop stop-color="#EF6795"/>
<stop offset="0.32" stop-color="#ED2A65"/>
<stop offset="0.7" stop-color="#AC1D40"/>
<stop offset="1" stop-color="#83161E"/>
</linearGradient>
<linearGradient id="paint4_linear_5661_300091" x1="100.944" y1="68.0938" x2="89.2259" y2="84.2419" gradientUnits="userSpaceOnUse">
<stop stop-color="#EF6795"/>
<stop offset="0.32" stop-color="#ED2A65"/>
<stop offset="0.7" stop-color="#AC1D40"/>
<stop offset="1" stop-color="#83161E"/>
</linearGradient>
<linearGradient id="paint5_linear_5661_300091" x1="87.753" y1="97.3507" x2="60.9351" y2="112.592" gradientUnits="userSpaceOnUse">
<stop stop-color="#EF6795"/>
<stop offset="0.32" stop-color="#ED2A65"/>
<stop offset="0.7" stop-color="#AC1D40"/>
<stop offset="1" stop-color="#83161E"/>
</linearGradient>
</defs>
</svg>
