<svg width="240" height="240" viewBox="0 0 240 240" fill="none" xmlns="http://www.w3.org/2000/svg">
<path fill-rule="evenodd" clip-rule="evenodd" d="M175.008 177.543L175.111 177.568L175.315 177.617C178.624 178.444 181.849 179.609 184.922 181.089C186.642 181.917 188.433 182.869 190.336 182.723C190.882 182.682 191.419 182.549 191.966 182.543C193.82 182.523 195.384 183.922 197.195 184.314C198.766 184.654 200.387 184.213 201.992 184.121C203.597 184.03 205.452 184.454 206.195 185.879C206.298 186.077 206.377 186.304 206.328 186.522C206.263 186.816 205.997 187.001 205.719 187.14L205.663 187.167L205.545 187.222C203.408 188.179 201.128 189.158 198.813 188.877L198.652 188.855L198.411 188.824C196.242 188.578 194.053 189.284 191.863 189.222C187.342 189.096 182.733 188.605 178.389 187.689L177.924 187.589L177.69 187.538C170.242 185.947 166.495 187.1 163.014 187.189L162.903 187.191L162.686 187.194C161.345 187.201 156.893 187.173 155.302 187.591C154.499 187.801 153.966 186.585 154.389 185.871C154.796 185.186 155.612 184.896 156.357 184.599L156.45 184.562L156.524 184.531C157.247 184.227 158 183.743 158.14 182.991L158.152 182.912L158.163 182.838C158.337 181.883 159.476 181.459 160.454 181.242L160.533 181.225L161.094 181.106C162.594 180.794 164.123 180.536 165.63 180.77C166.484 180.902 169.744 178.86 170.721 178.019C171.856 177.044 173.527 177.202 175.008 177.543ZM187.473 114.468L187.351 114.508C186.33 114.802 185.355 115.25 184.473 115.844C182.968 116.859 181.699 118.289 179.985 118.886C178.799 119.299 177.464 119.263 176.302 118.788C176.704 119.663 177.821 119.968 178.779 119.868C181.575 119.578 183.48 116.946 185.993 115.687C186.547 115.409 187.131 115.201 187.731 115.055C187.981 115.623 188.23 116.196 188.478 116.773L188.477 116.78C188.286 116.921 188.112 117.084 187.962 117.271C187.386 117.99 187.243 119.08 187.756 119.844C188.271 120.612 189.214 120.846 190.174 120.818L190.174 120.814L190.521 121.666C191.099 123.089 191.672 124.538 192.24 126.011L192.194 126.036C192.056 126.105 191.919 126.176 191.782 126.247C188.049 128.199 184.666 130.924 180.624 132.112C179.873 132.333 179.084 132.499 178.313 132.369C177.542 132.239 176.789 131.758 176.528 131.021C176.239 131.041 176.211 131.469 176.334 131.731C177.022 133.199 179.114 133.192 180.671 132.738C184.831 131.526 188.369 128.833 192.202 126.801L192.483 126.653L192.925 127.831C212.173 180.46 160.251 176.564 145.329 172.7C123.206 166.971 57.4941 188.362 43.0912 172.7C37.0998 166.185 34.1107 157.609 33.5888 148.016C37.9659 146.204 41.7742 143.032 46.2367 141.354C49.0389 140.3 52.0698 139.859 55.0562 140.07C56.5541 140.176 58.0859 140.461 59.3446 141.28C60.6033 142.099 61.538 143.546 61.3983 145.042C61.3011 146.083 60.716 147.01 60.0998 147.856C59.6722 148.442 59.2174 149.016 58.6651 149.487C57.6119 150.385 56.2437 150.866 54.8656 150.996C53.4481 151.129 51.9424 150.882 50.8072 150.023C49.672 149.164 49.0073 147.611 49.4488 146.257C49.628 145.708 49.9705 145.223 50.3739 144.809C51.1973 143.963 52.3688 143.376 53.5391 143.529C54.7094 143.682 55.7773 144.739 55.6848 145.916C55.5923 147.092 54.0729 147.975 53.1103 147.292C53.2604 146.775 52.4995 146.29 52.0942 146.644C51.7407 146.953 51.8592 147.575 52.2188 147.877C52.5784 148.178 53.0803 148.236 53.5497 148.239C54.3144 148.245 55.1183 148.126 55.7273 147.664C57.1147 146.61 56.6635 144.156 55.1624 143.272C53.6614 142.387 51.6624 142.832 50.2754 143.886C49.5783 144.416 48.9775 145.105 48.6872 145.931C48.0831 147.651 49.0043 149.653 50.5153 150.671C52.0263 151.69 53.9776 151.861 55.7766 151.57C56.7977 151.405 57.8137 151.095 58.6624 150.503C59.5013 149.919 60.1367 149.092 60.7231 148.254C61.4969 147.149 62.2354 145.923 62.2491 144.573C62.264 143.062 61.3261 141.652 60.0788 140.798C58.8314 139.944 57.3117 139.577 55.8089 139.413C51.2868 138.92 46.6936 140.14 42.6623 142.247C39.5781 143.86 36.7329 146 33.5579 147.365C33.2351 139.806 34.4233 131.635 36.8635 123.357L37.0587 123.317C40.0733 122.689 43.1466 122.344 46.2253 122.288C48.268 122.25 50.3377 122.344 52.2971 122.922C53.1196 123.165 53.9275 123.494 54.782 123.568C56.4212 123.71 58.09 122.902 59.6814 123.319C60.4843 123.53 61.0176 122.313 60.5939 121.6C60.1703 120.886 59.3028 120.601 58.5333 120.29C57.7638 119.979 56.9346 119.464 56.8312 118.641C56.7014 117.607 55.4692 117.171 54.4505 116.953L54.0768 116.874C52.517 116.545 50.9229 116.255 49.3528 116.498C48.499 116.631 47.6023 116.916 46.7987 116.599C45.5994 116.125 45.2392 114.589 44.2617 113.748C43.2539 112.881 41.8218 112.909 40.4758 113.166C45.6139 100.729 53.3389 88.513 62.7753 78.2228L62.7805 78.2289C62.8348 78.2357 62.889 78.2421 62.9429 78.2482C66.5046 78.6525 70.1543 78.2617 73.5497 77.1125C75.9771 76.2908 78.6096 77.4266 80.8148 78.7321C83.0201 80.0376 85.2614 81.5892 87.823 81.6645C89.6575 81.7185 91.4118 80.9989 93.1834 80.5198C100.72 78.4814 108.643 80.7749 116.347 82.0457C118.719 82.437 121.388 82.6617 123.3 81.2033C122.722 79.94 121.339 79.2101 119.968 78.9894C118.597 78.7687 117.198 78.9652 115.812 79.0549C110.975 79.3679 106.059 78.3424 101.751 76.122C99.3864 74.9032 96.5834 75.086 93.9378 74.8064C91.2923 74.5269 88.3516 73.446 87.4285 70.951C86.6141 68.7495 84.3123 67.3204 81.9759 67.0945C79.6395 66.8685 77.3031 67.6858 75.2945 68.9005C73.2859 70.1152 71.545 71.7158 69.7565 73.2361C69.0992 73.7949 68.4124 74.3561 67.5923 74.6239C67.1295 74.775 66.6456 74.8256 66.1576 74.8514L65.9932 74.8561C99.2853 41.4532 151.176 32.4324 187.473 114.468ZM188.735 117.371C188.794 117.511 188.855 117.653 188.916 117.796L189.913 120.181C189.35 120.15 188.815 119.979 188.475 119.547C187.988 118.929 188.144 117.959 188.702 117.402L188.735 117.371ZM56.7603 95.5304L56.5748 95.6287C56.2906 95.7818 56.0169 95.9404 55.6194 96.1804L54.679 96.7524C53.4453 97.4952 52.7737 97.8282 51.9242 98.0779C51.5491 98.1881 51.2768 98.2252 51.0278 98.1832C50.7515 98.1366 50.5197 97.9697 50.4456 97.7605L50.3806 97.5771L50.1864 97.5907C49.8353 97.6153 49.761 97.9954 49.8875 98.2654C50.2212 98.9775 51.138 99.1201 52.0885 98.8432C53.0535 98.5621 53.8044 98.1965 55.1733 97.3905L56.0502 96.8689C57.1843 96.1981 57.78 95.8891 58.533 95.6059C59.7246 95.1577 61.0138 94.97 62.2838 95.0598C63.0267 95.1124 63.5909 95.2574 64.0386 95.5487C64.5511 95.8822 64.8703 96.4385 64.8219 96.9561C64.7907 97.291 64.63 97.6101 64.3018 98.0603C64.0795 98.3653 63.908 98.5654 63.7148 98.7303C63.3181 99.0686 62.7824 99.2748 62.1944 99.3302C61.5754 99.3886 61.004 99.2633 60.5972 98.9554C60.1603 98.6247 59.9419 98.0505 60.0917 97.5913C60.1515 97.4078 60.2691 97.2284 60.4365 97.0565C60.7748 96.7091 61.2127 96.5206 61.6048 96.5719C62.0092 96.6248 62.3494 96.9893 62.3217 97.3423L62.3165 97.3821C62.2689 97.6448 61.9642 97.8442 61.7288 97.8075L61.7037 97.8023L61.7031 97.7965C61.6203 97.4458 61.142 97.2221 60.8373 97.4882C60.5594 97.7311 60.6188 98.1841 60.8958 98.4165C61.0892 98.5789 61.3241 98.6326 61.6408 98.6349C62.0892 98.6382 62.4592 98.5521 62.7503 98.331C63.4954 97.7651 63.3033 96.471 62.4783 95.9849C61.7631 95.5636 60.7879 95.7135 60.0551 96.2706C59.6854 96.5515 59.4103 96.8952 59.2736 97.2844C58.9787 98.1236 59.3878 99.1269 60.1719 99.6555C60.8437 100.108 61.7277 100.24 62.6579 100.089C63.1943 100.003 63.6499 99.8418 64.026 99.5798C64.3735 99.3378 64.6404 99.0332 64.9911 98.5324C65.4679 97.8514 65.6993 97.35 65.7051 96.7776C65.7122 96.0577 65.2906 95.3544 64.6441 94.9118C64.1114 94.5472 63.4599 94.3501 62.6589 94.2628C60.7363 94.0531 58.6929 94.52 56.7603 95.5304Z" fill="#F9FAFB"/>
<path fill-rule="evenodd" clip-rule="evenodd" d="M37.6472 142.541C37.9084 143.278 38.6608 143.758 39.4319 143.888C40.2029 144.018 40.9927 143.852 41.7429 143.632C44.4214 142.845 46.8107 141.382 49.2043 139.917C50.4227 139.172 51.6422 138.425 52.9015 137.767C56.9328 135.659 61.526 134.44 66.0481 134.933C67.5509 135.097 69.0706 135.464 70.318 136.317C71.5653 137.171 72.5032 138.581 72.4881 140.093C72.4746 141.442 71.7361 142.668 70.9622 143.774C70.3759 144.611 69.7405 145.439 68.9016 146.023C68.0529 146.614 67.0369 146.925 66.0158 147.09C64.2168 147.381 62.2655 147.21 60.7545 146.191C59.2435 145.172 58.3223 143.17 58.9264 141.451C59.2167 140.625 59.8175 139.936 60.5146 139.406C61.9016 138.352 63.9006 137.907 65.4016 138.791C66.9027 139.676 67.3539 142.129 65.9665 143.183C65.3575 143.646 64.5536 143.764 63.7889 143.759C63.3195 143.755 62.8176 143.698 62.458 143.396C62.0984 143.095 61.9799 142.472 62.3333 142.164C62.7387 141.809 63.4996 142.295 63.3495 142.812C64.3121 143.494 65.8315 142.612 65.924 141.435C66.0165 140.259 64.9486 139.202 63.7783 139.049C62.608 138.895 61.4365 139.483 60.613 140.328C60.2097 140.742 59.8672 141.228 59.688 141.777C59.2465 143.131 59.9112 144.683 61.0464 145.543C62.1816 146.402 63.6873 146.649 65.1048 146.515C66.4829 146.385 67.8511 145.905 68.9043 145.007C69.4566 144.536 69.9114 143.962 70.339 143.375C70.9552 142.53 71.5402 141.603 71.6375 140.561C71.7772 139.066 70.8425 137.619 69.5838 136.8C68.3251 135.981 66.7933 135.695 65.2954 135.589C62.309 135.378 59.2781 135.819 56.4759 136.873C54.1291 137.756 51.9633 139.052 49.8005 140.345L49.8005 140.345C47.2258 141.886 44.6556 143.423 41.7898 144.258C40.2332 144.711 38.1408 144.719 37.4528 143.251C37.3297 142.988 37.3578 142.561 37.6472 142.541Z" fill="#F9FAFB"/>
<path fill-rule="evenodd" clip-rule="evenodd" d="M111.452 159.198C108.401 163.097 100.071 160.085 96.4925 157.808C92.9146 155.53 94.2882 153.324 94.2882 152.245C94.2882 151.166 94.0425 149.847 93.4441 148.914C92.8456 147.981 83.3828 143.981 83.3828 139.588C83.3828 135.49 86.2192 131.741 90.1871 130.043C96.4925 127.344 99.5772 129.06 105.404 131.43C111.23 133.8 110.751 139.588 110.751 139.588C110.751 139.588 115.53 153.987 111.452 159.198Z" fill="#F9FAFB"/>
<path d="M107.693 161.357C94.8032 160.515 82.7306 152.227 77.0552 140.623C71.3798 129.019 72.1893 114.558 78.8785 103.507C85.5677 92.4562 97.8498 85.0725 110.727 84.056C114.058 83.7931 117.459 83.9359 120.651 84.9209C124.118 85.9908 127.235 88.0179 130.717 89.0357C135.505 90.4351 140.597 89.3792 144.901 86.8578C148.101 84.9831 150.994 82.5393 154.431 81.1455C158.447 79.5168 163.15 80.1241 166.986 82.1398C170.822 84.1556 173.861 87.4559 176.203 91.1027C183.175 101.961 184.208 115.464 185.045 128.341C185.504 135.416 185.928 142.75 183.399 149.374C181.105 155.386 176.577 160.258 171.852 164.627C166.842 169.26 161.45 173.545 155.42 176.739C143.667 182.966 129.917 184.767 116.67 183.578C103.422 182.389 90.5837 178.35 78.2218 173.441C71.322 170.702 63.8829 178.088 56.6186 176.557C52.1303 175.611 48.9853 171.502 44.7199 169.815C40.1363 168.001 34.4625 169.461 31.3232 173.262C34.0707 166.612 43.4762 163.845 49.3867 167.948C52.3777 170.024 56.3878 169.894 59.9238 169.027C63.4597 168.159 66.844 166.641 70.4554 166.179C75.6244 165.517 80.7945 167.062 85.9893 167.475C92.3439 167.981 98.6974 166.788 104.96 165.6C111.706 164.322 118.452 163.043 125.198 161.764C128.453 161.147 131.764 160.511 134.693 158.965C137.993 157.224 140.677 154.341 142.177 150.925C130.941 160.341 114.055 160.836 107.693 161.357Z" fill="white"/>
<path fill-rule="evenodd" clip-rule="evenodd" d="M112.412 159.518C109.36 163.417 101.03 160.405 97.4525 158.128C93.8745 155.85 95.2482 153.644 95.2482 152.565C95.2482 151.486 95.0025 150.167 94.404 149.234C93.8056 148.301 84.3428 144.301 84.3428 139.908C84.3428 135.81 87.1792 132.061 91.1471 130.363C97.4525 127.664 100.537 129.38 106.364 131.75C112.19 134.12 111.711 139.908 111.711 139.908C111.711 139.908 116.49 154.307 112.412 159.518Z" fill="#F9FAFB"/>
<path fill-rule="evenodd" clip-rule="evenodd" d="M125.058 141.321C125.151 141.718 125.593 142.115 125.928 141.883C127.676 140.666 129.431 139.446 131.325 138.472C132.545 137.844 133.851 137.298 134.801 136.309C133.649 136.87 132.288 136.784 131.033 136.525C129.779 136.266 128.549 135.845 127.27 135.769C126.174 135.705 125.064 135.901 124.057 136.338C123.451 136.6 122.856 136.976 122.545 137.559C122.235 138.141 122.309 138.966 122.851 139.343C123.436 139.749 124.376 139.558 124.785 140.141C125.019 140.475 124.964 140.925 125.058 141.321Z" fill="#F9FAFB"/>
<path fill-rule="evenodd" clip-rule="evenodd" d="M141.732 103.576C144.347 108.261 147.677 111.606 145.556 113.733C143.718 115.577 144.36 112.368 142.274 111.68C140.889 111.223 137.935 112.166 135.349 112.057C131.787 111.908 131.294 114.254 128.642 114.129C124.515 113.935 118.898 111.227 117.172 110.56C115.1 109.76 115.721 106.986 117.172 105.67C117.707 105.186 119.457 106.603 119.651 105.955C120.369 103.544 118.811 101.393 120 101.071C120.548 100.923 122.544 101.576 123.3 102.351C124.188 103.26 125.082 104.614 126.916 104.064C130.311 103.045 129.875 100.824 132.529 100.824C135.183 100.824 138.651 102.768 140.323 103.34C141.994 103.912 139.116 98.8908 141.732 103.576Z" fill="#F9FAFB"/>
<path fill-rule="evenodd" clip-rule="evenodd" d="M114.763 127.201C115.11 128.236 115.822 129.142 116.629 129.877C117.384 130.565 118.586 131.152 118.436 132.162C119.932 130.581 122.169 129.733 124.337 129.925C125.072 129.991 125.794 130.168 126.53 130.225C129.233 130.435 131.769 129.032 134.116 127.675C135.802 126.701 137.487 125.726 139.173 124.752C139.564 123.94 139.261 122.926 138.658 122.257C138.054 121.588 137.206 121.199 136.365 120.875C135.454 120.524 134.505 120.226 133.529 120.206C132.576 120.186 131.33 120.269 130.985 119.381C130.529 118.202 129.414 117.303 128.164 117.107C126.915 116.911 125.578 117.426 124.783 118.408C123.959 119.426 122.613 119.817 121.383 120.265C119.893 120.807 118.46 121.508 117.117 122.351C115.991 123.058 114.827 124.045 114.763 125.373C114.736 125.938 114.583 126.665 114.763 127.201Z" fill="#F9FAFB"/>
<path fill-rule="evenodd" clip-rule="evenodd" d="M118.28 97.3778C120.05 97.8828 121.708 96.2323 123.539 96.0378C125.034 95.8788 126.512 96.7124 128.002 96.5091C128.54 96.4357 129.175 95.9343 128.892 95.4711C128.726 95.2006 128.354 95.1677 128.037 95.1646C126.314 95.1477 124.591 95.1309 122.869 95.1141C122.308 95.1086 121.701 95.0869 121.266 94.7337C120.361 93.9984 119.259 93.5481 118.147 93.1952C116.627 92.7126 115.055 92.3928 113.466 92.2565C111.732 92.1077 109.978 92.1781 108.261 92.4655C107.588 93.3403 106.914 94.215 106.24 95.0897C105.413 96.1636 104.305 97.3569 102.967 97.1353C101.223 96.8461 99.3883 97.1242 97.8076 97.9177C99.3972 97.3925 101.157 97.3981 102.744 97.9335C103.75 98.2733 104.682 98.8169 105.7 99.1225C108.231 99.8822 110.949 99.0917 113.422 98.1622C114.986 97.5744 116.673 96.9194 118.28 97.3778Z" fill="#F9FAFB"/>
<path d="M148.314 117.334C148.354 117.683 148.577 117.981 148.803 118.25C149.943 119.607 151.406 120.754 153.119 121.208C156.288 122.048 159.695 120.317 161.764 117.774C163.834 115.231 164.838 112.007 165.758 108.86C166.023 107.952 166.418 106.905 167.329 106.65C168.315 106.375 169.135 105.572 169.431 104.592C169.727 103.613 169.489 102.489 168.821 101.714C168.065 100.838 166.436 100.586 165.861 101.59C165.637 101.979 165.09 102.07 164.663 101.931C164.235 101.791 163.889 101.482 163.528 101.215C161.287 99.562 158.297 99.4678 155.513 99.439C154.632 99.4299 153.74 99.422 152.884 99.63C151.113 100.06 149.681 101.361 147.973 101.995C145.79 102.805 143.2 102.408 141.359 100.98C143.358 104.144 145.027 107.516 146.33 111.024C146.425 111.728 148.083 115.347 148.314 117.334Z" fill="white"/>
<path fill-rule="evenodd" clip-rule="evenodd" d="M103.5 104.873C103.038 103.749 102.345 102.43 101.132 102.385C100.8 102.372 100.476 102.465 100.149 102.52C98.4065 102.817 96.2591 100.626 95.6058 100.448C94.9524 100.271 94.1606 101.503 93.333 101.873C92.5054 102.242 91.6364 102.833 91.516 103.731C91.4196 104.45 91.8386 105.206 91.5851 105.885C91.2253 106.85 89.7708 107.014 89.3887 107.97C89.0547 108.806 89.734 109.681 90.3894 110.298C91.8511 111.674 93.5794 113.127 93.7235 115.129C93.7775 115.878 94.4788 116.387 95.0953 116.817C97.3669 118.401 99.3768 120.36 101.019 122.589C100.643 122.07 100.84 121.314 101.245 120.817C101.651 120.321 102.222 119.994 102.707 119.575C103.657 118.754 104.27 117.583 105.273 116.827C106.535 115.876 108.202 115.725 109.758 115.447C111.314 115.169 112.998 114.613 113.774 113.236C113.85 113.101 113.917 112.953 113.902 112.8C113.86 112.365 113.283 112.266 112.916 112.029C112.228 111.584 112.279 110.589 112.043 109.805C111.699 108.664 110.627 107.861 109.486 107.518C108.345 107.174 107.128 107.214 105.938 107.256C104.724 107.3 103.962 105.996 103.5 104.873Z" fill="#F9FAFB"/>
<path d="M221.035 178.846C220.902 178.961 220.771 178.669 220.872 178.525C221.015 178.483 221.062 178.711 221.029 178.857L221.035 178.846Z" fill="#015B05"/>
<path fill-rule="evenodd" clip-rule="evenodd" d="M169.739 150.453C168.936 150.755 167.957 150.506 167.396 149.857C167.11 149.527 166.56 149.728 166.234 150.019C165.909 150.309 165.588 150.695 165.151 150.693C164.704 150.69 164.362 150.243 164.313 149.798C164.265 149.353 164.432 148.917 164.597 148.501C163.985 148.617 163.342 148.732 162.75 148.539C162.158 148.346 161.654 147.732 161.81 147.13C161.867 146.909 162.004 146.717 162.161 146.552C162.681 146.005 163.465 145.722 164.215 145.809C164.58 145.852 164.708 145.337 164.677 144.971C164.617 144.273 164.505 143.556 164.7 142.884C164.896 142.212 165.519 141.598 166.213 141.69C167.093 141.806 167.463 142.87 167.561 143.753C167.595 144.055 167.845 144.468 168.081 144.276C168.837 143.66 170.045 143.695 170.765 144.353C171.043 144.607 171.255 144.964 171.236 145.34C171.213 145.778 170.887 146.145 170.522 146.389C170.158 146.634 169.742 146.796 169.388 147.054C170.159 147.571 170.969 148.348 170.811 149.263C170.715 149.813 170.262 150.256 169.739 150.453ZM166.333 147.477C166.353 147.566 166.372 147.655 166.391 147.744C165.746 148.068 165.547 148.877 165.419 149.587C165.611 149.732 165.879 149.543 166.016 149.346C166.318 148.913 166.46 148.392 166.681 147.914C166.902 147.435 167.246 146.964 167.752 146.817C167.962 146.756 168.186 146.756 168.401 146.714C168.859 146.624 169.256 146.348 169.637 146.079C169.85 145.929 170.075 145.764 170.162 145.518C170.357 144.969 169.675 144.432 169.102 144.537C168.529 144.642 168.113 145.131 167.777 145.607C167.44 146.082 167.1 146.603 166.565 146.834C166.41 146.901 166.232 146.94 166.073 146.883C165.914 146.827 165.792 146.647 165.845 146.487C165.899 146.327 166.164 146.279 166.239 146.431C166.373 146.369 166.437 146.189 166.371 146.057C165.691 146.178 165.011 146.299 164.331 146.42C163.957 146.487 163.57 146.559 163.262 146.781C162.954 147.003 162.752 147.421 162.899 147.77C163.886 148.423 165.184 147.195 166.333 147.477ZM168.048 147.543C167.582 147.633 167.406 148.259 167.586 148.698C167.766 149.137 168.168 149.436 168.525 149.749C168.87 150.052 169.47 149.912 169.716 149.524C169.963 149.137 169.884 148.601 169.605 148.235C169.327 147.87 168.885 147.659 168.436 147.564C168.308 147.537 168.176 147.518 168.048 147.543ZM166.803 144.526C166.776 143.844 166.708 143.075 166.179 142.645C166.017 142.513 165.81 142.746 165.745 142.944C165.578 143.448 165.501 143.982 165.518 144.512C165.527 144.778 165.563 145.054 165.711 145.274C165.859 145.495 166.146 145.641 166.396 145.552C166.769 145.419 166.819 144.921 166.803 144.526V144.526Z" fill="url(#paint0_linear_5661_300671)"/>
<path fill-rule="evenodd" clip-rule="evenodd" d="M166.148 90.4689C165.83 90.2479 165.512 90.0269 165.194 89.8059C165.673 89.4607 166.381 89.562 166.833 89.9432C167.284 90.3243 167.503 90.9255 167.543 91.5148C167.574 91.9641 167.474 92.4791 167.093 92.7183C166.725 92.9487 166.249 92.8358 165.832 92.7156C165.488 92.6165 165.144 92.5174 164.8 92.4182C164.439 92.3141 164.121 92.6752 163.947 93.0083C163.773 93.3415 163.573 93.7402 163.2 93.79C162.705 93.8562 162.411 93.2774 162.058 92.9232C161.031 91.8916 158.978 92.6316 158.029 91.5271C157.625 91.0567 157.567 90.3448 157.812 89.7752C158.057 89.2056 158.571 88.7774 159.147 88.5486C159.381 88.4557 159.632 88.3893 159.829 88.2324C160.026 88.0755 160.152 87.7895 160.034 87.5674C159.763 87.0609 159.487 86.5375 159.431 85.966C159.375 85.3945 159.593 84.7562 160.099 84.4858C160.59 84.224 161.222 84.3788 161.655 84.7283C162.087 85.0779 162.357 85.5866 162.586 86.0934C162.651 86.2385 162.722 86.3935 162.857 86.4771C162.992 86.5608 163.212 86.5248 163.255 86.3718C163.477 85.5974 164.523 85.2756 165.239 85.6449C165.955 86.0143 166.316 86.8739 166.293 87.679C166.285 87.9658 166.231 88.2609 166.071 88.4984C165.957 88.6654 165.798 88.7944 165.638 88.9174C165.158 89.2867 164.655 89.6258 164.132 89.9319C164.11 90.9267 164.915 91.8732 165.901 92.0097C166.235 92.056 166.636 91.9837 166.794 91.6855C167.032 91.2397 166.563 90.7571 166.148 90.4689ZM164.325 88.8192C164.881 88.7475 165.376 88.3257 165.535 87.7882C165.694 87.2507 165.508 86.6274 165.081 86.2646C164.997 86.193 164.898 86.1289 164.788 86.1219C164.658 86.1136 164.539 86.1842 164.428 86.2523C163.631 86.7445 162.735 87.4067 162.754 88.3437C162.773 89.3331 162.442 90.326 161.832 91.1053C161.612 91.3867 161.778 91.8096 162.027 92.0664C162.275 92.3232 162.603 92.5146 162.772 92.8296C162.889 93.0494 163.243 93.022 163.41 92.8367C163.576 92.6513 163.605 92.3829 163.617 92.1338C163.661 91.2026 163.583 90.2656 163.385 89.3545C163.341 89.1533 163.519 88.9627 163.714 88.8959C163.908 88.8291 164.121 88.8455 164.325 88.8192M161.932 89.443C161.598 89.6277 161.235 89.2852 160.909 89.0866C160.003 88.5351 158.7 89.25 158.451 90.281C158.353 90.6838 158.641 91.0996 159.01 91.2882C159.379 91.4767 159.809 91.4919 160.223 91.5032C160.5 91.5108 160.802 91.5104 161.019 91.3392C161.161 91.2272 161.244 91.0582 161.32 90.8942C161.542 90.4182 161.746 89.934 161.932 89.443ZM160.804 85.0797C160.48 85.0602 160.203 85.3575 160.138 85.6764C160.073 85.9953 160.169 86.3237 160.284 86.6282C160.665 87.6397 161.261 88.5695 162.021 89.3379C162.203 87.9575 162.318 86.3603 161.337 85.3718C161.191 85.2247 161.011 85.0921 160.804 85.0797V85.0797Z" fill="#F9FAFB"/>
<path fill-rule="evenodd" clip-rule="evenodd" d="M93.4314 121.917C92.5514 122.399 91.9848 123.404 92.0273 124.406C92.0457 124.84 92.1212 125.381 91.7527 125.611C91.4486 124.561 91.5912 123.389 92.1383 122.443C92.2734 122.209 92.4403 121.982 92.6783 121.854C92.9163 121.727 93.2396 121.728 93.4314 121.917V121.917Z" fill="#018A08"/>
<ellipse cx="163.2" cy="109.92" rx="1.12" ry="1.12" fill="url(#paint1_linear_5661_300671)"/>
<path fill-rule="evenodd" clip-rule="evenodd" d="M127.806 145.405C127.896 145.022 128.071 144.608 128.437 144.464C129.244 144.148 129.876 145.376 130.74 145.442C131.212 145.478 131.635 145.155 132.101 145.075C132.874 144.943 133.68 145.63 133.672 146.414C133.666 147.08 133.176 147.66 133.133 148.324C132.696 148.248 132.206 148.427 131.981 148.809C131.756 149.191 131.873 149.757 132.265 149.963C132.657 150.17 133.233 149.882 133.247 149.439C133.254 149.2 133.12 148.98 133.085 148.743C133.049 148.507 133.199 148.201 133.435 148.237C133.893 148.531 134.14 149.12 134.03 149.653C133.919 150.186 133.459 150.628 132.922 150.716C132.757 150.744 132.581 150.742 132.435 150.824C132.187 150.963 132.119 151.281 132.023 151.549C131.836 152.07 131.431 152.525 130.906 152.702C130.381 152.878 129.746 152.739 129.394 152.312C129.041 151.886 129.047 151.184 129.451 150.806C129.201 150.68 128.946 150.941 128.711 151.094C128.121 151.477 127.241 151.092 126.994 150.433C126.747 149.774 127.048 148.997 127.585 148.542C127.757 148.397 127.975 148.211 127.907 147.997C127.642 147.163 127.607 146.257 127.806 145.405ZM130.393 148.558C130.182 149.437 129.969 150.317 129.859 151.214C129.826 151.482 129.821 151.799 130.033 151.966C130.261 152.145 130.605 152.034 130.83 151.851C131.435 151.359 131.567 150.381 131.114 149.746C130.794 149.299 131.085 148.661 131.49 148.29C131.895 147.919 132.417 147.66 132.712 147.197C133.006 146.733 132.883 145.944 132.341 145.858C131.918 145.791 131.456 145.908 131.161 146.218C130.895 146.499 130.795 146.893 130.704 147.269C130.601 147.699 130.497 148.129 130.393 148.558ZM129.655 147.919C130.052 147.697 130.119 147.144 130.017 146.7C129.901 146.192 129.624 145.722 129.237 145.372C129.145 145.289 129.04 145.21 128.917 145.198C128.583 145.166 128.426 145.595 128.381 145.927C128.315 146.415 128.253 146.934 128.454 147.384C128.654 147.835 129.224 148.158 129.655 147.919ZM127.808 150.283C128.085 150.623 128.656 150.425 128.945 150.096C129.233 149.766 129.414 149.326 129.791 149.103C129.955 149.006 129.826 148.723 129.639 148.693C129.451 148.662 129.275 148.775 129.105 148.859C128.767 149.026 128.38 149.094 128.072 149.312C127.764 149.529 127.57 149.991 127.808 150.283Z" fill="url(#paint2_linear_5661_300671)"/>
<path d="M220.542 173.673C220.688 173.62 220.741 173.873 220.662 174.008C220.514 174.06 220.461 173.806 220.535 173.668L220.542 173.673Z" fill="#015B05"/>
<path fill-rule="evenodd" clip-rule="evenodd" d="M169.431 104.592C169.81 103.614 169.489 102.489 168.821 101.714C168.065 100.838 166.437 100.586 165.861 101.59C165.637 101.979 165.09 102.07 164.663 101.931C164.235 101.791 163.889 101.482 163.528 101.215C161.287 99.562 158.297 99.4678 155.513 99.439C154.632 99.4299 153.74 99.422 152.884 99.63C151.113 100.06 149.681 101.361 147.974 101.995C145.79 102.805 143.2 102.408 141.359 100.98C142.103 102.158 144.148 105.965 144.148 105.965C144.148 105.965 143.78 104.187 144.33 104.024C145.342 103.724 146.628 104.329 147.621 104.19C151.324 103.67 153.283 101.866 154.722 101.714C164.663 100.668 168.447 107.133 169.431 104.592Z" fill="#F9FAFB"/>
<path fill-rule="evenodd" clip-rule="evenodd" d="M171.852 162.067C166.842 166.7 161.45 170.985 155.42 174.179C143.667 180.405 129.917 182.206 116.67 181.018C103.422 179.829 90.5838 175.789 78.2219 170.881C74.7259 169.493 106.16 179.428 131.355 177.013C155.886 174.662 174.183 159.911 171.852 162.067Z" fill="#F9FAFB"/>
<ellipse cx="151.04" cy="116.16" rx="1.6" ry="1.6" fill="url(#paint3_linear_5661_300671)"/>
<path d="M100.775 124.973C101.617 126.514 103.021 127.705 103.766 129.295C104.658 131.196 115.513 148.532 115.889 148.594C116.672 148.724 118.012 147.435 117.872 147.87C117.818 147.785 130.221 154.663 127.702 156.342C124.809 158.27 118.833 160.341 111.301 160.341C108.391 159.69 106.579 156.867 105.087 154.286C100.565 146.466 96.032 138.588 92.966 130.091C92.6101 129.105 92.2333 128.053 91.4001 127.416C90.7052 126.886 89.8001 126.731 88.9309 126.637C86.7548 126.401 84.5561 126.636 82.3827 126.753C79.8457 126.89 79.8457 125.641 80.5383 125.26C81.5955 124.678 82.7458 124.452 83.5726 123.705C82.4098 124.224 81.9721 124.467 80.7094 124.631C79.4467 124.795 80.0316 123.765 80.093 123.278C79.9007 124.036 78.8073 124.536 78.1995 123.947C77.4094 123.181 78.5254 121.438 79.3536 120.974C79.4946 120.895 84.1104 118.508 84.4299 118.315C84.0234 118.22 79.9655 121.07 78.6321 120.64C77.7648 120.361 78.6746 118.84 79.5144 117.891C82.1137 114.953 81.4258 115.957 82.3816 114.989C82.9143 114.45 83.7764 114.473 84.532 114.534C85.6721 114.625 90.254 114.282 94.0399 116.771C97.5956 119.108 100.389 124.266 100.775 124.973Z" fill="white"/>
<path fill-rule="evenodd" clip-rule="evenodd" d="M172.348 65.1939C171.733 65.3613 171.219 65.8619 171.036 66.4728C170.902 66.9201 170.938 67.3989 170.988 67.8632C171.07 68.623 171.211 69.4287 171.73 69.9895C172.294 69.4666 172.298 68.5822 172.171 67.8241C172.152 67.713 172.132 67.6012 172.111 67.4889L172.111 67.4875C171.991 66.8336 171.869 66.1643 172.094 65.5485C172.689 66.4861 172.877 67.6735 172.599 68.7491L174.37 68.0194C174.702 67.8824 175.097 68.0794 175.302 68.3748C175.507 68.6702 175.568 69.039 175.623 69.3942C175.756 70.2405 175.784 71.3139 175.029 71.7203C174.81 71.8388 174.502 72.102 174.708 72.2434C175.324 72.6665 175.487 73.608 175.079 74.2339C174.671 74.8597 173.777 75.0963 173.097 74.7872C172.416 74.4782 172.008 73.6808 172.118 72.9417L170.563 73.9373C170.42 74.0286 170.26 74.1238 170.093 74.0966C169.884 74.0626 169.755 73.8558 169.655 73.6697C169.257 72.9354 168.856 72.0395 169.257 71.3069C168.588 71.1365 167.98 70.6854 167.692 70.0587C167.405 69.4319 167.476 68.6359 167.928 68.1152C168.38 67.5945 169.212 67.4218 169.802 67.7792C170.078 67.9465 170.286 67.4817 170.297 67.1591C170.327 66.2794 170.609 65.3012 171.387 64.8887C171.744 64.6993 172.342 64.7896 172.348 65.1939ZM173.442 71.052C174.055 71.3986 174.949 71.0297 175.139 70.3515C175.329 69.6733 174.758 68.8936 174.054 68.8707C173.206 68.8431 172.614 69.6949 172.293 70.4806C172.164 70.7954 171.697 70.712 171.394 70.5562C171.092 70.4005 170.663 70.2521 170.464 70.5284C170.203 70.8925 169.805 71.1558 169.367 71.2535C169.621 71.4555 169.714 71.7733 169.807 72.0929C169.848 72.234 169.89 72.3754 169.945 72.5073C170.125 72.9381 170.735 73.291 171.026 72.925C171.535 72.2832 172.128 71.7077 172.785 71.218C172.977 71.0746 173.233 70.934 173.442 71.052ZM168.885 68.3797C168.57 68.2966 168.245 68.5777 168.185 68.898C168.125 69.2184 168.266 69.5446 168.454 69.8105C168.54 69.9315 168.638 70.0467 168.762 70.128C169.081 70.3371 169.507 70.2832 169.863 70.1452C170.006 70.0897 170.144 70.0221 170.282 69.9545C170.487 69.854 170.693 69.7535 170.913 69.6934C170.399 69.056 169.677 68.5885 168.885 68.3797ZM174.567 73.7232C174.701 73.4552 174.615 73.1188 174.432 72.8811C174.249 72.6434 173.986 72.4833 173.729 72.3287L173.309 72.0758C173.147 71.9786 172.955 71.8782 172.78 71.9477C172.487 72.0642 172.541 72.4922 172.654 72.7868C172.816 73.2101 173.008 73.6531 173.382 73.9094C173.756 74.1656 174.364 74.1283 174.567 73.7232ZM141.323 70.9736C141.567 71.2076 141.601 71.6395 141.37 71.8857C141.139 72.132 140.672 72.1046 140.498 71.8151C140.405 71.6595 140.402 71.4735 140.4 71.2886C140.4 71.2304 140.399 71.1723 140.395 71.1153C140.381 70.8771 140.182 70.3274 140.13 70.2009C139.485 69.6726 139.24 68.8029 139.109 67.9793C139.012 67.3639 138.962 66.7117 139.204 66.1374C139.446 65.5632 140.061 65.1035 140.671 65.2333C141.377 65.3837 141.716 66.1737 141.943 66.8593C142.129 67.4191 142.25 68.1723 141.747 68.4788C141.66 67.7315 141.557 66.9413 141.089 66.3526C140.792 65.9789 140.18 65.7347 139.862 66.091C139.726 66.2441 139.693 66.4614 139.677 66.6659C139.558 68.2493 140.179 69.8729 141.323 70.9736ZM140.144 74.6605L140.051 74.6747C139.223 74.8029 138.362 74.936 137.712 74.1895C137.037 73.4152 136.802 71.727 137.167 71.2869C137.681 70.6677 138.501 70.3023 139.308 70.3554C139.343 70.4389 139.321 70.6262 139.298 70.8153C139.276 71.008 139.253 71.2025 139.289 71.2909C138.73 71 137.965 71.1997 137.62 71.727C137.577 71.7924 137.539 71.8717 137.562 71.9463C137.746 72.5315 137.947 73.1412 138.385 73.5706C138.823 74.0001 139.576 74.1752 140.051 73.7875C140.203 73.6635 140.31 73.4982 140.418 73.3324C140.505 73.1989 140.592 73.0651 140.702 72.9522C140.95 72.6993 141.453 72.6167 141.608 72.9353C141.232 73.3126 140.875 73.7089 140.539 74.1222C140.459 74.2208 140.379 74.3668 140.462 74.4629C140.666 74.6984 140.705 75.0182 140.744 75.3341L140.744 75.3343C140.754 75.4221 140.765 75.5096 140.779 75.5949C140.844 75.9873 141.092 76.433 141.49 76.4233C141.825 76.4152 142.052 76.0885 142.22 75.798L142.853 74.706C143.037 74.7284 143.156 74.9297 143.153 75.1149C143.149 75.3001 143.054 75.4701 142.96 75.6293C142.668 76.1197 142.345 76.5922 141.996 77.0434C141.889 77.1809 141.767 77.3249 141.598 77.3645C141.422 77.4055 141.242 77.3226 141.091 77.2242C140.272 76.6917 139.868 75.597 140.144 74.6605ZM143.752 67.8772C144.033 67.7357 144.414 67.7396 144.626 67.9718C145.095 69.105 144.78 70.516 143.874 71.3426C143.853 71.3622 143.831 71.3817 143.809 71.4014C143.659 71.5345 143.505 71.6721 143.453 71.8625C143.395 72.0811 143.583 72.3682 143.798 72.2968C143.947 72.247 143.995 72.0788 144.04 71.9193C144.05 71.8848 144.06 71.8507 144.07 71.8183C144.201 71.417 144.639 71.1405 145.058 71.1946C145.595 71.4264 146.685 72.053 146.479 73.7135C146.295 75.1991 145.56 75.1294 145.298 75.1045C145.267 75.1016 145.243 75.0993 145.227 75.1002C144.516 75.1415 144.09 74.3674 143.744 73.7379L143.725 73.7032C143.561 73.4068 143.193 73.0867 142.938 73.3091C142.839 73.396 142.809 73.5366 142.79 73.6675C142.762 73.8678 142.753 74.0925 142.88 74.2499C143.008 74.4073 143.317 74.4057 143.371 74.2107C143.436 74.8019 143.759 75.373 144.268 75.6808C144.777 75.9886 145.468 75.9991 145.954 75.6565C146.306 75.4091 146.523 75.0144 146.685 74.616C146.832 74.2506 146.943 73.8649 146.952 73.4708C146.972 72.512 146.37 71.6245 145.595 71.0594C145.393 70.912 145.152 70.7292 145.177 70.4803L145.291 69.3701C145.346 68.8352 145.398 68.2771 145.206 67.7749C145.014 67.2727 144.496 66.851 143.969 66.9566C143.547 67.0412 143.283 67.3996 143.017 67.7617C142.775 68.0911 142.53 68.4237 142.162 68.5564C141.755 68.7031 141.734 69.2635 141.788 69.693C141.806 69.8375 141.827 69.99 141.918 70.1039C142.009 70.2178 142.194 70.2694 142.301 70.1707C142.274 69.5499 142.682 69.0044 143.069 68.5184C143.266 68.2722 143.471 68.0186 143.752 67.8772ZM106.948 91.8759C107.743 91.1738 108.844 90.9423 109.899 90.8297C113.604 90.434 117.426 91.2141 120.68 93.03C120.745 93.0658 120.809 93.1021 120.874 93.1386C121.468 93.4742 122.077 93.8182 122.753 93.8601C122.965 93.8732 123.177 93.8558 123.39 93.8383C123.575 93.823 123.761 93.8077 123.947 93.8129C124.391 93.8252 124.806 93.8913 125.217 93.9566C125.987 94.0791 126.741 94.199 127.642 93.9576C128.933 93.6118 129.123 93.9508 129.261 94.6445C129.398 95.3383 128.898 96.0397 128.255 96.3347C127.612 96.6297 126.869 96.5992 126.17 96.4872C125.968 96.4548 125.767 96.416 125.565 96.3772C125.07 96.282 124.576 96.1868 124.073 96.1859C123.079 96.1841 122.092 96.5451 121.12 96.9006C119.746 97.4029 118.403 97.8941 117.115 97.3336C116.659 97.1353 116.134 97.2759 115.658 97.4186L110.623 98.927C109.377 99.3003 108.089 99.6778 106.797 99.5294C105.771 99.4117 104.824 98.9724 103.878 98.5332C102.924 98.0904 101.97 97.6478 100.935 97.5346C100.064 97.4392 99.1805 97.5838 98.302 97.7276C97.1835 97.9108 96.0725 98.0927 95.0016 97.7767C95.0599 97.5006 95.3615 97.3606 95.6258 97.2618C97.2397 96.6584 98.8804 96.049 100.599 95.9195C100.882 95.8981 101.17 95.8885 101.46 95.8788C102.51 95.8438 103.572 95.8084 104.412 95.2151C105.026 94.7812 105.407 94.1236 105.789 93.4631C106.122 92.8874 106.457 92.3096 106.948 91.8759ZM117.96 96.7377C119.004 97.0356 120.01 96.5834 121.034 96.1225C121.747 95.8021 122.468 95.4775 123.219 95.3977C123.951 95.3199 124.678 95.4798 125.405 95.6396C126.164 95.8063 126.921 95.9728 127.682 95.869C128.22 95.7956 128.855 95.2942 128.572 94.831C128.406 94.5605 128.034 94.5276 127.717 94.5245L122.549 94.474C121.989 94.4685 121.381 94.4468 120.946 94.0936C120.041 93.3583 118.939 92.908 117.828 92.5551C116.308 92.0725 114.735 91.7527 113.146 91.6164C111.412 91.4676 109.659 91.538 107.942 91.8254L105.921 94.4496C105.094 95.5235 103.985 96.7168 102.648 96.4952C100.903 96.206 99.0685 96.4841 97.4878 97.2776C99.0775 96.7524 100.838 96.758 102.424 97.2934C102.889 97.4503 103.338 97.6508 103.787 97.8512C104.309 98.0846 104.832 98.318 105.38 98.4824C107.911 99.2421 110.629 98.4516 113.102 97.5221L113.191 97.4887C114.73 96.91 116.384 96.2879 117.96 96.7377ZM103.545 118.313C104.437 117.24 105.306 116.195 106.636 116.145C108.706 116.066 110.738 115.326 112.406 114.098C112.811 113.8 113.214 113.447 113.36 112.966C113.506 112.486 113.279 111.862 112.789 111.752C111.839 111.539 111.477 110.549 111.12 109.575L111.12 109.575L111.12 109.575C111.006 109.264 110.892 108.954 110.761 108.671C110.198 107.468 109.025 106.569 107.717 106.34C107.221 106.253 106.716 106.257 106.212 106.261C105.764 106.264 105.317 106.268 104.874 106.208C103.933 106.081 102.928 105.529 102.756 104.595C102.321 102.234 99.636 100.558 97.3238 101.206C96.6654 101.39 96.106 100.966 95.5289 100.528C95.0732 100.182 94.6065 99.8283 94.0713 99.7586C93.606 99.6981 93.1443 99.8638 92.7043 100.027C91.7123 100.394 90.6935 100.778 89.9113 101.49C89.1291 102.203 88.6302 103.332 88.9624 104.337C89.1604 104.936 88.6665 105.54 88.1446 105.894C88.0368 105.967 87.9247 106.037 87.8122 106.108C87.3798 106.379 86.9419 106.654 86.7233 107.104C86.3939 107.782 86.6963 108.601 87.1193 109.225C87.5848 109.913 88.2043 110.529 88.8183 111.141C89.9978 112.315 91.1571 113.469 91.1654 115.063L84.5323 114.533C83.7768 114.473 82.9146 114.45 82.3819 114.989C82.0634 115.311 81.9274 115.415 81.7915 115.518C81.5196 115.725 81.2476 115.932 79.5147 117.891C78.675 118.84 77.7652 120.361 78.6325 120.64C79.5076 120.922 81.5563 119.791 82.9761 119.008L82.9762 119.008L82.9762 119.008C83.7196 118.597 84.2906 118.282 84.4303 118.315C84.211 118.447 81.969 119.613 80.5378 120.357L80.5353 120.358L80.5343 120.359L80.5316 120.36C79.8802 120.699 79.3981 120.949 79.354 120.974C78.5258 121.438 77.4098 123.181 78.1998 123.947C78.8077 124.536 79.9011 124.035 80.0934 123.278C80.0813 123.374 80.0488 123.491 80.0142 123.616C79.8731 124.124 79.696 124.763 80.7097 124.631C81.8442 124.484 82.3128 124.272 83.2395 123.855C83.3442 123.807 83.4548 123.758 83.5729 123.705C83.0572 124.171 82.4154 124.434 81.7489 124.708C81.3471 124.872 80.9363 125.041 80.5386 125.26C79.8461 125.641 79.8461 126.89 82.383 126.753C82.8143 126.73 83.2465 126.702 83.6794 126.674L83.6799 126.674H83.6799C85.4284 126.561 87.1871 126.448 88.9312 126.637C89.8004 126.731 90.7056 126.885 91.4004 127.416C92.2298 128.05 92.6069 129.095 92.9614 130.077L92.9663 130.091C96.0323 138.588 100.565 146.466 105.087 154.286C106.58 156.867 108.391 159.69 111.301 160.341C103.59 150.956 97.5435 140.207 93.5259 128.745C93.0608 127.418 91.8034 126.493 90.4633 126.067C89.1232 125.642 87.6907 125.639 86.2846 125.641C85.3934 125.642 84.6691 125.771 83.968 125.896C83.0463 126.061 82.1646 126.218 80.9963 126.067C80.0551 125.946 80.8517 125.616 81.9829 125.149C83.1228 124.678 84.6024 124.066 84.9863 123.385C84.5442 122.682 83.456 122.984 82.7607 123.438C82.0653 123.891 79.9123 124.592 80.4317 123.705C81.0749 122.606 82.2199 122.012 83.3737 121.414C83.7383 121.225 84.1038 121.035 84.4546 120.829C84.8378 120.604 84.5502 119.935 84.1107 119.869C83.6712 119.803 83.2667 120.096 82.9187 120.372C82.5351 120.677 82.0972 121.118 81.6451 121.574L81.645 121.574C80.5833 122.645 79.443 123.795 78.7428 123.438C77.2203 122.662 82.0589 120.101 84.7387 118.682L84.7394 118.682C84.9136 118.59 85.0788 118.502 85.2324 118.421C84.6242 117.373 82.9924 117.889 82.0747 118.679C82.0269 118.721 81.9786 118.762 81.9298 118.805L81.9298 118.805C81.0425 119.573 80.0003 120.475 78.9252 120.073C78.2862 119.834 79.2113 119.075 80.1365 118.315C80.5991 117.936 81.0617 117.556 81.3288 117.241C81.7775 116.713 82.2405 116.172 82.8488 115.84C83.593 115.433 84.4747 115.379 85.3229 115.372C87.4346 115.352 89.5483 115.561 91.6157 115.991C94.6242 117.985 97.2252 120.59 99.2135 123.602C103.855 130.633 108.401 137.726 112.947 144.819L112.948 144.821C113 144.903 113.095 145.06 113.221 145.268C113.889 146.371 115.412 148.889 115.889 148.948C116.417 149.014 116.964 148.575 117.351 148.233L135.933 136.665C138.954 134.785 142.297 132.829 145.825 133.287C151.541 134.028 157.34 134.701 163.053 133.934C168.766 133.167 174.468 130.801 178.169 126.382C171.481 131.71 162.701 134.336 154.185 133.555C153.026 133.448 151.858 133.283 150.688 133.117L150.688 133.117C147.16 132.617 143.621 132.116 140.292 133.231C139.437 133.518 138.569 133.908 137.699 134.298L137.699 134.298C135.238 135.404 132.764 136.515 130.508 135.318C128.459 134.231 125.896 134.794 123.857 135.9C121.819 137.006 119.251 138.516 121.036 140.431C122.821 142.346 119.094 141.473 117.013 140.45C114.932 139.426 114.444 135.855 116.57 134.409C115.618 135.49 115.65 137.657 117.041 138.034C118.431 138.41 119.893 137.724 121.036 136.848C122.331 135.856 122.15 134.58 121.989 133.439C121.816 132.219 121.665 131.153 123.363 130.756C124.526 130.484 125.725 130.568 126.926 130.653C128.021 130.73 129.117 130.807 130.19 130.613C131.959 130.295 133.462 129.291 134.975 128.28C135.921 127.649 136.87 127.015 137.89 126.544C140.542 125.32 143.549 125.251 146.48 125.183L146.483 125.183C146.655 125.179 146.825 125.175 146.996 125.171C152.356 125.039 157.82 124.589 162.757 122.499C167.694 120.41 172.084 116.432 173.472 111.254C174.614 106.991 173.534 102.196 170.673 98.8361C167.812 95.4758 163.252 93.6438 158.861 94.0915C156.568 94.3253 154.353 95.1318 152.15 95.9333C149.129 97.0328 146.134 98.123 142.999 97.7136C138.44 97.1183 134.942 93.5205 131.835 90.1326C135.54 90.7005 139.402 90.2031 142.842 88.715C144.595 87.9569 146.234 86.9516 147.87 85.9481C150.106 84.5771 152.336 83.2096 154.841 82.4809C161.058 80.6727 167.982 83.292 172.523 87.9072C177.063 92.5224 179.512 98.832 180.805 105.176C181.647 109.31 182.047 113.512 182.447 117.716C182.66 119.963 182.874 122.211 183.155 124.449C183.297 125.576 183.456 126.711 183.615 127.849C184.542 134.497 185.488 141.273 183.259 147.523C181.355 152.862 177.344 157.138 173.408 161.216C168.061 166.757 162.551 172.323 155.795 176.017C149.546 179.435 142.489 181.102 135.444 182.156C129.918 182.983 124.321 183.457 118.741 183.17C107.068 182.57 95.8429 178.676 84.8581 174.68C80.9104 173.244 76.7859 171.766 72.6144 172.261C70.4717 172.515 68.3893 173.283 66.3222 174.045L66.3222 174.045C63.2543 175.177 60.2201 176.296 57.0725 175.705C54.1795 175.161 51.8261 173.271 49.4746 171.382C47.0881 169.465 44.7036 167.549 41.759 167.045C44.3915 166.61 46.9869 167.821 49.5381 169.011C52.4844 170.385 55.3718 171.732 58.1894 170.484C68.4339 165.946 80.2133 167.428 91.3074 168.996L104.947 170.924C106.86 171.195 108.752 170.763 110.654 170.33C111.772 170.075 112.894 169.819 114.025 169.706C116.955 169.411 119.839 170.071 122.732 170.733C124.262 171.083 125.794 171.433 127.337 171.644C138.894 173.219 151.056 165.846 155.004 154.869C155.52 153.434 155.935 151.914 156.351 150.391C157.551 145.997 158.757 141.582 162.41 139.128C162.792 138.871 163.202 138.634 163.614 138.395C164.908 137.645 166.215 136.888 166.685 135.52C163.227 136.654 160.205 139.069 158.337 142.193C157.024 144.39 156.294 146.853 155.564 149.318C155.23 150.446 154.895 151.574 154.505 152.677C150.901 162.867 141.073 171.378 130.283 170.74C128.113 170.611 125.977 170.133 123.844 169.656C121.177 169.059 118.515 168.463 115.797 168.554C114.281 168.604 112.786 168.869 111.289 169.134L111.289 169.134C110.068 169.35 108.846 169.566 107.612 169.666C103.551 169.995 99.5053 169.062 95.5375 168.136C104.473 165.932 113.528 164.213 122.649 162.988C129.363 162.086 137.097 160.846 140.535 155.009C142.987 150.845 146.978 147.965 150.965 145.087C155.039 142.146 159.109 139.209 161.532 134.908C150.03 146.455 133.465 156.379 109.58 161.258C109.415 161.291 109.252 161.324 109.092 161.357C109.255 161.325 109.418 161.292 109.58 161.258C111.232 160.937 113.12 160.688 115.175 160.417C123.08 159.376 133.441 158.011 142.177 150.925C140.677 154.341 137.993 157.224 134.693 158.965C131.763 160.511 128.453 161.147 125.198 161.764L104.96 165.601C98.6974 166.788 92.3439 167.981 85.9893 167.475C84.2245 167.335 82.4626 167.064 80.7026 166.793C77.2818 166.267 73.8684 165.742 70.4554 166.179C68.2251 166.465 66.0815 167.153 63.9352 167.841C62.6061 168.268 61.276 168.695 59.9238 169.027C56.3878 169.895 52.3777 170.024 49.3867 167.948C43.4762 163.845 34.0707 166.612 31.3232 173.262C34.4625 169.462 40.1363 168.002 44.7199 169.815C46.5914 170.555 48.2473 171.762 49.8955 172.963C52.0038 174.499 54.0997 176.026 56.6186 176.557C60.0427 177.278 63.5056 176.019 66.9325 174.772C70.776 173.375 74.5743 171.993 78.2218 173.441C90.5837 178.35 103.422 182.389 116.67 183.578C129.917 184.767 143.667 182.966 155.42 176.739C161.45 173.545 166.842 169.26 171.852 164.627C176.577 160.258 181.104 155.387 183.399 149.374C185.927 142.75 185.504 135.417 185.045 128.341C184.208 115.464 183.175 101.961 176.203 91.1028C173.861 87.456 170.822 84.1557 166.986 82.1399C163.15 80.1242 158.447 79.5169 154.431 81.1456C152.21 82.0459 150.218 83.3844 148.222 84.7246L148.222 84.7247L148.222 84.7247C147.128 85.4592 146.034 86.1942 144.901 86.8579C140.597 89.3793 135.505 90.4352 130.717 89.0358C128.931 88.5138 127.241 87.7263 125.551 86.9386C123.946 86.1905 122.34 85.4422 120.651 84.9211C117.459 83.936 114.058 83.7932 110.727 84.0561C97.8498 85.0726 85.5677 92.4563 78.8785 103.507C72.1893 114.558 71.3798 129.019 77.0552 140.623C82.7306 152.227 94.8032 160.515 107.693 161.357C106.093 160.365 104.238 159.993 102.374 159.619C101.322 159.408 100.268 159.197 99.256 158.873C96.4505 157.976 93.6307 155.409 94.3373 152.549C94.9434 150.097 92.7721 147.844 90.5789 146.59C90.1519 146.346 89.7102 146.112 89.2666 145.877C87.4322 144.904 85.5674 143.916 84.5881 142.133C82.4785 138.292 85.7666 133.807 88.8283 130.671C85.4223 132.627 82.8899 136.045 82.0115 139.873C84.0597 143.425 87.3304 146.257 91.1392 147.776C93.0946 150.328 94.0443 153.629 93.7435 156.83C82.5968 150.021 75.0019 137.71 73.9187 124.693C73.6601 121.586 73.7736 118.349 75.0769 115.516C77.9981 109.166 80.9991 102.713 85.6943 97.535C92.808 89.6904 103.686 85.4242 114.236 86.3414C124.786 87.2586 134.765 93.3382 140.418 102.293C138.356 101.155 136.226 99.9941 133.885 99.7306C131.545 99.467 128.916 100.322 127.773 102.381C126.908 103.94 124.552 102.708 123.306 101.432C122.06 100.157 119.528 99.1369 118.893 100.803L119.529 104.449C117.109 103.256 114.167 106.871 115.828 108.998C116.392 109.72 117.247 110.143 118.072 110.542C122.691 112.779 128.07 115.044 132.762 112.962C135.169 111.894 137.812 111.361 140.446 111.411C141.08 111.424 141.742 111.477 142.286 111.805C142.712 112.061 143.019 112.454 143.328 112.85C143.535 113.116 143.743 113.383 143.989 113.61C144.599 114.173 145.76 114.359 146.137 113.618C147.128 115.387 148.14 117.213 148.391 119.226C148.643 121.239 147.953 123.508 146.208 124.542C144.464 125.577 141.715 124.706 141.365 122.708C141.032 120.803 139.076 120.321 137.027 119.816C135.291 119.389 133.489 118.945 132.546 117.607C131.556 116.201 129.522 115.919 127.868 116.387C126.656 116.729 125.572 117.384 124.488 118.039C124.093 118.277 123.697 118.516 123.296 118.74C122.658 119.095 121.995 119.417 121.332 119.74L121.332 119.74C119.657 120.554 117.984 121.368 116.717 122.709C114.948 124.58 114.458 128.034 116.57 129.506C117.36 130.057 123.296 134.908 120.031 136.552C115.165 139.003 116.499 134.624 117.011 133.846C114.664 134.126 113.592 137.396 114.865 139.389C116.137 141.382 118.987 142.626 121.3 142.133C122.445 141.889 122.108 141.276 121.712 140.554C121.307 139.819 120.841 138.97 121.816 138.283C121.629 138.993 122.337 139.238 123.121 139.51C123.734 139.722 124.395 139.951 124.71 140.431C125.279 141.299 124.396 142.369 123.593 143.024L117.693 147.837C117.613 147.88 117.511 147.943 117.395 148.015C116.964 148.281 116.336 148.668 115.889 148.594C115.513 148.532 111.572 141.631 110.771 138.087C110.679 137.677 110.607 137.257 110.535 136.838C110.276 135.325 110.018 133.824 108.813 132.888C108.213 132.422 107.503 132.072 106.8 131.724C105.558 131.112 104.336 130.508 103.766 129.295C103.366 128.441 102.775 127.702 102.184 126.962C101.675 126.324 101.165 125.686 100.775 124.973C99.9338 123.432 99.9118 121.13 101.453 120.289C102.275 119.84 102.916 119.069 103.545 118.313ZM99.5314 102.064C100.745 102.109 101.438 103.429 101.899 104.552C102.361 105.675 103.124 106.98 104.337 106.936C105.528 106.893 106.744 106.854 107.885 107.197C109.026 107.541 110.099 108.344 110.442 109.485C110.508 109.704 110.552 109.939 110.595 110.175C110.708 110.782 110.82 111.388 111.316 111.709C111.421 111.777 111.545 111.834 111.667 111.891C111.971 112.031 112.272 112.17 112.302 112.479C112.317 112.632 112.25 112.781 112.174 112.915C111.398 114.292 109.714 114.849 108.158 115.127C107.934 115.167 107.707 115.204 107.48 115.242C106.13 115.465 104.753 115.693 103.673 116.507C103.132 116.915 102.705 117.443 102.277 117.971C101.911 118.423 101.545 118.876 101.107 119.254C100.938 119.4 100.759 119.535 100.58 119.67L100.58 119.67C100.244 119.922 99.9092 120.173 99.645 120.497C99.2395 120.993 99.0431 121.75 99.4189 122.269C97.7765 120.039 95.7666 118.081 93.495 116.497C92.8784 116.067 92.1772 115.558 92.1232 114.808C91.9904 112.963 90.511 111.584 89.1355 110.302C89.019 110.193 88.9032 110.085 88.7891 109.978C88.1337 109.361 87.4544 108.486 87.7884 107.65C87.978 107.176 88.4316 106.896 88.8845 106.617C89.3444 106.334 89.8035 106.051 89.9848 105.565C90.1278 105.181 90.0567 104.774 89.985 104.362V104.362C89.9295 104.044 89.8737 103.724 89.9157 103.411C89.9873 102.877 90.2054 102.737 90.7481 102.391C91.1174 102.155 91.6371 101.823 92.3633 101.205C93.465 100.268 95.0386 100.976 96.4012 101.589C97.2565 101.973 98.0286 102.321 98.5485 102.2C98.8699 102.126 99.2001 102.052 99.5314 102.064ZM108.063 133.231C108.837 134.113 109.645 135.068 109.799 136.231C109.878 136.824 109.773 137.44 109.503 137.974L106.002 132.52C105.965 132.461 105.925 132.389 105.954 132.324C106 132.22 106.154 132.252 106.257 132.302L107.696 132.991C107.829 133.054 107.965 133.121 108.063 133.231ZM144.907 106.267C144.876 106.56 144.98 106.865 145.184 107.076C145.451 107.21 145.733 107.081 146.02 106.95C146.153 106.889 146.288 106.828 146.422 106.792C146.668 106.727 146.927 106.752 147.181 106.777L150.29 107.086C150.482 106.789 150.09 106.461 149.757 106.343C148.206 105.794 146.475 105.767 144.907 106.267ZM161.853 111.871C160.587 113.812 158.607 115.276 156.38 115.917L156.36 116.417C158.841 115.863 161.094 114.347 162.541 112.257C162.708 112.016 162.844 111.641 162.605 111.472C162.344 111.288 162.027 111.603 161.853 111.871ZM156.851 106.925C156.547 106.841 156.137 106.763 155.99 107.041C156.518 107.521 157.111 108.029 157.825 108.05C158.335 108.065 158.814 107.825 159.268 107.591C160.335 107.041 161.412 106.485 162.336 105.718C162.301 105.394 161.879 105.244 161.57 105.347C161.314 105.433 161.117 105.628 160.922 105.821C160.882 105.86 160.843 105.899 160.803 105.937C159.775 106.917 158.219 107.306 156.851 106.925ZM154.018 113.52C154.1 113.655 154.203 113.799 154.357 113.835C154.468 113.861 154.582 113.825 154.69 113.789L156.372 113.234C156.372 113.035 156.16 112.898 155.962 112.878C155.852 112.867 155.741 112.88 155.63 112.893C155.543 112.903 155.456 112.914 155.369 112.912C154.696 112.902 154.228 112.219 154.059 111.567C154.001 111.34 153.963 111.106 153.925 110.873C153.854 110.436 153.783 110.001 153.578 109.613C153.19 109.595 153.049 110.12 153.074 110.507C153.141 111.567 153.468 112.61 154.018 113.52ZM149.241 109.805C149.635 109.379 150.226 108.811 150.677 109.177C149.909 110.684 148.234 111.681 146.543 111.637C147.479 113.405 148.082 115.348 148.313 117.335C148.354 117.684 148.577 117.981 148.803 118.25C149.942 119.608 151.406 120.754 153.119 121.208C156.288 122.049 159.695 120.318 161.764 117.775C163.834 115.232 164.838 112.008 165.757 108.861C166.023 107.952 166.417 106.906 167.329 106.651C168.314 106.376 169.135 105.572 169.431 104.593C169.727 103.613 169.489 102.49 168.821 101.715C168.065 100.839 166.436 100.587 165.86 101.59C165.637 101.98 165.09 102.071 164.662 101.931C164.316 101.819 164.024 101.594 163.733 101.371C163.665 101.319 163.596 101.266 163.527 101.216C161.287 99.5626 158.297 99.4685 155.513 99.4397C154.632 99.4306 153.74 99.4227 152.883 99.6307C151.886 99.873 150.996 100.392 150.104 100.912C149.412 101.315 148.719 101.719 147.973 101.995C145.79 102.806 143.199 102.409 141.359 100.981C143.358 104.145 145.026 107.517 146.329 111.025C147.414 111.058 148.504 110.601 149.241 109.805ZM119.946 102.05L119.946 102.051C120.214 102.605 120.481 103.157 120.53 103.765C120.609 104.762 119.564 105.903 118.719 105.368C117.842 104.812 116.547 105.333 116.138 106.288C115.729 107.242 116.116 108.416 116.896 109.102C117.484 109.619 118.243 109.89 118.983 110.15C119.876 110.465 120.883 110.888 121.928 111.328C124.567 112.438 127.451 113.652 129.385 113.472C130.354 113.381 132.158 112.324 132.773 111.943C133.944 111.216 135.301 110.46 136.627 110.838C138.297 111.314 140.136 111.167 141.71 110.434C142.477 110.076 143.189 111.015 143.503 111.801C143.818 112.587 144.444 113.556 145.246 113.286C145.689 113.137 145.927 112.628 145.913 112.162C145.899 111.695 145.689 111.259 145.484 110.839L141.749 103.218C140.753 103.497 139.868 102.919 138.958 102.324C138.339 101.92 137.708 101.507 137.021 101.351C136.677 101.273 136.323 101.262 135.968 101.251C135.599 101.239 135.231 101.228 134.874 101.14C134.491 101.047 134.135 100.87 133.78 100.694C133.346 100.478 132.914 100.264 132.438 100.203C131.417 100.071 130.443 100.677 129.699 101.389C129.454 101.623 129.222 101.871 128.991 102.12L128.991 102.12C128.518 102.628 128.045 103.136 127.466 103.514C126.604 104.077 125.381 104.279 124.582 103.629C124.273 103.378 124.067 103.034 123.86 102.69C123.758 102.52 123.655 102.349 123.54 102.189C122.654 100.958 120.905 100.431 119.486 100.967C119.602 101.34 119.774 101.696 119.946 102.05ZM116.176 126.906C116.523 127.941 117.235 128.847 118.042 129.582C118.218 129.742 118.419 129.898 118.621 130.054C119.284 130.567 119.964 131.092 119.849 131.866C121.345 130.286 123.582 129.438 125.75 129.63C126.105 129.662 126.456 129.719 126.808 129.777C127.185 129.838 127.562 129.9 127.943 129.93C130.646 130.14 133.182 128.737 135.529 127.38L140.586 124.456C140.977 123.645 140.674 122.631 140.071 121.962C139.467 121.293 138.619 120.904 137.778 120.58C136.867 120.229 135.918 119.931 134.942 119.911C134.849 119.909 134.754 119.908 134.658 119.907L134.657 119.907C133.755 119.898 132.709 119.888 132.398 119.086C131.941 117.906 130.826 117.008 129.577 116.812C128.328 116.616 126.991 117.13 126.196 118.113C125.461 119.021 124.309 119.431 123.196 119.826C123.062 119.874 122.928 119.922 122.796 119.97C121.306 120.512 119.873 121.213 118.53 122.056C117.404 122.763 116.24 123.749 116.176 125.078C116.169 125.224 116.153 125.381 116.138 125.543C116.092 126.007 116.043 126.509 116.176 126.906ZM167.084 118.955C169.188 117.315 171.029 115.273 172.113 112.836C173.198 110.399 173.471 107.542 172.528 105.048C171.968 103.564 171.01 102.262 169.954 101.079C168.122 99.024 165.724 97.1745 162.971 97.1361C162.053 97.1233 161.146 97.3147 160.248 97.5051L155.04 98.6094C157.99 98.5543 160.95 99.0351 163.732 100.021L163.754 100.029C164.38 100.252 165.065 100.494 165.685 100.261C167.209 99.6893 169.093 100.324 169.961 101.702C170.828 103.079 170.585 105.053 169.41 106.18C169.172 106.407 168.905 106.601 168.638 106.794C168.342 107.008 168.047 107.222 167.792 107.481C167.031 108.258 166.721 109.342 166.418 110.397L166.418 110.4C166.383 110.52 166.349 110.64 166.314 110.76C164.513 116.898 159.816 122.516 153.558 123.848C158.431 123.692 163.24 121.953 167.084 118.955ZM161.405 96.8258C162.999 96.6497 164.655 96.4894 166.172 97.0097C167.56 97.4856 168.696 98.4852 169.792 99.4611L171.377 100.873C169.013 97.1062 164.644 94.6831 160.196 94.6719C158.057 94.6666 155.945 95.18 153.93 95.8965C153.289 96.1244 152.656 96.373 152.022 96.6216C151.806 96.7064 151.59 96.7911 151.374 96.8751C149.021 97.7886 146.582 98.6146 144.058 98.6762C141.534 98.7378 138.883 97.9344 137.215 96.0393C137.141 95.9556 137.068 95.8693 136.995 95.7826C136.64 95.3605 136.278 94.9299 135.763 94.759C137.24 96.6624 138.747 98.5957 140.719 99.9795C142.691 101.363 145.234 102.14 147.546 101.462C148.593 101.155 149.523 100.577 150.455 99.9985C150.879 99.7351 151.304 99.4716 151.739 99.2334C154.673 97.6302 158.082 97.1927 161.405 96.8258ZM125.698 141.001C125.791 141.398 126.233 141.795 126.567 141.563C128.316 140.346 130.071 139.126 131.965 138.152C132.168 138.047 132.374 137.944 132.581 137.842C133.611 137.33 134.649 136.813 135.441 135.989C134.289 136.55 132.928 136.464 131.673 136.205C131.273 136.122 130.875 136.023 130.477 135.924C129.628 135.712 128.78 135.5 127.909 135.449C126.814 135.385 125.704 135.581 124.697 136.018C124.091 136.28 123.496 136.656 123.185 137.239C122.875 137.821 122.948 138.646 123.491 139.023C123.743 139.198 124.062 139.262 124.375 139.325C124.788 139.408 125.193 139.49 125.425 139.821C125.58 140.042 125.608 140.313 125.637 140.587V140.587L125.637 140.587C125.651 140.727 125.666 140.867 125.698 141.001ZM152.032 122.254C151.54 121.958 151.142 121.533 150.751 121.113L148.832 119.054L149.056 122.46C149.078 122.79 149.098 123.129 148.993 123.442C148.888 123.755 148.626 124.039 148.297 124.065C148.124 124.079 148.12 124.368 148.269 124.457C148.418 124.547 148.608 124.497 148.774 124.446L153.3 123.035C153.581 122.947 153.871 122.855 154.09 122.659C153.385 122.768 152.643 122.622 152.032 122.254ZM161.614 102.585C160.117 102.486 158.626 102.792 157.157 103.097C156.773 103.177 156.386 103.257 156.025 103.412C155.184 103.774 154.566 104.501 153.98 105.205C153.893 105.309 153.801 105.43 153.815 105.565C153.839 105.795 154.163 105.876 154.365 105.764C154.533 105.672 154.639 105.504 154.743 105.34C154.765 105.306 154.786 105.273 154.808 105.24C155.578 104.076 157.095 103.719 158.466 103.456C159.627 103.232 160.822 103.009 161.983 103.236C162.185 103.276 162.3 102.962 162.175 102.797C162.05 102.633 161.82 102.599 161.614 102.585Z" fill="#018A08"/>
<defs>
<linearGradient id="paint0_linear_5661_300671" x1="162.978" y1="144.806" x2="169.21" y2="150.208" gradientUnits="userSpaceOnUse">
<stop stop-color="#EF6795"/>
<stop offset="0.32" stop-color="#ED2A65"/>
<stop offset="0.7" stop-color="#AC1D40"/>
<stop offset="1" stop-color="#83161E"/>
</linearGradient>
<linearGradient id="paint1_linear_5661_300671" x1="162.364" y1="109.577" x2="163.9" y2="110.846" gradientUnits="userSpaceOnUse">
<stop stop-color="#EF6795"/>
<stop offset="0.32" stop-color="#ED2A65"/>
<stop offset="0.7" stop-color="#AC1D40"/>
<stop offset="1" stop-color="#83161E"/>
</linearGradient>
<linearGradient id="paint2_linear_5661_300671" x1="127.811" y1="147.313" x2="133.317" y2="151.201" gradientUnits="userSpaceOnUse">
<stop stop-color="#EF6795"/>
<stop offset="0.32" stop-color="#ED2A65"/>
<stop offset="0.7" stop-color="#AC1D40"/>
<stop offset="1" stop-color="#83161E"/>
</linearGradient>
<linearGradient id="paint3_linear_5661_300671" x1="149.845" y1="115.67" x2="152.041" y2="117.484" gradientUnits="userSpaceOnUse">
<stop stop-color="#EF6795"/>
<stop offset="0.32" stop-color="#ED2A65"/>
<stop offset="0.7" stop-color="#AC1D40"/>
<stop offset="1" stop-color="#83161E"/>
</linearGradient>
</defs>
</svg>
