<svg width="240" height="240" viewBox="0 0 240 240" fill="none" xmlns="http://www.w3.org/2000/svg">
<path fill-rule="evenodd" clip-rule="evenodd" d="M48.0243 116.652C48.0243 116.652 40.9109 110.575 50.8905 89.5946C60.8701 68.6139 81.0806 73.2126 93.999 64.9601C113.087 52.7667 105.263 43.2244 129.064 41.6863C159.03 39.7497 160.728 71.0455 175.72 71.0455C176.706 71.0455 200.053 61.6645 203.47 87.3454C205.191 100.278 175.72 120.001 175.72 120.001C175.72 120.001 163.455 131.119 162.781 136.608C159.956 159.633 165.847 186.003 99.8305 198.143C91.2925 199.713 77.1154 194.034 69.2939 183.543C63.1663 175.324 38.586 181.155 36.2915 154.134C35.135 140.515 48.0243 116.652 48.0243 116.652Z" fill="#F9FAFB"/>
<path d="M92.0594 98.397C92.282 98.2657 92.569 98.3397 92.7004 98.5623L93.2302 99.4562C95.3343 102.986 96.1759 104.133 97.0703 104.651C97.8055 105.077 98.5656 104.945 99.957 104.129L100.143 104.017C101.018 103.472 105.022 100.721 106.571 99.7331C106.789 99.5941 107.078 99.658 107.217 99.8759C107.356 100.094 107.292 100.383 107.074 100.522L106.836 100.676C105.111 101.794 101.235 104.456 100.549 104.866C98.864 105.873 97.7718 106.1 96.6774 105.504L96.601 105.461C95.4252 104.78 94.5106 103.473 91.8941 99.038C91.7628 98.8154 91.8367 98.5284 92.0594 98.397Z" fill="white"/>
<path d="M99.6394 103.807C99.8956 103.773 100.131 103.953 100.165 104.209C100.325 105.4 100.707 106.594 101.313 107.792C101.43 108.023 101.337 108.305 101.106 108.421C100.876 108.538 100.594 108.445 100.478 108.215C99.8252 106.925 99.4113 105.631 99.2376 104.333C99.2033 104.077 99.3832 103.842 99.6394 103.807Z" fill="white"/>
<path fill-rule="evenodd" clip-rule="evenodd" d="M154.169 132.396C154.093 132.587 153.928 132.851 153.735 133.102L153.901 133.274L154.093 133.478L154.136 133.519C154.154 133.536 154.169 133.546 154.18 133.548C154.242 133.557 154.285 133.615 154.276 133.677C154.268 133.738 154.211 133.782 154.149 133.773C154.092 133.772 153.888 133.692 153.645 133.495C153.6 133.459 153.557 133.418 153.512 133.372C153.371 133.529 153.23 133.664 153.107 133.747C152.927 133.872 152.771 133.881 152.696 133.831C152.623 133.782 152.552 133.617 152.672 133.284C152.69 133.224 152.755 133.192 152.814 133.211C152.874 133.23 152.906 133.293 152.888 133.353C152.869 133.415 152.867 133.472 152.867 133.517L152.936 133.47C152.96 133.452 152.986 133.432 153.008 133.409C153.092 133.327 153.185 133.227 153.279 133.119C153.131 132.946 152.979 132.743 152.857 132.509C152.797 132.395 152.749 132.274 152.704 132.147C152.673 132.076 152.705 131.992 152.777 131.961C152.848 131.929 152.931 131.962 152.963 132.033C153.099 132.319 153.273 132.565 153.445 132.776L153.503 132.845C153.659 132.64 153.794 132.432 153.855 132.274C153.889 132.188 153.986 132.145 154.073 132.178C154.16 132.213 154.203 132.31 154.169 132.396Z" fill="white"/>
<path fill-rule="evenodd" clip-rule="evenodd" d="M84.5237 73.3473L84.2384 73.2956C82.6452 72.9994 81.4237 72.6358 79.1418 71.8447C78.8802 71.754 78.7416 71.4683 78.8323 71.2066C78.923 70.9449 79.2087 70.8063 79.4704 70.897L80.0391 71.0928C82.0408 71.7759 83.1639 72.0891 84.6978 72.3595C89.8592 73.2696 93.7238 70.6197 94.04 65.566C94.0573 65.2896 94.2954 65.0795 94.5718 65.0968C94.8482 65.1141 95.0583 65.3522 95.041 65.6286C94.6854 71.3123 90.2461 74.3563 84.5237 73.3473Z" fill="#018A08"/>
<path fill-rule="evenodd" clip-rule="evenodd" d="M97.42 78.7594L97.708 79.3994L98.3645 79.5878C98.4 79.598 98.4205 79.635 98.4103 79.6705C98.4071 79.6815 98.4013 79.6914 98.3932 79.6995L97.8944 80.196L97.9224 80.9106C97.9238 80.9475 97.895 80.9786 97.8581 80.98C97.8457 80.9805 97.8333 80.9775 97.8224 80.9713L97.2578 80.6497C97.2401 80.6397 97.2189 80.6382 97.2 80.6457L96.5961 80.8855C96.5618 80.8992 96.5229 80.8824 96.5093 80.8481C96.5046 80.8365 96.5034 80.8238 96.5056 80.8115L96.6327 80.1078L96.2079 79.5466C96.1856 79.5172 96.1914 79.4753 96.2208 79.453C96.2299 79.4461 96.2406 79.4417 96.2519 79.4401L96.9282 79.3448L97.3024 78.7512C97.3221 78.7199 97.3634 78.7106 97.3947 78.7303C97.4058 78.7373 97.4146 78.7474 97.42 78.7594Z" fill="#018A08"/>
<path d="M163.388 62.6746C163.646 62.6562 163.87 62.8503 163.889 63.1081C163.907 63.366 163.713 63.5899 163.455 63.6083C161.608 63.7401 160.157 64.4558 159.513 66.2264C159.474 66.3329 159.442 66.4358 159.416 66.5336L159.399 66.6007L159.427 66.5418C160.238 64.8851 161.803 63.734 163.617 63.4418L163.735 63.424C163.991 63.3883 164.228 63.5669 164.263 63.8229C164.299 64.0789 164.121 64.3154 163.865 64.3511C162.18 64.5863 160.739 65.7059 160.11 67.3119L160.069 67.4196C159.771 68.2404 159.054 68.634 158.592 67.9316C158.311 67.5031 158.329 66.7422 158.633 65.9062C159.405 63.7855 161.176 62.8324 163.388 62.6746Z" fill="white"/>
<path d="M161.256 59.1875C161.514 59.1691 161.738 59.3633 161.756 59.6211C161.775 59.879 161.58 60.1029 161.323 60.1213C158.385 60.3309 155.808 62.239 154.783 65.0554C154.479 65.8902 154.423 66.604 154.532 66.9655L154.545 67.0059L154.566 66.976C154.618 66.8968 154.677 66.7829 154.734 66.6353L154.759 66.5699C155.842 63.595 158.467 61.5116 161.546 61.0818C161.802 61.0461 162.039 61.2247 162.075 61.4807C162.11 61.7367 161.932 61.9732 161.676 62.009C158.982 62.385 156.68 64.1826 155.688 66.7585L155.639 66.8901C155.237 67.9933 154.369 68.4699 153.814 67.6251C153.433 67.0463 153.46 65.9535 153.904 64.7352C155.056 61.5687 157.953 59.4232 161.256 59.1875Z" fill="white"/>
<path d="M158.383 54.5381C158.641 54.5197 158.865 54.7138 158.884 54.9717C158.902 55.2295 158.708 55.4535 158.45 55.4719C154.26 55.7708 150.585 58.4923 149.123 62.5093C148.625 63.8764 148.584 65.0351 148.856 65.5167L148.88 65.5574C148.921 65.6187 148.907 65.6204 148.917 65.612L148.924 65.6079C149.061 65.5323 149.243 65.2749 149.409 64.8479L149.442 64.7602C150.935 60.6573 154.556 57.7841 158.803 57.1913C159.059 57.1556 159.295 57.3342 159.331 57.5902C159.367 57.8462 159.188 58.0827 158.932 58.1185C155.076 58.6567 151.782 61.238 150.376 64.9339L150.322 65.0804C149.802 66.5077 148.76 67.0796 148.098 66.0715C147.604 65.3199 147.64 63.8463 148.243 62.1891C149.833 57.822 153.828 54.8631 158.383 54.5381Z" fill="white"/>
<path d="M153.254 50.1686C153.508 50.1189 153.754 50.2842 153.804 50.5379C153.853 50.7916 153.688 51.0375 153.434 51.0872C149.641 51.8302 146.59 54.7277 145.705 58.5604C145.406 59.8575 145.496 60.9122 145.79 61.3146L145.829 61.365L145.832 61.3721L145.837 61.3678C145.943 61.2728 146.066 61.0303 146.161 60.6542L146.181 60.5715C147.091 56.6297 150.096 53.5785 153.935 52.5539C154.185 52.4872 154.441 52.6356 154.508 52.8854C154.575 53.1351 154.426 53.3916 154.176 53.4583C150.718 54.3815 148.001 57.1042 147.129 60.6326L147.093 60.7821C146.772 62.1723 145.851 62.836 145.104 61.956C144.558 61.3123 144.424 59.9465 144.793 58.3498C145.762 54.1541 149.102 50.9818 153.254 50.1686Z" fill="white"/>
<path d="M101.368 107.895L101.638 107.797C104.192 106.881 106.347 106.476 106.894 107.033C107.374 107.522 107.802 108.406 108.207 109.703C108.285 109.95 108.147 110.212 107.9 110.29C107.654 110.367 107.391 110.229 107.314 109.983C106.963 108.861 106.605 108.106 106.267 107.732L106.253 107.718L106.241 107.718C106.177 107.705 106.081 107.699 105.959 107.701C105.689 107.706 105.32 107.754 104.88 107.841C103.974 108.021 102.829 108.354 101.692 108.774C99.7911 109.475 98.2075 110.299 97.3326 111.043C97.0115 111.316 96.425 110.555 96.9893 110.119C98.0047 109.335 99.5447 108.568 101.368 107.895Z" fill="white"/>
<path d="M100.084 99.0531C100.084 100.614 101.735 102.305 102.086 102.401C102.335 102.469 98.0398 105.268 98.0398 105.268C96.4876 105.472 95.5762 104.16 95.5762 102.206C95.5762 101.947 100.084 98.7946 100.084 99.0531Z" fill="white"/>
<path fill-rule="evenodd" clip-rule="evenodd" d="M95.0183 99.8736C95.5621 99.7679 95.9315 99.3149 95.8434 98.8617C95.7553 98.4086 95.2431 98.127 94.6994 98.2327C94.1556 98.3384 93.7862 98.7914 93.8743 99.2445C93.9624 99.6976 94.4746 99.9793 95.0183 99.8736Z" fill="url(#paint0_linear_5661_300109)"/>
<path d="M150.422 47.5729C150.677 47.5286 150.919 47.6991 150.964 47.9537C151.008 48.2084 150.838 48.4508 150.583 48.4952C149.372 48.7061 148.15 49.4393 146.891 50.6054C145.256 52.1196 144.176 54.2119 143.58 57.0015C143.1 59.2491 143.543 62.0575 144.797 64.5263C146.224 67.3352 148.748 68.0294 151.691 68.5669C154.713 69.1188 155.548 68.778 158.403 67.763L158.665 67.6676C159.056 67.5197 160.88 66.806 161.318 66.6733C162.241 66.3942 162.871 66.4175 163.328 66.9041C163.505 67.0926 163.495 67.3888 163.307 67.5657C163.13 67.7315 162.859 67.7336 162.68 67.5779L162.645 67.5447C162.51 67.4011 162.232 67.3845 161.671 67.5452L161.589 67.5694C161.168 67.697 159.189 68.4734 158.933 68.5669C155.849 69.6925 154.804 70.087 151.523 69.4878C148.272 68.8941 145.514 68.0052 143.963 64.9503C142.614 62.2954 142.139 59.2694 142.665 56.8061C143.3 53.8287 144.477 51.5645 146.255 49.9185C147.646 48.63 149.033 47.815 150.422 47.5729Z" fill="white"/>
<path d="M172.442 84.8167C169.774 84.6803 167.673 86.7411 167.651 89.5075C167.632 91.8383 168.945 93.7576 170.748 94.1294C171.478 94.2798 172.878 94.099 173.916 93.5165C175.493 92.6708 176.699 90.932 176.851 89.4506C177.099 87.0369 175.145 84.9549 172.442 84.8167Z" fill="white"/>
<path d="M124.09 84.3293C124.943 86.0507 126.266 90.0267 125.694 90.0076C124.104 89.9545 121.976 87.5107 120.488 84.2065L120.371 83.9408C119.072 80.9408 118.294 79.0561 119.197 78.6951C120.132 78.3217 122.331 80.7764 124.09 84.3293Z" fill="white"/>
<path fill-rule="evenodd" clip-rule="evenodd" d="M119.197 78.6577C120.132 78.2842 122.364 80.6269 124.123 84.1797C124.975 85.9011 125.553 87.5524 125.704 88.7366C125.704 88.7366 122.826 82.6716 121.07 80.4502C120.396 79.5969 119.197 78.6577 119.197 78.6577Z" fill="#F9FAFB"/>
<path d="M118.707 93.9318C118.775 93.6826 119.033 93.5361 119.282 93.6046C119.531 93.6732 119.678 93.9308 119.609 94.1801C119.521 94.5007 118.281 95.3417 115.576 97.0092L113.869 98.0542C110.498 100.106 108.248 101.419 107.967 101.419C106.106 101.419 104.429 99.6636 103.205 96.8933C102.136 94.4744 101.58 91.5951 101.831 89.7082C101.909 89.1193 103.871 87.5948 106.901 85.5523L107.335 85.2615C110.015 83.476 112.306 82.1518 113.135 81.9846C113.388 81.9334 113.635 82.0974 113.686 82.3508C113.718 82.5093 106.331 88.7366 105.609 92.8697C105.12 95.6682 106.968 100.438 107.884 100.481L107.967 100.483C107.893 100.483 107.917 100.466 107.925 100.461L108.01 100.417C108.072 100.385 108.146 100.345 108.231 100.298L108.62 100.08C108.769 99.996 108.935 99.9009 109.117 99.796L109.581 99.5262C110.468 99.0084 111.575 98.3492 112.704 97.6662L113.777 97.0136C115.082 96.216 116.262 95.4806 117.148 94.9095L117.605 94.6128C117.888 94.4273 118.127 94.2668 118.318 94.1337L118.387 94.0851C118.492 94.0108 118.58 93.9469 118.648 93.8945C118.648 93.8945 118.725 93.864 118.707 93.9318Z" fill="white"/>
<path fill-rule="evenodd" clip-rule="evenodd" d="M119.634 84.591C118.503 82.0796 118.004 79.7782 118.383 78.3847C117.698 78.6021 116.843 78.993 115.993 79.4802C114.864 80.1279 113.969 80.8518 113.948 81.0089C113.729 82.6516 114.567 85.8473 115.959 88.6963C117.447 91.7438 119.218 93.7012 120.589 93.7012C120.721 93.7012 121.096 93.6238 121.473 93.4922C122.008 93.3051 122.51 93.0325 122.921 92.6754C123.125 92.4979 123.337 92.2972 123.558 92.0732L123.824 91.7981C123.981 91.632 124.143 91.4532 124.396 91.17L124.748 90.7766L124.764 90.76C123 90.1155 121.155 87.8438 119.775 84.8979L119.634 84.591ZM113.02 80.8856C113.165 79.7898 117.268 77.4211 119.14 77.2681C119.218 77.2189 119.302 77.1764 119.392 77.1406C121.013 76.4927 123.484 79.2681 125.466 83.1732L125.601 83.4443C126.496 85.2509 127.106 86.9942 127.273 88.2981C127.471 89.8564 127.02 90.8895 125.837 90.9424C125.805 91.0651 125.725 91.1678 125.619 91.2297L125.601 91.239L125.554 91.2852C125.508 91.3328 125.454 91.3919 125.369 91.4857L124.788 92.1349C124.577 92.3674 124.427 92.5252 124.224 92.7306C123.988 92.9707 123.759 93.1876 123.535 93.3821C122.629 94.1693 121.289 94.6373 120.589 94.6373C120.218 94.6373 119.843 94.551 119.467 94.3862C119.065 94.8053 117.828 95.6207 115.576 97.0092L113.869 98.0542C110.498 100.106 108.248 101.419 107.967 101.419C107.33 101.419 106.714 101.213 106.131 100.831C106.125 100.835 106.12 100.839 106.114 100.842L105.876 100.996C105.047 101.533 103.721 102.427 102.492 103.256L102.491 103.257L102.491 103.257L102.414 103.309C102.573 104.445 102.935 105.585 103.501 106.729C105.511 106.107 107.104 105.897 107.563 106.365C108.043 106.853 108.471 107.737 108.876 109.035C108.954 109.281 108.816 109.544 108.569 109.621C108.323 109.698 108.06 109.561 107.983 109.314C107.632 108.192 107.274 107.437 106.936 107.064L106.922 107.049L106.91 107.05C106.846 107.037 106.75 107.03 106.628 107.032C106.358 107.038 105.989 107.085 105.549 107.172C104.643 107.352 103.498 107.686 102.361 108.105C99.7622 109.064 97.7564 110.252 97.3441 111.152C97.2235 111.415 97.2389 111.801 97.3832 112.392L97.41 112.498C97.4316 112.582 97.4542 112.664 97.4838 112.769L97.6529 113.368C97.6598 113.394 97.6668 113.421 97.6756 113.454C97.7405 113.704 97.5903 113.96 97.3401 114.025C97.0899 114.09 96.8344 113.94 96.7695 113.689L96.6864 113.387L96.5479 112.898C96.5321 112.84 96.5178 112.787 96.5038 112.733C96.2845 111.887 96.2492 111.295 96.493 110.762C96.9063 109.86 98.1991 108.925 99.9993 108.075L99.6077 107.063L99.511 106.808C99.3628 106.409 99.1902 105.868 99.0844 105.473C97.6781 106.231 96.6986 106.358 95.7173 105.824L95.6409 105.781C95.4468 105.668 95.2599 105.539 95.0712 105.381L89.5855 108.713C89.6364 108.823 89.6879 108.934 89.74 109.045C89.9861 109.573 89.552 109.947 88.8861 110.238L88.8143 110.268C88.242 110.505 87.7255 110.56 87.4181 110.222C86.1424 108.822 84.792 105.473 85.5185 104.707C85.658 104.56 86.0263 104.341 86.7227 103.975L86.7781 103.947C86.7924 103.937 86.8073 103.928 86.8229 103.919L91.9508 101.141C91.9626 101.135 91.9745 101.129 91.9865 101.123C91.6698 100.6 91.3227 100.017 90.9389 99.3663C90.8814 99.2735 90.8595 99.1653 90.8728 99.0609C90.8817 98.9906 90.9066 98.9221 90.9472 98.8611C90.9681 98.8296 90.993 98.8004 91.0216 98.7743C92.0759 97.7744 93.5125 96.7319 95.3146 95.6093L95.533 95.4739C96.313 94.9931 97.8948 94.0909 99.2387 93.3244C100.281 92.7299 101.18 92.2171 101.451 92.0458L101.517 92.0023C101.614 91.9307 101.731 91.9026 101.843 91.9147C101.754 91.1028 101.746 90.3484 101.831 89.7082C101.909 89.1193 103.871 87.5948 106.901 85.5523L107.335 85.2615C109.874 83.5699 112.064 82.2923 112.992 82.0204C112.967 81.6013 112.975 81.2195 113.02 80.8856ZM113.095 82.9696C112.185 83.302 109.909 84.6536 107.424 86.3285L107.026 86.5984C105.908 87.3612 104.875 88.105 104.095 88.7112L103.879 88.8813C103.53 89.1571 103.249 89.3949 103.044 89.5855C102.942 89.6812 102.861 89.763 102.804 89.8281L102.764 89.875C102.756 89.8841 102.753 89.8806 102.757 89.8512L102.759 89.8315C102.758 89.839 102.757 89.8456 102.757 89.8512L102.744 89.9516C102.294 93.9017 105.15 100.353 107.884 100.481L107.949 100.483C107.954 100.483 107.96 100.483 107.967 100.483L107.949 100.483C107.897 100.48 107.917 100.465 107.925 100.461L108.01 100.417C108.072 100.385 108.146 100.345 108.231 100.298L108.62 100.08C108.769 99.996 108.935 99.9009 109.117 99.796L109.581 99.5262C110.468 99.0084 111.575 98.3491 112.703 97.6662L113.777 97.0135C115.082 96.216 116.262 95.4806 117.148 94.9095L117.605 94.6128C117.888 94.4273 118.127 94.2668 118.318 94.1337L118.387 94.0851C118.488 94.0138 118.573 93.952 118.64 93.9008C117.434 93.016 116.247 91.3821 115.193 89.2611L115.117 89.1072C114.102 87.0279 113.367 84.7762 113.095 82.9696ZM101.972 92.8222C101.634 93.0347 100.638 93.6036 99.5294 94.2366L99.5293 94.2366C98.2158 94.9867 96.7446 95.8267 96.0243 96.2708C94.3232 97.3196 92.9513 98.2918 91.9328 99.2072L92.2701 99.7762C93.7462 102.253 94.601 103.556 95.2886 104.292C95.0601 103.751 94.9418 103.063 94.9418 102.201C94.9418 102.161 94.9468 102.122 94.9561 102.086C94.9106 101.906 94.9746 101.709 95.1328 101.593L95.4516 101.356C95.6428 101.212 95.9575 100.971 96.3151 100.698L96.3154 100.698C97.0982 100.1 98.0872 99.3438 98.4401 99.091C99.5501 98.2959 100.368 97.8497 101.113 97.6949C101.469 97.6209 101.746 97.8314 101.826 98.1575L101.839 98.2168C101.857 98.3138 101.861 98.4092 101.86 98.6177L101.86 98.6837C101.856 99.4626 101.934 99.9121 102.263 100.431C102.489 100.787 102.821 101.111 103.283 101.401C103.331 101.431 103.372 101.469 103.405 101.512C104.151 101.011 104.849 100.546 105.364 100.212C104.552 99.4259 103.821 98.2882 103.205 96.8933C102.63 95.594 102.204 94.1619 101.972 92.8222ZM126.344 88.4165C126.193 87.2324 125.615 85.581 124.762 83.8596C123.003 80.3068 120.674 77.6365 119.739 78.0099C118.836 78.3709 119.071 80.9408 120.371 83.9408L120.488 84.2066C121.976 87.5107 124.103 89.9545 125.694 90.0076C126.266 90.0267 126.49 89.5592 126.344 88.4165ZM92.4702 101.915C93.2822 103.228 93.8754 104.095 94.3923 104.698L89.1917 107.857C88.659 106.689 88.1825 105.602 87.7201 104.498L92.3968 101.964C92.4232 101.95 92.4477 101.933 92.4702 101.915ZM102.603 107.024C102.099 105.98 101.75 104.934 101.558 103.885C100.886 104.337 100.302 104.728 99.9258 104.973C99.9901 105.296 100.229 106.062 100.436 106.607L100.82 107.596L100.856 107.692C101.234 107.533 101.628 107.378 102.037 107.227L102.307 107.128C102.407 107.093 102.505 107.058 102.603 107.024ZM102.586 102.063C102.107 101.73 101.74 101.352 101.473 100.933C101.042 100.255 100.929 99.6755 100.924 98.8003L100.924 98.7219L100.858 98.7467C100.383 98.931 99.8168 99.2642 99.1052 99.7667L98.9852 99.852C98.6464 100.095 97.6823 100.831 96.9046 101.426L96.9045 101.426L96.9038 101.426C96.4716 101.757 96.0972 102.043 95.9197 102.176L95.8779 102.207C95.8789 103.764 96.2675 104.478 96.9904 104.825L97.0483 104.852C97.2206 104.928 97.3435 104.966 97.6948 105.062L97.7066 105.066L97.7156 105.068C98.0801 104.946 98.4979 104.741 98.9969 104.449L99.1828 104.337C99.5949 104.08 100.701 103.334 101.917 102.514L101.918 102.514L101.918 102.514L102.586 102.063ZM86.8928 104.945L86.9645 105.116C87.4617 106.295 87.9782 107.462 88.5645 108.735L88.7925 109.229C88.7178 109.279 88.6195 109.333 88.5114 109.38C88.3563 109.448 88.1987 109.495 88.0803 109.511L88.0426 109.515L87.9856 109.447C87.5425 108.901 87.0282 107.974 86.6566 107.053C86.4587 106.562 86.3177 106.112 86.2542 105.766C86.2283 105.625 86.2163 105.506 86.2173 105.416L86.2201 105.357C86.221 105.343 86.221 105.335 86.2175 105.334L86.2315 105.325C86.3106 105.27 86.5128 105.152 86.813 104.989L86.8928 104.945ZM93.3494 103.914C93.1684 103.73 92.8721 103.727 92.6875 103.908C92.3629 104.226 91.908 104.523 91.1136 104.964L90.305 105.413C90.0914 105.534 89.9165 105.639 89.7581 105.742C89.6258 105.828 89.5075 105.911 89.4012 105.993C89.1966 106.151 89.1589 106.445 89.317 106.649C89.4751 106.854 89.769 106.892 89.9736 106.734C90.058 106.668 90.1556 106.6 90.2676 106.527C90.371 106.46 90.4846 106.391 90.6161 106.314L90.8739 106.166L91.6952 105.711C92.4843 105.268 92.9597 104.952 93.3431 104.576C93.5276 104.395 93.5305 104.099 93.3494 103.914Z" fill="#018A08"/>
<path d="M82.8799 151.446C85.2205 164.496 93.9932 174.307 105.188 176.62C107.243 177.044 110.801 177.1 114.485 176.623C119.232 176.009 123.853 174.6 127.916 172.315C139.078 166.316 147.547 154.073 148.645 143.356C149.609 133.942 146.013 125.244 139.502 119.04C139.502 119.04 119.049 129.086 109.009 134.796C100.272 139.765 82.8799 151.446 82.8799 151.446Z" fill="white"/>
<path d="M130.511 112.531C126.316 110.461 121.06 108.826 115.906 108.562C97.0026 107.596 82.1355 122.697 81.9805 142.174C81.9805 142.174 103.078 128.736 114.039 122.252C119.492 119.026 130.511 112.531 130.511 112.531Z" fill="white"/>
<path fill-rule="evenodd" clip-rule="evenodd" d="M169.393 102.604C169.33 105.858 165.886 111.275 160.351 117.404C156.341 121.844 151.675 126.136 147.762 129.028L147.519 129.206L147.68 129.925C148.632 134.095 149.874 138.627 149.405 143.198C148.266 154.293 139.588 166.81 128.12 172.96C123.937 175.306 119.183 176.753 114.306 177.383L113.842 177.441C110.205 177.869 106.726 177.798 104.599 177.359C96.3455 175.658 89.3577 169.888 85.133 161.538C85.1188 161.51 85.1077 161.481 85.0995 161.452C84.5433 161.769 83.795 162.124 83.4533 162.24L82.517 162.556C72.4266 165.95 62.4232 168.789 58.3367 167.017C56.781 166.342 56.2492 165.045 56.8998 163.302C57.5321 161.608 59.2852 159.425 62.2265 156.708L62.3881 156.56C65.1752 154.005 71.3646 149.336 80.9562 142.554L80.9586 142.43C81.4266 122.333 97.0369 107.013 116.659 108.263C122.66 108.646 127.44 110.779 129.827 112.088L130.877 111.525C140.723 106.26 148.624 102.559 154.652 100.344C164.565 96.7012 169.467 98.4044 169.393 102.604ZM154.975 102.503C143.89 106.576 126.372 115.737 101.981 130.474L101.24 130.922C82.2471 142.419 69.6707 151.154 63.0207 157.25L62.6929 157.552L62.3822 157.844C57.3902 162.56 56.5054 165.203 58.7091 166.158C62.4816 167.794 72.6124 165.036 82.5336 161.782L83.4533 161.479C84.3381 161.186 84.9248 161.017 85.288 160.94C85.3038 160.928 85.3211 160.918 85.3393 160.909C85.4634 160.846 85.6023 160.844 85.7223 160.891C85.7483 160.896 85.7652 160.904 85.7741 160.915C85.8549 160.959 85.9237 161.027 85.9683 161.115C90.0695 169.221 96.8276 174.161 104.788 175.802C106.855 176.229 110.341 176.291 113.969 175.842L114.187 175.815C118.951 175.199 123.591 174.427 127.67 172.139C138.876 166.129 147.367 153.883 148.473 143.103C148.946 138.496 148.343 133.973 146.738 129.764C146.606 129.857 146.474 129.948 146.344 130.037C146.098 130.205 146.19 129.933 146.62 129.221C146.643 129.128 146.694 129.043 146.768 128.98L146.9 128.77C146.947 128.697 146.995 128.62 147.046 128.541L147.601 128.073C152.83 123.651 156.848 119.885 159.656 116.776L159.976 116.42C165.171 110.606 168.401 105.471 168.454 102.587C168.512 99.4224 164.338 99.062 154.975 102.503ZM107.973 161.696C109.229 165.535 107.329 168.004 103.985 168.131C100.895 168.249 98.0808 166.302 98.2243 163.535C98.3482 161.143 99.9857 158.587 102.002 157.648C104.44 156.513 106.728 157.89 107.973 161.696ZM102.496 158.709C100.882 159.46 99.4949 161.626 99.3928 163.595C99.2912 165.556 101.459 167.057 103.94 166.962C106.535 166.863 107.866 165.132 106.861 162.06C105.815 158.862 104.224 157.904 102.496 158.709ZM133.507 153.875C135.11 156.903 134.69 159.877 132.226 161.211L132.157 161.247L132.122 161.283C128.817 164.555 124.69 164.952 121.998 162.58L121.905 162.497C118.805 159.657 119.544 154.777 124.477 150.951C127.653 148.49 131.531 150.14 133.507 153.875ZM125.092 151.744C120.613 155.217 119.983 159.376 122.583 161.758C124.448 163.466 127.203 163.56 129.776 161.902L129.826 161.869L129.807 161.865C129.629 161.818 129.486 161.674 129.446 161.487L129.438 161.439C129.405 161.164 129.602 160.915 129.877 160.882C130.506 160.808 131.052 160.656 131.515 160.438L131.578 160.408L131.655 160.328C131.957 160.01 132.251 159.665 132.537 159.291L132.632 159.165C132.739 159.021 132.909 158.951 133.075 158.965L133.088 158.966L133.095 158.954C133.695 157.766 133.553 156.157 132.673 154.445L132.621 154.344C130.902 151.097 127.69 149.729 125.092 151.744ZM154.919 115.752C154.661 116.668 153.877 117.924 152.674 119.413C150.578 122.007 147.429 125.026 144.676 127.091L145.287 126.42C145.281 126.414 145.276 126.407 145.271 126.399L145.061 126.012C143.683 123.498 142.149 121.018 139.669 118.996C133.249 121.643 125.888 125.261 119.182 129.044L116.984 130.286C100.797 139.456 92.2802 144.945 83.173 151.694C83.5168 153.242 83.9499 154.753 84.4687 156.216C84.5501 156.446 83.4865 157.306 83.2918 157.2C81.475 158.417 78.6301 159.301 77.0104 159.347C75.4319 159.392 74.52 158.753 74.9898 157.479C75.3828 156.413 76.8633 154.893 79.5275 152.856L79.8313 152.625L80.4454 152.163C90.4726 144.657 100.399 138.565 118.722 128.228L119.489 127.798C132.056 120.783 146.609 114.463 153.274 113.88C154.645 113.76 155.266 114.519 154.919 115.752ZM81.9537 152.602L79.8528 154.187C77.9786 155.609 76.6274 156.66 75.8976 157.334L75.844 157.384C74.9532 158.219 75.9615 158.44 76.9839 158.411C78.5325 158.367 80.9049 157.193 82.9129 156.124C82.5418 154.975 82.2216 153.799 81.9537 152.602ZM114.816 147.52C115.066 147.584 115.218 147.838 115.154 148.089C115.09 148.339 114.836 148.491 114.585 148.427C113.327 148.108 112.583 148.23 112.342 148.569C112.182 148.794 112.27 149.178 112.57 149.422C112.804 149.614 113.115 149.705 113.329 149.659C113.515 149.618 113.62 149.474 113.62 149.115C113.62 148.856 113.829 148.647 114.088 148.647C114.346 148.647 114.556 148.856 114.556 149.115C114.556 149.897 114.165 150.435 113.528 150.573C113.016 150.685 112.42 150.51 111.977 150.147C111.323 149.612 111.109 148.687 111.579 148.027C112.095 147.302 113.224 147.116 114.816 147.52ZM94.2551 145.802C94.9769 146.018 95.2878 146.572 95.3859 147.404L95.3956 147.494L95.4075 147.631C95.4092 147.653 95.4108 147.677 95.4123 147.702L95.4369 148.177L95.4443 148.284C95.4481 148.331 95.4522 148.37 95.4571 148.404L95.4696 148.475L95.4772 148.507L95.4902 148.518C95.6347 148.66 95.6731 148.882 95.5796 149.065L95.5557 149.106C95.4156 149.324 95.1259 149.386 94.9087 149.246C94.6097 149.053 94.5418 148.855 94.5056 148.285L94.4759 147.728C94.4724 147.678 94.4687 147.634 94.4639 147.585C94.4107 147.04 94.2778 146.786 93.9864 146.698C93.1688 146.453 92.6996 146.704 92.551 147.25C92.4186 147.737 92.6102 148.249 92.9456 148.391L93.0306 148.422C93.2499 148.516 93.366 148.763 93.2921 148.995C93.2136 149.241 92.9503 149.377 92.704 149.299C91.8126 149.014 91.3891 147.955 91.6477 147.004C91.9363 145.943 92.9402 145.408 94.2551 145.802ZM128.024 138.635C129.32 140.457 129.079 142.775 127 143.825C126.769 143.941 126.487 143.848 126.371 143.617C126.255 143.387 126.347 143.105 126.578 142.989C128.084 142.229 128.256 140.575 127.261 139.177C126.295 137.819 124.951 137.67 124.027 139.137C123.047 140.693 123.118 141.606 123.824 142.017C124.384 142.344 125.285 142.275 125.533 142.008L125.557 141.979C125.707 141.768 125.999 141.719 126.21 141.869C126.42 142.019 126.47 142.311 126.32 142.522C125.799 143.253 124.314 143.387 123.352 142.826C122.12 142.108 122.002 140.595 123.235 138.638C124.554 136.543 126.706 136.782 128.024 138.635ZM108.618 135.951C108.861 135.951 109.061 136.136 109.084 136.374L109.086 136.419C109.086 136.501 109.163 136.593 109.437 136.795L109.697 136.981C109.981 137.188 110.117 137.316 110.246 137.52C110.542 137.987 110.709 138.462 110.709 139.02C110.709 140.451 108.56 142.397 106.214 143.262C103.402 144.3 101.098 143.531 100.471 140.645C100.417 140.392 100.577 140.143 100.829 140.088C101.082 140.033 101.331 140.194 101.386 140.446C101.873 142.686 103.553 143.247 105.89 142.384C107.908 141.639 109.773 139.951 109.773 139.02C109.773 138.66 109.663 138.349 109.455 138.02L109.427 137.981C109.379 137.921 109.305 137.856 109.171 137.756L108.862 137.534C108.349 137.155 108.15 136.9 108.15 136.419C108.15 136.16 108.36 135.951 108.618 135.951ZM110.815 110.008L110.52 110.041C94.5477 111.962 82.5658 124.736 81.9123 141.879L83.6261 140.673C88.545 137.22 94.2545 133.276 100.755 128.841L102.021 128.076C105.803 125.794 109.418 123.647 112.87 121.633C112.807 121.523 112.789 121.387 112.832 121.257C113.073 120.52 113.296 120.025 113.705 119.53C114.983 117.978 116.736 117.22 117.977 118.195C118.099 118.29 118.161 118.435 118.156 118.579L119.258 117.95C122.731 115.974 126.016 114.148 129.117 112.471L127.906 112.126C126.11 111.621 123.875 111.021 121.649 110.56C121.67 112.041 120.561 113.224 118.719 114.037C117.153 114.729 115.113 115.101 113.662 115.014C110.948 114.852 109.42 112.472 110.815 110.008ZM138.833 130.334C139.978 133.464 139.033 136.31 136.173 136.291C132.098 136.264 128.119 132.706 128.763 129.519C129.05 128.097 130.118 126.839 131.977 126.211C134.946 125.209 137.667 127.149 138.833 130.334ZM132.277 127.098C130.741 127.617 129.902 128.604 129.68 129.704C129.17 132.234 132.634 135.332 136.179 135.355C138.21 135.368 138.909 133.265 137.954 130.656C136.943 127.896 134.685 126.285 132.277 127.098ZM97.8592 116.018L97.8926 116.066L98.1178 116.424C98.2282 116.606 98.327 116.785 98.4211 116.977C99.4578 119.096 99.431 121.875 97.6766 125.732C96.8819 127.479 94.8573 129.827 93.0892 131.229C90.8316 133.018 89.1461 133.424 87.1342 133.203L86.5372 133.133L86.4644 133.127C86.4245 133.124 86.399 133.123 86.3709 133.124L86.33 133.126C86.2989 133.128 86.2881 133.126 86.2863 133.122L86.2861 133.119L86.2711 133.143C86.1354 133.338 85.8717 133.402 85.6599 133.284C85.434 133.158 85.3528 132.873 85.4784 132.647C85.6467 132.345 85.9278 132.208 86.2857 132.191C86.3805 132.187 86.4807 132.19 86.6001 132.2L86.7397 132.213L87.1258 132.26C88.9584 132.482 90.4164 132.153 92.5078 130.495C94.1685 129.179 96.0987 126.94 96.8245 125.344C98.4663 121.735 98.4902 119.249 97.5802 117.388C97.5196 117.264 97.4564 117.147 97.3879 117.028L97.2899 116.865L97.0936 116.554C96.9563 116.335 97.0225 116.046 97.2415 115.909C97.4468 115.78 97.7135 115.83 97.8592 116.018ZM153.356 114.813C150.364 115.075 145.673 116.553 140.265 118.751L140.423 118.891C141.928 120.241 144.965 123.443 145.915 125.727L146.862 124.677C149.198 122.079 150.893 120.128 151.946 118.824L152.16 118.557C153.167 117.279 153.817 116.211 154.018 115.498L154.046 115.39C154.171 114.876 154.027 114.754 153.356 114.813ZM108.538 116.333C109.703 116.897 110.176 118.15 109.409 119.287C109.265 119.502 108.974 119.558 108.76 119.414C108.545 119.269 108.489 118.978 108.633 118.764C109.055 118.139 108.817 117.508 108.131 117.176C107.408 116.827 106.616 117.028 106.207 117.79C105.831 118.493 105.805 119.445 106.105 120.068C106.369 120.615 106.753 120.72 107.34 120.279C107.546 120.124 107.84 120.165 107.995 120.371C108.151 120.578 108.109 120.871 107.903 121.027C106.835 121.831 105.777 121.542 105.262 120.475C104.831 119.58 104.865 118.313 105.382 117.348C106.041 116.117 107.386 115.776 108.538 116.333ZM114.427 120.125C114.209 120.39 114.053 120.669 113.908 121.028C115.114 120.327 116.3 119.642 117.465 118.974L117.432 118.954L117.399 118.931C116.684 118.37 115.424 118.915 114.427 120.125ZM112.431 109.864L112.022 109.893L111.994 109.928C110.376 111.972 110.999 113.632 113.209 113.868C114.796 114.037 119.009 112.86 119.503 112.447C119.984 112.044 120.593 111.118 120.687 110.369C119.257 110.1 117.858 109.902 116.611 109.838C115.336 109.773 114.079 109.775 112.842 109.84L112.431 109.864Z" fill="#018A08"/>
<path d="M154.691 102.619C164.604 98.9758 164.377 100.057 155.013 103.497C143.929 107.571 102.086 133.094 102.086 133.094C83.0939 144.591 81.6731 142.817 100.082 131.629L101.217 130.94C101.43 130.811 122.389 117.583 137.365 110.506C139.051 109.71 153.562 103.033 154.691 102.619Z" fill="white"/>
<path fill-rule="evenodd" clip-rule="evenodd" d="M171.807 84.4833C168.735 84.3262 166.338 86.7133 166.313 89.8365C166.292 92.4533 167.793 94.6752 169.944 95.1187C170.511 95.2355 172.145 95.2355 173.563 94.4401L173.681 94.3754C175.468 93.3632 176.684 91.4374 176.847 89.8532C177.135 87.0445 174.879 84.6403 171.807 84.4833ZM166.981 89.8418C166.982 89.8217 166.982 89.8016 166.982 89.7815C167.001 89.7753 167.02 89.7673 167.038 89.7575C169.447 88.4601 170.933 87.4715 171.527 86.7576C171.919 86.2863 172.11 85.7546 172.095 85.177C172.499 85.2217 172.885 85.3104 173.246 85.4375C173.244 85.4548 173.243 85.4725 173.244 85.4905C173.273 86.3218 173.051 86.9864 172.58 87.5038C172.039 88.0984 171.383 88.6643 170.637 89.1979C169.84 89.7684 168.984 90.2721 168.128 90.7034C167.928 90.804 167.738 90.8958 167.56 90.9785L167.301 91.0957C167.264 91.1121 167.23 91.1272 167.198 91.1409L167.121 91.1733C167.027 90.7516 166.978 90.3049 166.981 89.8418ZM167.309 91.8196C167.521 92.4067 167.828 92.9271 168.207 93.3509L168.407 93.236C171.55 91.4164 173.501 89.987 174.239 88.9786C174.986 87.9591 175.252 87.1763 175.085 86.6439C175.081 86.6314 175.078 86.6188 175.076 86.6062C174.747 86.2609 174.355 85.964 173.914 85.7298C173.895 86.6134 173.616 87.3598 173.075 87.9539C172.499 88.5862 171.808 89.1823 171.026 89.7416C170.199 90.334 169.314 90.8548 168.429 91.3006C168.17 91.4306 167.927 91.5465 167.704 91.6479L167.443 91.7634L167.309 91.8196ZM169.812 94.3965C169.417 94.2785 169.05 94.0847 168.718 93.8283C171.954 91.957 173.967 90.4825 174.779 89.3737C175.283 88.6859 175.605 88.0673 175.736 87.5153C175.898 87.8192 176.022 88.1433 176.101 88.4818C176.084 88.5162 176.072 88.5542 176.068 88.5947C175.987 89.3763 175.584 90.1521 174.847 90.9248C174.14 91.6663 172.614 92.7362 170.283 94.1194L169.812 94.3965ZM170.942 94.5047C171.66 94.4591 172.538 94.2486 173.247 93.8509C174.566 93.1434 175.626 91.8111 176.026 90.5272C175.832 90.8172 175.601 91.1035 175.331 91.3862C174.605 92.1476 173.146 93.1827 170.942 94.5047ZM167.176 88.9215L167.057 88.9862C167.436 86.7769 169.202 85.1915 171.424 85.1457C171.448 85.5798 171.313 85.9693 171.013 86.3301C170.528 86.9133 169.241 87.7863 167.176 88.9215Z" fill="#018A08"/>
<path fill-rule="evenodd" clip-rule="evenodd" d="M195.943 78.0767C196.006 78.0838 196.049 78.1402 196.042 78.2022C196.042 78.2934 195.983 78.3427 195.904 78.3748C195.833 78.4033 195.719 78.3924 195.653 78.4014C194.929 78.4572 194.36 77.9245 194.11 77.2378C193.869 76.5782 193.933 75.7894 194.37 75.3029C194.42 75.2456 194.507 75.2399 194.565 75.2901C194.622 75.3403 194.948 75.4277 194.897 75.485C194.537 75.9053 194.294 76.1602 194.633 77.1576C194.973 78.1551 195.897 78.0713 195.943 78.0767Z" fill="#F9FAFB"/>
<path fill-rule="evenodd" clip-rule="evenodd" d="M80.6619 85.218C80.4717 85.0873 80.2115 85.1357 80.0809 85.3259C79.9502 85.5162 79.9986 85.7764 80.1888 85.907C80.3979 86.0505 80.5826 86.183 80.7456 86.3061C80.57 86.4458 80.3946 86.6059 80.2124 86.7881L79.8428 87.1635C79.6803 87.3274 79.6815 87.592 79.8454 87.7545C80.0093 87.917 80.2739 87.9158 80.4364 87.7519L80.8798 87.3037C81.0603 87.128 81.2294 86.981 81.3995 86.8588C81.7774 87.2334 81.8925 87.5081 81.8987 87.7812L81.8987 87.8512L81.9008 87.8939C81.9222 88.1047 82.1002 88.2691 82.3166 88.2691C82.5474 88.2691 82.7345 88.082 82.7345 87.8512L82.7344 87.769C82.7266 87.3433 82.5764 86.9384 82.1719 86.4756C82.4391 86.3961 82.7401 86.3515 83.1052 86.3324C83.3357 86.3204 83.5128 86.1238 83.5008 85.8933C83.4887 85.6628 83.2921 85.4857 83.0616 85.4977C82.4278 85.5309 81.9352 85.6365 81.4964 85.8372C81.3132 85.6875 81.1056 85.5303 80.8711 85.3639L80.6619 85.218Z" fill="#018A08"/>
<path fill-rule="evenodd" clip-rule="evenodd" d="M143.282 176.792L143.572 176.793C145.193 176.808 146.459 176.954 148.843 177.337C149.117 177.381 149.303 177.639 149.259 177.912C149.215 178.185 148.958 178.372 148.684 178.328L147.903 178.205C145.93 177.902 144.793 177.795 143.282 177.795C138.041 177.795 134.696 181.076 135.262 186.108C135.293 186.383 135.095 186.631 134.82 186.662C134.544 186.693 134.296 186.495 134.265 186.22C133.628 180.561 137.472 176.792 143.282 176.792ZM147.341 178.817L147.292 178.774C147.245 178.733 147.173 178.739 147.133 178.787C147.091 178.834 147.098 178.906 147.145 178.946L147.195 178.989C147.243 179.03 147.314 179.024 147.355 178.977C147.395 178.929 147.39 178.858 147.341 178.817ZM138.254 179.866C138.074 179.721 137.811 179.75 137.666 179.93C137.082 180.656 136.657 181.364 136.391 182.055C136.133 182.727 136.045 183.856 136.112 185.471L136.128 185.812C136.14 186.042 136.337 186.219 136.568 186.207C136.798 186.195 136.975 185.998 136.963 185.768C136.874 184.081 136.95 182.932 137.172 182.355C137.404 181.75 137.785 181.116 138.318 180.453C138.462 180.273 138.434 180.01 138.254 179.866ZM142.815 178.483C143.019 178.377 143.272 178.457 143.378 178.662C143.484 178.867 143.404 179.119 143.199 179.225C142.35 179.665 141.702 180.402 141.25 181.453C140.765 182.581 140.368 183.587 140.06 184.472C139.984 184.69 139.745 184.805 139.528 184.729C139.31 184.653 139.195 184.415 139.271 184.197C139.586 183.292 139.99 182.268 140.482 181.123C141.007 179.901 141.786 179.016 142.815 178.483ZM145.244 178.461C145.092 178.288 144.828 178.27 144.654 178.422C143.957 179.033 143.421 179.589 143.046 180.093C142.673 180.594 142.237 181.342 141.732 182.344C141.629 182.55 141.711 182.801 141.918 182.905C142.124 183.009 142.375 182.926 142.479 182.72C142.964 181.758 143.378 181.047 143.716 180.592C144.052 180.141 144.549 179.626 145.205 179.051C145.379 178.899 145.396 178.635 145.244 178.461ZM143.718 183.181C143.545 183.333 143.281 183.315 143.129 183.142C142.976 182.968 142.994 182.704 143.168 182.552C143.824 181.977 144.321 181.462 144.656 181.011C144.995 180.556 145.409 179.845 145.894 178.883C145.998 178.677 146.249 178.594 146.455 178.698C146.661 178.802 146.744 179.053 146.64 179.259C146.135 180.261 145.699 181.009 145.327 181.51C144.952 182.014 144.416 182.57 143.718 183.181ZM140.554 178.824C140.364 178.693 140.104 178.74 139.973 178.93C139.038 180.283 138.442 181.294 138.178 181.981C137.913 182.67 137.73 183.599 137.624 184.773C137.604 185.003 137.773 185.206 138.003 185.227C138.233 185.248 138.436 185.078 138.457 184.849C138.557 183.745 138.725 182.887 138.958 182.281C139.176 181.715 139.682 180.843 140.473 179.679L140.661 179.405C140.792 179.215 140.744 178.955 140.554 178.824Z" fill="#018A08"/>
<path fill-rule="evenodd" clip-rule="evenodd" d="M132.62 176.359L132.908 176.999L133.565 177.188C133.6 177.198 133.621 177.235 133.61 177.27C133.607 177.281 133.601 177.291 133.593 177.299L133.095 177.796L133.123 178.511C133.124 178.547 133.095 178.579 133.058 178.58C133.046 178.58 133.034 178.577 133.023 178.571L132.458 178.25C132.44 178.24 132.419 178.238 132.4 178.246L131.796 178.486C131.762 178.499 131.723 178.482 131.709 178.448C131.705 178.436 131.704 178.424 131.706 178.411L131.833 177.708L131.408 177.147C131.386 177.117 131.392 177.075 131.421 177.053C131.43 177.046 131.441 177.042 131.452 177.04L132.128 176.945L132.503 176.351C132.522 176.32 132.564 176.311 132.595 176.33C132.606 176.337 132.615 176.347 132.62 176.359Z" fill="#018A08"/>
<path fill-rule="evenodd" clip-rule="evenodd" d="M155.874 86.764C156.028 86.9004 156.22 87.1463 156.39 87.4126L156.608 87.3156L156.866 87.2052C156.918 87.1815 156.951 87.1629 156.961 87.1479C156.991 87.0925 157.06 87.0715 157.116 87.1008C157.17 87.1301 157.192 87.1988 157.162 87.254C157.142 87.3065 156.997 87.4711 156.728 87.6322C156.679 87.6614 156.625 87.6886 156.568 87.715C156.667 87.9006 156.745 88.0799 156.781 88.2237C156.837 88.4356 156.792 88.5859 156.72 88.6387C156.648 88.6909 156.469 88.7006 156.197 88.4745C156.147 88.4363 156.139 88.365 156.177 88.3155C156.215 88.2661 156.286 88.257 156.336 88.2951C156.388 88.3333 156.44 88.355 156.483 88.3706L156.462 88.2895C156.454 88.2605 156.444 88.2303 156.43 88.2007C156.381 88.094 156.319 87.9721 156.25 87.8469C156.037 87.9274 155.794 88.0003 155.532 88.0354C155.405 88.0526 155.275 88.0559 155.14 88.0548C155.062 88.0599 154.995 88.001 154.99 87.9231C154.984 87.8454 155.044 87.7781 155.121 87.773C155.436 87.7427 155.727 87.6631 155.984 87.5736L156.068 87.5433C155.929 87.326 155.78 87.1286 155.653 87.0171C155.584 86.9559 155.577 86.8494 155.637 86.7796C155.699 86.7096 155.805 86.7026 155.874 86.764Z" fill="#018A08"/>
<path fill-rule="evenodd" clip-rule="evenodd" d="M63.8567 143.341C63.4196 143.37 62.7264 143.481 62.1599 143.706C61.6752 143.899 61.6752 149.131 63.3322 149.548C64.9796 150.097 66.7809 149.37 66.5658 146.57C66.5619 146.511 66.5145 146.352 66.4602 146.17C66.3806 145.902 66.2861 145.585 66.2918 145.461C66.3142 145.021 66.1987 144.651 65.8938 144.418C65.5653 143.722 64.9216 143.273 63.8567 143.341ZM63.6195 148.274C62.8085 147.668 62.837 144.84 63.7625 144.651C64.3385 145.094 64.8642 145.733 65.0416 146.965C64.8431 147.644 64.4242 148.036 64.0578 148.379C64.0186 148.416 63.9801 148.452 63.9424 148.488C63.8378 148.429 63.7301 148.356 63.6195 148.274Z" fill="white"/>
<path fill-rule="evenodd" clip-rule="evenodd" d="M62.6351 146.626C62.5616 146.186 62.6117 145.693 62.8329 145.168C62.9332 144.93 63.1969 144.736 63.5268 144.605C63.9124 144.453 64.3842 144.378 64.6816 144.358C65.4064 144.311 65.8443 144.615 66.0676 145.086C66.2751 145.243 66.3536 145.494 66.3382 145.791C66.3317 145.932 66.5179 146.443 66.5244 146.541C66.67 148.435 65.4439 148.927 64.3229 148.556C63.8971 148.773 63.4863 148.808 63.1771 148.578C62.8998 148.373 62.6869 147.941 62.6381 147.177C62.6251 146.98 62.6241 146.797 62.6351 146.626ZM64.6234 145.379C63.9802 145.505 63.9533 147.362 64.515 147.757C64.5916 147.811 64.6662 147.858 64.7387 147.897C65.0102 147.652 65.2126 147.454 65.3275 147.049C65.4424 146.644 65.0223 145.668 64.6234 145.379Z" fill="url(#paint1_linear_5661_300109)"/>
<path fill-rule="evenodd" clip-rule="evenodd" d="M106.527 192.997C106.337 192.866 106.077 192.914 105.946 193.105C105.815 193.295 105.864 193.555 106.054 193.686C106.263 193.829 106.448 193.962 106.611 194.085C106.435 194.225 106.26 194.385 106.078 194.567L105.708 194.942C105.546 195.106 105.547 195.371 105.711 195.533C105.875 195.696 106.139 195.695 106.302 195.531L106.745 195.082C106.926 194.907 107.095 194.76 107.265 194.637C107.643 195.012 107.758 195.287 107.764 195.56L107.764 195.63L107.766 195.673C107.787 195.883 107.965 196.048 108.182 196.048C108.413 196.048 108.6 195.861 108.6 195.63L108.6 195.548C108.592 195.122 108.442 194.717 108.037 194.254C108.304 194.175 108.605 194.13 108.97 194.111C109.201 194.099 109.378 193.902 109.366 193.672C109.354 193.441 109.157 193.264 108.927 193.276C108.293 193.31 107.8 193.415 107.362 193.616C107.178 193.466 106.971 193.309 106.736 193.143L106.527 192.997Z" fill="#018A08"/>
<path fill-rule="evenodd" clip-rule="evenodd" d="M106.527 192.997C106.337 192.866 106.077 192.914 105.946 193.105C105.815 193.295 105.864 193.555 106.054 193.686C106.263 193.829 106.448 193.962 106.611 194.085C106.435 194.225 106.26 194.385 106.078 194.567L105.708 194.942C105.546 195.106 105.547 195.371 105.711 195.533C105.875 195.696 106.139 195.695 106.302 195.531L106.745 195.082C106.926 194.907 107.095 194.76 107.265 194.637C107.643 195.012 107.758 195.287 107.764 195.56L107.764 195.63L107.766 195.673C107.787 195.883 107.965 196.048 108.182 196.048C108.413 196.048 108.6 195.861 108.6 195.63L108.6 195.548C108.592 195.122 108.442 194.717 108.037 194.254C108.304 194.175 108.605 194.13 108.97 194.111C109.201 194.099 109.378 193.902 109.366 193.672C109.354 193.441 109.157 193.264 108.927 193.276C108.293 193.31 107.8 193.415 107.362 193.616C107.178 193.466 106.971 193.309 106.736 193.143L106.527 192.997Z" fill="#018A08"/>
<path fill-rule="evenodd" clip-rule="evenodd" d="M120.81 181.548L121.098 182.188L121.754 182.376C121.79 182.386 121.81 182.423 121.8 182.459C121.797 182.47 121.791 182.48 121.783 182.488L121.284 182.984L121.312 183.699C121.313 183.736 121.285 183.767 121.248 183.768C121.235 183.769 121.223 183.766 121.212 183.759L120.647 183.438C120.63 183.428 120.609 183.426 120.59 183.434L119.986 183.674C119.951 183.687 119.913 183.671 119.899 183.636C119.894 183.625 119.893 183.612 119.895 183.6L120.022 182.896L119.598 182.335C119.575 182.305 119.581 182.263 119.61 182.241C119.62 182.234 119.63 182.23 119.642 182.228L120.318 182.133L120.692 181.539C120.712 181.508 120.753 181.499 120.784 181.518C120.795 181.525 120.804 181.536 120.81 181.548Z" fill="#018A08"/>
<path fill-rule="evenodd" clip-rule="evenodd" d="M84.5793 177.15L85.0688 177.653L85.7501 177.606C85.787 177.603 85.8189 177.631 85.8215 177.668C85.8223 177.679 85.8201 177.691 85.8153 177.701L85.5164 178.338L85.7871 179C85.8011 179.034 85.7847 179.073 85.7505 179.087C85.739 179.092 85.7263 179.093 85.714 179.091L85.0734 178.982C85.0534 178.979 85.0329 178.985 85.0177 178.998L84.5322 179.43C84.5047 179.455 84.4624 179.452 84.4378 179.425C84.4295 179.415 84.424 179.404 84.4219 179.391L84.3007 178.687L83.7095 178.305C83.6785 178.285 83.6696 178.243 83.6897 178.212C83.6959 178.203 83.7044 178.195 83.7144 178.189L84.3174 177.869L84.466 177.183C84.4738 177.147 84.5094 177.124 84.5455 177.132C84.5584 177.134 84.5701 177.141 84.5793 177.15Z" fill="#018A08"/>
<path fill-rule="evenodd" clip-rule="evenodd" d="M76.9356 131.321L77.2236 131.961L77.8801 132.15C77.9156 132.16 77.9361 132.197 77.9259 132.232C77.9228 132.243 77.9169 132.253 77.9088 132.261L77.41 132.758L77.438 133.472C77.4394 133.509 77.4107 133.54 77.3738 133.542C77.3613 133.542 77.3489 133.539 77.3381 133.533L76.7734 133.212C76.7558 133.202 76.7345 133.2 76.7156 133.208L76.1117 133.447C76.0774 133.461 76.0385 133.444 76.0249 133.41C76.0203 133.398 76.019 133.386 76.0212 133.373L76.1483 132.67L75.7235 132.109C75.7012 132.079 75.707 132.037 75.7365 132.015C75.7455 132.008 75.7562 132.004 75.7675 132.002L76.4438 131.907L76.8181 131.313C76.8378 131.282 76.8791 131.272 76.9103 131.292C76.9214 131.299 76.9302 131.309 76.9356 131.321Z" fill="#018A08"/>
<path fill-rule="evenodd" clip-rule="evenodd" d="M76.8683 131.959L76.9906 132.23L77.2694 132.311C77.2845 132.315 77.2932 132.331 77.2889 132.346C77.2876 132.35 77.2851 132.355 77.2816 132.358L77.0698 132.569L77.0817 132.872C77.0823 132.888 77.0701 132.901 77.0544 132.902C77.0491 132.902 77.0438 132.901 77.0392 132.898L76.7994 132.762C76.7919 132.757 76.7828 132.757 76.7748 132.76L76.5183 132.862C76.5037 132.868 76.4872 132.86 76.4814 132.846C76.4795 132.841 76.4789 132.836 76.4799 132.83L76.5339 132.531L76.3534 132.293C76.3439 132.281 76.3464 132.263 76.3589 132.253C76.3628 132.25 76.3673 132.248 76.3721 132.248L76.6594 132.207L76.8183 131.955C76.8267 131.942 76.8442 131.938 76.8575 131.946C76.8622 131.949 76.866 131.954 76.8683 131.959Z" fill="#F9FAFB"/>
<path fill-rule="evenodd" clip-rule="evenodd" d="M42.7003 159.399L42.9882 160.039L43.6447 160.228C43.6802 160.238 43.7007 160.275 43.6906 160.311C43.6874 160.321 43.6815 160.331 43.6735 160.339L43.1747 160.836L43.2026 161.551C43.2041 161.587 43.1753 161.619 43.1384 161.62C43.1259 161.62 43.1136 161.617 43.1027 161.611L42.5381 161.29C42.5204 161.28 42.4992 161.278 42.4803 161.286L41.8763 161.526C41.842 161.539 41.8032 161.522 41.7895 161.488C41.7849 161.476 41.7836 161.464 41.7859 161.452L41.913 160.748L41.4882 160.187C41.4659 160.157 41.4717 160.115 41.5011 160.093C41.5102 160.086 41.5209 160.082 41.5322 160.08L42.2085 159.985L42.5827 159.391C42.6024 159.36 42.6437 159.351 42.6749 159.37C42.6861 159.377 42.6949 159.387 42.7003 159.399Z" fill="#018A08"/>
<path fill-rule="evenodd" clip-rule="evenodd" d="M71.6353 101.934L71.8445 102.08C72.0792 102.247 72.9556 103.073 73.1389 103.223C73.5771 103.022 74.0697 102.916 74.7036 102.883C74.9341 102.871 75.1307 103.048 75.1428 103.278C75.1548 103.509 74.9777 103.705 74.7472 103.718C74.382 103.737 74.0809 103.781 73.8136 103.861C74.2185 104.324 74.3686 104.729 74.3764 105.154L74.3765 105.236C74.3765 105.467 74.1894 105.654 73.9586 105.654C73.7422 105.654 73.5642 105.49 73.5428 105.279L73.5407 105.236L73.5406 105.166C73.5345 104.893 73.4194 104.618 73.0416 104.244C72.8714 104.366 72.7023 104.513 72.5218 104.689L72.0784 105.137C71.9159 105.301 71.6513 105.302 71.4874 105.14C71.3235 104.977 71.3223 104.713 71.4848 104.549L71.8544 104.173C72.0366 103.991 72.212 103.831 72.3875 103.691C72.0792 102.987 70.9236 102.233 71.0542 102.042C71.1848 101.852 71.445 101.804 71.6353 101.934Z" fill="#018A08"/>
<path fill-rule="evenodd" clip-rule="evenodd" d="M152.267 150.132L152.837 150.542L153.499 150.377C153.535 150.368 153.572 150.39 153.58 150.426C153.583 150.437 153.583 150.448 153.58 150.459L153.396 151.139L153.778 151.743C153.798 151.775 153.788 151.816 153.757 151.836C153.746 151.842 153.734 151.846 153.722 151.846L153.072 151.85C153.052 151.85 153.033 151.859 153.02 151.875L152.617 152.385C152.594 152.414 152.552 152.419 152.523 152.396C152.513 152.388 152.506 152.378 152.501 152.366L152.26 151.693L151.611 151.419C151.577 151.405 151.561 151.366 151.576 151.332C151.58 151.321 151.587 151.312 151.596 151.305L152.134 150.885L152.161 150.183C152.163 150.146 152.194 150.118 152.231 150.119C152.244 150.12 152.257 150.124 152.267 150.132Z" fill="#018A08"/>
<path fill-rule="evenodd" clip-rule="evenodd" d="M158.807 123.939L158.98 124.62L159.594 124.919C159.627 124.935 159.641 124.976 159.625 125.009C159.62 125.019 159.612 125.028 159.603 125.034L159.025 125.437L158.929 126.145C158.924 126.182 158.89 126.207 158.853 126.202C158.841 126.201 158.829 126.196 158.82 126.188L158.319 125.773C158.304 125.76 158.283 125.755 158.263 125.759L157.627 125.89C157.591 125.898 157.555 125.874 157.548 125.838C157.545 125.826 157.546 125.813 157.551 125.802L157.798 125.131L157.477 124.504C157.46 124.471 157.473 124.431 157.506 124.414C157.516 124.409 157.528 124.407 157.539 124.407L158.222 124.431L158.693 123.911C158.718 123.884 158.76 123.882 158.788 123.906C158.797 123.915 158.804 123.927 158.807 123.939Z" fill="#018A08"/>
<path fill-rule="evenodd" clip-rule="evenodd" d="M143.913 96.5622L144.085 97.2424L144.699 97.542C144.732 97.5582 144.746 97.5982 144.73 97.6314C144.725 97.6416 144.717 97.6504 144.708 97.6569L144.131 98.0593L144.034 98.7679C144.029 98.8045 143.995 98.8301 143.959 98.8251C143.946 98.8234 143.935 98.8183 143.925 98.8103L143.425 98.3956C143.409 98.3826 143.389 98.3774 143.369 98.3815L142.732 98.5129C142.696 98.5204 142.661 98.4971 142.653 98.4609C142.651 98.4487 142.652 98.436 142.656 98.4243L142.903 97.7533L142.583 97.1269C142.566 97.0941 142.579 97.0538 142.612 97.0369C142.622 97.0318 142.633 97.0292 142.644 97.0296L143.327 97.0533L143.799 96.5336C143.823 96.5063 143.866 96.5043 143.893 96.5291C143.903 96.5379 143.91 96.5494 143.913 96.5622Z" fill="#018A08"/>
<path fill-rule="evenodd" clip-rule="evenodd" d="M187.915 103.228L188.169 103.205C188.456 103.182 188.716 103.168 188.953 103.166C189.159 102.73 189.469 102.332 189.933 101.899C190.102 101.742 190.366 101.751 190.524 101.92C190.681 102.089 190.672 102.353 190.503 102.511C190.235 102.76 190.033 102.988 189.88 103.221C190.487 103.315 190.863 103.529 191.142 103.85L191.195 103.912C191.343 104.089 191.32 104.353 191.144 104.501C190.978 104.64 190.736 104.629 190.584 104.481L190.555 104.45L190.51 104.396C190.33 104.191 190.065 104.054 189.535 104.01C189.483 104.213 189.448 104.435 189.422 104.685L189.371 105.314C189.352 105.544 189.15 105.715 188.92 105.695C188.69 105.676 188.519 105.474 188.538 105.244L188.58 104.719C188.602 104.463 188.634 104.227 188.678 104.007C188.475 104.018 188.248 104.035 187.995 104.059C187.766 104.082 187.561 103.913 187.539 103.684C187.517 103.454 187.685 103.25 187.915 103.228Z" fill="#018A08"/>
<path fill-rule="evenodd" clip-rule="evenodd" d="M154.169 132.076C154.093 132.267 153.928 132.531 153.735 132.782L153.901 132.954L154.093 133.158L154.136 133.199C154.154 133.216 154.169 133.226 154.18 133.228C154.242 133.237 154.285 133.295 154.276 133.357C154.268 133.418 154.211 133.463 154.149 133.453C154.092 133.452 153.888 133.372 153.645 133.175C153.6 133.139 153.557 133.098 153.512 133.052C153.371 133.209 153.23 133.344 153.107 133.427C152.927 133.552 152.771 133.562 152.696 133.511C152.623 133.462 152.552 133.297 152.672 132.964C152.69 132.904 152.755 132.872 152.814 132.891C152.874 132.91 152.906 132.973 152.888 133.033C152.869 133.095 152.867 133.152 152.867 133.197L152.936 133.15C152.96 133.132 152.986 133.112 153.008 133.089C153.092 133.007 153.185 132.907 153.279 132.799C153.131 132.626 152.979 132.423 152.857 132.189C152.797 132.075 152.749 131.954 152.704 131.827C152.673 131.756 152.705 131.672 152.777 131.641C152.848 131.609 152.931 131.642 152.963 131.713C153.099 131.999 153.273 132.245 153.445 132.456L153.503 132.525C153.659 132.32 153.794 132.112 153.855 131.954C153.889 131.868 153.986 131.825 154.073 131.858C154.16 131.893 154.203 131.99 154.169 132.076Z" fill="#F9FAFB"/>
<path fill-rule="evenodd" clip-rule="evenodd" d="M150.088 46.9044C150.343 46.86 150.585 47.0305 150.629 47.2852C150.674 47.5398 150.503 47.7822 150.249 47.8266C149.037 48.0376 147.58 48.7616 146.32 49.9277C144.685 51.4419 143.479 53.579 142.883 56.3687C142.403 58.6162 142.844 61.5754 144.098 64.0443C145.525 66.8531 147.819 68.7628 150.762 69.3004C153.783 69.8522 156.339 69.5095 159.194 68.4945L159.457 68.3991C159.541 68.3675 159.69 68.31 159.877 68.2379C160.564 67.9726 161.765 67.5091 162.11 67.4049C163.033 67.1257 163.663 67.1491 164.119 67.6356C164.296 67.8241 164.287 68.1203 164.098 68.2972C163.922 68.463 163.65 68.4651 163.471 68.3094L163.437 68.2762C163.302 68.1327 163.024 68.116 162.463 68.2767L162.381 68.3009C162.077 68.3928 160.965 68.8215 160.272 69.089L160.271 69.0893L160.271 69.0893L160.27 69.0896C160.002 69.1931 159.796 69.2724 159.725 69.2984C156.641 70.424 153.874 70.8204 150.594 70.2213C147.343 69.6275 144.816 67.5231 143.264 64.4682C141.915 61.8133 141.442 58.6365 141.968 56.1732C142.603 53.1959 143.907 50.8868 145.684 49.2408C147.076 47.9523 148.698 47.1464 150.088 46.9044ZM153.254 49.1656C153.507 49.1159 153.753 49.2813 153.803 49.535C153.853 49.7886 153.687 50.0346 153.433 50.0842C149.64 50.8272 146.589 53.7248 145.704 57.5574C145.405 58.8545 145.495 59.9092 145.789 60.3116L145.828 60.3621L145.831 60.3691L145.837 60.3648C145.942 60.2699 146.065 60.0273 146.16 59.6512L146.18 59.5686C147.09 55.6268 150.096 52.5756 153.934 51.5509C154.184 51.4842 154.44 51.6326 154.507 51.8824C154.574 52.1322 154.425 52.3887 154.176 52.4553C150.717 53.3785 148 56.1012 147.128 59.6296L147.092 59.7791C146.772 61.1694 145.85 61.833 145.103 60.953C144.557 60.3093 144.423 58.9436 144.792 57.3468C145.761 53.1511 149.101 49.9789 153.254 49.1656ZM158.883 54.3031C158.864 54.0452 158.641 53.8511 158.383 53.8695C153.827 54.1945 149.832 57.1534 148.242 61.5205C147.639 63.1776 147.603 64.6513 148.097 65.4029C148.76 66.4109 149.802 65.8391 150.321 64.4117L150.376 64.2653C151.781 60.5694 155.075 57.9881 158.931 57.4499C159.187 57.4141 159.366 57.1776 159.33 56.9216C159.294 56.6656 159.058 56.487 158.802 56.5227C154.555 57.1155 150.935 59.9887 149.441 64.0916L149.408 64.1792C149.242 64.6063 149.061 64.8637 148.923 64.9393L148.917 64.9434C148.914 64.9456 148.913 64.9471 148.912 64.947C148.911 64.9469 148.911 64.9456 148.909 64.9425C148.907 64.9356 148.9 64.9198 148.88 64.8888L148.855 64.8481C148.583 64.3664 148.625 63.2077 149.122 61.8407C150.584 57.8237 154.259 55.1022 158.449 54.8033C158.707 54.7849 158.901 54.5609 158.883 54.3031ZM160.921 58.8533C161.179 58.8349 161.403 59.029 161.422 59.2868C161.44 59.5447 161.246 59.7686 160.988 59.787C158.05 59.9966 155.474 61.9047 154.449 64.7211C154.145 65.556 154.088 66.2698 154.197 66.6313L154.21 66.6716L154.231 66.6418C154.283 66.5625 154.342 66.4486 154.4 66.301L154.424 66.2356C155.507 63.2608 158.133 61.1774 161.212 60.7476C161.468 60.7118 161.704 60.8904 161.74 61.1464C161.776 61.4024 161.597 61.639 161.341 61.6747C158.647 62.0507 156.345 63.8484 155.353 66.4242L155.304 66.5558C154.903 67.659 154.034 68.1356 153.479 67.2908C153.099 66.712 153.125 65.6192 153.569 64.4009C154.721 61.2344 157.618 59.0889 160.921 58.8533ZM163.388 62.6245C163.37 62.3666 163.146 62.1725 162.888 62.1909C160.676 62.3487 158.736 63.7856 157.964 65.9062C157.66 66.7423 157.641 67.5032 157.923 67.9316C158.384 68.6341 159.101 68.2405 159.4 67.4197L159.441 67.3119C160.07 65.706 161.511 64.5864 163.195 64.3512C163.451 64.3155 163.63 64.079 163.594 63.8229C163.558 63.5669 163.322 63.3883 163.066 63.4241L162.947 63.4419C161.134 63.734 159.569 64.8852 158.758 66.5418L158.729 66.6008L158.747 66.5336C158.773 66.4359 158.805 66.333 158.844 66.2264C159.488 64.4559 161.108 63.2564 162.955 63.1247C163.213 63.1063 163.407 62.8823 163.388 62.6245Z" fill="#018A08"/>
<path fill-rule="evenodd" clip-rule="evenodd" d="M160.922 58.8532C161.18 58.8348 161.404 59.0289 161.422 59.2868C161.441 59.5446 161.246 59.7685 160.989 59.7869C158.051 59.9966 155.474 61.9046 154.449 64.721C154.145 65.5559 154.089 66.2697 154.198 66.6312L154.211 66.6715L154.232 66.6417C154.284 66.5624 154.343 66.4485 154.4 66.3009L154.425 66.2356C155.508 63.2607 158.133 61.1773 161.212 60.7475C161.468 60.7118 161.705 60.8903 161.741 61.1463C161.776 61.4024 161.598 61.6389 161.342 61.6746C158.648 62.0506 156.346 63.8483 155.354 66.4241L155.305 66.5557C154.903 67.6589 154.035 68.1355 153.48 67.2908C153.099 66.7119 153.126 65.6192 153.57 64.4008C154.722 61.2343 157.619 59.0888 160.922 58.8532Z" fill="#018A08"/>
<path d="M131.772 119.794C141.585 115.204 149.789 112.779 154.897 112.334C156.461 112.198 157.171 113.06 156.775 114.463C156.48 115.504 155.585 116.934 154.212 118.626C151.818 121.577 148.663 124.102 145.52 126.45C150.547 121.81 151.83 119.869 153.38 117.957L153.624 117.653C154.774 116.199 155.517 114.985 155.746 114.174L155.778 114.051C155.921 113.466 155.756 113.328 154.99 113.395C149.998 113.83 141.825 116.259 132.048 120.843C122.255 125.434 121.975 124.376 131.772 119.794Z" fill="white"/>
<path d="M86.8923 104.946L86.9641 105.116C87.4612 106.295 87.9778 107.462 88.5641 108.735L88.7921 109.229C88.7173 109.28 88.6191 109.333 88.511 109.38C88.3558 109.448 88.1983 109.495 88.0798 109.511L88.0421 109.515L87.9851 109.447C87.542 108.901 87.0278 107.974 86.6561 107.053C86.4582 106.562 86.3172 106.112 86.2537 105.766C86.2278 105.625 86.2158 105.506 86.2169 105.416L86.2196 105.357C86.2205 105.343 86.2205 105.335 86.217 105.334L86.231 105.325C86.3101 105.27 86.5123 105.152 86.8126 104.989L86.8923 104.946Z" fill="white"/>
<path fill-rule="evenodd" clip-rule="evenodd" d="M99.2976 100.676C99.6048 100.3 100.003 100.356 100.507 100.662L100.637 100.743L101 100.984C101.101 101.049 101.145 101.071 101.204 101.095C101.341 101.149 101.408 101.305 101.354 101.442C101.299 101.579 101.144 101.646 101.006 101.592L100.957 101.572C100.865 101.532 100.795 101.491 100.607 101.366L100.347 101.193C100.304 101.165 100.267 101.141 100.23 101.119C99.9283 100.936 99.7914 100.917 99.7119 101.014C99.6618 101.075 99.6741 101.206 99.7736 101.474L99.8827 101.755C100.1 102.331 100.101 102.588 99.7145 102.808C99.3818 102.997 99.2112 102.909 98.7335 102.441L98.6175 102.326C98.3116 102.02 98.1512 101.914 98.0479 101.936C98.0136 101.943 97.9735 101.968 97.9247 102.02C97.8673 102.081 97.8511 102.276 97.8863 102.623L97.9401 103.075C98.003 103.629 97.9777 103.772 97.7492 103.925C97.4346 104.136 97.016 103.898 96.2401 103.201C96.1302 103.102 96.1211 102.933 96.2198 102.823C96.3185 102.713 96.4876 102.704 96.5975 102.803C96.9292 103.101 97.1797 103.295 97.3546 103.394L97.3938 103.416L97.4266 103.432L97.4273 103.398L97.4252 103.318C97.4218 103.253 97.4136 103.173 97.3973 103.039L97.3632 102.761C97.2981 102.197 97.3184 101.884 97.5345 101.654C97.6545 101.526 97.7892 101.444 97.9372 101.413C98.2808 101.34 98.5248 101.487 98.9302 101.883L99.1347 102.084C99.3553 102.296 99.4371 102.35 99.45 102.343C99.5001 102.315 99.4925 102.226 99.3571 101.878L99.2977 101.727C99.1087 101.242 99.0727 100.951 99.2976 100.676Z" fill="#018A08"/>
<path fill-rule="evenodd" clip-rule="evenodd" d="M128.497 57.1414L128.243 57.164C128.013 57.1863 127.845 57.3905 127.867 57.6202C127.881 57.7591 127.96 57.8755 128.072 57.941L128.028 57.9723C127.84 58.1056 127.795 58.3664 127.928 58.5548C128.061 58.7433 128.322 58.7881 128.511 58.6549L128.94 58.3508C128.928 58.4491 128.917 58.5507 128.908 58.6558L128.866 59.1809C128.847 59.4109 129.018 59.6129 129.248 59.632C129.478 59.6511 129.68 59.4801 129.699 59.2501L129.75 58.6217C129.764 58.4872 129.78 58.3612 129.801 58.2419C129.947 58.5203 129.977 58.7348 129.946 58.9376L129.934 59.0066L129.928 59.049C129.913 59.2603 130.059 59.4531 130.273 59.4907C130.5 59.5308 130.717 59.379 130.757 59.1517L130.771 59.0708C130.815 58.7888 130.795 58.5049 130.681 58.1897C130.741 58.2326 130.792 58.2804 130.838 58.3326L130.883 58.3862L130.912 58.4176C131.064 58.5653 131.306 58.5768 131.472 58.4377C131.648 58.2894 131.671 58.0258 131.523 57.849L131.47 57.7861C131.451 57.7645 131.432 57.7434 131.413 57.7229C131.631 57.7356 131.824 57.5766 131.851 57.3566C131.879 57.1275 131.717 56.919 131.487 56.8908C131.093 56.8424 130.749 56.8315 130.432 56.86C130.546 56.7261 130.677 56.5903 130.831 56.4472C131 56.2899 131.009 56.0254 130.852 55.8566C130.694 55.6878 130.43 55.6785 130.261 55.8359C129.978 56.0999 129.752 56.3508 129.572 56.6052C129.503 56.5316 129.43 56.4561 129.354 56.3787L129.173 56.1986C129.008 56.0369 128.744 56.0393 128.582 56.204C128.42 56.3687 128.423 56.6333 128.587 56.795C128.702 56.9073 128.807 57.0136 128.904 57.1142C128.775 57.1208 128.639 57.1298 128.497 57.1414Z" fill="#018A08"/>
<path fill-rule="evenodd" clip-rule="evenodd" d="M112.391 60.0371C112.291 59.9342 112.128 59.9371 112.028 60.0435C111.928 60.1499 111.928 60.3195 112.029 60.4223C112.124 60.5199 112.209 60.6103 112.285 60.6945C112.124 60.7626 111.963 60.8508 111.79 60.9598L111.528 61.1279C111.413 61.2012 111.388 61.3478 111.472 61.4554C111.556 61.563 111.717 61.5908 111.832 61.5175L112.147 61.317C112.311 61.2165 112.459 61.1404 112.607 61.087C112.833 61.4012 112.881 61.6026 112.852 61.7893L112.844 61.8336L112.841 61.8608C112.83 61.9963 112.919 62.1192 113.05 62.1423C113.189 62.1668 113.323 62.0684 113.349 61.9225L113.358 61.8706C113.401 61.5998 113.355 61.3269 113.161 60.9899C113.292 60.9879 113.436 60.9977 113.598 61.0185C113.74 61.0366 113.867 60.9468 113.882 60.8178C113.898 60.6889 113.795 60.5697 113.653 60.5516C113.343 60.5119 113.082 60.5073 112.844 60.5396C112.746 60.419 112.632 60.2902 112.501 60.1516L112.391 60.0371Z" fill="#F9FAFB"/>
<path fill-rule="evenodd" clip-rule="evenodd" d="M58.5352 129.708L58.8232 130.347L59.4797 130.536C59.5152 130.546 59.5357 130.583 59.5255 130.619C59.5224 130.63 59.5165 130.64 59.5084 130.648L59.0096 131.144L59.0376 131.859C59.039 131.896 59.0103 131.927 58.9734 131.928C58.9609 131.929 58.9485 131.926 58.9377 131.919L58.373 131.598C58.3554 131.588 58.3341 131.586 58.3152 131.594L57.7113 131.834C57.677 131.847 57.6381 131.831 57.6245 131.796C57.6199 131.785 57.6186 131.772 57.6208 131.76L57.7479 131.056L57.3231 130.495C57.3008 130.465 57.3066 130.423 57.3361 130.401C57.3452 130.394 57.3558 130.39 57.3671 130.388L58.0434 130.293L58.4177 129.699C58.4374 129.668 58.4787 129.659 58.5099 129.678C58.521 129.685 58.5298 129.696 58.5352 129.708Z" fill="#018A08"/>
<path fill-rule="evenodd" clip-rule="evenodd" d="M62.3751 94.1876L62.6631 94.8276L63.3195 95.016C63.355 95.0262 63.3755 95.0632 63.3654 95.0987C63.3622 95.1097 63.3563 95.1196 63.3483 95.1277L62.8495 95.6242L62.8774 96.3388C62.8789 96.3757 62.8501 96.4068 62.8132 96.4082C62.8007 96.4087 62.7884 96.4057 62.7775 96.3995L62.2129 96.0779C62.1952 96.0679 62.174 96.0664 62.1551 96.0739L61.5512 96.3138C61.5168 96.3274 61.478 96.3106 61.4643 96.2763C61.4597 96.2647 61.4585 96.252 61.4607 96.2397L61.5878 95.536L61.163 94.9749C61.1407 94.9454 61.1465 94.9035 61.1759 94.8812C61.185 94.8743 61.1957 94.8699 61.207 94.8683L61.8833 94.7731L62.2575 94.1794C62.2772 94.1482 62.3185 94.1388 62.3498 94.1585C62.3609 94.1655 62.3697 94.1756 62.3751 94.1876Z" fill="#018A08"/>
<path d="M71.0725 150.739C71.2871 150.584 71.5872 150.631 71.743 150.846C71.8987 151.06 65.1079 156.592 62.4736 159.126L62.1674 159.423C60.6627 160.896 59.5533 162.171 58.928 163.178C58.2653 164.246 58.2228 164.826 58.6506 165.063C60.2737 165.963 62.6074 166.401 65.9496 165.848L66.2931 165.789C67.5653 165.566 77.1354 163.479 76.9839 163.534L76.925 163.552C76.6233 163.632 72.7265 164.98 71.3816 165.322L71.219 165.363C69.1629 165.88 67.5539 166.235 66.1065 166.475C62.5697 167.061 60.0427 166.932 58.1853 165.903C57.1135 165.309 57.1988 164.144 58.1122 162.672C58.8307 161.514 60.0943 160.083 61.8079 158.435C64.4775 155.866 68.2323 152.802 71.0725 150.739Z" fill="white"/>
<path fill-rule="evenodd" clip-rule="evenodd" d="M121.075 84.2022C121.192 84.1242 121.349 84.1575 121.426 84.2764L123.158 86.9614C123.235 87.0803 123.202 87.2399 123.085 87.3179C122.968 87.3958 122.811 87.3626 122.734 87.2436L121.001 84.5587C120.925 84.4397 120.957 84.2801 121.075 84.2022Z" fill="#018A08"/>
<path fill-rule="evenodd" clip-rule="evenodd" d="M121.159 82.2184C121.293 82.1394 121.471 82.1792 121.555 82.3072L122.748 84.1133C122.832 84.2413 122.792 84.4092 122.658 84.4882C122.524 84.5673 122.346 84.5275 122.262 84.3995L121.069 82.5934C120.985 82.4653 121.025 82.2975 121.159 82.2184Z" fill="#018A08"/>
<defs>
<linearGradient id="paint0_linear_5661_300109" x1="94.1138" y1="98.795" x2="95.2908" y2="99.9461" gradientUnits="userSpaceOnUse">
<stop stop-color="#EF6795"/>
<stop offset="0.32" stop-color="#ED2A65"/>
<stop offset="0.7" stop-color="#AC1D40"/>
<stop offset="1" stop-color="#83161E"/>
</linearGradient>
<linearGradient id="paint1_linear_5661_300109" x1="66.0644" y1="147.1" x2="63.0271" y2="145.126" gradientUnits="userSpaceOnUse">
<stop stop-color="#EF6795"/>
<stop offset="0.32" stop-color="#ED2A65"/>
<stop offset="0.7" stop-color="#AC1D40"/>
<stop offset="1" stop-color="#83161E"/>
</linearGradient>
</defs>
</svg>
