<svg width="240" height="240" viewBox="0 0 240 240" fill="none" xmlns="http://www.w3.org/2000/svg">
<path fill-rule="evenodd" clip-rule="evenodd" d="M217.246 130.842C212.656 136.888 206.705 141.742 201.52 147.286C194.771 154.504 189.315 162.928 185.489 172.04C181.53 181.468 179.05 192.022 171.762 199.195C161.278 209.514 143.961 209.299 130.377 203.652C109.174 194.838 94.1663 175.577 82.6764 155.696C80.3689 151.703 78.0281 147.504 74.216 144.909C67.2854 140.191 58.0567 142.197 49.7095 142.984C43.7765 143.543 37.5974 143.341 32.1492 140.927C23.9898 137.31 18.5233 129.012 16.7546 120.264C14.9858 111.516 16.5163 102.384 19.3774 93.9302C27.2233 70.7477 45.2945 51.4213 67.523 41.1801C89.7515 30.9388 115.797 29.6881 139.202 36.8457C149.455 39.9816 159.532 44.8974 166.451 53.089C172.554 60.3144 175.872 69.6863 182.572 76.3613C188.988 82.7526 197.789 85.9858 205.776 90.2547C213.762 94.5236 221.674 100.792 223.493 109.663C225.017 117.099 221.836 124.797 217.246 130.842Z" fill="#F9FAFB"/>
<path fill-rule="evenodd" clip-rule="evenodd" d="M50.7363 54.3659L50.9195 54.3758C54.1525 54.5618 57.886 55.9344 58.6554 59.08C60.8905 51.061 65.9871 43.8715 72.8138 39.1074C70.712 43.5563 69.8909 48.6014 70.4734 53.4871C72.2999 48.8437 75.6742 44.8244 79.9312 42.2216C78.0028 44.9532 76.8997 48.2597 76.8017 51.602C76.7305 54.0324 77.2293 56.5768 78.7509 58.4733C79.7336 59.6981 81.078 60.5779 82.4505 61.341C82.7938 61.5319 83.1405 61.7162 83.4902 61.8938C83.629 61.9643 83.7681 62.0336 83.9077 62.1019C84.2315 62.2604 84.5577 62.4131 84.8862 62.5603C85.1806 62.6922 85.4769 62.8196 85.7749 62.9425L85.9721 63.0231C86.1687 63.1026 86.3661 63.1803 86.5642 63.256L86.8904 63.3786L87.0731 63.4456L87.4279 63.5722L87.5621 63.6189L87.8721 63.7243C88.0791 63.7936 88.2867 63.8608 88.495 63.9259L88.9119 64.0533L89.1839 64.1333L89.511 64.2261L89.8112 64.3082L90.2408 64.4206L90.429 64.4679L90.7184 64.5385L90.8856 64.578L91.1795 64.6454L91.4028 64.6948L91.5466 64.7258L91.9358 64.8064L92.3331 64.8839L92.7154 64.954L93.0977 65.0196L93.5008 65.0841L93.8711 65.1391L94.2689 65.1937L94.6616 65.243L95.0164 65.2838L95.2378 65.3074L95.5713 65.3402L95.8083 65.3616L96.0509 65.3819L96.4452 65.4113L96.5729 65.4199L96.9708 65.4436L97.359 65.4625L97.7365 65.4768L97.9831 65.484L98.3534 65.4917L98.5269 65.4939L98.9216 65.4959L99.3163 65.4936L99.4862 65.4912L99.841 65.4838L100.256 65.4706L100.497 65.4607L100.862 65.4427L101.262 65.4187L101.651 65.3911L102.045 65.3588L102.236 65.3415L102.62 65.3039L103.023 65.2597L103.225 65.2359L103.588 65.1902L103.976 65.1372L104.201 65.1044L104.389 65.076L104.576 65.0466L104.937 64.9871L105.175 64.9457L105.336 64.9169L105.542 64.8788L105.933 64.8032L106.111 64.7672L106.309 64.7262L106.656 64.6512L107.056 64.5604L107.425 64.4721L107.634 64.4203L107.993 64.3283L108.209 64.2708L108.577 64.1697L108.955 64.0616L109.127 64.0106L109.352 63.9425L109.714 63.8298L109.884 63.7752L110.068 63.7151L110.281 63.6444L110.43 63.5938L110.648 63.5183L111.005 63.3913L111.191 63.3235L111.561 63.1851L111.912 63.0487L112.276 62.9032L112.604 62.7675L112.836 62.669L113.183 62.5181L113.355 62.4416L113.516 62.3685L113.707 62.2813L113.889 62.1963L114.048 62.1211L114.412 61.9452L114.578 61.8627L114.75 61.7766L115.081 61.6072L115.28 61.5028L115.45 61.4122L115.806 61.2186L115.946 61.1408L116.156 61.0226L116.292 60.9446L116.47 60.8418L116.639 60.7425L116.809 60.6415L117.141 60.4397L117.46 60.2403L117.65 60.1193L117.797 60.0243L117.972 59.9093L118.113 59.816L118.299 59.691L118.44 59.5946L118.603 59.4821L118.783 59.3564L118.929 59.2527L119.099 59.1305C119.167 59.0815 119.234 59.0322 119.302 58.9827C119.326 58.6316 119.299 58.3242 119.231 58.0489C118.952 57.8752 118.675 57.6841 118.403 57.4755C117.451 56.7467 116.56 55.5204 115.73 53.7966L115.511 53.4987C114.288 51.8132 113.362 50.1938 113.306 49.9362C112.928 48.2196 112.814 46.4702 112.835 44.7121L112.832 44.7015C112.656 43.4997 112.743 42.2711 113.031 41.0408C113.082 40.4285 113.138 39.8169 113.195 39.2074L113.452 39.614L113.475 39.547C113.759 38.7569 114.311 40.2662 114.933 41.9576L116.468 44.3869C115.567 38.2589 117.878 31.7489 122.44 27.5594C120.197 36.4588 122.81 46.4277 129.13 53.0825C136.539 60.8838 148.051 63.8696 155.142 71.9604C161.51 79.2258 163.243 89.3236 167.283 98.1046L167.419 98.3968C168.862 101.484 170.826 104.613 173.963 105.945C177.02 107.242 180.514 106.558 183.76 105.855L192.87 103.88C189.687 110.917 180.293 114.339 173.33 110.997C175.599 114.265 179.789 116.084 183.726 115.509C189.42 114.678 193.863 109.435 199.609 109.12C201.117 109.037 202.758 109.377 203.759 110.507C205.201 112.134 204.68 114.887 203.065 116.343C201.45 117.798 199.095 118.153 196.935 117.907C199.586 116.904 202.41 111.543 200.52 111.744C195.953 112.227 188.72 115.943 183.556 119.991C184.707 119.677 186.076 119.882 187.245 119.645C189.982 119.089 190.993 118.562 193.368 117.907C192.104 120.618 189.027 121.229 185.869 122.778C190.874 122.058 195.661 120.639 200.666 119.919C202.472 119.659 207.106 121.385 206.995 122.156C206.957 122.426 203.744 122.378 203.194 122.363C201.073 122.306 199.531 121.902 197.687 122.95C192.472 125.915 185.182 126.309 179.576 124.173L180.532 124.9L181.252 125.443C184.621 127.97 188.12 130.374 192.104 131.687C196.699 133.2 202.14 133.019 205.939 130.04L206.069 129.937C209.016 127.552 212.73 126.131 216.515 125.94C212.23 127.998 208.293 130.781 204.924 134.135C207.951 132.249 211.965 132.062 215.155 133.659C212.725 133.709 210.311 134.385 208.209 135.604C207.358 136.097 206.457 137.106 206.995 137.929C207.237 138.3 207.696 138.459 208.13 138.547C211.511 139.231 214.652 137.086 217.502 135.013L218.361 134.388C221.434 132.155 225.66 130.202 228.838 132.284C222.678 135.722 218.402 142.495 211.559 144.207C206.095 145.574 200.412 143.31 195.433 140.679L194.222 140.037L193.718 139.771C190.911 138.305 187.982 136.964 184.87 137.193C181.119 137.468 177.43 141.32 178.908 144.779C179.87 147.032 182.51 148.074 184.949 148.307C187.388 148.539 189.886 148.201 192.272 148.757C197.599 150 201.018 154.771 205.076 158.449L206.003 159.279L206.277 159.521C208.456 161.438 211.372 163.8 214.44 164.673C217.888 165.654 221.55 164.637 223.51 164.673C227.512 164.746 231.823 165.994 234.114 169.276L233.521 169.107L233.119 168.996C230.714 168.341 228.454 167.913 226.224 168.387C225.135 168.618 218.565 172.404 211.559 169.673C205.961 167.491 201.495 162.696 199.225 161.003C195.898 158.521 185.219 152.891 186.397 154.152C186.534 154.573 186.008 154.452 185.008 153.933L185.178 154.3C187.149 158.624 187.305 162.021 185.645 164.493C183.917 167.065 181.382 167.45 178.04 165.645L177.277 165.134C175.322 163.818 173.987 162.884 173.272 162.333C172.584 161.803 174.351 173.242 178.04 176.842C179.766 178.527 185.328 179.619 190.03 181.851C191.36 182.483 192.842 183.769 194.474 185.709C192.251 184.59 190.284 183.876 188.573 183.567C181.159 182.229 175.849 183.918 172.694 179.791C169.538 175.665 169.939 174.173 169.605 170.658L169.016 164.493C165.439 169.748 162.09 173.206 158.969 174.866C156.175 176.352 153.356 176.336 150.512 174.817L150.379 174.745L150.438 174.78C152.783 176.162 154.821 177.118 156.552 177.647C158.506 178.244 160.978 178.576 163.966 178.64C155.385 183.838 147.898 183.238 141.506 176.842L141.158 176.492C137.674 172.955 132.863 167.292 130.22 158.995L130.024 158.369C128.881 154.766 127.832 152.55 128.696 145.652L128.796 144.878C129.007 143.175 129.238 140.328 128.753 137.621C128.54 136.428 127.755 134.667 126.399 132.336C120.864 138.932 117.901 145.466 117.51 151.938C117.12 158.41 118.553 165.839 121.809 174.224L121.874 174.398L121.925 174.544C122.65 175.314 123.353 176.22 124.007 177.321C127.369 182.973 132.01 188.403 132.236 194.975C132.377 199.083 130.608 203.218 127.54 205.954C130.138 199.212 128.134 190.963 122.755 186.146L122.59 186.001C116.728 180.893 113.004 173.403 112.471 165.645C112.513 165.8 112.558 165.95 112.606 166.095C111.899 162.756 111.587 159.346 111.672 155.865L111.682 155.504C111.803 151.727 112.401 146.411 113.478 139.555L113.204 140.298C112.154 143.171 111.418 145.56 111.188 146.877C109.541 156.326 109.818 168.533 111.188 174.926L110.415 175.176C98.0306 179.157 91.4231 180.563 90.5925 179.392L87.6515 174.926C78.5857 159.043 75.9905 138.416 80.168 120.103L80.2966 119.549L80.2143 119.793C78.5696 124.71 77.0651 131.929 76.595 138.434L76.5658 138.859C76.1183 145.726 76.8924 151.718 76.6043 153L76.595 153.038C75.7434 156.289 80.0116 168.79 85.0966 177.459C88.3474 183 93.4327 186.081 92.8265 187.099C92.3576 187.887 85.2071 183.195 79.3454 177.654L79.0154 177.339C73.6514 172.189 69.5528 166.349 69.4492 167.321C68.8383 173.053 76.595 184.385 76.595 185.647L76.5937 186.234C76.5685 191.576 76.1757 195.953 74.2449 200.508L74.0894 200.87C73.0163 203.333 71.5427 205.957 68.9535 206.535C71.4462 202.751 73.2284 198.502 74.1798 194.072C74.5968 192.131 74.8555 190.123 74.5527 188.16C74.1532 185.572 72.8017 183.223 71.2241 181.132C67.2005 175.799 61.3382 171.253 60.2848 164.656C59.7403 161.246 60.6064 157.771 60.4865 154.32C60.3712 151.003 59.3492 147.786 58.9463 144.492C57.9346 136.219 61.1111 127.54 67.2248 121.875C60.636 122.514 54.2815 125.368 49.4274 129.869C47.1866 131.947 45.2377 134.377 42.6834 136.055C39.4136 138.202 35.4423 138.931 31.5904 139.613C38.5397 134.96 44.5665 128.936 49.2216 121.988C45.6046 126.661 40.105 129.834 34.2484 130.625L34.6575 130.358C38.266 127.982 41.735 125.196 43.8499 121.439C46.0446 117.541 46.4902 112.385 43.9344 108.713C41.3786 105.042 35.4239 103.883 32.2944 107.08C35.5626 102.944 40.5771 100.235 45.8279 99.77C50.9596 99.3152 57.6101 100.074 62.1494 97.6055C54.317 96.0193 46.3864 94.9184 38.4182 94.3121C36.9082 94.1972 35.0908 93.9512 33.4262 93.6447C31.7306 93.424 30.2722 93.0981 29.132 92.5218C29.006 92.4646 28.8964 92.4082 28.8054 92.3526C28.7665 92.3288 28.7305 92.3058 28.6972 92.2835L28.6208 92.2315L28.6021 92.2167C27.8424 91.6455 29.0306 91.5869 29.5693 91.4105C29.3344 91.1323 28.6976 90.9588 28.6605 90.6929C28.6577 90.6728 28.6649 90.6516 28.6798 90.6295L28.6613 90.5715C28.6348 90.2797 29.3582 90.2586 29.3317 89.9669C29.1212 89.5489 28.7402 89.5242 28.7337 89.3179L28.6981 89.2783C28.532 89.0834 28.5618 88.9375 29.2597 88.9457L29.3317 88.947C30.9182 88.9867 31.6557 89.1091 33.0894 89.762L33.1122 89.7679L32.7806 89.4085C32.3709 88.9565 31.8858 88.3361 32.3825 88.11C32.3974 88.0998 32.4156 88.0926 32.4372 88.0884C32.5274 88.0564 32.6444 88.0352 32.7921 88.027C35.209 87.8924 35.5152 89.1363 37.5111 89.1663L37.9942 89.1724C46.0185 89.2528 60.4114 88.4565 59.9104 88.2839C59.3992 88.1079 49.5019 80.9046 43.3752 81.0801C40.3406 81.167 37.1321 82.21 34.3826 80.923C39.4087 78.8448 45.2178 78.2004 50.2863 80.1731C53.1466 81.2864 55.6426 83.1665 58.4217 84.4694C64.4196 87.2813 71.7052 87.1792 77.6219 84.2001C71.0941 84.354 64.5338 82.8517 58.7235 79.8723C67.0564 80.7657 75.5807 79.8271 83.5196 77.1422C77.4084 73.6168 70.3545 72.0927 63.2687 71.8224L62.2621 71.8225C60.6612 71.8187 59.4381 71.7986 58.5126 71.8227L58.2135 71.8325C49.4854 72.1847 40.9063 74.0873 32.3291 75.741C32.0413 75.7965 31.7265 75.828 31.4059 75.8325L31.3257 75.8331C29.9332 75.8331 28.4667 75.3229 28.6613 74.0678C33.023 73.9879 36.8561 71.3688 40.7945 69.4925C45.8802 67.0695 51.5131 65.8047 57.1462 65.8162L57.4535 65.8181L57.7607 65.8225C57.6783 65.7306 57.595 65.6394 57.5108 65.549L57.3248 65.3519L57.16 65.1817L56.9932 65.0135C56.7804 64.8015 56.5629 64.5943 56.3409 64.3921L56.1491 64.2197L55.9586 64.0528L55.6959 63.8294L55.5329 63.6945L55.3549 63.5505L55.1087 63.3567L54.996 63.27L54.8243 63.1403L54.5541 62.9418L54.3727 62.8124L54.0953 62.6201L54.0464 62.5869C53.9094 62.4942 53.7713 62.4032 53.6321 62.3138L53.4853 62.2205L53.3053 62.1083L53.1113 61.9904L52.8965 61.8632L52.6322 61.7114L52.4067 61.5861L52.2158 61.4828L52.0294 61.3845L51.7482 61.2408L51.5365 61.1362L51.233 60.9915L51.0129 60.8904L50.737 60.7681L50.4462 60.6444L50.2163 60.5504C50.0739 60.4932 49.9309 60.4377 49.7873 60.3838L49.5714 60.3041C49.3627 60.2285 49.1528 60.1564 48.9417 60.0878C48.8484 60.0574 48.7549 60.0278 48.6613 59.9989L48.4561 59.9367C48.3848 59.9156 48.3135 59.8948 48.242 59.8745L48.0313 59.8157C44.8359 58.9441 42.2041 56.2567 41.3993 53.0439C44.1736 54.5925 47.5562 54.2054 50.7363 54.3659ZM63.8985 97.9674L63.9616 97.9871C64.803 98.2418 65.9877 98.5261 67.4274 98.7507C66.2538 98.4784 65.0773 98.2174 63.8985 97.9674ZM33.3255 88.3536L33.3294 88.3555L33.5188 88.4237C33.6847 88.4822 33.8712 88.5445 34.0798 88.6081L33.9175 88.532C33.7265 88.4456 33.5296 88.3713 33.3255 88.3536Z" fill="white"/>
<path fill-rule="evenodd" clip-rule="evenodd" d="M127.115 117.429C126.419 117.288 125.603 117.182 125.078 117.662C119.581 122.684 116.649 129.875 114.311 136.944C112.729 141.724 111.333 146.601 110.85 151.612C110.462 155.644 110.67 159.706 110.878 163.752C111.069 167.455 111.259 171.157 111.45 174.86C111.024 175.148 103.266 163.44 105.945 148.03C108.625 132.621 115.411 119.152 120.008 114.595C126.478 109.861 133.512 118.726 127.115 117.429Z" fill="#F9FAFB"/>
<path d="M50.0293 81.5543C52.7561 82.653 55.0215 84.6402 57.5959 86.0596C60.4 87.6057 63.5292 88.456 66.6515 89.1663C77.382 91.6073 45.8406 79.8665 50.0293 81.5543Z" fill="white"/>
<path fill-rule="evenodd" clip-rule="evenodd" d="M114.536 89.3786C122.077 83.501 123.507 86.5435 125.22 85.7258C123.243 87.341 121.11 89.24 120.9 91.784C120.77 93.3559 121.418 94.8775 122.077 96.3106C122.991 98.2985 123.973 100.294 125.442 101.916C128.428 105.212 115.495 97.7294 114.409 95.2921C113.908 94.1675 113.396 92.975 113.532 91.7513C113.628 90.889 113.929 89.8516 114.536 89.3786Z" fill="#F9FAFB"/>
<path d="M116.701 75.8506C117.036 74.1953 118.38 72.9439 119.753 71.9599C123.923 68.97 129.062 67.3533 134.193 67.4166C133.843 67.2516 134.606 67.3611 135.405 68.0275C136.399 68.8571 136.916 69.4594 137.317 70.9083C136.009 70.6657 134.798 69.9327 133.977 68.8864C134.326 70.7358 135.875 72.2991 137.722 72.6651C136.682 72.9353 135.73 73.5336 135.036 74.3532C136.74 73.7271 138.838 74.4598 139.782 76.0108C137.188 75.673 134.46 76.5797 132.585 78.4028C135.476 77.3272 138.974 78.1382 141.096 80.3764C136.882 80.0513 132.655 79.8785 128.428 79.8583C130.652 80.3039 132.686 81.638 133.98 83.5009C133.675 83.5019 131.796 83.3133 128.428 82.393C126.325 81.8182 120.369 79.8583 120.369 79.8583C120.369 79.8583 119.75 79.4858 119.472 79.3045C117.428 77.9732 116.504 76.8219 116.701 75.8506Z" fill="white"/>
<ellipse cx="122.724" cy="71.0862" rx="1.02009" ry="1.19941" fill="url(#paint0_linear_5661_300337)"/>
<path fill-rule="evenodd" clip-rule="evenodd" d="M119.871 0.21593C119.72 0.257786 119.483 0.229316 119.507 0.0750418C119.596 0.0288931 119.697 -0.0185919 119.795 0.00735863C119.892 0.0333092 119.956 0.174691 119.877 0.238275L119.871 0.21593Z" fill="#018A08"/>
<ellipse cx="126.815" cy="77.76" rx="1.12048" ry="1.28" fill="url(#paint1_linear_5661_300337)"/>
<path fill-rule="evenodd" clip-rule="evenodd" d="M205.32 158.669L205.232 158.59C204.195 157.661 203.202 156.658 202.21 155.657C199.254 152.672 196.311 149.7 192.271 148.757C190.814 148.418 189.315 148.411 187.814 148.405C186.856 148.401 185.898 148.397 184.949 148.307C182.51 148.074 179.87 147.032 178.907 144.779C177.43 141.32 181.118 137.468 184.87 137.193C188.385 136.934 191.668 138.679 194.804 140.346C195.014 140.457 195.224 140.569 195.433 140.679C200.412 143.31 206.095 145.574 211.558 144.207C215.627 143.189 218.788 140.383 221.977 137.552C224.152 135.621 226.34 133.678 228.838 132.284C225.66 130.202 221.434 132.155 218.36 134.388C218.213 134.495 218.065 134.603 217.916 134.711C214.957 136.87 211.675 139.264 208.13 138.547C207.696 138.459 207.237 138.3 206.995 137.929C206.457 137.106 207.358 136.097 208.209 135.604C210.311 134.385 212.725 133.709 215.154 133.659C211.965 132.062 207.951 132.249 204.923 134.135C208.293 130.781 212.229 127.998 216.515 125.94C212.729 126.131 209.015 127.552 206.069 129.937C202.265 133.015 196.752 133.218 192.104 131.687C187.456 130.156 183.468 127.139 179.576 124.173C185.181 126.309 192.472 125.915 197.686 122.95C199.148 122.119 200.421 122.201 201.942 122.299C202.339 122.324 202.754 122.351 203.193 122.363C203.744 122.378 206.956 122.426 206.995 122.156C207.106 121.385 202.472 119.659 200.666 119.919C198.163 120.279 195.715 120.814 193.267 121.349C190.819 121.884 188.371 122.418 185.868 122.778C186.626 122.407 187.378 122.089 188.103 121.784C190.398 120.815 192.407 119.968 193.368 117.907C192.483 118.151 191.788 118.377 191.123 118.594C190 118.958 188.963 119.296 187.245 119.645C186.707 119.754 186.126 119.77 185.543 119.785C184.861 119.804 184.177 119.822 183.556 119.991C188.72 115.943 195.953 112.227 200.52 111.744C202.41 111.543 199.586 116.904 196.934 117.907C199.094 118.153 201.45 117.798 203.065 116.343C204.679 114.887 205.2 112.135 203.759 110.507C202.758 109.377 201.116 109.037 199.609 109.12C196.591 109.285 193.932 110.811 191.262 112.342C188.85 113.726 186.428 115.115 183.725 115.509C179.789 116.084 175.598 114.265 173.329 110.997C180.293 114.339 189.687 110.917 192.87 103.88L183.759 105.855C180.514 106.558 177.02 107.242 173.963 105.945C170.826 104.613 168.862 101.484 167.418 98.3968C166.023 95.4137 164.905 92.2721 163.789 89.1366C161.596 82.9717 159.41 76.8299 155.142 71.9604C151.483 67.7861 146.648 64.9706 141.806 62.1516C137.264 59.5068 132.716 56.8588 129.13 53.0825C122.81 46.4277 120.197 36.4588 122.44 27.5594C117.878 31.7489 115.567 38.2589 116.467 44.3869L113.194 39.2074C112.862 42.7837 112.534 46.4283 113.305 49.9362C114.077 53.444 116.14 56.8575 119.409 58.3449C114.74 54.0599 112.502 47.2859 113.699 41.0626C114.292 43.2011 115.635 45.1239 117.438 46.4185C116.393 40.1713 117.956 33.529 121.678 28.404C119.448 38.0084 122.84 48.7089 130.197 55.2739C133.362 58.0984 137.109 60.1413 140.855 62.1832C144.752 64.3078 148.648 66.4314 151.884 69.4332C158.311 75.3965 161.36 84.063 164.129 92.3822C165.756 97.2716 167.654 102.55 172.004 105.313C177.876 109.044 185.551 106.677 192.058 104.215C188.595 111.147 178.684 113.846 172.184 109.628C173.604 113.684 177.869 116.554 182.161 116.34C185.293 116.184 188.177 114.602 191.026 113.04C194.483 111.144 197.887 109.277 201.618 110.021C202.222 110.141 202.828 110.339 203.3 110.733C204.648 111.859 204.314 114.159 203.087 115.415C201.86 116.671 200.066 117.152 198.364 117.581C199.862 116.681 201.482 115.629 201.967 113.949C202.452 112.269 202.142 111.261 200.666 111.261C194.934 111.261 188.677 115.508 183.54 118.995C183.079 119.309 182.626 119.616 182.184 119.913C185.666 120.626 189.387 120.103 192.538 118.459C189.629 120.704 186.011 122.015 182.339 122.156C185.766 124.485 190.033 123.305 194.308 122.123C198.542 120.953 202.785 119.779 206.23 122.009C202.698 120.597 199.008 121.88 195.272 123.179C191.988 124.32 188.668 125.474 185.39 124.821C184.663 124.676 183.927 124.445 183.191 124.213C181.35 123.633 179.513 123.055 177.834 123.848C182.231 127.513 187.291 130.379 192.695 132.267C195.562 133.269 198.698 133.997 201.613 133.145C203.506 132.592 205.134 131.424 206.758 130.259C208.514 128.999 210.267 127.741 212.347 127.268C208.484 129.626 205.078 132.73 202.371 136.357C205.714 133.7 210.261 132.626 214.439 133.505C213.614 133.764 212.744 133.845 211.877 133.925C210.864 134.019 209.854 134.113 208.917 134.491C207.177 135.192 205.96 137.724 207.425 138.897C207.885 139.265 208.495 139.389 209.084 139.427C212.346 139.639 215.173 137.676 217.987 135.722C220.904 133.696 223.808 131.68 227.17 132.104C223.957 135.346 220.675 138.598 216.744 140.916C212.813 143.234 208.107 144.557 203.642 143.616C200.811 143.019 198.271 141.574 195.742 140.134C195.071 139.752 194.402 139.371 193.727 139.006C190.509 137.264 186.832 135.832 183.256 136.61C179.679 137.388 176.606 141.224 177.869 144.659C178.781 147.138 181.494 148.489 184.093 148.964C185.22 149.169 186.367 149.257 187.513 149.344C189.007 149.458 190.5 149.572 191.947 149.948C196.168 151.045 199.323 154.118 202.509 157.221C204.895 159.545 207.298 161.886 210.18 163.425C212.943 164.902 213.476 165.563 214.154 165.79C214.802 166.007 215.582 165.828 218.565 165.585C223.361 165.194 228.871 164.932 232.221 168.387C228.484 166.357 226.071 167.279 223.331 168.326C221.215 169.134 218.905 170.016 215.64 169.673C211 169.185 207.303 166.063 203.627 162.959C202.26 161.805 200.895 160.652 199.485 159.639C198.583 158.99 197.748 158.348 196.953 157.735C193.166 154.82 190.254 152.579 185.046 153.507C186.4 156.32 186.781 159.591 186.109 162.641C185.762 164.217 185.014 165.871 183.544 166.538C181.642 167.402 179.464 166.269 177.742 165.085C174.369 162.767 171.226 160.114 168.373 157.179C168.118 156.916 167.863 156.649 167.609 156.383C165.957 154.655 164.286 152.906 162.15 151.862C155.7 148.709 147.785 153.44 144.283 159.708C145.446 155.349 148.839 151.65 153.081 150.116C157.323 148.581 162.297 149.253 165.98 151.858C166.8 152.438 167.615 153.12 168.436 153.806C171.088 156.025 173.796 158.29 176.886 157.296C173.631 157.479 171.084 155.348 168.483 153.173C166.891 151.841 165.28 150.493 163.474 149.648C158.405 147.274 152.216 149.219 147.834 152.701C145.116 154.86 142.707 158.532 144.307 161.612C146.785 154.979 154.389 149.796 160.995 152.349C163.736 153.409 165.852 155.556 167.931 157.666C168.237 157.976 168.541 158.285 168.847 158.59C171.264 160.999 173.87 163.219 176.633 165.223C178.246 166.393 180.079 167.536 182.066 167.394C184.828 167.196 186.864 164.472 187.245 161.729C187.626 158.987 187.256 156.784 186.396 154.152C185.219 152.891 195.898 158.521 199.225 161.003C199.785 161.421 200.479 162.028 201.291 162.738C203.769 164.904 207.343 168.03 211.558 169.673C217.418 171.957 222.973 169.682 225.271 168.742C225.72 168.558 226.045 168.425 226.223 168.387C228.759 167.848 231.332 168.474 234.113 169.276C231.822 165.994 227.511 164.746 223.51 164.673C222.916 164.662 222.165 164.748 221.311 164.845C219.349 165.07 216.843 165.357 214.439 164.673C210.897 163.664 207.556 160.671 205.32 158.669ZM184.718 122.535C185.018 122.449 185.342 122.445 185.644 122.524L185.626 122.583C185.323 122.612 185.016 122.596 184.718 122.535ZM50.0291 81.5544C51.6848 82.2215 53.1704 83.2162 54.6583 84.2124L54.6584 84.2124C55.6209 84.8569 56.5845 85.5021 57.5957 86.0597C60.3998 87.6057 63.5291 88.4561 66.6514 89.1663C77.3818 91.6073 88.4517 92.5515 99.4406 91.9628C103.25 91.7587 107.157 91.3412 110.546 89.5906C114.768 87.4104 117.851 83.1529 118.606 78.4619C116.92 78.561 115.725 76.5459 116.06 74.8906C116.395 73.2354 117.74 71.984 119.112 70.9999C123.283 68.01 128.421 66.3934 133.552 66.4566C133.216 66.2979 132.971 66.1069 132.722 65.9125C132.391 65.6533 132.051 65.388 131.475 65.1846C132.801 64.5693 134.193 64.9464 135.319 65.8791C134.774 64.8459 134.865 63.508 135.546 62.5589C136.821 65.1242 138.998 67.2296 141.605 68.4165C138.861 67.8775 136.468 65.8191 135.524 63.1874C135.295 64.802 135.783 66.503 136.822 67.7583C135.569 66.3802 133.828 65.4513 131.984 65.1846C134.539 66.0897 136.594 68.2957 137.316 70.9083C136.008 70.6658 134.798 69.9327 133.976 68.8864C134.326 70.7358 135.875 72.2991 137.721 72.6651C136.682 72.9354 135.73 73.5336 135.036 74.3532C136.74 73.7271 138.837 74.4599 139.781 76.0108C137.188 75.6731 134.46 76.5797 132.584 78.4029C135.476 77.3272 138.973 78.1382 141.096 80.3765C136.881 80.0514 132.655 79.8785 128.428 79.8583C130.652 80.304 132.685 81.638 133.98 83.501C132.619 83.505 131.261 83.0729 130.153 82.2835C131.163 82.1406 132.219 82.3555 133.093 82.8814C131.28 81.2949 129.05 80.1884 126.69 79.7037C131.136 79.2114 135.643 79.2804 140.072 79.9084C137.718 78.2698 134.529 77.9061 131.867 78.9725C133.317 76.6636 136.147 75.3018 138.856 75.6094C137.668 74.4566 135.681 74.2388 134.272 75.1068C134.517 73.9183 135.483 72.9092 136.66 72.6122C135.752 72.1386 134.81 71.6355 134.218 70.801C133.625 69.9666 133.51 68.6966 134.243 67.9826C134.68 68.8893 135.393 69.6602 136.258 70.1732C136.362 70.2632 136.486 70.3327 136.636 70.376C136.508 70.3138 136.381 70.2461 136.258 70.1732C135.916 69.8766 135.791 69.3573 135.662 68.8197C135.536 68.2983 135.406 67.7597 135.07 67.3906C134.573 66.8439 133.74 66.7994 133.001 66.8279C127.604 67.0359 122.297 69.1337 118.216 72.6728C117.208 73.5469 116.192 74.8527 116.697 76.0877C116.945 76.6945 117.509 77.104 118.045 77.4807L121.748 80.0809C120.898 80.0038 120.064 79.7407 119.323 79.3153C118.299 83.9823 115.061 88.1125 110.774 90.2217C107.635 91.7656 104.087 92.2368 100.601 92.5198C90.4198 93.3464 80.1232 92.7447 70.1072 90.738C69.3725 90.5908 68.6386 90.436 67.9045 90.2812C65.1954 89.7097 62.4844 89.1379 59.7257 88.947C56.4306 88.719 52.5225 88.9976 48.6942 89.2704H48.6942C42.8629 89.686 37.2168 90.0884 34.2041 88.6675C34.172 88.6524 34.1398 88.6369 34.1074 88.6214C33.7719 88.4608 33.4183 88.2914 33.0405 88.3689C32.1033 88.3689 33.0309 89.045 33.9008 89.679C34.2861 89.9598 34.66 90.2324 34.8558 90.4343C33.898 90.233 33.0748 90.0542 32.2517 89.8754L32.2511 89.8753C31.4277 89.6964 30.6043 89.5175 29.6462 89.3161C27.73 88.9134 31.4685 90.5538 32.7918 90.8042C32.4944 90.7824 32.0566 90.7352 31.5844 90.6844L31.5842 90.6843L31.5842 90.6843C30.132 90.5279 28.3542 90.3365 29.3314 90.738C29.9789 91.0041 30.5824 91.22 31.186 91.4358C31.7895 91.6517 32.393 91.8676 33.0405 92.1336C32.7132 92.1256 32.2261 92.0903 31.7068 92.0527H31.7067C30.2017 91.9437 28.4262 91.8151 29.4857 92.2742C30.9108 92.8917 36.192 93.5952 39.7695 93.8447C48.8778 94.4798 57.9822 95.5629 66.8445 97.759C67.9284 98.0276 69.0126 98.3133 70.0979 98.5993C74.8963 99.8638 79.7183 101.134 84.6526 100.963C84.6546 101.588 83.821 101.8 83.1953 101.791C79.3916 101.739 75.673 100.797 71.9776 99.8608L71.9775 99.8608C71.5275 99.7468 71.0778 99.6329 70.6283 99.5207C60.0635 96.8828 49.2757 95.1384 38.4179 94.3121C35.0264 94.054 30.0843 93.135 28.805 92.3526C27.893 91.7948 28.5546 91.648 29.1531 91.5151C29.3942 91.4617 29.625 91.4104 29.7387 91.3356L29.7269 91.3315C29.321 91.1926 28.7873 91.01 28.6609 90.5715C28.6477 90.4256 28.8219 90.3474 28.9962 90.2692C29.1704 90.191 29.3446 90.1128 29.3314 89.9669C29.3201 89.8429 29.1383 89.6835 28.9605 89.5277C28.6059 89.217 28.2675 88.9204 29.3314 88.947C30.9286 88.987 31.6653 89.1108 33.1183 89.7753C33.0759 89.7272 33.0216 89.669 32.9604 89.6035L32.9601 89.6032C32.4728 89.0815 31.5523 88.096 32.7918 88.027C34.1006 87.9541 34.7905 88.2855 35.4648 88.6094C36.0358 88.8836 36.5957 89.1525 37.5107 89.1663C45.4245 89.2855 60.4212 88.46 59.9101 88.2839C59.8273 88.2554 59.4982 88.0425 58.9787 87.7064C56.2914 85.9678 48.5092 80.933 43.3749 81.0801C42.4908 81.1054 41.5919 81.2119 40.694 81.3182C38.5097 81.577 36.3307 81.8351 34.3823 80.923C39.4084 78.8448 45.2175 78.2004 50.2859 80.1731C51.9129 80.8064 53.4221 81.6878 54.9325 82.5699C56.0774 83.2385 57.2231 83.9076 58.4213 84.4694C64.4193 87.2813 71.7048 87.1792 77.6216 84.2001C71.0938 84.354 64.5335 82.8517 58.7232 79.8723C67.056 80.7657 75.5804 79.8271 83.5192 77.1422C75.9528 72.7774 66.9413 71.4803 58.2132 71.8325C50.6711 72.1369 43.2403 73.5988 35.8258 75.0576L35.8257 75.0576C34.6598 75.287 33.4943 75.5163 32.3288 75.741C30.7699 76.0416 28.4177 75.6367 28.6609 74.0678C32.0596 74.0056 35.1372 72.4017 38.1938 70.8088C39.06 70.3573 39.9245 69.9068 40.7942 69.4925C46.0648 66.9814 51.9232 65.7142 57.7604 65.8225C55.1809 62.9453 51.7589 60.8327 48.0309 59.8157C44.8356 58.9441 42.2037 56.2567 41.399 53.0439C43.5612 54.2508 46.093 54.282 48.6104 54.313H48.6104C49.3851 54.3225 50.1584 54.332 50.9192 54.3758C54.1522 54.5618 57.8856 55.9344 58.6551 59.08C60.8902 51.061 65.9868 43.8715 72.8135 39.1074C70.7116 43.5563 69.8905 48.6014 70.4731 53.4871C72.2995 48.8437 75.6738 44.8244 79.9309 42.2216C78.0025 44.9533 76.8994 48.2597 76.8014 51.602C76.7301 54.0324 77.2289 56.5768 78.7505 58.4733C79.7333 59.6981 81.0777 60.5779 82.4501 61.341C93.8909 67.7024 109.029 66.6767 119.507 58.8302C115.911 62.9582 110.584 65.3247 105.162 66.0819C99.7401 66.8391 94.2065 66.1013 88.887 64.8084C84.2952 63.6923 79.364 61.8033 77.2006 57.6022C74.9321 53.1971 76.5172 47.8078 78.7438 43.3814C75.1064 46.4283 72.187 50.3269 70.287 54.6749C69.4216 50.2837 69.7468 45.6638 71.2187 41.4371C65.0795 46.2866 60.7147 53.3344 59.1087 60.9913C57.7949 57.6114 54.4291 55.1281 50.812 54.8701C49.8375 54.8006 48.8388 54.8756 47.8446 54.9502C45.9936 55.0891 44.1581 55.2268 42.5235 54.4289C43.3916 57.0332 46.1715 58.068 48.87 59.0725L48.8701 59.0725C49.5816 59.3374 50.2875 59.6002 50.9512 59.8891C54.4118 61.3953 57.1881 64.096 59.8816 66.7398C54.6538 65.675 49.2084 66.8837 44.229 68.7992C41.745 69.7549 39.3334 70.8843 36.9219 72.0138L36.9219 72.0138C34.4995 73.1483 32.0771 74.2829 29.5812 75.2412C32.7431 75.3458 35.8528 74.5611 38.9257 73.7856C39.1175 73.7372 39.3092 73.6889 39.5007 73.6408C51.661 70.5861 64.7787 68.5199 76.515 72.9313C77.5835 73.333 78.6325 73.786 79.6812 74.2388L79.6812 74.2389C81.1595 74.8773 82.6372 75.5155 84.1686 76.0093C93.0837 78.8841 102.768 76.6158 111.768 74.0185C104.339 78.0816 95.5097 79.5236 87.1742 78.0349C84.7276 77.598 82.265 78.283 79.8487 78.9551C79.4839 79.0565 79.1203 79.1577 78.7579 79.2546C73.7137 80.6042 68.4602 81.1682 63.2445 80.92C70.666 84.2489 78.9795 83.5622 87.2911 82.8757C95.6352 82.1865 103.977 81.4974 111.414 84.8716C101.233 82.4884 90.5165 82.4273 80.3097 84.6941C79.2641 84.9264 78.2114 85.1827 77.1546 85.44C71.8692 86.7269 66.4807 88.039 61.353 86.4886C59.0881 85.8038 57.0423 84.5981 54.9942 83.391C53.1785 82.3208 51.361 81.2496 49.3872 80.5393C45.2861 79.0634 40.6064 79.2726 36.6534 81.1086C41.1245 80.4743 45.8405 79.8666 50.0291 81.5544ZM137.023 67.9876C136.957 67.9098 136.89 67.8334 136.822 67.7583C136.887 67.8365 136.954 67.913 137.023 67.9876ZM129.662 69.5996L129.393 69.3326C129.734 68.8675 129.708 68.1688 129.333 67.7305C129.418 67.5715 129.668 67.5794 129.8 67.7028C129.931 67.8261 129.972 68.0155 130 68.1933C130.081 68.6953 130.073 69.3 129.662 69.5996ZM129.428 75.5616C129.841 74.7501 129.934 73.7803 129.681 72.9052C129.494 72.9038 129.309 72.824 129.18 72.6892C129.375 73.6302 129.336 74.6187 129.067 75.5413C129.178 75.4811 129.324 75.4892 129.428 75.5616ZM121.014 72.9052C120.858 72.9255 120.766 73.0887 120.835 73.2299C121.264 74.1027 122.641 76.7374 124.039 77.5581C124.147 77.56 124.253 77.4966 124.302 77.4009C122.92 76.5201 121.58 73.7389 121.26 73.042C121.216 72.9474 121.117 72.8917 121.014 72.9052ZM129.398 81.4644L128.83 80.924C129.153 80.806 129.547 80.9279 129.747 81.2075C129.947 81.4871 129.935 81.8998 129.719 82.1672C129.63 82.2769 129.507 82.364 129.368 82.3866C129.261 82.4039 129.153 82.383 129.046 82.3621C128.621 82.2783 128.188 82.1918 127.808 81.9825C127.428 81.7732 127.104 81.4175 127.044 80.9881C127.661 81.4949 128.439 81.8035 129.236 81.8583L129.398 81.4644ZM127.13 82.1993C125.55 82.4946 123.991 82.901 122.467 83.4146C123.777 83.451 125.074 83.8666 126.161 84.598C127.556 85.537 129.207 86.0923 130.886 86.1875C129.094 86.6359 127.095 86.1418 125.718 84.9107C125.055 84.3169 124.159 84.0337 123.271 83.9612C122.384 83.8887 121.493 84.0103 120.611 84.1375C121.879 82.9283 123.644 82.4263 125.334 81.9656C125.956 81.7962 126.748 81.6807 127.13 82.1993ZM125.219 85.7259C123.506 86.5436 122.013 87.8166 120.935 89.3787C120.442 90.0928 120.028 90.889 119.931 91.7514C119.795 92.9751 120.307 94.1675 120.809 95.2922C121.895 97.7294 123.008 100.21 124.786 102.2C127.54 105.283 131.49 106.803 135.404 108.309L135.404 108.309L135.404 108.309L135.404 108.309L135.405 108.31L135.405 108.31L135.405 108.31L135.405 108.31L135.405 108.31L135.406 108.31L135.406 108.31L135.406 108.31L135.406 108.31L135.406 108.31L135.406 108.31C136.428 108.703 137.448 109.096 138.443 109.515C152.004 115.225 162.254 126.846 170.009 139.35L170.075 139.457C171.082 141.082 172.132 142.775 173.772 143.749C165.385 128.533 153.182 114.693 137.075 108.178C136.383 107.898 135.679 107.628 134.973 107.358L134.973 107.358L134.973 107.357L134.972 107.357L134.972 107.357L134.972 107.357L134.971 107.357L134.971 107.357L134.97 107.357L134.97 107.356L134.97 107.356L134.969 107.356L134.969 107.356L134.969 107.356L134.968 107.356C131.472 106.016 127.924 104.657 125.441 101.916C123.972 100.294 122.99 98.2986 122.076 96.3106C121.417 94.8776 120.769 93.356 120.899 91.784C121.11 89.24 123.243 87.3411 125.219 85.7259ZM80.6322 156.002C81.209 159.093 81.9368 162.168 83.0683 165.102C84.1077 167.797 85.4852 170.362 87.1583 172.717C81.0649 166.155 79.2778 156.73 78.6029 147.801C78.0638 140.668 78.0663 133.494 78.6103 126.361C76.5395 137.154 76.1193 148.372 78.492 159.103C80.8647 169.834 86.1509 180.067 94.304 187.437C94.6488 187.748 94.3237 188.382 93.8692 188.479C93.4146 188.576 92.9634 188.335 92.5614 188.101C84.0362 183.154 75.4462 177.367 70.7733 168.688C70.577 168.324 70.467 167.738 70.861 167.611C76.2857 175.386 83.4873 181.914 91.7564 186.552C81.1681 176.291 76.097 161.26 75.6903 146.522C75.2835 131.783 79.1522 117.233 84.3143 103.422C84.9792 101.643 85.7139 99.8009 87.1319 98.5375C79.3388 116.482 77.044 136.77 80.6322 156.002ZM180.555 149.404C179.487 149.666 178.331 149.551 177.336 149.085C179.511 150.621 181.49 152.436 183.208 154.471C181.983 154.192 180.847 153.535 179.994 152.613L181.766 155.906L178.767 153.261L179.747 156.076C174.643 151.937 170.538 146.709 166.445 141.495L166.445 141.495L166.445 141.495C161.445 135.126 156.462 128.778 149.694 124.464C142.504 119.88 133.957 118.039 125.613 116.278C126.16 115.921 126.48 115.244 126.408 114.595C121.81 119.152 118.125 124.626 115.633 130.6C114.595 133.091 113.763 135.662 112.932 138.23C111.851 141.572 110.766 144.931 110.211 148.399C109.432 153.262 109.712 158.225 109.993 163.142L110.61 173.922C110.64 174.435 111.023 175.148 111.45 174.86L110.877 163.752C110.669 159.707 110.461 155.644 110.849 151.612C111.332 146.601 112.729 141.724 114.31 136.944C116.648 129.875 119.581 122.684 125.078 117.662C125.603 117.182 126.418 117.288 127.115 117.429C133.512 118.726 139.857 120.496 145.715 123.375C151.573 126.254 156.949 130.291 160.791 135.568C166.352 143.207 172.606 150.342 179.45 156.857C180.009 156.658 180.386 156.042 180.31 155.454C180.701 156.078 181.442 156.467 182.178 156.433L182.242 154.928C182.739 155.332 183.516 155.342 184.023 154.951C183.027 153.125 181.562 151.557 179.808 150.439L181.053 150.36C181.536 149.808 180.847 149.016 180.231 148.618L172.983 143.941C175.17 146.177 177.743 148.033 180.555 149.404ZM31.5901 139.613C35.442 138.931 39.4133 138.202 42.6831 136.055C44.4151 134.917 45.8689 133.433 47.324 131.948C48.0147 131.243 48.7058 130.538 49.427 129.869C54.2811 125.368 60.6357 122.514 67.2244 121.875C61.1108 127.54 57.9342 136.219 58.946 144.492C59.1098 145.831 59.3758 147.157 59.6417 148.483C60.0299 150.418 60.4177 152.351 60.4862 154.32C60.5356 155.741 60.4177 157.167 60.3 158.59C60.1319 160.622 59.9642 162.651 60.2845 164.656C61.0463 169.427 64.3237 173.126 67.6016 176.825C68.8559 178.24 70.1103 179.656 71.2238 181.132C72.8014 183.223 74.1529 185.572 74.5524 188.16C74.8552 190.123 74.5965 192.131 74.1795 194.072C73.2281 198.502 71.4459 202.751 68.9532 206.535C71.6697 205.929 73.1583 203.07 74.2445 200.508C76.2456 195.787 78.1395 190.536 76.5947 185.647C75.9708 183.673 74.8318 181.933 73.6913 180.191C73.1643 179.386 72.637 178.581 72.16 177.752C68.8397 171.979 68.0133 164.827 69.9298 158.449C68.9414 165.285 70.4202 172.451 74.0338 178.337C74.3779 178.898 74.7418 179.45 75.1059 180.001C76.1456 181.578 77.186 183.155 77.7679 184.942C78.3067 186.596 78.4254 188.362 78.3614 190.101C78.1326 196.322 75.5273 202.426 71.1935 206.895C70.5141 207.596 69.4626 208.297 68.6482 207.759C67.8205 207.213 68.0776 205.947 68.4759 205.038C69.052 203.725 69.7314 202.432 70.4108 201.139C72.1859 197.761 73.9607 194.384 73.8903 190.637C73.7941 185.515 70.2571 181.176 66.7912 177.403L66.6193 177.216C63.202 173.497 59.5543 169.528 58.8438 164.54C58.5567 162.524 58.7797 160.496 59.0031 158.463C59.1567 157.066 59.3105 155.667 59.2993 154.268C59.2823 152.164 58.8931 150.094 58.5034 148.022C58.2379 146.61 57.9723 145.197 57.8239 143.772C57.0517 136.354 59.6489 128.65 64.7548 123.214C59.3984 124.282 54.3403 126.809 50.2698 130.451C49.4398 131.193 48.6483 131.982 47.8573 132.771L47.8572 132.771C46.3402 134.283 44.8248 135.794 43.0429 136.972C39.151 139.544 34.3699 140.287 29.7552 140.97C29.4433 140.568 29.8612 140.017 30.2482 139.687L42.4794 129.247C38.942 130.892 35.0201 131.702 31.1206 131.595C31.657 131.225 32.1978 130.858 32.7391 130.492L32.7394 130.492C35.6374 128.529 38.5494 126.557 40.8659 123.948C43.6151 120.852 45.4477 116.607 44.5382 112.568C43.6287 108.528 39.2689 105.233 35.3196 106.477C34.3732 106.775 33.5227 107.291 32.6708 107.808C31.996 108.218 31.3202 108.628 30.595 108.931C32.0531 103.254 38.177 100.003 43.9745 99.1433C46.7759 98.7278 49.6151 98.7044 52.4534 98.6809C55.4889 98.6558 58.5235 98.6307 61.5099 98.1262C58.4297 100.016 54.754 99.8819 51.0518 99.7469H51.0517H51.0516H51.0515H51.0515H51.0514H51.0513H51.0512H51.0512H51.0511H51.051H51.0509C49.2956 99.6829 47.5343 99.6187 45.8276 99.77C40.5768 100.235 35.5623 102.944 32.294 107.08C35.4235 103.883 41.3782 105.042 43.9341 108.713C46.4899 112.385 46.0443 117.541 43.8496 121.439C41.6549 125.338 38.002 128.191 34.2481 130.625C40.1047 129.834 45.6043 126.661 49.2213 121.988C44.5662 128.936 38.5394 134.96 31.5901 139.613ZM175.596 192.088C172.664 195.67 167.822 197.147 163.2 197.398C158.306 197.663 153.352 196.752 148.873 194.761C147.966 194.358 147.072 193.908 146.291 193.295C145.609 192.76 145.027 192.112 144.45 191.465C138.133 184.379 131.968 176.869 128.658 167.972C128.116 166.518 127.649 164.986 127.779 163.44C129.638 169.116 132.313 174.525 135.698 179.447C138.065 182.889 140.769 186.084 143.469 189.272C144.436 190.415 145.409 191.563 146.561 192.519C149.179 194.692 152.554 195.733 155.899 196.358C161.593 197.423 167.898 197.302 172.649 193.987C172.895 193.815 173.136 193.635 173.378 193.455C174.081 192.932 174.784 192.407 175.596 192.088ZM131.535 67.9476C131.864 68.5572 132.167 69.1812 132.442 69.8172C132.587 69.0567 132.341 68.2322 131.802 67.676L131.535 67.9476ZM131.679 76.9627C132.067 75.911 132.461 74.8252 132.416 73.7051C132.409 73.5336 132.433 73.3051 132.602 73.2742C133.112 74.5399 132.857 76.0814 131.965 77.1146L131.679 76.9627ZM125.135 70.3976C126.407 70.3977 127.68 70.6371 128.866 71.0996C127.819 70.3106 126.482 69.9146 125.174 70.0058C124.72 70.0375 124.334 70.4728 124.356 70.9272C124.378 71.3816 124.805 71.7773 125.26 71.7648C125.252 71.5655 125.113 71.4095 124.976 71.2563L124.976 71.2562L124.976 71.2562L124.976 71.2561C124.939 71.2149 124.903 71.1738 124.869 71.1321C124.709 70.9356 124.622 70.6019 124.832 70.4599C124.919 70.4012 125.03 70.3976 125.135 70.3976ZM204.377 192.166C203.173 191.73 201.938 191.389 200.704 191.049L195.814 189.7C188.001 187.545 179.891 185.37 171.888 186.659C170.631 186.862 169.368 187.149 168.104 187.436L168.104 187.436L168.104 187.436L168.104 187.436C164.647 188.221 161.188 189.007 157.833 188.069C157.553 187.991 157.251 187.595 157.525 187.497C160.953 188.431 164.502 187.661 168.027 186.896C169.055 186.673 170.08 186.45 171.1 186.271C174.74 185.629 178.477 185.537 182.144 185.997C185.598 186.431 188.969 187.349 192.327 188.263L202 190.898C203.223 191.231 204.449 191.565 205.635 192.011C208.153 192.957 210.48 194.408 212.437 196.253C212.205 196.454 211.859 196.423 211.556 196.379C201.424 194.922 191.427 192.532 181.731 189.25C176.167 187.367 169.613 188.812 165.357 192.861C168.589 193.303 171.933 192.889 174.959 191.671C173.571 192.737 171.872 193.391 170.128 193.531C169.203 193.605 168.255 193.542 167.311 193.479C165.572 193.363 163.849 193.248 162.312 193.994L164.854 192.292C167.951 190.219 171.222 188.081 174.933 187.748C177.873 187.483 180.77 188.384 183.596 189.263L183.996 189.387C192.73 192.094 201.663 194.161 210.698 195.567C208.772 194.133 206.635 192.983 204.377 192.166ZM126.535 132.698C127.778 134.867 128.499 137.334 128.618 139.831C128.704 141.619 128.487 143.397 128.27 145.177C128.116 146.445 127.961 147.714 127.915 148.988C127.694 155.171 130.048 161.174 133.051 166.583C136.361 172.543 140.773 178.256 146.982 181.07C153.192 183.885 161.481 182.949 165.551 177.48C161.239 178.64 156.481 178.039 152.593 175.842C156.017 176.191 159.64 174.975 161.915 172.393C164.19 169.811 164.913 165.862 163.403 162.769C161.894 159.677 158.091 157.797 154.79 158.768C151.488 159.739 149.289 163.663 150.451 166.903C150.975 168.365 152.144 169.629 153.634 170.067C155.124 170.506 156.899 170.004 157.786 168.729C159.304 166.548 157.57 163.321 155.101 162.339C157.654 161.74 160.369 164.061 160.417 166.683C160.465 169.305 158.109 171.65 155.495 171.855C152.88 172.06 150.311 170.317 149.263 167.913C148.215 165.509 148.599 162.612 149.98 160.383C151.627 157.725 154.641 155.987 157.763 155.819C160.885 155.651 164.038 157.031 166.091 159.39C168.999 162.733 169.539 167.518 169.321 171.943C169.03 177.86 174.54 183.398 180.457 183.138C185.496 182.917 190.589 184.054 195.055 186.399C193.979 183.173 190.473 181.486 187.208 180.536C186.725 180.395 186.236 180.26 185.745 180.125C182.913 179.347 180.019 178.551 177.973 176.499C175.885 174.405 175.15 171.508 174.408 168.582C173.971 166.862 173.532 165.132 172.814 163.548C173.548 169.076 174.702 175.3 179.378 178.338C181.147 179.487 183.212 180.017 185.269 180.545C185.826 180.689 186.382 180.831 186.932 180.986C189.512 181.714 192.184 182.879 193.564 185.178C190.675 183.234 187.085 182.997 183.556 182.765H183.556C182.793 182.715 182.032 182.664 181.283 182.597C177.064 182.22 172.302 180.732 170.701 176.811C169.998 175.092 170.043 173.204 170.088 171.326V171.326V171.325V171.325C170.101 170.777 170.114 170.23 170.109 169.688C170.045 163.413 166.505 156.601 160.387 155.203C156.132 154.23 151.358 156.34 149.213 160.142C147.714 162.798 147.519 166.239 149.032 168.886C150.545 171.534 153.847 173.139 156.797 172.367C159.747 171.594 161.883 168.285 161.075 165.345C160.267 162.405 156.395 160.68 153.804 162.288C155.055 162.751 156.28 163.428 157.068 164.505C157.855 165.583 158.107 167.128 157.403 168.262C156.133 170.306 152.664 169.589 151.436 167.52C149.935 164.993 151.112 161.357 153.693 159.951C156.275 158.545 159.765 159.36 161.683 161.588C163.6 163.817 163.948 167.177 162.805 169.885C161.701 172.502 159.28 174.522 156.508 175.14C153.737 175.758 150.687 174.957 148.576 173.058C148.086 173.753 148.844 174.642 149.551 175.116C153.291 177.622 157.759 179.027 162.26 179.112C157.644 182.695 150.814 182.271 145.724 179.399C140.635 176.527 136.998 171.651 134.005 166.632C131.22 161.963 128.805 156.852 128.65 151.418C128.594 149.45 128.837 147.494 129.08 145.537L129.08 145.536C129.266 144.036 129.452 142.536 129.504 141.028C129.624 137.552 128.867 133.769 126.252 131.476C118.326 140.189 115.075 152.925 117.854 164.372C119.29 170.285 122.19 175.738 125.365 180.93C125.589 181.298 125.816 181.665 126.043 182.033C127.974 185.164 129.923 188.325 130.893 191.861C131.978 195.813 131.626 200.425 128.888 203.474C130.09 198.442 128.971 192.905 125.909 188.735C124.83 187.267 123.539 185.977 122.247 184.688L122.246 184.687C121.132 183.575 120.017 182.462 119.037 181.233C115.497 176.79 113.942 171.132 112.471 165.645C113.004 173.403 116.728 180.893 122.59 186.001C128.092 190.796 130.163 199.144 127.54 205.954C130.608 203.218 132.376 199.083 132.235 194.975C132.059 189.825 129.17 185.377 126.311 180.973C125.522 179.757 124.734 178.544 124.007 177.321C119.916 170.443 117.517 162.471 117.763 154.472C118.008 146.473 121.004 138.482 126.535 132.698Z" fill="#018A08"/>
<defs>
<linearGradient id="paint0_linear_5661_300337" x1="121.962" y1="70.7188" x2="123.539" y2="71.8265" gradientUnits="userSpaceOnUse">
<stop stop-color="#EF6795"/>
<stop offset="0.32" stop-color="#ED2A65"/>
<stop offset="0.7" stop-color="#AC1D40"/>
<stop offset="1" stop-color="#83161E"/>
</linearGradient>
<linearGradient id="paint1_linear_5661_300337" x1="125.978" y1="77.3679" x2="127.676" y2="78.5961" gradientUnits="userSpaceOnUse">
<stop stop-color="#EF6795"/>
<stop offset="0.32" stop-color="#ED2A65"/>
<stop offset="0.7" stop-color="#AC1D40"/>
<stop offset="1" stop-color="#83161E"/>
</linearGradient>
</defs>
</svg>
