<svg width="240" height="240" viewBox="0 0 240 240" fill="none" xmlns="http://www.w3.org/2000/svg">
<path fill-rule="evenodd" clip-rule="evenodd" d="M106.499 200.457C97.1587 205.137 86.209 205.518 75.8477 204.185C55.7889 201.605 35.5323 191.881 25.5585 174.287C21.2564 166.698 19.0835 158.093 17.5697 149.502C15.548 138.028 14.7313 125.693 19.8117 115.209C24.0945 106.37 32.0426 99.9382 39.9613 94.128C48.2604 88.0385 57.2509 82.118 67.4723 80.901C96.9578 80.317 93.9708 91.3934 124.764 73.777C133.716 68.6558 160.33 77.4465 169.322 80.317C178.315 83.1875 196.059 92.0435 208.093 102.564C213.124 106.961 217.763 111.994 220.59 118.047C224.823 127.111 224.618 137.67 222.643 147.477C220.651 157.369 216.326 167.657 207.541 172.621C203.573 174.864 198.996 175.826 194.452 176.194C175.476 177.731 155.291 169.629 137.925 177.434C126.037 182.776 118.151 194.619 106.499 200.457Z" fill="#D5F6DE"/>
<path fill-rule="evenodd" clip-rule="evenodd" d="M35.3467 119.037C38.9124 115.524 42.2637 111.903 44.5191 108.747C47.6237 104.402 52.1756 100.271 57.5694 99.4745C63.8595 98.5451 69.6363 102.882 74.2086 107.3C80.5254 113.404 86.1944 120.178 91.0897 127.472C89.126 127.728 84.8946 130.657 79.2712 130.564C75.9611 130.509 72.0064 127.559 68.1836 127.362C65.5284 127.225 62.6296 130.005 59.9559 129.793C55.281 129.422 50.9086 125.98 46.965 125.358C44.6157 124.987 41.4452 127.322 39.6392 126.853C34.6763 125.566 33.2056 121.146 35.3467 119.037Z" fill="white"/>
<path fill-rule="evenodd" clip-rule="evenodd" d="M142.272 173.681C157.683 168.6 174.382 174.489 190.607 174.271C197.796 174.175 205.48 172.589 210.429 167.374C199.59 160.992 191.363 150.843 185.37 139.784C179.377 128.725 175.437 116.694 171.529 104.738C166.387 101.806 159.769 106.764 154.125 104.981C151.241 104.07 147.797 101.595 145.728 103.8C144.478 105.131 142.151 104.348 140.936 102.986C139.721 101.623 139.044 99.8118 137.674 98.6053C136.304 97.3988 133.703 97.2468 133.006 98.9341C131.799 101.855 130.527 104.872 128.212 107.024C125.898 109.177 122.229 110.216 119.518 108.59C117.401 107.321 116.402 104.851 115.168 102.712C113.935 100.573 113.454 98.6506 111.002 98.9341C102.717 116.388 96.5327 133.546 86.3415 149.96C81.9622 157.013 57.4601 183.9 43.2231 180.435C28.986 176.97 30.0423 174.271 25.2344 170.011C30.2426 180.2 39.0899 188.216 49.1917 193.398C59.2935 198.58 70.608 201.071 81.9256 201.971C86.3915 202.326 90.9209 202.438 95.3168 201.574C113.332 198.034 124.835 179.43 142.272 173.681Z" fill="white"/>
<path fill-rule="evenodd" clip-rule="evenodd" d="M126.822 105.603C128.401 103.564 129.387 101.11 131.014 99.1085C132.64 97.1069 135.282 95.5553 137.742 96.3284C140.032 97.0478 141.292 99.4369 142.313 101.609C142.825 102.7 144.384 102.784 145.506 102.347C146.629 101.909 147.639 101.119 148.837 100.988C151.316 100.718 153.183 103.285 155.605 103.876C159.209 104.756 162.832 101.078 166.395 102.116C167.902 102.555 169.207 103.815 170.773 103.708C167.761 96.4861 165.491 88.9659 162.328 81.8088C159.165 74.6517 154.994 67.744 148.921 62.8095C148.296 62.3021 147.613 61.7998 146.815 61.698C146.017 61.5962 145.092 62.0494 144.952 62.8417C144.537 65.1973 144.121 67.5528 143.705 69.9084C143.499 71.0745 142.956 72.5385 141.772 72.5164C140.983 72.5016 140.377 71.7282 140.269 70.9467C140.16 70.1652 140.422 69.3849 140.68 68.6393C141.489 66.3031 142.297 63.9669 143.106 61.6307C137.558 63.6327 132.749 67.3486 128.763 71.6956C124.776 76.0427 121.553 81.0248 118.463 86.0486C115.817 90.3501 113.254 94.7024 110.775 99.1024C114.099 98.6305 116.994 101.36 118.874 104.14C119.999 105.804 121.339 107.786 123.347 107.779C124.763 107.774 125.955 106.723 126.822 105.603Z" fill="white"/>
<path fill-rule="evenodd" clip-rule="evenodd" d="M148.318 55.3293C147.95 55.2111 147.563 55.0768 147.313 54.7826C146.952 54.3592 146.976 53.7405 147.02 53.1861C147.449 47.7076 147.878 42.2292 148.307 36.7507C148.356 36.1159 148.979 35.6478 149.609 35.5541C150.239 35.4604 150.872 35.6511 151.48 35.8396C155.404 37.0556 159.327 38.2716 163.25 39.4876C164.208 39.7844 164.259 41.1135 164.057 42.0954C163.855 43.0774 163.704 44.3382 164.561 44.8579C170.283 48.3267 176.363 51.2042 182.673 53.4298C183.081 53.5736 183.111 54.1939 182.826 54.5193C182.541 54.8447 182.086 54.9497 181.663 55.04C175.257 56.4069 168.988 58.4177 162.982 61.0323C162.141 61.3981 161.044 61.7324 160.41 61.0709C159.958 60.6002 160.002 59.8644 159.963 59.2133C159.925 58.5623 159.638 57.7827 158.991 57.7004C155.37 57.2403 151.792 56.4455 148.318 55.3293ZM161.759 44.2171C162.636 42.8273 162.011 40.7264 160.516 40.0431C156.97 38.4228 153.249 37.1868 149.438 36.3638C150.072 37.3409 150.038 38.5907 149.982 39.7538C149.767 44.2197 149.547 48.7268 148.381 53.0432C148.28 53.4164 148.76 53.6592 149.137 53.7435C152.517 54.4992 155.922 55.1416 159.344 55.6692C159.062 52.3708 158.78 49.0723 158.498 45.7738C158.467 45.4072 158.438 45.0242 158.578 44.6838C158.804 44.1322 159.432 43.8325 160.028 43.8155C160.624 43.7986 161.2 44.0094 161.759 44.2171ZM161.024 46.8171C161.293 50.6873 161.562 54.5576 161.831 58.4279C161.855 58.7672 161.895 59.1417 162.146 59.3714C167.601 57.1068 173.253 55.3149 179.016 54.0225C172.771 52.2292 167.502 47.3236 161.024 46.8171Z" fill="url(#paint0_linear_5661_300371)"/>
<path fill-rule="evenodd" clip-rule="evenodd" d="M106.499 200.457C97.1587 205.136 86.209 205.518 75.8478 204.185C55.7889 201.605 35.5323 191.881 25.5585 174.287C21.2564 166.698 19.0836 158.093 17.5698 149.502C16.7392 144.788 15.1263 137.729 18.0797 134.525C18.7396 133.809 37.2777 118.88 44.5189 108.747C47.6235 104.402 52.1755 100.271 57.5693 99.4744C63.8593 98.5451 69.6361 102.882 74.2085 107.3C80.5253 113.404 86.1942 120.178 91.0895 127.472C85.6949 125.18 81.8124 120.417 78.229 115.779C74.6456 111.141 70.9429 106.288 65.6969 103.674C60.4509 101.06 53.1656 101.495 49.7585 106.264C41.6377 117.631 31.365 127.456 19.647 135.061C18.7656 135.633 18.6859 136.87 18.7025 137.921C18.8929 150.048 20.2488 163.859 29.9503 171.138C38.0534 177.217 49.8162 176.424 58.6923 171.542C67.5685 166.66 74.06 158.402 79.633 149.942C95.9809 125.127 106.596 96.7631 124.167 72.7989C128.207 67.2899 132.966 61.7808 139.473 59.704C143.816 58.3183 145.033 52.7773 144.953 48.2198C144.874 43.6623 144.442 38.4807 147.607 35.2C146.94 42.7788 146.273 50.3577 145.606 57.9366C155.326 62.7622 161.003 73.0365 165.169 83.0565C171.356 97.9357 175.556 113.597 182.07 128.336C188.583 143.075 197.829 157.238 211.496 165.775C217.823 157.538 221.43 144.353 221.43 136.819C217.823 132.887 212.698 126.735 206.702 123.966C199.555 120.664 191.714 126.453 185.973 131.84C189.146 127.009 192.955 121.925 198.57 120.557C203.103 119.453 207.954 121.1 211.715 123.861C215.476 126.621 218.343 130.4 221.155 134.123C223.997 135.061 224.618 137.67 222.643 147.477C220.651 157.369 216.326 167.657 207.541 172.621C203.573 174.864 198.996 175.826 194.452 176.194C175.476 177.731 155.291 169.629 137.925 177.433C126.037 182.776 118.151 194.619 106.499 200.457ZM142.271 173.681C157.682 168.6 174.382 174.489 190.607 174.271C197.796 174.175 205.48 172.589 210.429 167.374C199.59 160.992 191.362 150.843 185.37 139.784C179.377 128.725 175.437 116.694 171.529 104.738C166.387 101.806 159.769 106.764 154.125 104.981C151.241 104.07 147.797 101.595 145.727 103.8C144.478 105.131 142.151 104.348 140.936 102.986C139.721 101.623 139.044 99.8118 137.674 98.6053C136.304 97.3987 133.703 97.2467 133.006 98.934C131.799 101.855 130.526 104.872 128.212 107.024C125.898 109.177 122.229 110.216 119.518 108.59C117.401 107.321 116.401 104.851 115.168 102.712C113.935 100.573 111.892 98.4351 109.44 98.7185C101.156 116.173 91.8887 133.16 81.6975 149.574C77.3182 156.627 72.6832 163.674 66.411 169.113C60.1388 174.552 51.9481 178.272 43.6805 177.516C37.0089 176.905 30.9487 173.507 25.2342 170.011C30.2424 180.2 39.0897 188.216 49.1915 193.398C59.2933 198.58 70.6078 201.071 81.9253 201.971C86.3913 202.326 90.9207 202.438 95.3166 201.574C113.332 198.034 124.835 179.43 142.271 173.681ZM126.502 104.323C128.081 102.284 129.067 99.8301 130.694 97.8285C132.32 95.8269 134.962 94.2753 137.422 95.0484C139.712 95.7678 140.972 98.1569 141.993 100.329C142.505 101.42 144.063 101.504 145.186 101.067C146.309 100.629 147.319 99.8387 148.517 99.708C150.995 99.4375 152.862 102.005 155.285 102.596C158.889 103.476 162.512 99.7978 166.075 100.836C167.582 101.275 168.887 102.535 170.453 102.428C167.44 95.2061 165.188 88.0952 162.025 80.9381C158.862 73.7811 151.991 61.1239 146.495 60.418C140.936 59.704 132.429 66.0685 128.443 70.4156C124.456 74.7626 121.232 79.7447 118.142 84.7686C115.497 89.0701 112.934 93.4224 110.455 97.8224C113.779 97.3505 116.674 100.08 118.554 102.86C119.679 104.524 121.019 106.506 123.027 106.499C124.443 106.494 125.635 105.443 126.502 104.323Z" fill="#25A749"/>
<path fill-rule="evenodd" clip-rule="evenodd" d="M102.003 46.2834C98.5117 46.6378 95.6636 49.7033 94.225 53.852C93.8511 54.9303 92.6235 55.4284 90.4695 55.6359L90.3337 55.6485C85.5647 56.0737 82.3988 57.302 80.8723 60.11L80.8084 60.2301C80.6843 60.4689 80.5779 60.7073 80.4224 61.0841L80.322 61.3295C79.9618 62.2148 79.7775 62.5894 79.4692 62.9791C78.5091 64.1928 77.0644 64.5664 74.1734 64.6533L73.8522 64.6616C66.9256 64.8159 62.0323 65.8683 58.0684 68.6366C56.9345 69.4285 56.2594 70.2146 56.1082 71.2221C55.935 72.3768 56.6058 73.5724 57.6768 74.2289C58.5339 74.7542 59.5618 74.9616 60.8455 74.9654C62.4074 74.97 63.9692 74.698 65.4376 74.1659L65.56 74.1211C65.7811 74.039 65.9909 73.9555 66.3026 73.8263L66.9627 73.5508C68.3169 72.9905 68.974 72.7919 69.798 72.7487C71.0693 72.682 72.0724 73.0175 74.2087 74.0613L74.658 74.2818C75.123 74.5094 75.4586 74.668 75.7876 74.8122L75.8773 74.8512C79.4611 76.3992 83.1251 76.6581 89.076 76.2043L90.2502 76.1095L92.8507 75.8896C93.5334 75.8341 94.0221 75.7985 94.5851 75.7629L95.1283 75.7309C97.4464 75.6047 99.9208 75.6026 103.961 75.6832L106.74 75.7412C112.31 75.8511 114.821 75.8214 117.498 75.5459C120.608 75.2258 122.633 73.0542 123.464 69.8372C124.137 67.2299 123.892 64.1876 122.954 62.7422C121.082 59.8557 118.287 58.1172 115.716 58.9183C114.864 59.1839 113.791 58.5579 113.244 57.5311C112.947 56.9733 112.796 56.4702 112.548 55.3429L112.429 54.7972C112.359 54.4889 112.309 54.2826 112.245 54.0508C111.372 50.894 108.99 48.1984 105.964 46.9446C104.637 46.3945 103.286 46.1533 102.003 46.2834ZM105.597 47.8315C108.302 48.9527 110.452 51.3516 111.278 54.1608L111.319 54.3065C111.379 54.5218 111.427 54.7171 111.493 55.0141L111.641 55.6876C111.891 56.8061 112.059 57.3485 112.397 57.9825C113.126 59.3499 114.588 60.2222 115.922 59.8582L116.001 59.8349C118.064 59.1922 120.483 60.6972 122.149 63.2646C122.923 64.4571 123.146 67.2291 122.534 69.5973C121.796 72.4585 120.062 74.3168 117.4 74.5909L117.101 74.6207C114.649 74.8566 112.21 74.8848 107.18 74.7895L103.508 74.7142C99.7198 74.6426 97.3304 74.6494 95.0748 74.7723L94.19 74.8265C93.5585 74.8688 92.9563 74.9161 91.9726 74.9992L89.2608 75.2271C83.3872 75.6901 79.816 75.4683 76.4082 74.0339L76.2579 73.9699C75.9731 73.8469 75.6886 73.7149 75.3154 73.5341L74.4725 73.122C72.2946 72.0658 71.2024 71.7137 69.7477 71.79C68.7533 71.8422 68.0097 72.0741 66.4671 72.7171L65.7848 73.0014C65.515 73.112 65.3265 73.1851 65.1106 73.2633C63.7479 73.7572 62.2977 74.0096 60.8483 74.0054C59.7248 74.002 58.8587 73.8273 58.1785 73.4104C57.4149 72.9424 56.9462 72.1069 57.0576 71.3645C57.1595 70.6853 57.681 70.0782 58.6181 69.4237C62.3405 66.824 66.9938 65.7992 73.6045 65.6279L73.8736 65.6214C77.2649 65.5459 78.9813 65.1433 80.2221 63.5747C80.5736 63.1304 80.7805 62.7323 81.1163 61.9227L81.376 61.2914C81.5075 60.9789 81.6006 60.7804 81.7158 60.5685C83.003 58.2005 85.777 57.0701 90.0338 56.6412L90.419 56.6047C92.9694 56.3773 94.5211 55.7857 95.1008 54.2526L95.132 54.1665C96.461 50.3339 99.0492 47.5482 102.1 47.2385C103.165 47.1305 104.304 47.3209 105.442 47.7688L105.597 47.8315Z" fill="#25A749"/>
<path fill-rule="evenodd" clip-rule="evenodd" d="M206.05 66.1505L205.931 66.269C205.841 66.3611 205.752 66.4567 205.641 66.5789L205.202 67.0731C204.783 67.5424 204.557 67.7659 204.261 67.9895C203.615 68.4764 202.843 68.6269 202.329 68.3392C202.122 68.2235 201.968 68.0718 201.671 67.7067L201.45 67.4342C201.335 67.2946 201.253 67.2028 201.152 67.1014C199.827 65.7664 197.513 65.7017 195.752 66.7645C194.374 67.5962 193.383 68.8703 192.298 70.8973C191.855 71.7253 190.881 72.2979 189.722 72.473C189.159 72.558 188.566 72.5643 187.809 72.5082L187.438 72.4772L186.274 72.3592C180.147 71.7549 173.882 72.6206 168.148 74.8636C167.243 75.2175 166.74 75.5347 166.421 76.1255C165.961 76.977 166.427 78.2129 167.411 78.2673C184.217 79.1986 201.093 78.8804 217.852 77.3164L218.915 77.2165L219.691 77.1633C219.763 77.1579 219.823 77.153 219.897 77.1463L220.096 77.1265C221.625 76.957 222.465 76.4497 222.465 75.1786C222.465 73.9506 221.873 73.6147 220.379 73.4624L220.079 73.431C219.501 73.3678 219.236 73.3204 218.879 73.2098C217.612 72.8171 216.102 71.9984 215.773 71.5895C215.286 70.9846 215.078 70.4154 214.782 69.0921L214.688 68.6733C214.377 67.3102 214.129 66.66 213.543 65.9306C211.83 63.8017 208.176 64.0622 206.05 66.1505ZM212.795 66.5323C213.281 67.1369 213.488 67.7062 213.784 69.0274L213.878 69.4464C214.19 70.8117 214.437 71.462 215.025 72.1917C215.501 72.7817 217.162 73.6826 218.595 74.1268L218.727 74.1662C219.07 74.265 219.357 74.3154 219.86 74.3725L220.522 74.4437C221.367 74.5436 221.505 74.6638 221.505 75.1786C221.505 75.8048 221.052 76.0675 219.909 76.181L219.617 76.2062L218.886 76.2558C218.851 76.2586 218.818 76.2612 218.786 76.264L218.691 76.2726C201.674 77.9079 184.533 78.2547 167.464 77.3088C167.269 77.298 167.108 76.8728 167.265 76.5821C167.443 76.2546 167.794 76.033 168.498 75.7576C173.994 73.6076 179.993 72.7547 185.871 73.2854L186.59 73.3565L187.184 73.4174C187.323 73.431 187.438 73.4413 187.565 73.4519C188.47 73.5272 189.176 73.5264 189.865 73.4222C191.3 73.2054 192.543 72.4753 193.145 71.3502C194.155 69.4628 195.053 68.3075 196.248 67.5865C197.658 66.7357 199.487 66.7868 200.471 67.7776L200.528 67.8369C200.575 67.8873 200.623 67.9415 200.681 68.0115L200.866 68.2375C201.278 68.7495 201.497 68.9738 201.86 69.177C202.754 69.6773 203.918 69.4506 204.839 68.7558C205.177 68.5006 205.425 68.2603 205.835 67.8049L206.347 67.2298C206.496 67.0653 206.601 66.9549 206.723 66.8354C208.479 65.1103 211.479 64.8965 212.795 66.5323Z" fill="#25A749"/>
<path fill-rule="evenodd" clip-rule="evenodd" d="M144.953 48.2198C144.873 43.6623 144.442 38.4807 147.607 35.2C146.94 42.7788 146.273 50.3577 145.606 57.9366C146.689 58.4743 145.073 59.3738 144.095 59.3919C140.588 59.4566 145.033 52.7773 144.953 48.2198Z" fill="url(#paint1_linear_5661_300371)"/>
<defs>
<linearGradient id="paint0_linear_5661_300371" x1="150.746" y1="44.7989" x2="171.17" y2="63.656" gradientUnits="userSpaceOnUse">
<stop stop-color="#EF6795"/>
<stop offset="0.32" stop-color="#ED2A65"/>
<stop offset="0.7" stop-color="#AC1D40"/>
<stop offset="1" stop-color="#83161E"/>
</linearGradient>
<linearGradient id="paint1_linear_5661_300371" x1="143.36" y1="43.5906" x2="148.821" y2="44.4972" gradientUnits="userSpaceOnUse">
<stop stop-color="#EF6795"/>
<stop offset="0.32" stop-color="#ED2A65"/>
<stop offset="0.7" stop-color="#AC1D40"/>
<stop offset="1" stop-color="#83161E"/>
</linearGradient>
</defs>
</svg>
