<svg width="240" height="240" viewBox="0 0 240 240" fill="none" xmlns="http://www.w3.org/2000/svg">
<path fill-rule="evenodd" clip-rule="evenodd" d="M129.59 208.273C172.662 208.273 178.768 189.111 185.298 185.59C191.829 182.069 187.769 175.003 192.052 169.673C198.894 161.16 203.04 165.547 205.304 154.503C207.569 143.458 203.452 140.334 203.452 130.473C203.452 110.718 212.916 101.366 200.831 91.0296C188.745 80.6932 168.564 81.9128 148.603 81.9128C111.555 81.9128 89.3598 31.1253 39.9462 46.3621C22.9172 51.613 24.7993 58.7688 28.5411 84.0572C30.1659 95.0386 17.8977 109 20.0263 121.48C23.9139 144.272 34.1813 141.18 53.5536 156.568C56.8035 159.15 61.5436 159.123 65.0867 161.771C71.0266 166.21 71.4085 173.113 82.5133 177.768C100.42 185.275 98.9007 208.273 129.59 208.273Z" fill="#F9FAFB"/>
<ellipse cx="47.2504" cy="149.44" rx="10.8895" ry="10.24" fill="white"/>
<path fill-rule="evenodd" clip-rule="evenodd" d="M42.9798 112.93C41.1234 108.294 42.745 105.516 43.7844 101.89C44.6527 98.861 51.4425 93.9408 54.5675 99.0711C55.4868 100.58 55.118 102.007 57.1273 103.334C61.9912 106.545 59.3378 99.8827 59.5186 98.1986C59.6068 97.3771 58.9128 95.4827 59.1712 94.6899C59.4423 93.858 60.8874 92.6762 60.8874 90.9518C60.8874 89.2274 57.9479 88.5633 57.1273 88.1396C49.8352 84.3746 45.1975 78.0861 47.5087 74.8946C50.7286 70.448 63.3481 77.4442 67.1399 78.0861C67.189 78.0944 67.8662 74.5592 68.4193 73.7497C69.5259 72.1302 70.7489 70.5581 72.208 69.2471C72.8616 68.6598 73.7475 68.2973 74.6182 68.1798C77.2241 67.8282 79.8901 67.5399 82.5003 67.8583C83.4226 67.9708 88.9153 61.6138 91.057 59.5632C107.489 43.8305 140.429 63.0024 122.474 89.0542C119.174 93.8425 114.954 95.3652 114.409 97.0576C113.198 100.817 120.819 100.322 124.047 100.724C129.562 101.41 132.28 104.243 128.857 109.099C126.724 112.124 114.212 111.969 108.731 109.782C106.697 108.97 104.183 105.42 102.26 108.332C100.936 110.338 95.7708 114.595 90.2302 117.003C87.7293 118.09 84.8808 117.435 82.7467 118.406C79.7428 119.772 70.8748 125.509 67.1399 125.507C63.3785 125.506 58.5109 120.979 57.9479 120.682C57.0895 120.23 50.4497 118.933 47.1695 113.871C46.1776 112.34 43.6593 114.627 42.9798 112.93Z" fill="white"/>
<ellipse cx="106.846" cy="86.0536" rx="1.15355" ry="1.13705" fill="url(#paint0_linear_5661_300382)"/>
<circle cx="98.3998" cy="83.6801" r="1.12" fill="url(#paint1_linear_5661_300382)"/>
<ellipse cx="180" cy="82.72" rx="15.2" ry="15.2" fill="white"/>
<ellipse cx="132.472" cy="168.951" rx="44.168" ry="37.7507" fill="white"/>
<path fill-rule="evenodd" clip-rule="evenodd" d="M95.0275 189.534L95.5231 189.893C94.4044 190.897 92.7212 189.649 91.7776 188.479C90.2603 186.597 88.7203 184.598 88.2585 182.225C87.9958 180.875 88.1009 179.484 88.2071 178.113L88.6351 172.584C88.8248 170.134 89.0151 167.68 89.4392 165.259C90.5871 158.708 93.4764 152.471 97.731 147.359L97.7737 147.308C98.525 146.405 99.3455 145.42 99.331 144.25C99.3004 141.775 100.726 139.462 102.597 137.842C104.468 136.222 106.76 135.182 109.016 134.165C110.039 133.704 111.373 133.29 112.166 134.084C113.795 135.716 116.514 134.677 118.667 133.848C121.309 132.83 124.132 132.281 126.963 132.236C127.046 132.234 127.129 132.233 127.212 132.232L127.212 132.232C128.912 132.208 130.826 132.18 131.863 130.863C132.523 130.025 133.786 130.073 134.846 130.2L142.135 131.072C142.692 131.138 143.36 131.29 143.535 131.823C144.006 133.252 145.667 133.835 147.107 134.269C152.227 135.813 157.232 137.909 161.578 141.024C165.925 144.139 169.599 148.329 171.548 153.308C168.378 148.976 165.127 144.563 160.728 141.486C159.47 140.606 158.131 139.846 156.772 139.129C153.565 137.439 150.227 135.981 146.759 134.923C130.661 130.009 112.04 134.566 100.03 146.359C98.2886 148.068 96.6559 149.952 95.6684 152.183L96.973 152.588C94.9053 153.512 93.3695 155.537 93.0371 157.777C93.8692 156.352 95.0552 155.135 96.4586 154.267C96.0569 155.609 95.0122 156.687 93.9881 157.744C92.6829 159.091 91.4112 160.403 91.5462 162.183C92.1658 160.557 93.7268 159.329 95.4534 159.11C92.7149 161.786 89.7762 164.927 89.8635 168.754C90.8624 166.544 92.5586 164.655 94.6491 163.425L91.6395 167.469C90.5014 168.998 89.3028 170.746 89.563 172.635C90.5531 170.858 91.9687 169.32 93.6578 168.186C92.8444 170.036 91.6831 171.732 90.2528 173.159C91.613 172.995 92.9226 172.432 93.9773 171.557C93.5351 172.174 93.1368 172.871 93.1219 173.63C93.107 174.389 93.5988 175.203 94.3502 175.313C94.5776 174.804 95.291 174.589 95.7614 174.888C94.3356 176.275 94.3208 178.846 95.7307 180.249C95.856 179.589 96.4125 179.034 97.0722 178.909C96.0206 180.748 95.8315 183.057 96.57 185.042C96.7935 183.917 97.4176 182.876 98.3044 182.149C97.7931 184.817 96.6627 187.365 95.0275 189.534ZM94.4046 188.684C95.295 188.675 95.8487 187.679 95.9416 186.794C96.0527 185.734 95.7895 184.675 95.5284 183.643L93.9796 177.517C93.6881 177.61 93.6543 177.927 93.6188 178.259C93.5886 178.542 93.5571 178.837 93.3633 179.012C92.9712 178.524 92.9267 177.786 93.2573 177.255C93.591 176.719 93.3727 175.968 92.8993 175.55C92.4258 175.132 91.767 174.99 91.1358 174.969C90.7946 174.958 90.4318 174.984 90.1527 175.181C89.8735 175.377 89.7266 175.795 89.9249 176.072C90.5152 176.899 90.9592 177.831 91.2304 178.81C91.2507 178.883 91.2703 178.957 91.29 179.031C91.4248 179.54 91.5634 180.063 91.9354 180.425C92.2229 180.705 92.2962 181.133 92.3546 181.53L92.8278 184.749C92.9139 185.334 93 185.932 92.9015 186.516C92.8029 187.1 92.4874 187.679 91.9578 187.944L93.6489 188.519C93.8943 188.603 94.1455 188.687 94.4046 188.684ZM112.838 135.926C112.505 135.997 112.225 135.704 111.987 135.454L111.959 135.425C111.715 135.17 111.294 134.947 111.037 135.189C108.035 138.013 104.62 140.396 100.933 142.238C100.264 142.572 100.174 143.474 100.174 144.222C100.174 144.471 100.413 144.822 100.569 144.627C101.329 143.674 102.317 142.935 103.294 142.207C106.043 140.157 108.825 138.088 111.977 136.737C112.359 136.573 112.807 136.341 112.838 135.926ZM143.006 132.751C142.835 132.352 142.352 132.208 141.925 132.127C140.764 131.908 139.581 131.809 138.4 131.71C136.777 131.574 135.157 131.438 133.596 130.993C133.096 130.85 132.668 131.357 132.394 131.799C133.217 131.713 134.045 131.678 134.872 131.693C136.311 131.719 137.743 131.899 139.172 132.078C139.898 132.169 140.629 132.261 141.325 132.486C141.406 132.512 141.488 132.54 141.57 132.569C142.045 132.732 142.536 132.901 143.006 132.751ZM127.638 138.886C127.967 138.961 128.281 139.207 128.33 139.541C128.379 139.874 128.152 140.199 127.861 140.368C127.57 140.538 127.226 140.585 126.893 140.63L125.888 140.763C125.787 140.776 125.684 140.79 125.596 140.842C125.344 140.992 125.361 141.397 125.568 141.605C125.774 141.814 126.091 141.866 126.384 141.865C127.751 141.862 129.044 140.879 129.461 139.578C129.561 139.269 129.613 138.925 129.49 138.625C129.428 138.472 129.324 138.34 129.208 138.223C128.671 137.679 127.87 137.439 127.107 137.492C126.344 137.546 125.618 137.871 124.997 138.318C124.699 138.533 124.415 138.783 124.246 139.109C124.077 139.434 124.041 139.847 124.23 140.162C124.302 140.281 124.414 140.387 124.552 140.41C124.69 140.433 124.849 140.343 124.866 140.205C124.914 139.819 125.196 139.493 125.531 139.297C125.867 139.1 126.254 139.014 126.635 138.938C126.966 138.872 127.309 138.811 127.638 138.886ZM100.709 157.974C101.085 155.753 102.879 153.947 104.97 153.111C106.122 152.65 107.441 152.447 108.6 152.892C108.886 153.001 109.163 153.153 109.369 153.379C109.562 153.592 109.684 153.861 109.776 154.133C110.365 155.88 109.767 157.899 108.502 159.24C107.237 160.58 105.396 161.283 103.557 161.415C102.969 161.457 102.336 161.433 101.85 161.099C101.363 160.764 101.122 160.02 101.496 159.564C101.673 159.572 101.769 159.73 101.867 159.892C101.915 159.972 101.964 160.053 102.024 160.118C102.228 160.337 102.566 160.353 102.865 160.341C104.169 160.286 105.492 159.963 106.553 159.204C107.614 158.444 108.376 157.204 108.354 155.9C108.346 155.48 108.255 155.05 108.017 154.703C107.626 154.135 106.887 153.878 106.199 153.923C105.51 153.969 104.865 154.274 104.278 154.638C103.507 155.117 102.794 155.719 102.31 156.487C101.827 157.255 101.591 158.205 101.795 159.09C101.614 159.416 101.077 159.351 100.855 159.051C100.633 158.752 100.647 158.341 100.709 157.974ZM112.713 176.278C111.76 176.892 110.969 177.852 110.822 178.976C110.703 179.886 111.008 180.792 111.308 181.659C111.543 182.335 111.785 183.026 112.232 183.586C113.038 184.597 114.374 185.015 115.651 185.22C115.999 185.276 116.526 185.119 116.402 184.79C115.054 184.765 113.728 184.14 112.851 183.116C111.974 182.093 111.559 180.687 111.741 179.351C111.78 179.07 111.844 178.79 111.962 178.532C112.201 178.01 112.646 177.609 113.128 177.298C114.165 176.627 115.428 176.313 116.659 176.419C117.845 176.522 119.031 177.042 119.755 177.987C120.479 178.932 120.652 180.327 120.013 181.332C119.909 181.495 119.833 181.784 120.023 181.818C121.052 181.264 121.623 180.041 121.566 178.874C121.508 177.707 120.892 176.614 120.045 175.809C119.576 175.363 119.022 174.987 118.393 174.836C117.565 174.636 116.698 174.842 115.874 175.059C114.777 175.347 113.667 175.664 112.713 176.278ZM159.548 177.728C156.1 176.44 152.353 175.96 148.691 176.337C147.155 176.495 145.615 176.809 144.235 177.5C141.631 178.803 139.768 181.486 139.459 184.382C139.149 187.278 140.401 190.294 142.671 192.119C143.532 192.811 144.509 193.33 145.487 193.848L145.487 193.848L145.487 193.849L145.487 193.849L145.487 193.849L145.487 193.849L145.487 193.849L145.487 193.849L145.487 193.849L145.487 193.849L145.487 193.849L145.487 193.849L145.487 193.849L145.487 193.849L145.487 193.849L145.487 193.849L145.487 193.849L145.487 193.849C146.155 194.203 146.823 194.557 147.456 194.968C147.636 195.14 147.23 195.313 146.992 195.236C144.78 194.522 142.632 193.436 141.054 191.729C139.135 189.653 138.199 186.705 138.569 183.901C138.939 181.098 140.609 178.494 143.001 176.987C144.894 175.795 147.156 175.293 149.392 175.213C151.627 175.132 153.855 175.451 156.065 175.794C157.446 176.008 159.064 176.418 159.548 177.728ZM123.263 182.049C123.107 181.69 122.477 181.596 122.362 181.971C121.631 184.351 119.308 186.151 116.82 186.265C116.258 186.291 115.695 186.239 115.135 186.185C113.928 186.068 112.683 185.93 111.627 185.336C110.107 184.481 109.193 182.727 109.182 180.984C109.171 179.24 109.998 177.546 111.253 176.337C111.079 175.849 110.331 176.084 109.959 176.445C107.9 178.447 107.547 181.902 108.992 184.384C110.437 186.865 113.465 188.256 116.319 187.941C119.174 187.626 121.751 185.714 123.078 183.167C123.258 182.82 123.42 182.408 123.263 182.049ZM105.389 194.103C104.924 195.886 104.879 197.778 105.261 199.581C105.432 200.389 105.45 200.835 105.454 200.918C105.454 200.928 105.455 200.933 105.455 200.933C105.455 200.933 105.455 200.928 105.456 200.918C105.459 200.835 105.48 200.387 105.654 199.578C106.044 197.771 105.952 195.863 105.389 194.103ZM107.859 195.182C107.198 196.566 107.28 198.28 108.07 199.595C108.247 199.891 108.382 200.131 108.481 200.308L108.481 200.308C108.615 200.546 108.684 200.671 108.708 200.662C108.735 200.653 108.707 200.486 108.648 200.137C108.625 199.997 108.596 199.827 108.564 199.627L107.859 195.182ZM109.719 196.95C109.439 197.834 109.645 198.856 110.246 199.562C110.86 200.283 111.061 200.514 110.873 199.586C110.683 198.638 110.286 197.733 109.719 196.95ZM163.545 186.894C162.702 190.28 160.008 192.845 157.396 195.159C157.515 195.416 157.901 195.324 158.148 195.185C160.794 193.695 162.935 191.268 163.912 188.394C164.888 185.519 164.646 182.216 163.104 179.601C162.974 179.381 162.809 179.148 162.559 179.099C162.309 179.05 162.021 179.34 162.168 179.548C163.65 181.647 164.166 184.4 163.545 186.894ZM125.506 156.323C125.499 155.787 125.507 155.207 125.83 154.78C126.276 154.192 127.12 154.131 127.858 154.12C128.187 154.116 128.52 154.112 128.84 154.188C129.522 154.35 130.065 154.853 130.549 155.36C130.657 155.472 130.771 155.611 130.744 155.764C130.711 155.953 130.474 156.041 130.285 156.002C130.16 155.976 130.047 155.914 129.934 155.851C129.878 155.82 129.821 155.788 129.762 155.761C129.084 155.45 128.287 155.791 127.678 156.222C127.582 156.29 127.479 156.377 127.477 156.494C127.474 156.612 127.575 156.703 127.67 156.773C128.493 157.375 129.547 157.655 130.56 157.538C130.803 157.51 131.088 157.422 131.15 157.186C131.175 157.094 131.165 156.985 131.156 156.881C131.141 156.706 131.126 156.541 131.273 156.48C131.35 156.449 131.437 156.471 131.517 156.495C132.065 156.654 132.707 156.911 132.813 157.472C132.844 157.634 132.822 157.803 132.77 157.96C132.619 158.419 132.198 158.777 131.721 158.853C131.509 158.887 131.293 158.868 131.079 158.85C130.521 158.802 129.962 158.754 129.409 158.665C128.393 158.501 127.4 158.199 126.465 157.768C126.141 157.619 125.804 157.435 125.639 157.118C125.515 156.877 125.509 156.594 125.506 156.323ZM146.369 143.115C146.043 142.232 145.254 141.536 144.338 141.321C144.054 141.255 143.734 141.239 143.494 141.403C143.253 141.567 143.171 141.967 143.4 142.147C143.622 142.321 143.488 142.731 143.216 142.808C142.945 142.885 142.653 142.701 142.517 142.453C142.381 142.206 142.367 141.912 142.365 141.629C142.363 141.253 142.398 140.832 142.676 140.578C142.782 140.482 142.914 140.419 143.045 140.361C143.587 140.118 144.187 139.913 144.766 140.043C145.319 140.167 145.759 140.574 146.144 140.989C146.46 141.329 146.758 141.685 147.038 142.055C147.285 142.381 147.522 142.729 147.615 143.128C147.707 143.526 147.627 143.988 147.32 144.257C147.019 144.521 146.555 144.543 146.19 144.381C145.867 144.237 145.591 143.92 145.615 143.567C145.639 143.215 146.072 142.922 146.369 143.115ZM149.283 167.924C150.093 167.901 150.847 167.277 151.022 166.486C151.128 166.005 150.997 165.433 150.578 165.174C150.272 164.985 149.887 164.999 149.528 165.022C149.03 165.054 148.514 165.097 148.082 165.346C147.65 165.594 147.329 166.108 147.464 166.588C147.684 167.368 148.473 167.947 149.283 167.924ZM149.387 166.755C149.23 166.798 149.007 166.757 148.993 166.596C148.987 166.529 149.023 166.465 149.064 166.412C149.295 166.114 149.733 165.998 150.08 166.144C149.959 166.439 149.695 166.672 149.387 166.755ZM149.805 154.773C149.673 154.468 149.929 154.114 150.239 153.997C150.488 153.904 150.758 153.913 151.026 153.923C151.093 153.925 151.159 153.928 151.225 153.929C151.557 153.933 151.923 153.877 152.139 153.625C152.214 153.536 152.266 153.405 152.208 153.303C152.148 153.197 152.005 153.179 151.883 153.172C151.037 153.129 150.039 153.155 149.552 153.847C149.447 153.996 149.191 153.945 149.093 153.792C148.995 153.639 149.017 153.437 149.073 153.264C149.272 152.644 149.846 152.193 150.472 152.012C151.098 151.831 151.77 151.888 152.405 152.032C152.62 152.08 152.842 152.144 152.998 152.298C153.123 152.421 153.192 152.588 153.237 152.757C153.454 153.561 153.134 154.483 152.466 154.981C151.798 155.479 150.823 155.522 150.114 155.085C149.987 155.007 149.864 154.909 149.805 154.773ZM146.907 168.993C147.3 169.464 147.765 169.891 148.329 170.131C149.469 170.615 150.926 170.168 151.599 169.128C151.844 168.749 151.953 168.171 151.591 167.902C151.011 169.121 149.329 169.66 148.148 169.004C147.922 168.878 147.717 168.717 147.53 168.539C146.681 167.726 146.239 166.399 146.736 165.335C146.899 164.988 147.148 164.688 147.421 164.419C148.015 163.832 148.866 163.352 149.659 163.613C149.692 163.624 149.725 163.636 149.758 163.648L149.758 163.648C149.869 163.689 149.981 163.73 150.098 163.723C150.249 163.714 150.407 163.579 150.368 163.432C150.357 163.389 150.33 163.351 150.302 163.316C149.812 162.691 148.849 162.498 148.155 162.885C147.33 163.346 146.491 163.889 146.052 164.727C145.338 166.09 145.921 167.812 146.907 168.993ZM160.054 147.969C160.018 148.021 160.027 148.093 160.035 148.163C160.046 148.245 160.055 148.323 159.988 148.356C159.741 148.478 159.445 148.465 159.182 148.385C158.463 148.164 157.981 147.504 157.574 146.872C157.336 146.502 157.1 146.109 157.061 145.671C157.023 145.233 157.247 144.74 157.669 144.616C158.139 144.478 158.6 144.828 158.967 145.154C159.38 145.521 159.802 145.901 160.058 146.391C160.313 146.882 160.37 147.515 160.054 147.969ZM158.491 146.328C158.592 146.426 158.648 146.559 158.703 146.691C158.758 146.822 158.813 146.952 158.911 147.05C159.036 147.175 159.226 147.231 159.398 147.194C159.075 146.693 158.701 146.226 158.283 145.802C158.171 145.836 158.162 146.002 158.229 146.097C158.27 146.155 158.327 146.198 158.384 146.24C158.421 146.268 158.458 146.296 158.491 146.328ZM96.9516 191.522C96.9117 192.179 96.962 192.939 97.4874 193.335C97.6626 193.237 97.6506 192.987 97.6286 192.788C97.493 191.561 97.8737 190.378 98.2569 189.187C98.5312 188.335 98.8069 187.479 98.8953 186.6C98.9209 186.344 98.8529 185.995 98.5966 185.986C98.4047 185.978 98.2808 186.181 98.2034 186.356C97.4857 187.987 97.0597 189.745 96.9516 191.522ZM147.917 167.846C148.51 168.108 149.167 168.376 149.788 168.188C150.034 168.113 150.254 167.97 150.47 167.829C150.469 168.192 150.157 168.496 149.81 168.6C149.462 168.704 149.089 168.648 148.734 168.571C148.341 168.486 147.859 168.245 147.917 167.846ZM101.025 198.107C101.176 197.838 101.202 197.518 101.224 197.21L101.403 194.756C101.491 193.551 101.579 192.342 101.5 191.137C101.49 190.985 101.475 190.825 101.386 190.701C101.298 190.577 101.11 190.511 100.989 190.603C100.899 190.671 100.877 190.793 100.861 190.904C100.667 192.298 100.563 193.704 100.551 195.111C100.542 196.131 100.588 197.185 101.025 198.107ZM98.3423 195.998C98.1851 196.131 97.9233 196.014 97.8367 195.827C97.7501 195.641 97.785 195.423 97.8221 195.22C98.2106 193.102 98.6512 190.993 99.1434 188.897C99.1557 188.844 99.169 188.79 99.203 188.748C99.3326 188.588 99.5945 188.749 99.6865 188.933C99.9122 189.386 99.8041 189.925 99.6911 190.418L98.4779 195.709C98.4537 195.815 98.425 195.928 98.3423 195.998ZM102.544 196.092C102.477 196.887 102.596 197.684 102.715 198.472C102.757 198.753 102.959 199.126 103.213 198.998L103.707 193.712C103.727 193.497 103.741 193.259 103.607 193.089C103.474 192.919 103.136 192.926 103.094 193.138L102.729 194.95C102.653 195.328 102.577 195.708 102.544 196.092ZM153.59 179.891C152.182 179.167 150.469 178.881 149.007 179.488C147.916 179.941 144.829 181.9 144.419 184.41C144.144 186.09 144.147 187.807 144.735 189.43L144.829 189.684C145.005 190.143 145.563 190.672 145.875 190.292C144.964 188.645 144.793 186.606 145.419 184.831C146.044 183.055 147.455 181.573 149.197 180.861C149.563 180.711 149.946 180.593 150.34 180.556C151.138 180.48 151.934 180.739 152.646 181.104C154.181 181.89 156.082 183.198 156.813 184.76C157.517 186.265 158.035 188.061 157.398 189.597C156.761 191.132 152.575 192.243 152.575 192.243L153.038 193.088C153.038 193.088 155.381 192.626 156.813 191.583C162.821 187.207 154.936 180.584 153.59 179.891Z" fill="#018A08"/>
<path fill-rule="evenodd" clip-rule="evenodd" d="M47.3761 158.284C45.2511 158.512 43.0004 158.02 41.3412 156.673C40.1662 155.719 39.3405 154.392 38.7611 152.993C38.1321 151.475 37.7704 149.847 37.6977 148.205C37.6704 147.587 37.6851 146.957 37.8667 146.366C38.1656 145.392 38.8855 144.611 39.6204 143.907C41.1838 142.407 43.0215 141.039 45.1646 140.724C46.625 140.509 48.1105 140.802 49.5401 141.17C50.6628 141.459 51.784 141.799 52.7939 142.369C55.0253 143.627 56.5716 146.026 56.7953 148.578C57.019 151.13 56.7438 152.821 53.3 155.992C51.5105 157.16 49.5011 158.056 47.3761 158.284ZM51.1235 150.273C50.7789 150.382 50.4353 150.574 50.0796 150.511C49.3527 150.383 49.2226 149.386 49.384 148.666C49.846 146.604 51.2831 144.784 53.181 143.855C52.7513 143.076 51.61 143.019 50.8029 143.393C49.9957 143.768 49.3647 144.443 48.5841 144.87C48.1956 145.083 47.7352 145.233 47.3126 145.101C46.6173 144.883 46.3518 143.972 46.5795 143.28C46.8071 142.588 47.3753 142.071 47.9208 141.588C45.944 141.657 43.9879 142.251 42.3056 143.291C40.9887 144.106 39.7395 145.441 39.9142 146.98C41.0031 146.104 42.2815 145.464 43.6358 145.118C43.9231 145.045 44.2836 145.008 44.4633 145.243C44.5995 145.422 44.5604 145.679 44.4732 145.886C44.0403 146.912 42.7673 147.257 41.9777 148.043C41.874 148.146 41.7746 148.265 41.7495 148.409C41.7003 148.692 41.9695 148.949 42.2523 148.997C42.5351 149.044 42.819 148.941 43.0873 148.84C43.6444 148.629 44.2015 148.419 44.7586 148.209C45.1619 148.057 45.6408 147.912 45.9994 148.151C46.3704 148.398 46.4054 148.961 46.1957 149.354C45.986 149.748 45.6011 150.012 45.2307 150.26C44.3378 150.858 43.4449 151.457 42.5521 152.055C41.8045 152.556 40.967 153.232 41.0381 154.129C41.105 154.973 42.034 155.547 42.8793 155.493C43.7246 155.439 44.4686 154.922 45.0925 154.349C45.7164 153.776 46.2795 153.122 47.0041 152.683C47.4768 152.396 48.1514 152.237 48.5355 152.635C48.8322 152.942 48.8036 153.436 48.6922 153.848C48.3713 155.036 47.5035 156.065 46.3862 156.581C47.2952 156.791 48.2432 156.831 49.1665 156.697C49.6931 156.621 50.2383 156.475 50.6191 156.104C50.9998 155.732 51.1473 155.078 50.817 154.661C50.3243 154.039 50.3438 153.129 50.6586 152.4C50.9734 151.672 51.5357 151.084 52.0865 150.512C51.9289 150.187 51.4682 150.165 51.1235 150.273ZM55.3319 151.685C55.8269 150.541 55.845 149.247 55.7196 148.007C55.581 146.635 55.1027 145.066 53.8104 144.586C51.9167 145.372 50.4553 147.125 50.0235 149.13C49.9872 149.298 49.9588 149.479 50.025 149.638C50.0913 149.797 50.2882 149.913 50.4408 149.833C50.9644 149.559 51.6083 149.403 52.1406 149.661C52.6729 149.918 52.9321 150.72 52.5011 151.124C52.0249 151.571 51.5358 152.036 51.2789 152.637C51.022 153.237 51.059 154.014 51.5427 154.453C51.9062 154.783 51.9071 155.43 51.5446 155.761C52.5753 155.46 53.3098 154.574 53.9782 153.733C54.4891 153.091 55.006 152.439 55.3319 151.685ZM43.4662 145.768C42.394 146.213 41.3532 146.734 40.3542 147.325C40.1167 147.465 39.8766 147.614 39.7029 147.828C39.4683 148.118 39.3792 148.496 39.3067 148.862C39.0725 150.043 38.9518 151.315 39.4478 152.412C39.6062 152.763 39.8226 153.083 40.038 153.401C40.1015 153.495 40.1737 153.596 40.2826 153.627C40.3916 153.659 40.5355 153.571 40.5099 153.461C40.431 153.12 40.689 152.8 40.9436 152.56C42.4347 151.156 44.4434 150.351 45.7843 148.803C45.5809 148.562 45.1951 148.675 44.905 148.799C44.2143 149.094 43.502 149.339 42.7758 149.53C42.4011 149.629 41.9836 149.709 41.6417 149.527C41.1413 149.26 41.0599 148.531 41.3242 148.029C41.5885 147.527 42.091 147.203 42.5755 146.909C43.0601 146.614 43.5685 146.307 43.8592 145.82C43.8064 145.681 43.6032 145.712 43.4662 145.768ZM47.1357 155.17C47.6096 154.79 48.1215 154.341 48.1732 153.735C48.2002 153.418 47.9971 153.031 47.6807 153.061C47.5835 153.071 47.4947 153.119 47.4108 153.169C46.0329 153.992 45.1261 155.602 43.5717 156.002C44.011 156.198 44.4689 156.353 44.9374 156.463C45.0769 156.496 45.2222 156.525 45.3625 156.496C45.5258 156.462 45.6624 156.354 45.7924 156.25C46.2402 155.89 46.6879 155.53 47.1357 155.17ZM48.4171 142.012C48.1105 142.351 47.8039 142.69 47.4973 143.029C47.2544 143.298 46.9939 143.652 47.1291 143.988C47.2287 144.235 47.5228 144.361 47.7888 144.34C48.0547 144.319 48.297 144.183 48.5201 144.037C49.315 143.515 50.0307 142.805 50.9583 142.596C50.3151 142.362 49.6719 142.128 49.0288 141.893C48.8948 141.845 48.7455 141.796 48.6137 141.85C48.5346 141.883 48.4745 141.948 48.4171 142.012Z" fill="#018A08"/>
<path fill-rule="evenodd" clip-rule="evenodd" d="M60.3861 101.503C60.3059 103.11 59.0661 104.85 57.4684 104.66C56.7473 103.826 56.1829 102.791 55.6251 101.768C54.5539 99.8032 53.507 97.8831 51.4213 97.5187C49.3728 97.1607 47.465 98.6674 46.1891 100.31C44.3413 102.688 43.1472 105.569 42.7708 108.558C42.5495 110.314 43.2699 112.751 45.0301 112.557C47.0406 112.337 48.4704 113.918 49.9246 115.527C51.2706 117.015 52.6375 118.527 54.5052 118.655C56.729 118.807 58.5454 120.139 60.3841 121.487C61.6122 122.388 62.8502 123.296 64.2261 123.865C66.8144 124.934 69.7992 124.727 72.4413 123.798C75.0834 122.87 77.4347 121.27 79.6602 119.57L79.7768 119.481C80.9916 118.552 82.2633 117.579 83.7739 117.374C91.498 116.328 98.6823 111.797 102.955 105.278C109.013 110.121 117.483 111.776 124.918 109.57C126.18 109.196 127.449 108.694 128.385 107.769C129.32 106.843 129.851 105.406 129.391 104.173C128.888 102.825 127.385 102.103 125.957 101.929C125.174 101.834 124.384 101.862 123.595 101.891C122.944 101.914 122.292 101.937 121.644 101.891C117.716 101.613 114.446 98.9047 111.472 96.3242C115.781 95.0025 119.274 91.6829 121.581 87.8111C123.888 83.9393 125.124 79.5286 126.063 75.1206C126.557 72.801 126.924 70.1879 125.599 68.221C125.006 67.3406 124.136 66.697 123.27 66.0556C122.294 65.3334 121.322 64.614 120.753 63.5627C119.659 61.5405 117.525 60.3414 115.502 59.249C110.207 56.3904 104.126 53.4482 98.4195 55.3573C96.1968 56.101 94.2767 57.5259 92.4047 58.9362C89.2959 61.2781 85.9657 64.0253 85.3738 67.8722C80.2872 65.5965 73.7065 67.4139 70.5088 71.9776C69.7774 73.0214 69.2159 74.1725 68.655 75.3224C67.9946 76.6763 67.335 78.0285 66.3998 79.2021C62.6439 77.4908 58.8171 75.9353 54.9324 74.5409C53.2101 73.9227 51.1527 73.3764 49.6684 74.4466C48.4783 75.3048 48.1132 76.9891 48.4625 78.4141C48.8119 79.8392 49.7445 81.0472 50.7446 82.1208C52.9143 84.4498 55.5206 86.3708 58.3875 87.754C58.48 87.7986 58.5732 87.843 58.6666 87.8875L58.6667 87.8875L58.6667 87.8876C59.5643 88.3152 60.4871 88.7547 61.0848 89.5397C61.7447 90.4064 61.7857 91.8565 60.8605 92.4316C59.4939 93.2809 59.2423 95.1868 59.5224 96.7712C59.6181 97.3126 59.7586 97.8488 59.899 98.3844C60.1693 99.4162 60.439 100.445 60.3861 101.503ZM97.4863 109.976C94.0429 113.591 89.1975 115.707 84.243 116.325C79.2884 116.943 74.2292 116.139 69.4964 114.549C70.7695 114.548 71.6901 112.881 71.0128 111.803C68.4044 114.844 64.4279 116.268 60.6386 117.568C57.2153 118.743 53.1235 117.89 50.609 115.287C48.0944 112.684 47.4139 108.413 49.1823 105.255C49.951 103.882 51.2547 102.687 52.8221 102.553C54.3895 102.418 56.0773 103.718 55.9319 105.284C55.0597 105.132 54.1418 105.873 54.1059 106.758C57.4801 106.394 60.6523 104.461 62.5217 101.628C63.1669 100.651 63.6572 99.5857 64.1479 98.5199L64.1479 98.5199L64.1479 98.5198L64.148 98.5198L64.148 98.5198C64.4774 97.8042 64.8071 97.0882 65.1839 96.398C66.1221 94.6795 67.4692 93.0414 69.3359 92.451C70.8341 91.9771 72.4536 92.24 74.0021 92.507L80.8813 93.6931C81.3962 93.2487 80.5623 92.5363 79.8965 92.3972C77.7465 91.948 75.5665 91.6712 73.3863 91.3943L73.3863 91.3943H73.3862C71.3646 91.1376 69.3428 90.8808 67.3445 90.4866C63.1913 89.6672 59.0171 88.1684 55.9941 85.2049C58.0446 84.0253 59.6047 82.0209 60.2448 79.7435C60.3743 79.2828 60.0658 78.5259 59.6916 78.8243C59.2642 80.3027 58.8008 81.8447 57.7298 82.9498C56.6588 84.0549 54.7789 84.5403 53.5667 83.5922C51.993 82.3614 50.3385 81.0188 49.7161 79.1204C49.0938 77.222 50.0783 74.6725 52.0625 74.4397C52.9531 74.3352 53.8238 74.7032 54.6451 75.0633L62.9308 78.6953C65.3969 79.7763 67.8997 80.8681 70.5635 81.2603C72.4339 81.5357 74.3361 81.4585 76.2251 81.3805L81.5801 81.1597C81.7991 81.1506 82.0236 81.1404 82.2252 81.0544C82.7632 80.8249 82.9457 80.1678 83.0644 79.595C84.5014 72.6607 86.4321 65.3428 91.6554 60.5609C93.9927 58.4211 96.9042 56.9146 100.001 56.2425C103.053 55.58 106.421 55.7748 109.049 57.463C104.641 57.7875 100.36 59.6465 97.1134 62.6465C95.7493 61.1904 93.2106 62.3806 92.1226 64.0531C90.436 66.6458 90.4667 70.2474 92.1971 72.811C93.6537 74.9689 94.1938 77.5437 94.7352 80.1245C95.2328 82.4963 95.7314 84.8732 96.9434 86.9362C98.8608 90.1998 102.431 92.2947 106.16 92.9441C109.889 93.5936 113.755 92.9153 117.3 91.5861C113.333 95.5427 106.996 96.9112 101.75 94.9442C101.368 94.8008 100.987 94.6406 100.607 94.4803C99.4012 93.9727 98.1917 93.4634 96.8988 93.4785C97.6562 94.2807 98.6237 94.8828 99.6778 95.2081C98.4624 97.2497 97.1871 99.2557 95.8543 101.223C95.6838 101.474 95.4896 101.742 95.1979 101.828C94.8728 101.922 94.5333 101.76 94.2369 101.597C91.7865 100.242 89.5902 98.4298 87.7951 96.2812L84.2041 100.649C86.0469 102.902 88.2014 104.899 90.5869 106.566C87.4119 110.489 82.6015 113.044 77.5738 113.478C82.7781 113.743 88.0468 111.302 91.2094 107.16C93.2117 108.284 95.3153 109.228 97.4863 109.976ZM113.945 71.5663C115.095 70.3123 115.521 68.5212 115.423 66.8226C115.324 65.1239 114.753 63.4904 114.121 61.9108C115.768 61.7155 117.442 62.337 118.754 63.3518C120.066 64.3667 121.052 65.7476 121.86 67.1961C122.84 68.9519 123.592 70.8506 123.918 72.8349C124.685 77.507 123.046 82.2708 120.713 86.3909C120.26 87.1909 119.773 87.9854 119.111 88.6241C118.445 89.2672 117.626 89.7295 116.787 90.1196C113.322 91.7292 109.337 92.1937 105.596 91.424C107.984 89.4353 109.671 86.6956 110.745 83.7791C111.82 80.8626 112.311 77.7628 112.595 74.6676L112.596 74.6503C112.667 73.8699 112.742 73.0495 113.187 72.405C113.335 72.1917 113.517 72.0067 113.699 71.8216C113.782 71.7374 113.865 71.6532 113.945 71.5663ZM109.622 84.4577C108.592 86.8686 106.995 89.0824 104.83 90.5619C104.577 90.7352 104.304 90.9024 103.999 90.938C103.73 90.9695 103.461 90.8953 103.202 90.8137C101.362 90.2328 99.6225 89.203 98.4418 87.6763C98.0134 87.1223 97.6636 86.5113 97.3515 85.8843C95.0789 81.3179 94.8563 75.7776 96.7552 71.0436C96.8459 70.8174 96.9757 70.5635 97.2147 70.5161C97.5237 70.4548 97.761 70.771 97.9346 71.034C99.353 73.1834 102.005 74.2716 104.578 74.3843C107.151 74.4969 109.682 73.7657 112.122 72.9411C111.677 74.0283 111.564 75.2128 111.452 76.3861V76.3862C111.437 76.5339 111.423 76.6815 111.409 76.8287C111.147 79.4376 110.653 82.0468 109.622 84.4577ZM109.099 62.0603C110.415 61.761 111.951 61.6786 112.957 62.5791C113.282 62.87 113.523 63.2431 113.722 63.6313C114.968 66.0661 114.48 69.273 112.566 71.227C110.354 73.4859 106.852 73.8583 103.701 73.5902C102.571 73.494 101.408 73.32 100.443 72.7235C99.1945 71.9516 98.455 70.5915 97.7712 69.2925C100.807 65.9003 104.66 63.0693 109.099 62.0603ZM119.746 103.01C119.333 104.053 118.916 105.11 118.781 106.223C118.646 107.337 118.822 108.532 119.499 109.426C113.879 109.737 108.168 108.004 103.668 104.622C105.119 102.569 106.265 100.3 107.056 97.914C107.369 96.9713 108.563 96.5781 109.532 96.7963C110.424 96.9972 111.173 97.5695 111.903 98.1277C111.966 98.1758 112.029 98.2238 112.092 98.2714C114.484 100.088 117.12 101.552 119.746 103.01ZM80.4741 117.252C79.5878 118.25 78.5285 119.078 77.4464 119.859C75.1879 121.49 72.7248 122.972 69.9796 123.446C65.9564 124.141 61.6099 122.405 59.171 119.131L67.9461 115.858C68.1562 115.779 68.3738 115.7 68.5977 115.713C68.7242 115.72 68.8459 115.756 68.9678 115.792C69.0489 115.816 69.1302 115.841 69.2131 115.856C69.4948 115.91 69.779 115.863 70.0644 115.816L70.0645 115.816C70.2421 115.787 70.4201 115.757 70.5984 115.752C71.2553 115.732 71.8589 116.032 72.4561 116.329L72.4563 116.33L72.4564 116.33L72.4566 116.33L72.4567 116.33C72.6081 116.405 72.7592 116.48 72.9105 116.55C75.2375 117.62 77.9204 117.447 80.4741 117.252ZM67.8039 79.7067C67.7421 79.5683 67.8073 79.4092 67.8726 79.2724C69.6696 75.5088 72.047 72.0228 74.8947 68.9757C76.8978 71.757 78.2309 75.0173 78.7504 78.4052C78.8543 79.0825 78.742 80.019 78.0622 80.1037C74.8034 80.5099 71.4875 80.4547 68.2441 79.9403C68.0726 79.9131 67.8748 79.8651 67.8039 79.7067ZM80.0776 79.4745C79.4065 75.7857 78.0136 72.2296 76.0006 69.0664C77.7044 68.1694 79.7186 68.1548 81.644 68.1608C82.8601 68.1646 84.1876 68.2074 85.1143 68.9948L82.7104 76.0878C82.3023 77.2919 81.889 78.5298 81.9405 79.8002L80.421 79.8245C80.3669 79.8254 80.311 79.8259 80.261 79.8051C80.1394 79.7543 80.1012 79.6041 80.0776 79.4745ZM99.6291 97.626C100.033 96.9394 100.417 96.2059 100.458 95.4105C102.276 96.2281 104.278 96.6333 106.271 96.5868C106.584 96.5796 106.573 97.0618 106.445 97.3473C106.056 98.211 105.668 99.0755 105.219 99.9091C104.758 100.765 104.235 101.585 103.712 102.404L102.459 104.368C102.288 104.637 102.111 104.912 101.856 105.103C101.172 105.617 100.196 105.37 99.4153 105.02C98.1208 104.438 96.9292 103.628 95.9122 102.638C97.3247 101.106 98.573 99.4226 99.6291 97.626ZM52.616 99.3229C53.2183 99.9303 53.612 100.709 53.9958 101.473L52.1887 101.731C51.5866 101.817 50.9692 101.908 50.4371 102.202C49.9193 102.488 49.52 102.948 49.1685 103.424C47.6989 105.415 46.8843 107.881 46.8791 110.356C46.8773 111.25 45.8208 111.888 44.9562 111.661C44.0915 111.434 43.5041 110.576 43.3546 109.694C43.2052 108.813 43.4157 107.912 43.6797 107.058C44.6087 104.053 46.2706 101.214 48.7294 99.2525C49.1992 98.8777 49.7183 98.5267 50.3118 98.4319C51.1564 98.2969 52.0136 98.7156 52.616 99.3229ZM128.502 104.354C128.711 104.622 128.866 104.949 128.856 105.289C128.844 105.729 128.565 106.115 128.265 106.436C126.521 108.305 123.84 108.942 121.301 109.242C121.133 109.262 120.958 109.28 120.801 109.218C120.672 109.168 120.568 109.068 120.476 108.965C119.864 108.276 119.621 107.313 119.671 106.392C119.72 105.472 120.038 104.585 120.434 103.752C120.517 103.577 120.614 103.393 120.783 103.299C120.919 103.224 121.081 103.218 121.236 103.214L124.309 103.133C125.065 103.113 125.83 103.094 126.571 103.25C127.311 103.406 128.037 103.756 128.502 104.354ZM94.253 75.3172C93.0008 72.997 92.064 70.507 91.4764 67.9368L91.9822 66.5856C92.6081 65.374 93.3971 64.2467 94.3211 63.2438C94.6974 62.8353 95.3498 62.7901 95.8691 62.987C96.3885 63.1838 96.8063 63.5751 97.2095 63.9571L99.0238 65.676C99.0778 65.7271 99.1342 65.7823 99.1521 65.8544C99.186 65.9901 99.0738 66.1144 98.9724 66.2108C98.1228 67.0186 97.3679 67.9294 96.7626 68.9334C95.8477 70.4509 95.2891 72.1515 94.7379 73.8356L94.253 75.3172ZM98.89 62.2863C102.584 60.3078 106.625 58.4461 110.792 58.8913C112.97 59.1241 115.054 59.9907 116.868 61.2184C111.67 59.8822 105.876 61.1147 101.672 64.4509C101.022 64.9665 100.047 65.5266 99.4685 64.9321C99.32 64.7794 99.2229 64.5656 99.1282 64.3572C98.9766 64.0235 98.8315 63.7038 98.4918 63.6726C98.1679 63.6427 98.0237 63.2032 98.1611 62.9083C98.2986 62.6134 98.6032 62.4399 98.89 62.2863ZM88.7418 98.4739C89.4709 99.1745 90.2738 99.793 91.0749 100.41L94.3115 102.903C93.3148 103.781 92.3396 104.684 91.3872 105.61C89.1197 104.266 87.0958 102.512 85.4425 100.459C86.3475 99.5169 87.2162 98.5395 88.0462 97.5301C88.1765 97.9025 88.4573 98.2005 88.7418 98.4739ZM67.9326 91.7316C66.2285 93.063 64.4667 94.4644 63.5293 96.4132C63.3462 96.794 63.1949 97.1947 63.0438 97.5948L63.0438 97.5948C62.7227 98.4453 62.4026 99.293 61.78 99.9404C61.504 99.8593 61.3955 99.534 61.3282 99.2543L60.6798 96.5571C60.5923 96.1932 60.5042 95.8191 60.5539 95.4482C60.6034 95.0789 60.7854 94.7426 60.9643 94.4157L62.8669 90.9387C62.9093 90.8612 62.9533 90.7818 63.0213 90.7253C63.1896 90.5855 63.4386 90.63 63.6512 90.6821L67.9326 91.7316ZM95.6168 103.676C96.7789 104.871 98.2232 105.789 99.7981 106.335C100.093 106.058 100.662 106.211 100.778 106.598C100.236 107.301 99.6411 107.963 98.9998 108.577C98.7134 108.851 98.2546 108.794 97.8682 108.705C95.9808 108.272 94.1628 107.538 92.5038 106.539C92.3928 106.472 92.2679 106.377 92.2789 106.248C92.2862 106.161 92.3547 106.093 92.4188 106.034L94.748 103.889C94.9923 103.664 95.3853 103.438 95.6168 103.676ZM125.356 73.7077C125.334 73.9706 125.297 74.264 125.091 74.4293C125.09 72.3644 124.578 70.3019 123.614 68.4759C123.439 68.1447 123.249 67.821 123.038 67.5115L123.004 67.4622L122.956 67.392C122.743 67.0849 122.525 66.7706 122.474 66.4039L124.969 69.0112C125.199 69.2511 125.435 69.5014 125.544 69.8153C125.649 70.1179 125.624 70.448 125.597 70.7672L125.356 73.7077ZM122.488 70.3943L121.923 69.6818C121.301 68.898 120.538 68.0421 119.537 68.041C118.957 68.0404 118.423 68.3377 117.919 68.6266L117.136 69.0754C116.922 69.198 116.703 69.3255 116.552 69.5205C116.117 70.0828 116.435 70.9044 116.845 71.4844C117.13 71.8857 117.471 72.2711 117.923 72.4642C118.508 72.7141 119.181 72.6035 119.794 72.4344C120.634 72.2028 121.445 71.8687 122.205 71.4418C122.448 71.3053 122.716 71.1053 122.704 70.827C122.696 70.6632 122.59 70.5228 122.488 70.3943ZM117.55 70.9441C117.453 70.7893 117.352 70.6239 117.351 70.441C117.347 70.0835 117.704 69.8435 118.018 69.6723L119.134 69.0638C119.302 68.9718 119.478 68.8777 119.67 68.8648C119.861 68.8518 120.074 68.9442 120.139 69.1252C120.329 69.6594 120.798 70.0855 121.348 70.2241C121.526 70.2689 121.583 70.5154 121.499 70.6785C121.415 70.8417 121.243 70.9371 121.078 71.0187C120.49 71.3104 119.875 71.5484 119.244 71.7285C118.991 71.8007 118.723 71.8638 118.467 71.803C118.049 71.7034 117.779 71.3085 117.55 70.9441ZM109.614 76.4516C108.507 76.5805 108.297 78.5753 108.811 79.6393C108.917 79.8582 109.082 80.0836 109.323 80.1142C109.735 80.1666 109.963 79.6579 110.054 79.2524L110.057 79.2429L110.057 79.2429C110.177 78.7083 110.714 76.3236 109.614 76.4516ZM103.908 79.0685C104.129 78.5524 104.203 77.9741 104.118 77.419C104.079 77.1611 104.001 76.8992 103.829 76.7034C103.657 76.5075 103.372 76.3937 103.126 76.4819C102.904 76.5618 102.765 76.7792 102.659 76.9906C102.288 77.7369 102.14 78.5925 102.239 79.4202C102.285 79.8052 102.771 80.0156 103.139 79.8938C103.507 79.7721 103.755 79.4249 103.908 79.0685ZM107.169 77.8874C107.341 77.7451 107.558 78.0036 107.628 78.2155C107.857 78.9119 108.046 79.6212 108.195 80.339C108.289 80.7926 108.367 81.2639 108.267 81.7162C108.125 82.3539 107.641 82.8726 107.078 83.2048C106.516 83.537 105.876 83.709 105.245 83.8773C105.078 83.9218 104.868 83.9534 104.761 83.8186C104.669 83.7042 104.714 83.5249 104.819 83.4218C104.921 83.3208 105.063 83.2741 105.199 83.2292L105.207 83.2266C106.191 82.9034 107.243 82.3201 107.472 81.3101C107.598 80.7548 107.444 80.1969 107.291 79.6367C107.15 79.1265 107.01 78.6143 107.079 78.1003C107.089 78.022 107.109 77.9378 107.169 77.8874ZM100.299 75.6158C100.039 75.257 100.247 74.7116 100.623 74.4776C100.998 74.2435 101.473 74.2467 101.912 74.3034C102.436 74.3711 102.952 74.5044 103.443 74.6992C103.548 74.7406 103.66 74.7935 103.706 74.8961C103.791 75.0862 103.571 75.2943 103.363 75.2941C103.195 75.294 103.043 75.2133 102.893 75.1335L102.892 75.1334C102.856 75.1141 102.82 75.0949 102.783 75.0768C101.963 74.67 100.876 74.9058 100.299 75.6158ZM109.749 75.4922C110.138 75.4274 110.552 75.5174 110.879 75.7383C111.016 75.8307 111.212 75.6753 111.213 75.5102C111.213 75.3451 111.09 75.2062 110.961 75.1042C110.681 74.8842 110.333 74.7527 109.978 74.7326C109.749 74.7197 109.495 74.764 109.348 74.9397C109.2 75.1155 109.245 75.4454 109.466 75.5066C109.545 75.5284 109.628 75.5136 109.709 75.4991C109.722 75.4968 109.736 75.4944 109.749 75.4922ZM104.913 85.6161C105.023 85.5542 105.167 85.6623 105.184 85.7872C105.2 85.9121 105.129 86.0315 105.047 86.1276C104.639 86.6097 103.935 86.7582 103.313 86.6452C102.691 86.5322 102.134 86.1979 101.609 85.8453C101.363 85.6795 101.12 85.5082 100.881 85.3317C100.633 85.1486 100.369 84.9247 100.339 84.6181C100.31 84.3115 100.702 84.0025 100.927 84.2137C101.478 84.7327 102.042 85.2603 102.727 85.5815C103.413 85.9027 104.253 85.9882 104.913 85.6161ZM93.1102 88.0744C90.8137 83.0824 89.8556 77.4823 90.362 72.0108C90.3707 71.9173 90.3825 71.8172 90.4443 71.7465C90.5314 71.6467 90.7102 71.6509 90.7926 71.7546C90.7632 74.7644 90.7351 77.7923 91.2264 80.7619C91.7178 83.7315 92.761 86.6694 94.6659 89C94.7227 89.0696 94.7805 89.1389 94.8384 89.2083C95.166 89.6012 95.4965 89.9975 95.6823 90.4713C94.4436 90.4474 93.628 89.1999 93.1102 88.0744ZM95.3627 65.5327C95.3203 65.4868 95.2708 65.4462 95.2134 65.4215C95.0478 65.35 94.8536 65.4233 94.7086 65.5306C94.1305 65.9585 94.1283 66.959 94.7044 67.3895C94.9854 67.1501 95.2739 66.9013 95.4386 66.5709C95.6033 66.2405 95.6133 65.8038 95.3627 65.5327ZM100.347 70.8042C100.97 71.3099 101.68 71.7083 102.436 71.9764C104.877 72.8418 107.619 72.2985 109.974 71.222C110.334 71.0576 110.793 71.1443 111.068 71.4286C109.556 72.5062 107.704 73.0985 105.847 73.0981C105.437 73.098 105.028 73.07 104.62 73.0343C103.786 72.9614 102.945 72.8544 102.16 72.5621C101.374 72.2698 100.641 71.7753 100.197 71.0651L100.347 70.8042ZM126.923 103.696C126.899 103.779 126.966 103.859 127.027 103.92L127.954 104.84C128.056 104.575 127.942 104.267 127.748 104.061C127.553 103.855 127.29 103.73 127.034 103.609C126.984 103.611 126.937 103.648 126.923 103.696Z" fill="#018A08"/>
<path fill-rule="evenodd" clip-rule="evenodd" d="M187.823 67.9013C188.959 68.295 190.029 67.2705 191.008 66.5725C192.523 65.4925 194.499 65.0842 196.318 65.4753C196.62 65.5401 196.936 65.6375 197.134 65.8737C197.316 66.0896 197.368 66.3841 197.397 66.6648C197.576 68.3829 197.146 70.1584 196.202 71.6045C195.742 72.3081 195.166 72.9345 194.755 73.6675C194.344 74.4005 194.109 75.296 194.402 76.0837C196.143 80.767 195.418 86.2908 192.529 90.3665C189.639 94.4423 184.666 96.9537 179.67 96.8603C177.115 96.8125 174.612 96.1307 172.205 95.2731C171.155 94.899 170.001 94.4885 168.958 94.8836C167.056 95.6045 165.053 96.0597 163.026 96.2319C162.523 96.2747 161.998 96.2966 161.533 96.0981C160.839 95.8008 160.419 95.0475 160.34 94.296C160.26 93.5446 160.468 92.7924 160.73 92.0838C161.521 89.9462 163.979 86.607 165.466 85.8377C165.346 83.242 165.359 80.6158 165.92 78.0785C166.482 75.5413 167.627 73.0793 169.506 71.2841C170.282 70.5426 171.17 69.9254 172.1 69.3898C176.805 66.6811 182.694 66.1235 187.823 67.9013ZM180.658 67.6905C177.061 67.7747 173.559 69.2199 170.746 71.4651C169.921 72.1243 169.145 72.8567 168.525 73.7124C168.036 74.387 167.65 75.1313 167.327 75.8991C165.412 80.455 165.849 85.9289 168.463 90.1229C168.52 90.2143 168.586 90.3112 168.687 90.3468C168.813 90.3906 168.948 90.3267 169.065 90.2642C177.277 85.8881 184.586 79.8273 190.407 72.5677C190.546 72.3948 190.691 72.194 190.662 71.9744C190.639 71.8097 190.522 71.6759 190.407 71.5556C187.923 68.9515 184.256 67.6063 180.658 67.6905ZM185.688 94.8878C189.588 93.0567 192.551 89.4383 193.818 85.32C194.105 84.3874 194.311 83.4234 194.331 82.4479C194.348 81.6276 194.234 80.8109 194.119 79.9983C193.954 78.8203 193.788 77.6424 193.623 76.4644C193.579 76.1521 193.278 75.7398 193.058 75.966C186.956 82.2463 180.292 87.9811 173.172 93.0796C172.935 93.2493 172.675 93.4591 172.662 93.7502C172.647 94.0872 172.969 94.3316 173.261 94.5001C176.993 96.6525 181.788 96.7189 185.688 94.8878ZM161.63 94.4083C161.914 94.8634 162.529 94.9567 163.065 94.9715C165.877 95.0493 168.66 94.2251 171.177 92.9664C173.693 91.7077 175.971 90.024 178.184 88.2868C181.136 85.9698 184 83.5415 186.791 81.0329C190.248 77.926 193.644 74.6306 195.914 70.5746C196.353 69.7901 196.758 68.9298 196.689 68.0334C196.621 67.137 195.906 66.232 195.007 66.267C193.101 66.3414 191.227 67.0744 189.776 68.3129C189.487 68.5592 189.691 69.0836 190.046 69.2169C190.401 69.3502 190.797 69.2177 191.144 69.0645C191.491 68.9113 191.853 68.7321 192.23 68.7741C192.806 68.8381 193.215 69.4279 193.249 70.0065C193.284 70.5851 193.028 71.1412 192.726 71.6362C192.168 72.5524 191.44 73.351 190.703 74.1311C184.158 81.0652 176.608 87.0491 168.363 91.8374C167.62 92.2686 166.869 92.6917 166.069 93.0058C165.65 93.1706 165.17 93.3029 164.761 93.1145C164.09 92.8055 164.036 91.8636 164.237 91.1531C164.539 90.0861 165.192 89.1216 166.071 88.4447C165.904 87.976 165.738 87.5073 165.572 87.0386C163.403 88.4235 161.882 90.779 161.511 93.3248C161.458 93.6922 161.433 94.0933 161.63 94.4083ZM167.795 91.1919C167.81 91.1435 167.782 91.0932 167.755 91.0502C167.475 90.6052 167.195 90.1602 166.915 89.7152C166.788 89.5138 166.543 89.2858 166.353 89.4289C165.668 89.9445 165.178 90.7125 164.999 91.5506C164.963 91.716 164.943 91.9006 165.033 92.0438C165.2 92.3102 165.601 92.2508 165.897 92.1447C166.528 91.9184 167.137 91.6275 167.709 91.2779C167.744 91.2563 167.782 91.2313 167.795 91.1919ZM192.16 70.0078C192.132 69.8922 191.994 69.842 191.875 69.8368C191.514 69.8211 191.137 70.1178 191.16 70.4783C191.183 70.8388 191.719 71.0658 191.943 70.7823C192.01 70.6967 192.039 70.5876 192.066 70.482C192.092 70.3773 192.119 70.2726 192.146 70.1679C192.159 70.1154 192.173 70.0604 192.16 70.0078Z" fill="#018A08"/>
<defs>
<linearGradient id="paint0_linear_5661_300382" x1="105.984" y1="85.7052" x2="107.548" y2="87.0162" gradientUnits="userSpaceOnUse">
<stop stop-color="#EF6795"/>
<stop offset="0.32" stop-color="#ED2A65"/>
<stop offset="0.7" stop-color="#AC1D40"/>
<stop offset="1" stop-color="#83161E"/>
</linearGradient>
<linearGradient id="paint1_linear_5661_300382" x1="97.5632" y1="83.337" x2="99.0999" y2="84.6065" gradientUnits="userSpaceOnUse">
<stop stop-color="#EF6795"/>
<stop offset="0.32" stop-color="#ED2A65"/>
<stop offset="0.7" stop-color="#AC1D40"/>
<stop offset="1" stop-color="#83161E"/>
</linearGradient>
</defs>
</svg>
