<svg width="24" height="24" viewBox="0 0 24 24" fill="none" xmlns="http://www.w3.org/2000/svg">
<g id="Monotone/53 activity biking">
<circle id="Vector" cx="15" cy="3" r="1.25" fill="#018A08" stroke="#018A08" stroke-width="1.5" stroke-linecap="round" stroke-linejoin="round"/>
<path id="Vector_2" d="M11.9998 5.75C12.394 5.75 12.7273 5.86906 13.1072 6.16699L14.9695 8.03027C15.7046 8.7654 16.6293 9.33538 17.739 9.5957L17.9636 9.64355C18.0864 9.66719 18.1926 9.728 18.2615 9.80078C18.3268 9.86987 18.3503 9.938 18.3503 10C18.3503 10.0724 18.3207 10.1296 18.2869 10.1621C18.2721 10.1764 18.2574 10.1846 18.2429 10.1895L18.198 10.1934C16.8201 10.016 15.6632 9.42987 14.7166 8.5498L14.53 8.37012L13.7302 7.56934C13.4555 7.29483 13.0208 7.27806 12.7263 7.51855L12.6697 7.56934L10.2693 9.96973C9.98122 10.258 9.97593 10.724 10.2576 11.0186L11.4666 12.2822C11.9692 12.8078 12.2498 13.5071 12.2498 14.2344V18C12.2498 18.1381 12.1378 18.25 11.9998 18.25C11.8618 18.2499 11.7498 18.138 11.7498 18V14.7275C11.7498 14.1339 11.5259 13.5649 11.1277 13.1328L10.947 12.957L8.2937 10.6357L8.24976 10.5996L8.19214 10.5498C8.05974 10.4189 7.94995 10.186 7.94995 9.7998C7.95 9.54189 8.03905 9.2715 8.23804 9.03125L8.32983 8.93066L11.1306 6.12988L11.2 6.0498C11.3175 5.89315 11.5586 5.75004 11.9998 5.75Z" fill="#018A08" stroke="#018A08" stroke-width="1.5" stroke-linecap="round" stroke-linejoin="round"/>
<rect id="Vector_3" x="14.75" y="12.75" width="7.5" height="7.5" rx="3.75" stroke="#018A08" stroke-width="1.5" stroke-linecap="round" stroke-linejoin="round"/>
<rect id="Vector_4" x="1.75" y="12.75" width="7.5" height="7.5" rx="3.75" stroke="#018A08" stroke-width="1.5" stroke-linecap="round" stroke-linejoin="round"/>
</g>
</svg>
