<svg width="18" height="18" viewBox="0 0 18 18" fill="none" xmlns="http://www.w3.org/2000/svg">
<g id="vuesax/bold/camera">
<g id="camera">
<path id="Vector" d="M13.5001 4.5C13.0426 4.5 12.6226 4.2375 12.4126 3.8325L11.8726 2.745C11.5276 2.0625 10.6276 1.5 9.86263 1.5H8.14513C7.37263 1.5 6.47263 2.0625 6.12763 2.745L5.58763 3.8325C5.37763 4.2375 4.95763 4.5 4.50013 4.5C2.87263 4.5 1.58263 5.8725 1.68763 7.4925L2.07763 13.6875C2.16763 15.2325 3.00013 16.5 5.07013 16.5H12.9301C15.0001 16.5 15.8251 15.2325 15.9226 13.6875L16.3126 7.4925C16.4176 5.8725 15.1276 4.5 13.5001 4.5ZM7.87513 5.4375H10.1251C10.4326 5.4375 10.6876 5.6925 10.6876 6C10.6876 6.3075 10.4326 6.5625 10.1251 6.5625H7.87513C7.56763 6.5625 7.31263 6.3075 7.31263 6C7.31263 5.6925 7.56763 5.4375 7.87513 5.4375ZM9.00013 13.59C7.60513 13.59 6.46513 12.4575 6.46513 11.055C6.46513 9.6525 7.59763 8.52 9.00013 8.52C10.4026 8.52 11.5351 9.6525 11.5351 11.055C11.5351 12.4575 10.3951 13.59 9.00013 13.59Z" fill="white"/>
</g>
</g>
</svg>
