<svg width="57" height="57" viewBox="0 0 57 57" fill="none" xmlns="http://www.w3.org/2000/svg">
<rect opacity="0.08" x="0.5" y="0.375" width="56" height="56" rx="28" fill="#018A08"/>
<rect opacity="0.08" x="3.7793" y="3.65332" width="49.4439" height="49.4439" rx="24.722" fill="#018A08"/>
<rect opacity="0.16" x="7.4668" y="7.47754" width="41.7951" height="41.7951" rx="20.8976" fill="#018A08"/>
<rect x="12.5" y="12.375" width="32" height="32" rx="16" fill="#018A08" fill-opacity="0.48"/>
<path d="M24.0587 30.042H21.8337C20.917 30.042 20.167 30.792 20.167 31.7087V35.8753C20.167 36.3337 20.542 36.7087 21.0003 36.7087H24.0587C24.517 36.7087 24.892 36.3337 24.892 35.8753V30.8753C24.892 30.417 24.517 30.042 24.0587 30.042Z" fill="white"/>
<path d="M29.6085 26.708H27.3835C26.4668 26.708 25.7168 27.458 25.7168 28.3747V35.8747C25.7168 36.333 26.0918 36.708 26.5501 36.708H30.4418C30.9001 36.708 31.2751 36.333 31.2751 35.8747V28.3747C31.2751 27.458 30.5335 26.708 29.6085 26.708Z" fill="white"/>
<path d="M35.1667 32.542H32.9417C32.4834 32.542 32.1084 32.917 32.1084 33.3753V35.8753C32.1084 36.3337 32.4834 36.7087 32.9417 36.7087H36.0001C36.4584 36.7087 36.8334 36.3337 36.8334 35.8753V34.2087C36.8334 33.292 36.0834 32.542 35.1667 32.542Z" fill="white"/>
<path d="M31.0079 22.4167C31.2662 22.1584 31.3662 21.8501 31.2829 21.5834C31.1995 21.3167 30.9412 21.1251 30.5745 21.0667L29.7745 20.9334C29.7412 20.9334 29.6662 20.8751 29.6495 20.8417L29.2079 19.9584C28.8745 19.2834 28.1162 19.2834 27.7829 19.9584L27.3412 20.8417C27.3329 20.8751 27.2579 20.9334 27.2245 20.9334L26.4245 21.0667C26.0579 21.1251 25.8079 21.3167 25.7162 21.5834C25.6329 21.8501 25.7329 22.1584 25.9912 22.4167L26.6079 23.0417C26.6412 23.0667 26.6662 23.1667 26.6579 23.2001L26.4829 23.9667C26.3495 24.5417 26.5662 24.8001 26.7079 24.9001C26.8495 25.0001 27.1579 25.1334 27.6662 24.8334L28.4162 24.3917C28.4495 24.3667 28.5579 24.3667 28.5912 24.3917L29.3329 24.8334C29.5662 24.9751 29.7579 25.0167 29.9079 25.0167C30.0829 25.0167 30.2079 24.9501 30.2829 24.9001C30.4245 24.8001 30.6412 24.5417 30.5079 23.9667L30.3329 23.2001C30.3245 23.1584 30.3495 23.0667 30.3829 23.0417L31.0079 22.4167Z" fill="white"/>
</svg>
