<svg width="57" height="57" viewBox="0 0 57 57" fill="none" xmlns="http://www.w3.org/2000/svg">
<rect opacity="0.08" x="0.5" y="0.375" width="56" height="56" rx="28" fill="#018A08"/>
<rect opacity="0.08" x="3.7793" y="3.65332" width="49.4439" height="49.4439" rx="24.722" fill="#018A08"/>
<rect opacity="0.16" x="7.4668" y="7.47754" width="41.7951" height="41.7951" rx="20.8976" fill="#018A08"/>
<rect x="12.5" y="12.375" width="32" height="32" rx="16" fill="#018A08" fill-opacity="0.48"/>
<path d="M25.8333 22.0785C26.6618 22.0785 27.3333 21.4069 27.3333 20.5785V20.0423C27.3333 19.8582 27.4826 19.709 27.6667 19.709C27.8508 19.709 28 19.8582 28 20.0423V36.709C28 36.8931 27.8508 37.0423 27.6667 37.0423C27.4826 37.0423 27.3333 36.8931 27.3333 36.709V35.9121C27.3333 35.0837 26.6618 34.4121 25.8333 34.4121H22.4958C21.9318 34.4121 21.5 33.9473 21.5 33.2235V23.2621C21.5 22.5435 21.934 22.0785 22.5024 22.0785H25.8333ZM31 22.0954H34.3333C34.9739 22.0954 35.5 22.6216 35.5 23.2621V33.2235C35.5 33.864 34.9739 34.3901 34.3333 34.3901H31C30.8159 34.3901 30.6667 34.2409 30.6667 34.0568C30.6667 33.8727 30.8159 33.7235 31 33.7235H33.3333C34.1618 33.7235 34.8333 33.0519 34.8333 32.2235V24.2621C34.8333 23.4337 34.1618 22.7621 33.3333 22.7621H31C30.8159 22.7621 30.6667 22.6128 30.6667 22.4287C30.6667 22.2447 30.8159 22.0954 31 22.0954Z" fill="white" stroke="white"/>
</svg>
