<svg width="18" height="18" viewBox="0 0 18 18" fill="none" xmlns="http://www.w3.org/2000/svg">
<g id="end icon">
<path id="Vector" d="M7.5 1.88253C7.5 2.43482 7.05228 2.88253 6.5 2.88253H3.60219C2.77719 2.88253 2.25 3.57278 2.25 4.39778L2.25 13.363C2.25 14.188 2.77119 14.8828 3.59619 14.8828H6.5C7.05228 14.8828 7.5 15.3305 7.5 15.8828V16.5C7.5 16.9142 7.83579 17.25 8.25 17.25C8.66421 17.25 9 16.9142 9 16.5V1.5C9 1.08579 8.66421 0.75 8.25 0.75C7.83579 0.75 7.5 1.08579 7.5 1.5V1.88253ZM14.25 2.89778H11.25C10.8358 2.89778 10.5 3.23357 10.5 3.64778C10.5 4.062 10.8358 4.39778 11.25 4.39778H13.25C13.8023 4.39778 14.25 4.8455 14.25 5.39778V12.363C14.25 12.9153 13.8023 13.363 13.25 13.363H11.25C10.8358 13.363 10.5 13.6988 10.5 14.113C10.5 14.5272 10.8358 14.863 11.25 14.863H14.25C15.075 14.863 15.75 14.188 15.75 13.363V4.39778C15.75 3.57278 15.075 2.89778 14.25 2.89778Z" fill="#018A08"/>
</g>
</svg>
