<svg width="30" height="30" viewBox="0 0 30 30" fill="none" xmlns="http://www.w3.org/2000/svg">
<rect width="30" height="30" rx="15" fill="#018A08"/>
<path d="M15 15C17.0711 15 18.75 13.3211 18.75 11.25C18.75 9.17893 17.0711 7.5 15 7.5C12.9289 7.5 11.25 9.17893 11.25 11.25C11.25 13.3211 12.9289 15 15 15Z" stroke="#F9FAFB" stroke-width="1.5" stroke-linecap="round" stroke-linejoin="round"/>
<path d="M20.4073 17.8048L17.7523 20.4598C17.6473 20.5648 17.5498 20.7598 17.5273 20.9023L17.3848 21.9148C17.3323 22.2823 17.5873 22.5373 17.9548 22.4848L18.9673 22.3423C19.1098 22.3198 19.3123 22.2223 19.4098 22.1173L22.0648 19.4623C22.5223 19.0048 22.7398 18.4723 22.0648 17.7973C21.3973 17.1298 20.8648 17.3473 20.4073 17.8048Z" stroke="#F9FAFB" stroke-width="1.5" stroke-miterlimit="10" stroke-linecap="round" stroke-linejoin="round"/>
<path d="M20.0244 18.1875C20.2494 18.9975 20.8794 19.6275 21.6894 19.8525" stroke="#F9FAFB" stroke-width="1.5" stroke-miterlimit="10" stroke-linecap="round" stroke-linejoin="round"/>
<path d="M8.55762 22.5C8.55762 19.5975 11.4451 17.25 15.0001 17.25C15.7801 17.25 16.5301 17.3625 17.2276 17.5725" stroke="#F9FAFB" stroke-width="1.5" stroke-linecap="round" stroke-linejoin="round"/>
</svg>
