<svg width="56" height="57" viewBox="0 0 56 57" fill="none" xmlns="http://www.w3.org/2000/svg">
<rect opacity="0.08" y="0.375" width="56" height="56" rx="28" fill="#25A749"/>
<rect opacity="0.08" x="3.2793" y="3.65332" width="49.4439" height="49.4439" rx="24.722" fill="#25A749"/>
<rect opacity="0.16" x="6.9668" y="7.47754" width="41.7951" height="41.7951" rx="20.8976" fill="#25A749"/>
<path fill-rule="evenodd" clip-rule="evenodd" d="M28.0723 46.8301C38.0134 46.8301 46.0723 38.7712 46.0723 28.8301C46.0723 18.889 38.0134 10.8301 28.0723 10.8301C18.1311 10.8301 10.0723 18.889 10.0723 28.8301C10.0723 38.7712 18.1311 46.8301 28.0723 46.8301ZM21.4865 21.4159C20.7054 20.6348 19.4391 20.6348 18.6581 21.4159L16.6581 23.4159C15.877 24.1969 15.877 25.4632 16.6581 26.2443C17.4391 27.0253 18.7054 27.0253 19.4865 26.2443L20.0723 25.6585L20.6581 26.2443C21.4391 27.0253 22.7054 27.0253 23.4865 26.2443C24.2675 25.4632 24.2675 24.1969 23.4865 23.4159L21.4865 21.4159ZM34.6581 21.4159C35.4391 20.6348 36.7054 20.6348 37.4865 21.4159L39.4865 23.4159C40.2675 24.1969 40.2675 25.4632 39.4865 26.2443C38.7054 27.0253 37.4391 27.0253 36.6581 26.2443L36.0723 25.6585L35.4865 26.2443C34.7054 27.0253 33.4391 27.0253 32.6581 26.2443C31.877 25.4632 31.877 24.1969 32.6581 23.4159L34.6581 21.4159ZM37.7315 31.4183C38.0174 30.3513 37.3842 29.2547 36.3173 28.9688C35.2504 28.6829 34.1537 29.3161 33.8678 30.383C33.526 31.6588 32.7727 32.7861 31.7248 33.5902C30.677 34.3943 29.3931 34.8301 28.0723 34.8301C26.7515 34.8301 25.4676 34.3943 24.4197 33.5902C23.3718 32.7861 22.6186 31.6588 22.2767 30.383C21.9908 29.3161 20.8942 28.6829 19.8272 28.9688C18.7603 29.2547 18.1271 30.3513 18.413 31.4183C18.9828 33.5446 20.2382 35.4235 21.9847 36.7636C23.7311 38.1037 25.8709 38.8301 28.0723 38.8301C30.2736 38.8301 32.4134 38.1037 34.1599 36.7636C35.9063 35.4235 37.1618 33.5446 37.7315 31.4183Z" fill="#25A749"/>
</svg>
