<svg width="24" height="24" viewBox="0 0 24 24" fill="none" xmlns="http://www.w3.org/2000/svg">
<g id="Glass of Water">
<path id="Vector" d="M5.68408 2.58398C5.83453 2.57953 6.48972 2.62446 7.49854 2.70605C8.47718 2.78522 9.72305 2.89293 10.9946 3.00195C13.5082 3.21747 16.1861 3.44329 16.9946 3.44336C17.8852 3.44336 18.4662 3.23865 18.8765 2.98438C18.9831 2.91826 19.0747 2.84917 19.146 2.79297C19.1486 2.79468 19.1513 2.79605 19.1538 2.79785L19.1929 2.83301C19.2042 2.8458 19.2147 2.85928 19.2231 2.87402L19.2446 2.92188C19.25 2.93865 19.2536 2.9562 19.2554 2.97363L19.2544 3.02637V3.02832L17.4741 19.248C17.4205 19.7318 17.2121 20.1832 16.8823 20.5361L16.7339 20.6807C16.3703 21.0042 15.9133 21.2006 15.4321 21.2422L15.2241 21.25H8.79541C8.30857 21.253 7.83574 21.0982 7.44678 20.8115L7.28564 20.6807C6.92228 20.3572 6.67483 19.9261 6.57764 19.4531L6.54541 19.248V19.2471L4.74561 3.02734V3.02637L4.74463 2.97363L4.75537 2.92188C4.76485 2.89241 4.78085 2.86579 4.80029 2.8418C4.81751 2.82855 4.84139 2.81194 4.86865 2.79395C4.89484 2.77667 4.91958 2.76116 4.93799 2.75C4.94696 2.74456 4.95413 2.73987 4.9585 2.7373L4.96338 2.73535H4.9624C5.00457 2.71117 5.04386 2.68225 5.08057 2.65039V2.65234C5.07951 2.65326 5.07769 2.65341 5.07666 2.6543C5.07454 2.65611 5.07282 2.65847 5.0708 2.66016C5.06681 2.66348 5.06266 2.6661 5.05908 2.66895C5.05196 2.6746 5.04585 2.67976 5.04053 2.68359C5.02987 2.69127 5.02316 2.696 5.021 2.69727C5.02468 2.69531 5.04085 2.68623 5.07275 2.6748C5.1342 2.65281 5.25593 2.61878 5.45654 2.59863L5.68408 2.58398Z" stroke="#018A08" stroke-width="1.5" stroke-linejoin="round"/>
</g>
</svg>
