<svg width="140" height="140" viewBox="0 0 140 140" fill="none" xmlns="http://www.w3.org/2000/svg">
<rect opacity="0.08" width="140" height="140" rx="70" fill="#25A749"/>
<rect opacity="0.08" x="8.19824" y="8.19531" width="123.61" height="123.61" rx="61.8049" fill="#25A749"/>
<rect opacity="0.16" x="17.417" y="17.7559" width="104.488" height="104.488" rx="52.2439" fill="#25A749"/>
<path fill-rule="evenodd" clip-rule="evenodd" d="M70.1807 116.139C95.0335 116.139 115.181 95.9915 115.181 71.1387C115.181 46.2859 95.0335 26.1387 70.1807 26.1387C45.3279 26.1387 25.1807 46.2859 25.1807 71.1387C25.1807 95.9915 45.3279 116.139 70.1807 116.139ZM53.7162 52.6031C51.7636 50.6505 48.5978 50.6505 46.6451 52.6031L41.6451 57.6031C39.6925 59.5558 39.6925 62.7216 41.6451 64.6742C43.5978 66.6268 46.7636 66.6268 48.7162 64.6742L50.1807 63.2097L51.6451 64.6742C53.5978 66.6268 56.7636 66.6268 58.7162 64.6742C60.6688 62.7216 60.6688 59.5558 58.7162 57.6031L53.7162 52.6031ZM86.6451 52.6031C88.5978 50.6505 91.7636 50.6505 93.7162 52.6031L98.7162 57.6031C100.669 59.5558 100.669 62.7216 98.7162 64.6742C96.7636 66.6268 93.5977 66.6268 91.6451 64.6742L90.1807 63.2097L88.7162 64.6742C86.7636 66.6268 83.5978 66.6268 81.6451 64.6742C79.6925 62.7216 79.6925 59.5558 81.6451 57.6031L86.6451 52.6031ZM94.3288 77.6091C95.0435 74.9418 93.4606 72.2001 90.7933 71.4854C88.1259 70.7707 85.3843 72.3536 84.6696 75.021C83.8149 78.2105 81.9317 81.0288 79.3121 83.039C76.6924 85.0491 73.4827 86.1387 70.1807 86.1387C66.8787 86.1387 63.6689 85.0491 61.0492 83.039C58.4296 81.0288 56.5464 78.2105 55.6918 75.021C54.9771 72.3536 52.2354 70.7707 49.5681 71.4854C46.9007 72.2001 45.3178 74.9418 46.0325 77.6092C47.4569 82.925 50.5955 87.6223 54.9616 90.9725C59.3277 94.3227 64.6773 96.1387 70.1807 96.1387C75.684 96.1387 81.0336 94.3227 85.3997 90.9725C89.7658 87.6223 92.9044 82.925 94.3288 77.6091Z" fill="#25A749"/>
</svg>
