<svg width="40" height="40" viewBox="0 0 40 40" fill="none" xmlns="http://www.w3.org/2000/svg">
<path d="M36.5002 20C36.5002 19.8166 36.4002 19.6333 36.3502 19.45C36.273 19.1265 36.1728 18.8091 36.0502 18.5C35.9668 18.3 35.8502 18.1 35.7502 17.8833C35.6502 17.6666 35.5002 17.3833 35.3502 17.15C35.2002 16.9166 35.0002 16.8 35.0002 16.6666C35.0002 16.5333 34.6668 16.25 34.4835 16.05C34.3002 15.85 34.1335 15.7166 33.9502 15.55L33.3335 15L32.7335 14.6C32.498 14.4558 32.253 14.3278 32.0002 14.2166L31.3502 13.9166C31.0779 13.8158 30.7996 13.7323 30.5168 13.6666C30.2928 13.6007 30.0645 13.5506 29.8335 13.5166L29.4502 13.3333C28.7701 11.3684 27.4945 9.66433 25.8007 8.45824C24.107 7.25214 22.0794 6.604 20.0002 6.604C17.9209 6.604 15.8933 7.25214 14.1996 8.45824C12.5059 9.66433 11.2302 11.3684 10.5502 13.3333L10.2502 13.4166C10.0192 13.4506 9.79083 13.5007 9.56683 13.5666C9.28406 13.6323 9.00572 13.7158 8.7335 13.8166L8.0835 14.1166C7.8307 14.2278 7.5857 14.3558 7.35016 14.5L6.75016 15L6.1335 15.5166C5.95016 15.6833 5.76683 15.8333 5.60016 16.0166C5.4335 16.2 5.25016 16.4333 5.0835 16.6333C4.91683 16.8333 4.7835 17.0166 4.65016 17.2333C4.51683 17.45 4.3835 17.7166 4.25016 17.9666C4.11683 18.2166 4.0335 18.3833 3.95016 18.5833C3.82757 18.8924 3.72731 19.2099 3.65016 19.5333C3.65016 19.7166 3.5335 19.9 3.50016 20.0833C3.39642 20.6049 3.34064 21.1349 3.3335 21.6666C3.34131 22.1755 3.39148 22.6828 3.4835 23.1833C3.4835 23.35 3.56683 23.5 3.60016 23.6666C3.68254 23.9941 3.78269 24.3168 3.90016 24.6333L4.10016 25.1166C4.24688 25.438 4.41388 25.7498 4.60016 26.05L4.8335 26.4166C4.85747 26.4633 4.88535 26.5079 4.91683 26.55L5.00016 26.6666C5.77639 27.7016 6.78292 28.5416 7.94005 29.1202C9.09718 29.6988 10.3731 30 11.6668 30H16.6668V27.7166C16.1604 28.0104 15.5856 28.1656 15.0002 28.1666C14.0973 28.1582 13.2344 27.7927 12.6002 27.15C12.2956 26.8349 12.0562 26.463 11.8956 26.0554C11.735 25.6477 11.6563 25.2124 11.664 24.7744C11.6717 24.3363 11.7658 23.904 11.9407 23.5023C12.1156 23.1006 12.368 22.7374 12.6835 22.4333L17.6835 17.6C18.3056 17.0004 19.1362 16.6657 20.0002 16.6666C20.8828 16.6704 21.7279 17.024 22.3502 17.65L27.3502 22.65C27.971 23.2745 28.3195 24.1193 28.3195 25C28.3195 25.8806 27.971 26.7254 27.3502 27.35C26.7279 27.9759 25.8828 28.3296 25.0002 28.3333C24.4139 28.3388 23.8373 28.1832 23.3335 27.8833V30H28.3335C29.6272 30 30.9032 29.6988 32.0603 29.1202C33.2174 28.5416 34.2239 27.7016 35.0002 26.6666L35.0835 26.5833C35.115 26.5413 35.1429 26.4967 35.1668 26.45L35.4002 26.0833C35.5865 25.7831 35.7535 25.4714 35.9002 25.15L36.1002 24.6666C36.2176 24.3501 36.3178 24.0274 36.4002 23.7C36.4002 23.5333 36.4835 23.3833 36.5168 23.2166C36.6107 22.7052 36.6609 22.1866 36.6668 21.6666C36.6649 21.107 36.6091 20.5489 36.5002 20Z" fill="#018A08"/>
<path d="M21.1835 18.8166C20.872 18.5113 20.4531 18.3402 20.0168 18.3402C19.5806 18.3402 19.1617 18.5113 18.8502 18.8166L13.8502 23.65C13.6733 23.7959 13.5285 23.9767 13.4247 24.1812C13.3209 24.3857 13.2605 24.6093 13.2471 24.8382C13.2337 25.0671 13.2677 25.2963 13.3469 25.5115C13.4262 25.7266 13.549 25.9231 13.7076 26.0887C13.8663 26.2542 14.0573 26.3852 14.2689 26.4736C14.4805 26.5619 14.7081 26.6056 14.9373 26.6019C15.1666 26.5983 15.3926 26.5474 15.6013 26.4524C15.81 26.3575 15.9968 26.2204 16.1502 26.05L18.3335 23.9333V33.3333C18.3335 33.7753 18.5091 34.1993 18.8217 34.5118C19.1342 34.8244 19.5581 35 20.0002 35C20.4422 35 20.8661 34.8244 21.1787 34.5118C21.4912 34.1993 21.6668 33.7753 21.6668 33.3333V24.0166L23.8168 26.1833C23.9718 26.3395 24.1561 26.4635 24.3592 26.5481C24.5623 26.6327 24.7801 26.6763 25.0002 26.6763C25.2202 26.6763 25.438 26.6327 25.6411 26.5481C25.8442 26.4635 26.0286 26.3395 26.1835 26.1833C26.3397 26.0284 26.4637 25.844 26.5483 25.6409C26.6329 25.4378 26.6765 25.22 26.6765 25C26.6765 24.7799 26.6329 24.5621 26.5483 24.359C26.4637 24.1559 26.3397 23.9716 26.1835 23.8166L21.1835 18.8166Z" fill="#018A08"/>
</svg>
