<svg width="140" height="140" viewBox="0 0 140 140" fill="none" xmlns="http://www.w3.org/2000/svg">
<rect opacity="0.08" width="140" height="140" rx="70" fill="#4BD872"/>
<rect opacity="0.08" x="8.19824" y="8.19531" width="123.61" height="123.61" rx="61.8049" fill="#4BD872"/>
<rect opacity="0.16" x="17.417" y="17.7559" width="104.488" height="104.488" rx="52.2439" fill="#4BD872"/>
<path fill-rule="evenodd" clip-rule="evenodd" d="M71.1035 115.452C95.9563 115.452 116.104 95.305 116.104 70.4521C116.104 45.5993 95.9563 25.4521 71.1035 25.4521C46.2507 25.4521 26.1035 45.5993 26.1035 70.4521C26.1035 95.305 46.2507 115.452 71.1035 115.452ZM58.1131 77.9521C56.7324 75.5607 53.6745 74.7413 51.283 76.122C48.8915 77.5027 48.0722 80.5607 49.4529 82.9521C51.6471 86.7526 54.803 89.9086 58.6035 92.1028C62.404 94.297 66.7151 95.4521 71.1035 95.4521C75.4919 95.4521 79.803 94.297 83.6035 92.1028C87.404 89.9086 90.5599 86.7526 92.7542 82.9521C94.1349 80.5607 93.3155 77.5027 90.924 76.122C88.5326 74.7413 85.4746 75.5607 84.0939 77.9521C82.7774 80.2324 80.8838 82.126 78.6035 83.4425C76.3232 84.7591 73.7366 85.4521 71.1035 85.4521C68.4705 85.4521 65.8838 84.7591 63.6035 83.4425C61.3232 82.126 59.4297 80.2324 58.1131 77.9521ZM96.1035 57.9521C96.1035 62.0943 92.7457 65.4521 88.6035 65.4521C84.4614 65.4521 81.1035 62.0943 81.1035 57.9521C81.1035 53.81 84.4614 50.4521 88.6035 50.4521C92.7457 50.4521 96.1035 53.81 96.1035 57.9521ZM53.6035 65.4521C57.7457 65.4521 61.1035 62.0943 61.1035 57.9521C61.1035 53.81 57.7457 50.4521 53.6035 50.4521C49.4614 50.4521 46.1035 53.81 46.1035 57.9521C46.1035 62.0943 49.4614 65.4521 53.6035 65.4521Z" fill="#4BD872"/>
</svg>
