<svg width="23" height="22" viewBox="0 0 23 22" fill="none" xmlns="http://www.w3.org/2000/svg">
<g id="olives">
<path id="Vector" d="M6.72499 20.6751C9.74875 20.6751 12.2 18.2238 12.2 15.2001C12.2 12.1763 9.74875 9.7251 6.72499 9.7251C3.70123 9.7251 1.25 12.1763 1.25 15.2001C1.25 18.2238 3.70123 20.6751 6.72499 20.6751Z" stroke="black" stroke-width="1.5" stroke-linecap="round" stroke-linejoin="round"/>
<path id="Vector_2" d="M14 10.1001C14.6226 9.86045 15.2829 9.73347 15.95 9.7251C17.402 9.7251 18.7946 10.3019 19.8214 11.3287C20.8481 12.3555 21.425 13.748 21.425 15.2001C21.425 16.6521 20.8481 18.0447 19.8214 19.0715C18.7946 20.0982 17.402 20.6751 15.95 20.6751C15.3149 20.6541 14.6849 20.5534 14.075 20.3751" stroke="black" stroke-width="1.5" stroke-linecap="round" stroke-linejoin="round"/>
<path id="Vector_3" d="M5.8999 6.64999C5.91962 5.21096 6.50514 3.83757 7.52977 2.82697C8.5544 1.81638 9.93578 1.24986 11.3749 1.25C12.8071 1.25 14.1806 1.81892 15.1933 2.83162C16.206 3.84432 16.7749 5.21782 16.7749 6.64999" stroke="black" stroke-width="1.5" stroke-linecap="round" stroke-linejoin="round"/>
<path id="Vector_4" d="M5.90007 15.4252C6.68708 15.4252 7.32509 14.7872 7.32509 14.0002C7.32509 13.2132 6.68708 12.5752 5.90007 12.5752C5.11306 12.5752 4.4751 13.2132 4.4751 14.0002C4.4751 14.7872 5.11306 15.4252 5.90007 15.4252Z" stroke="black" stroke-width="1.5" stroke-linecap="round" stroke-linejoin="round"/>
<path id="Vector_5" d="M17.0749 16.85C17.8619 16.85 18.4999 16.212 18.4999 15.425C18.4999 14.638 17.8619 14 17.0749 14C16.2879 14 15.6499 14.638 15.6499 15.425C15.6499 16.212 16.2879 16.85 17.0749 16.85Z" stroke="black" stroke-width="1.5" stroke-linecap="round" stroke-linejoin="round"/>
<path id="Vector_6" d="M11.3752 6.49992C12.1622 6.49992 12.8002 5.8619 12.8002 5.0749C12.8002 4.28789 12.1622 3.6499 11.3752 3.6499C10.5882 3.6499 9.9502 4.28789 9.9502 5.0749C9.9502 5.8619 10.5882 6.49992 11.3752 6.49992Z" stroke="black" stroke-width="1.5" stroke-linecap="round" stroke-linejoin="round"/>
</g>
</svg>
