<svg width="140" height="140" viewBox="0 0 140 140" fill="none" xmlns="http://www.w3.org/2000/svg">
<rect opacity="0.08" width="140" height="140" rx="70" fill="#F5AE32"/>
<rect opacity="0.08" x="8.19824" y="8.19531" width="123.61" height="123.61" rx="61.8049" fill="#F5AE32"/>
<rect opacity="0.16" x="17.417" y="17.7559" width="104.488" height="104.488" rx="52.2439" fill="#F5AE32"/>
<path fill-rule="evenodd" clip-rule="evenodd" d="M71.1035 115.451C95.9563 115.451 116.104 95.304 116.104 70.4512C116.104 45.5984 95.9563 25.4512 71.1035 25.4512C46.2507 25.4512 26.1035 45.5984 26.1035 70.4512C26.1035 95.304 46.2507 115.451 71.1035 115.451ZM88.6035 65.4512C92.7457 65.4512 96.1035 62.0933 96.1035 57.9512C96.1035 53.809 92.7457 50.4512 88.6035 50.4512C84.4614 50.4512 81.1035 53.809 81.1035 57.9512C81.1035 62.0933 84.4614 65.4512 88.6035 65.4512ZM61.1035 57.9512C61.1035 62.0933 57.7457 65.4512 53.6035 65.4512C49.4614 65.4512 46.1035 62.0933 46.1035 57.9512C46.1035 53.809 49.4614 50.4512 53.6035 50.4512C57.7457 50.4512 61.1035 53.809 61.1035 57.9512ZM56.1035 80.4512C53.3421 80.4512 51.1035 82.6897 51.1035 85.4512C51.1035 88.2126 53.3421 90.4512 56.1035 90.4512H86.1035C88.8649 90.4512 91.1035 88.2126 91.1035 85.4512C91.1035 82.6897 88.8649 80.4512 86.1035 80.4512H56.1035Z" fill="#F5AE32"/>
</svg>
