<svg width="140" height="140" viewBox="0 0 140 140" fill="none" xmlns="http://www.w3.org/2000/svg">
<rect opacity="0.08" width="140" height="140" rx="70" fill="#F2506E"/>
<rect opacity="0.08" x="8.19824" y="8.19531" width="123.61" height="123.61" rx="61.8049" fill="#F2506E"/>
<rect opacity="0.16" x="17.417" y="17.7559" width="104.488" height="104.488" rx="52.2439" fill="#F2506E"/>
<path fill-rule="evenodd" clip-rule="evenodd" d="M70.9229 115.451C95.7757 115.451 115.923 95.304 115.923 70.4512C115.923 45.5984 95.7757 25.4512 70.9229 25.4512C46.07 25.4512 25.9229 45.5984 25.9229 70.4512C25.9229 95.304 46.07 115.451 70.9229 115.451ZM88.4229 65.4512C92.565 65.4512 95.9229 62.0933 95.9229 57.9512C95.9229 53.809 92.565 50.4512 88.4229 50.4512C84.2807 50.4512 80.9229 53.809 80.9229 57.9512C80.9229 62.0933 84.2807 65.4512 88.4229 65.4512ZM60.9229 57.9512C60.9229 62.0933 57.565 65.4512 53.4229 65.4512C49.2807 65.4512 45.9229 62.0933 45.9229 57.9512C45.9229 53.809 49.2807 50.4512 53.4229 50.4512C57.565 50.4512 60.9229 53.809 60.9229 57.9512ZM53.6023 90.4512C52.2216 92.8426 49.1637 93.662 46.7722 92.2813C44.3808 90.9006 43.5614 87.8426 44.9421 85.4512C47.5751 80.8906 51.3623 77.1035 55.9229 74.4704C60.4834 71.8374 65.6568 70.4512 70.9229 70.4512C76.189 70.4512 81.3623 71.8374 85.9229 74.4704C90.4834 77.1035 94.2706 80.8906 96.9036 85.4512C98.2843 87.8426 97.465 90.9006 95.0735 92.2813C92.682 93.662 89.6241 92.8426 88.2434 90.4512C86.488 87.4108 83.9632 84.886 80.9229 83.1307C77.8825 81.3753 74.4336 80.4512 70.9229 80.4512C67.4121 80.4512 63.9632 81.3753 60.9229 83.1307C57.8825 84.886 55.3577 87.4108 53.6023 90.4512Z" fill="#F2506E"/>
</svg>
