<svg width="140" height="140" viewBox="0 0 140 140" fill="none" xmlns="http://www.w3.org/2000/svg">
<rect opacity="0.08" width="140" height="140" rx="70" fill="#D44661"/>
<rect opacity="0.08" x="8.19824" y="8.19531" width="123.61" height="123.61" rx="61.8049" fill="#D44661"/>
<rect opacity="0.16" x="17.417" y="17.7559" width="104.488" height="104.488" rx="52.2439" fill="#D44661"/>
<path fill-rule="evenodd" clip-rule="evenodd" d="M70.5518 115.454C95.4046 115.454 115.552 95.3069 115.552 70.4541C115.552 45.6013 95.4046 25.4541 70.5518 25.4541C45.6989 25.4541 25.5518 45.6013 25.5518 70.4541C25.5518 95.3069 45.6989 115.454 70.5518 115.454ZM49.0873 46.9186C47.1347 44.9659 43.9688 44.9659 42.0162 46.9186C40.0636 48.8712 40.0636 52.037 42.0162 53.9896L43.4807 55.4541L42.0162 56.9186C40.0636 58.8712 40.0636 62.037 42.0162 63.9896C43.9688 65.9423 47.1347 65.9423 49.0873 63.9896L50.5518 62.5252L52.0162 63.9896C53.9688 65.9423 57.1347 65.9423 59.0873 63.9896C61.0399 62.037 61.0399 58.8712 59.0873 56.9186L57.6228 55.4541L59.0873 53.9896C61.0399 52.037 61.0399 48.8712 59.0873 46.9186C57.1347 44.9659 53.9688 44.9659 52.0162 46.9186L50.5518 48.383L49.0873 46.9186ZM82.0162 46.9186C83.9688 44.9659 87.1347 44.9659 89.0873 46.9186L90.5518 48.383L92.0162 46.9186C93.9688 44.9659 97.1347 44.9659 99.0873 46.9186C101.04 48.8712 101.04 52.037 99.0873 53.9896L97.6228 55.4541L99.0873 56.9186C101.04 58.8712 101.04 62.037 99.0873 63.9896C97.1347 65.9423 93.9688 65.9423 92.0162 63.9896L90.5518 62.5252L89.0873 63.9896C87.1347 65.9423 83.9688 65.9423 82.0162 63.9896C80.0636 62.037 80.0636 58.8712 82.0162 56.9186L83.4807 55.4541L82.0162 53.9896C80.0636 52.037 80.0636 48.8712 82.0162 46.9186ZM99.5295 87.6895C100.244 90.3569 98.6613 93.0985 95.994 93.8133C93.3267 94.528 90.585 92.9451 89.8703 90.2777C88.7308 86.0251 86.2199 82.2672 82.727 79.587C79.2341 76.9069 74.9544 75.4541 70.5518 75.4541C66.1491 75.4541 61.8694 76.9068 58.3765 79.587C54.8836 82.2672 52.3727 86.0251 51.2332 90.2777C50.5185 92.9451 47.7768 94.528 45.1095 93.8133C42.4422 93.0985 40.8593 90.3569 41.574 87.6895C43.2832 81.3105 47.0496 75.6738 52.2889 71.6535C57.5282 67.6332 63.9477 65.4541 70.5518 65.4541C77.1558 65.4541 83.5753 67.6332 88.8146 71.6535C94.0539 75.6738 97.8203 81.3105 99.5295 87.6895Z" fill="#D44661"/>
</svg>
