<svg width="16" height="16" viewBox="0 0 16 16" fill="none" xmlns="http://www.w3.org/2000/svg">
<g id="vuesax/bold/star">
<g id="star">
<path id="Vector" d="M3.8269 10.6663C3.90023 10.3397 3.7669 9.87301 3.53357 9.63968L1.91356 8.01967C1.4069 7.51301 1.2069 6.97301 1.35356 6.50634C1.5069 6.03967 1.98023 5.71967 2.6869 5.59967L4.7669 5.25301C5.0669 5.19967 5.43356 4.93301 5.57356 4.65967L6.72023 2.35967C7.05357 1.69967 7.5069 1.33301 8.00023 1.33301C8.49357 1.33301 8.9469 1.69967 9.28023 2.35967L10.4269 4.65967C10.5136 4.83301 10.6936 4.99967 10.8869 5.11301L3.7069 12.293C3.61356 12.3863 3.45356 12.2997 3.48023 12.1663L3.8269 10.6663Z" fill="#018A08"/>
<path id="Vector_2" d="M12.146 12.7853L12.1463 12.7866C12.3278 13.569 12.1568 13.9142 12.0004 14.0284C11.9302 14.0787 11.8361 14.1136 11.6934 14.1136C11.4728 14.1136 11.1615 14.0291 10.7682 13.7967C10.768 13.7966 10.7679 13.7965 10.7677 13.7965L8.81534 12.637L8.81534 12.637L8.81313 12.6357C8.56417 12.4896 8.26755 12.4319 8.00003 12.4319C7.73252 12.4319 7.43589 12.4896 7.18693 12.6357L7.18693 12.6357L7.18473 12.637L5.23404 13.7955C5.23363 13.7957 5.23323 13.7959 5.23283 13.7962C4.54106 14.2009 4.16106 14.1441 4.00699 14.0337L11.8269 6.21381C12.0213 6.0194 12.2918 5.93484 12.5474 5.97948L12.5504 5.97999L13.223 6.0932C13.2231 6.09322 13.2233 6.09325 13.2234 6.09327C13.8398 6.19804 14.0922 6.44647 14.164 6.6599C14.2292 6.87251 14.1679 7.22524 13.7265 7.6667L13.7257 7.66743L12.1131 9.2867C12.113 9.2868 12.113 9.2869 12.1129 9.28699C11.9191 9.48084 11.79 9.73729 11.7194 9.98316C11.6493 10.2274 11.622 10.5136 11.6867 10.7818L12.146 12.7853Z" fill="#018A08" stroke="#018A08"/>
</g>
</g>
</svg>
