<svg width="24" height="24" viewBox="0 0 24 24" fill="none" xmlns="http://www.w3.org/2000/svg">
<g id="Food Icon">
<path id="candy" d="M18.3 3C17.8078 3.47082 17.4251 4.04401 17.1789 4.67904C16.9326 5.31408 16.8289 5.99546 16.875 6.67501C16.8591 7.26425 16.9611 7.85072 17.175 8.4L17.325 8.7C17.6504 9.51199 17.8281 10.3755 17.85 11.25C17.841 12.997 17.1398 14.6692 15.9 15.9C15.2868 16.5037 14.5603 16.9802 13.7623 17.302C12.9642 17.6237 12.1104 17.7845 11.25 17.775C10.4038 17.7851 9.56353 17.6323 8.77501 17.325L8.40001 17.175C7.88255 16.9352 7.32027 16.8074 6.75 16.8C6.04775 16.772 5.34792 16.8985 4.69994 17.1707C4.05196 17.4428 3.47164 17.8539 3 18.375L6.45 21.75C7.5 20.925 7.80001 19.275 7.80001 17.925C7.82329 17.3596 7.72083 16.796 7.5 16.275L7.35 15.9C6.98319 15.101 6.80363 14.2289 6.825 13.35C6.83396 11.603 7.5352 9.93083 8.77501 8.7C10.0225 7.49451 11.6902 6.82202 13.425 6.825C14.2799 6.80154 15.1282 6.98148 15.9 7.35L16.275 7.5C16.8077 7.67873 17.3635 7.77977 17.925 7.80001C18.6247 7.80878 19.3187 7.67347 19.9638 7.40251C20.6089 7.13155 21.1914 6.73074 21.675 6.225L18.3 3Z" stroke="black" stroke-width="1.5" stroke-linecap="round" stroke-linejoin="round"/>
</g>
</svg>
